<?xml version="1.0" encoding="UTF-8" standalone="no"?>
<!-- Created with Inkscape (http://www.inkscape.org/) -->

<svg
   xmlns:dc="http://purl.org/dc/elements/1.1/"
   xmlns:cc="http://creativecommons.org/ns#"
   xmlns:rdf="http://www.w3.org/1999/02/22-rdf-syntax-ns#"
   xmlns:svg="http://www.w3.org/2000/svg"
   xmlns="http://www.w3.org/2000/svg"
   xmlns:sodipodi="http://sodipodi.sourceforge.net/DTD/sodipodi-0.dtd"
   xmlns:inkscape="http://www.inkscape.org/namespaces/inkscape"
   width="200"
   height="200"
   id="svg2"
   version="1.1"
   inkscape:version="0.47 r22583"
   sodipodi:docname="New document 1">
  <defs
     id="defs4">
    <inkscape:perspective
       sodipodi:type="inkscape:persp3d"
       inkscape:vp_x="0 : 526.18109 : 1"
       inkscape:vp_y="0 : 1000 : 0"
       inkscape:vp_z="744.09448 : 526.18109 : 1"
       inkscape:persp3d-origin="372.04724 : 350.78739 : 1"
       id="perspective10" />
  </defs>
  <sodipodi:namedview
     id="base"
     pagecolor="#ffffff"
     bordercolor="#666666"
     borderopacity="1.0"
     inkscape:pageopacity="0.0"
     inkscape:pageshadow="2"
     inkscape:zoom="1.979899"
     inkscape:cx="197.15462"
     inkscape:cy="76.040998"
     inkscape:document-units="px"
     inkscape:current-layer="layer1"
     showgrid="false"
     inkscape:window-width="1280"
     inkscape:window-height="949"
     inkscape:window-x="0"
     inkscape:window-y="25"
     inkscape:window-maximized="1" />
  <metadata
     id="metadata7">
    <rdf:RDF>
      <cc:Work
         rdf:about="">
        <dc:format>image/svg+xml</dc:format>
        <dc:type
           rdf:resource="http://purl.org/dc/dcmitype/StillImage" />
        <dc:title></dc:title>
      </cc:Work>
    </rdf:RDF>
  </metadata>
  <g
     inkscape:label="Layer 1"
     inkscape:groupmode="layer"
     id="layer1"
     transform="translate(0,-852.36218)">
    <path
       style="fill:#d40000;stroke:#800000;stroke-width:1px;stroke-linecap:butt;stroke-linejoin:miter;stroke-opacity:1"
       d="m 36.365492,1009.4307 c -2.770442,0.172 -5.89537,-0.5841 -8.08122,1.0101 -3.734661,0.7303 -7.618841,1.4565 -10.092099,4.5363 -3.455516,4.4579 2.37016,6.0992 6.051489,6.5754 4.626126,-0.4337 8.574418,1.5942 13.018667,1.5152 2.240014,-0.01 8.147741,1.1395 4.073398,3.6325 -2.128033,2.7011 2.14721,4.8308 3.616062,4.9538 2.678068,1.4558 6.754329,1.2461 9.596449,0.5051 4.682546,-0.045 9.143658,0.7726 13.637059,1.5152 2.718669,-0.5666 4.478118,0.4731 5.182612,2.4566 2.575549,2.2656 5.802906,2.7767 9.351284,2.5942 7.445557,0 14.891111,0 22.336667,0 4.26148,1.4335 8.31452,2.9137 12.86407,2.5254 4.25639,0.2273 8.51068,-1.4361 12.64118,0.01 3.01778,1.8856 11.37676,0.2911 11.48825,0.2596 3.50505,-0.9994 6.30771,-0.1763 6.94814,-3.2961 4.10775,-0.5419 8.06744,-2.6406 8.58629,-7.071 4.50579,-2.6653 9.17216,-5.0562 14.64722,-5.5559 4.27887,-1.8133 9.45144,-2.6655 12.90458,-6.2883 2.57888,-3.8478 -4.4591,-2.585 -7.1634,-2.8031 -3.58364,-0.5203 -9.09338,-0.4599 -10.79195,-3.283 -1.68522,-4.5916 -7.26369,-2.6588 -11.19424,-2.7779 -2.69734,-0.09 -5.60749,0.3104 -8.00101,-0.4918 -4.1192,-1.2201 -7.05152,-5.7589 -11.83928,-5.5979 -5.98422,0.064 -11.97734,0.013 -17.95787,0.029 -3.83811,-1.3581 -7.9508,-1.6952 -12.12183,-3.0304 -4.0015,-0.4916 -7.909516,-1.83423 -12.121823,-1.51525 -3.768023,3.3e-4 -6.36547,2.51165 -8.08122,2.52535 -4.628203,2.1025 -9.89959,2.7263 -14.647212,1.0102 -4.030156,-1.5467 -7.562487,2.4449 -11.616754,2.5253 -3.871033,0.02 -7.74663,-0.022 -11.616755,0 -3.645685,1.7299 -7.592586,1.8156 -11.616754,3.5356 z"
       id="path2818" />
    <path
       style="fill:#ff2a2a;stroke:#d40000;stroke-width:1px;stroke-linecap:butt;stroke-linejoin:miter;stroke-opacity:1"
       d="m 20.960665,164.39212 c 0.08418,-0.33671 -0.0878,-1.07822 0.252538,-1.01015 0.528544,0.10571 0.629015,0.88155 1.010153,1.26269 0.119048,0.11905 0.354492,-0.0753 0.505076,0 0.10648,0.0532 0.146059,0.1993 0.252538,0.25254 0.150585,0.0753 0.354492,-0.0753 0.505077,0 0.106479,0.0532 0.146058,0.1993 0.252538,0.25254 0.07529,0.0376 0.168359,0 0.252538,0 0.168359,0 0.345357,-0.0532 0.505076,0 0.112939,0.0376 0.1396,0.21489 0.252538,0.25254 0.209158,0.0697 1.102091,-0.0803 1.262691,0 0.106479,0.0532 0.146059,0.19929 0.252538,0.25253 0.150585,0.0753 0.354492,-0.0753 0.505076,0 0.10648,0.0532 0.146059,0.1993 0.252539,0.25254 0.158725,0.0794 0.851426,-0.0794 1.010152,0 0.10648,0.0532 0.146059,0.1993 0.252538,0.25254 0.150585,0.0753 0.345357,-0.0532 0.505077,0 0.178571,0.0595 0.326504,0.19301 0.505076,0.25254 0.218333,0.0728 1.101995,-0.0804 1.262691,0 0.106479,0.0532 0.146058,0.1993 0.252538,0.25254 0.07686,0.0384 0.643882,0 0.757614,0 0.505076,0 1.010153,0 1.515229,0 1.515229,0 3.030458,0 4.545686,0 0.589256,0 1.178512,0 1.767767,0 0.113733,0 0.680759,-0.0384 0.757615,0 0.106479,0.0532 0.146058,0.19929 0.252538,0.25253 0.158726,0.0794 0.851427,-0.0794 1.010152,0 0.10648,0.0532 0.146059,0.1993 0.252539,0.25254 0.07529,0.0377 0.177245,-0.0376 0.252538,0 0.106479,0.0532 0.146058,0.1993 0.252538,0.25254 0.150584,0.0753 0.354491,-0.0753 0.505076,0 0.04834,0.0242 0.985982,0.96181 1.010153,1.01015 0.03765,0.0753 -0.03765,0.17725 0,0.25254 0.05324,0.10648 0.199298,0.14606 0.252538,0.25254 0.07529,0.15058 -0.07529,0.35449 0,0.50508 0.106479,0.21295 0.373005,0.30696 0.505076,0.50507 0.104412,0.15662 0.119439,0.37198 0.252538,0.50508 0.05952,0.0595 0.177246,-0.0376 0.252538,0 0.04834,0.0242 0.985982,0.96181 1.010153,1.01015 0.03765,0.0753 -0.03765,0.17725 0,0.25254 0.106479,0.21296 0.398597,0.29212 0.505076,0.50507 0.03765,0.0753 -0.03765,0.17725 0,0.25254 0.05324,0.10648 0.199299,0.14606 0.252538,0.25254 0.01076,0.0215 0.01076,0.98863 0,1.01015 -0.05324,0.10648 -0.199298,0.14606 -0.252538,0.25254 -0.07529,0.15059 0.07529,0.35449 0,0.50508 -0.05324,0.10648 -0.199298,0.14606 -0.252538,0.25254 -0.03765,0.0753 0.03765,0.17724 0,0.25253 -0.05324,0.10648 -0.199298,0.14606 -0.252538,0.25254 -0.03765,0.0753 0.03765,0.17725 0,0.25254 -0.05324,0.10648 -0.199299,0.14606 -0.252538,0.25254 -0.03765,0.0753 0,0.16836 0,0.25254 0,0.0842 0,0.16836 0,0.25254 0,0.0842 0,0.16835 0,0.25253 0,0.0842 -0.05952,0.19302 0,0.25254 0.05952,0.0595 0.177246,-0.0376 0.252538,0 0.106479,0.0532 0.146059,0.1993 0.252538,0.25254 0.07529,0.0377 0.168359,0 0.252538,0 0.08418,0 0.168359,0 0.252538,0 0.420897,0 0.841794,0 1.262691,0 1.34687,0 2.69374,0 4.04061,0 1.149626,0 0.01444,-0.11905 0.757615,0.25254 0.07529,0.0376 0.168358,0 0.252538,0 0.168358,0 0.341744,-0.0408 0.505076,0 0.182611,0.0456 0.326505,0.19301 0.505076,0.25254 0.227285,0.0758 0.53033,-0.0758 0.757615,0 0.112938,0.0376 0.146058,0.19929 0.252538,0.25253 0.153347,0.0767 1.361882,-0.0767 1.515229,0 0.106479,0.0532 0.146058,0.1993 0.252538,0.25254 0.133535,0.0668 0.887118,-0.0308 1.010152,0 0.182611,0.0456 0.322466,0.20689 0.505077,0.25254 0.163332,0.0408 0.336717,0 0.505076,0 0.168359,0 0.336717,0 0.505076,0 0.757615,0 1.515229,0 2.272843,0 2.188664,0 4.377328,0 6.565992,0 0.673435,0 1.34687,0 2.020305,0 0.132057,0 0.94375,-0.0332 1.010153,0 0.106479,0.0532 0.146058,0.1993 0.252538,0.25254 0.150584,0.0753 0.354491,-0.0753 0.505076,0 0.106479,0.0532 0.146059,0.1993 0.252538,0.25254 0.07529,0.0376 0.177246,-0.0377 0.252538,0 0.10648,0.0532 0.168359,0.16836 0.252538,0.25253 0.08418,0.0842 0.168359,0.16836 0.252538,0.25254 0.336718,0.33672 0.673436,0.67344 1.010153,1.01016 0.837564,0.83756 -0.238095,-0.11905 0.505076,0.25253 1.051004,0.52551 -0.269972,-0.0174 0.252538,0.50508 0.522511,0.52251 -0.02043,-0.79847 0.505077,0.25254 0.03765,0.0753 -0.03765,0.17724 0,0.25254 0.02417,0.0483 0.961811,0.98598 1.010152,1.01015 0.07529,0.0376 0.177246,-0.0377 0.252538,0 0.10648,0.0532 0.146059,0.1993 0.252539,0.25254 0.20203,0.10101 0.555583,-0.10102 0.757614,0 0.106479,0.0532 0.1396,0.21489 0.252538,0.25253 0.159719,0.0532 0.336718,0 0.505076,0 0.168359,0 0.336718,0 0.505077,0 0.757614,0 1.515228,0 2.272843,0 2.357022,0 4.714045,0 7.071068,0 0.589255,0 1.178511,0 1.767767,0 0.252538,0 0.518035,-0.0798 0.757614,0 0.112939,0.0377 0.1396,0.2149 0.252538,0.25254 0.159719,0.0532 0.341744,-0.0408 0.505076,0 0.182611,0.0457 0.322466,0.20689 0.505077,0.25254 0.244998,0.0613 0.518035,-0.0799 0.757614,0 0.178572,0.0595 0.326505,0.19302 0.505076,0.25254 0.203268,0.0678 0.848776,-0.0807 1.010153,0 0.106479,0.0532 0.1396,0.21489 0.252538,0.25254 0.226619,0.15972 0.518036,-0.0799 0.757614,0 0.178572,0.0595 0.322466,0.20688 0.505077,0.25254 0.244998,0.0613 0.505076,0 0.757614,0 0.589256,0 1.178511,0 1.767767,0 0.505076,0 1.010153,0 1.515229,0 0.113732,0 0.680756,0.0384 0.757616,0 0.10648,-0.0532 0.14606,-0.1993 0.25254,-0.25254 0.16137,-0.0807 0.80688,0.0677 1.01015,0 0.17857,-0.0595 0.3265,-0.19302 0.50508,-0.25254 0.26835,-0.0894 0.7418,0.0894 1.01015,0 0.17857,-0.0595 0.3265,-0.19302 0.50507,-0.25254 0.1644,-0.0548 1.55635,0 1.76777,0 0.20675,0 1.09907,-0.0545 1.26269,0 0.17857,0.0595 0.32651,0.19302 0.50508,0.25254 0.14248,0.0475 0.59167,0 0.75761,0 0.4209,0 0.8418,0 1.26269,0 0.16836,0 0.33672,0 0.50508,0 0.0842,0 0.17725,-0.0376 0.25254,0 0.10648,0.0532 0.14606,0.1993 0.25254,0.25254 0.15058,0.0753 0.34535,-0.0532 0.50507,0 0.17857,0.0595 0.32651,0.19301 0.50508,0.25254 0.20327,0.0678 0.84877,-0.0807 1.01015,0 0.10648,0.0532 0.14606,0.19929 0.25254,0.25253 0.0753,0.0377 0.17724,-0.0376 0.25254,0 0.10648,0.0532 0.14606,0.1993 0.25254,0.25254 0.15058,0.0753 0.35449,-0.0753 0.50507,0 0.10648,0.0532 0.1396,0.21489 0.25254,0.25254 0.23958,0.0799 0.50508,0 0.75761,0 0.50508,0 1.01016,0 1.51523,0 0.16836,0 0.34536,-0.0532 0.50508,0 0.17857,0.0595 0.3265,0.19301 0.50508,0.25254 0.0798,0.0266 0.17087,-0.0204 0.25253,0 0.25825,0.0646 0.49937,0.18797 0.75762,0.25254 0.0817,0.0204 0.17268,-0.0266 0.25254,0 0.17857,0.0595 0.32246,0.20688 0.50507,0.25253 0.16755,0.0419 1.30098,0 1.51523,0 0.16836,0 0.34175,-0.0408 0.50508,0 0.25825,0.0646 0.49658,0.20034 0.75761,0.25254 0.16509,0.033 0.33672,0 0.50508,0 0.33672,0 0.67343,0 1.01015,0 0.84179,0 1.68359,0 2.52538,0 0.50508,0 1.01015,0 1.51523,0 0.0842,0 0.16836,0 0.25254,0 0.0842,0 0.17724,-0.0376 0.25254,0 0.10648,0.0532 0.1396,0.21489 0.25254,0.25254 0.0697,0.0232 1.49677,0.009 1.51522,0 0.10648,-0.0532 0.14606,-0.1993 0.25254,-0.25254 0.15059,-0.0753 0.35449,0.0753 0.50508,0 0.10648,-0.0532 0.14606,-0.1993 0.25254,-0.25254 0.0753,-0.0376 0.17724,0.0377 0.25253,0 0.10648,-0.0532 0.1396,-0.21489 0.25254,-0.25253 0.26835,-0.0894 0.74181,0.0894 1.01016,0 0.87055,-0.29019 0.18707,-0.25254 0.75761,-0.25254 0.50508,0 1.01015,0 1.51523,0 0.0842,0 0.16836,0 0.25254,0 0.0842,0 0.17724,-0.0376 0.25253,0 0.10648,0.0532 0.1396,0.21489 0.25254,0.25254 0.22729,0.0758 0.53033,-0.0758 0.75762,0 0.17857,0.0595 0.3265,0.19301 0.50507,0.25253 0.15972,0.0532 0.3545,-0.0753 0.50508,0 0.10648,0.0532 0.14606,0.1993 0.25254,0.25254 0.15058,0.0753 0.35449,-0.0753 0.50507,0 0.10648,0.0532 0.14606,0.1993 0.25254,0.25254 0.0282,0.0141 1.23451,0.0141 1.26269,0 0.10648,-0.0532 0.14606,-0.1993 0.25254,-0.25254 0.149,-0.0745 0.58391,0.0579 0.75762,0 0.17857,-0.0595 0.3265,-0.19301 0.50507,-0.25254 0.14248,-0.0475 0.59167,0 0.75762,0 0.42089,0 0.84179,0 1.26269,0 0.0842,0 0.16836,0 0.25254,0 0.0842,0 0.17724,-0.0376 0.25253,0 0.62413,0.31207 -0.0872,0.25254 0.50508,0.25254 0.0842,0 0.17268,0.0266 0.25254,0 0.17857,-0.0595 0.3265,-0.19301 0.50507,-0.25254 0.0799,-0.0266 0.17725,0.0377 0.25254,0 0.10648,-0.0532 0.16836,-0.16835 0.25254,-0.25253 0.0842,-0.0842 0.1993,-0.14606 0.25254,-0.25254 0.0376,-0.0753 -0.0595,-0.19302 0,-0.25254 0.0595,-0.0595 0.19301,0.0595 0.25254,0 0.52251,-0.52251 -0.79847,0.0204 0.25253,-0.50508 0.0753,-0.0376 0.17725,0.0377 0.25254,0 0.10648,-0.0532 0.14606,-0.19929 0.25254,-0.25253 0.0753,-0.0376 0.17725,0.0376 0.25254,0 0.10648,-0.0532 0.14606,-0.1993 0.25254,-0.25254 0.0753,-0.0377 0.17724,0.0376 0.25254,0 0.30304,-0.15153 0.45456,-0.60609 0.75761,-0.75762 0.0753,-0.0376 0.17725,0.0376 0.25254,0 0.10648,-0.0532 0.14606,-0.1993 0.25254,-0.25254 0.0753,-0.0376 0.17724,0.0377 0.25253,0 0.10648,-0.0532 0.1396,-0.21489 0.25254,-0.25253 0.31944,-0.10648 0.69072,0.10648 1.01016,0 0.11293,-0.0376 0.13959,-0.2149 0.25253,-0.25254 0.11551,-0.0385 0.89778,0.0562 1.01016,0 0.55837,-0.27919 0.0784,-0.15674 0.25253,-0.50508 0.0532,-0.10648 0.1993,-0.14606 0.25254,-0.25254 0.10102,-0.20203 -0.10101,-0.55558 0,-0.75761 0.0532,-0.10648 0.1993,-0.14606 0.25254,-0.25254 0.0377,-0.0753 -0.0376,-0.17724 0,-0.25254 0.0335,-0.0671 0.69056,-0.72409 0.75761,-0.75761 0.0753,-0.0377 0.16836,0 0.25254,0 0.0842,-0.0842 0.14606,-0.1993 0.25254,-0.25254 0.15059,-0.0753 0.35449,0.0753 0.50508,0 1.15576,-0.57788 -1.07163,0.10467 0.75761,-0.50508 0.0799,-0.0266 0.17725,0.0376 0.25254,0 0.30305,-0.15152 0.45457,-0.60609 0.75761,-0.75761 0.0753,-0.0377 0.17725,0.0376 0.25254,0 0.30305,-0.15152 0.45457,-0.60609 0.75762,-0.75761 0.0753,-0.0377 0.19301,0.0595 0.25253,0 0.0595,-0.0595 -0.0376,-0.17725 0,-0.25254 0.0532,-0.10648 0.16836,-0.16836 0.25254,-0.25254 0.0842,-0.0842 0.14606,-0.1993 0.25254,-0.25254 0.0753,-0.0376 0.19302,0.0595 0.25254,0 0.0595,-0.0595 -0.0595,-0.19301 0,-0.25254 0.0595,-0.0595 0.17724,0.0377 0.25254,0 0.10648,-0.0532 0.14606,-0.1993 0.25254,-0.25253 0.0753,-0.0376 0.17724,0.0376 0.25253,0 0.10648,-0.0532 0.15349,-0.18651 0.25254,-0.25254 0.15662,-0.10441 0.33672,-0.16836 0.50508,-0.25254 0.16836,-0.0842 0.3265,-0.19302 0.50507,-0.25254 0.15972,-0.0532 0.3545,0.0753 0.50508,0 0.10648,-0.0532 0.14606,-0.1993 0.25254,-0.25254 0.15058,-0.0753 0.35449,0.0753 0.50507,0 0.10648,-0.0532 0.14606,-0.1993 0.25254,-0.25254 0.0753,-0.0376 0.17725,0.0377 0.25254,0 0.10648,-0.0532 0.14606,-0.19929 0.25254,-0.25253 0.0753,-0.0377 0.17725,0.0376 0.25254,0 0.10648,-0.0532 0.16836,-0.16836 0.25254,-0.25254 0.0842,-0.0842 0.19929,-0.14606 0.25253,-0.25254 0.0376,-0.0753 -0.0595,-0.19301 0,-0.25254 0.0595,-0.0595 0.17725,0.0376 0.25254,0 0.2321,-0.11605 0.81853,-0.94628 1.01015,-1.01015 0.15972,-0.0532 0.34175,0.0408 0.50508,0 0.18261,-0.0456 0.32651,-0.19301 0.50508,-0.25254 0.15972,-0.0532 0.35449,0.0753 0.50507,0 0.10648,-0.0532 0.14606,-0.1993 0.25254,-0.25254 0.0753,-0.0376 0.17725,0.0376 0.25254,0 0.10648,-0.0532 0.14606,-0.1993 0.25254,-0.25254 0.0753,-0.0376 0.17724,0.0377 0.25254,0 0.21295,-0.10647 0.29211,-0.39859 0.50507,-0.50507 0.0753,-0.0377 0.17725,0.0376 0.25254,0 0.10648,-0.0532 0.14606,-0.1993 0.25254,-0.25254 0.0753,-0.0376 0.17724,0.0377 0.25254,0 0.10648,-0.0532 0.14606,-0.1993 0.25253,-0.25254 0.0753,-0.0376 0.17268,0.0266 0.25254,0 0.17857,-0.0595 0.32651,-0.19301 0.50508,-0.25254 0.23958,-0.0799 0.51803,0.0799 0.75761,0 0.11294,-0.0376 0.14606,-0.19929 0.25254,-0.25253 0.0753,-0.0376 0.17725,0.0376 0.25254,0 0.10648,-0.0532 0.14606,-0.1993 0.25254,-0.25254 0.0753,-0.0376 0.17724,0.0376 0.25254,0 0.21295,-0.10648 0.29211,-0.3986 0.50507,-0.50508 0.0753,-0.0376 0.17725,0.0377 0.25254,0 0.10648,-0.0532 0.14606,-0.1993 0.25254,-0.25254 0.15058,-0.0753 0.34536,0.0532 0.50507,0 0.17858,-0.0595 0.32651,-0.19301 0.50508,-0.25253 0.24057,-0.0802 1.01671,0.082 1.26269,0 0.17857,-0.0595 0.32651,-0.19302 0.50508,-0.25254 0.15972,-0.0532 0.35449,0.0753 0.50507,0 0.10648,-0.0532 0.14606,-0.1993 0.25254,-0.25254 0.0753,-0.0377 0.17725,0.0376 0.25254,0 0.21296,-0.10648 0.29212,-0.3986 0.50508,-0.50508 0.0753,-0.0376 0.17724,0.0377 0.25253,0 0.10648,-0.0532 0.14606,-0.1993 0.25254,-0.25254 0.0753,-0.0376 0.17725,0.0376 0.25254,0 0.10648,-0.0532 0.14606,-0.19929 0.25254,-0.25253 0.0753,-0.0377 0.17725,0.0376 0.25254,0 0.10648,-0.0532 0.14606,-0.1993 0.25254,-0.25254 0.0753,-0.0376 0.17724,0.0376 0.25253,0 0.21296,-0.10648 0.30697,-0.37301 0.50508,-0.50508 0.15662,-0.10441 0.34846,-0.14812 0.50508,-0.25254 0.0991,-0.066 0.14606,-0.19929 0.25253,-0.25253 0.0753,-0.0377 0.17725,0.0376 0.25254,0 0.10648,-0.0532 0.14606,-0.1993 0.25254,-0.25254 0.0753,-0.0377 0.25254,-0.0842 0.25254,0 0,0.11905 -0.16836,0.16836 -0.25254,0.25254 -0.0842,0.0842 -0.16836,0.16835 -0.25254,0.25253 -0.0842,0.0842 -0.14606,0.1993 -0.25254,0.25254 -0.0753,0.0377 -0.17724,-0.0376 -0.25253,0 -0.10648,0.0532 -0.14606,0.1993 -0.25254,0.25254 -0.0753,0.0376 -0.17725,-0.0377 -0.25254,0 -0.10648,0.0532 -0.14606,0.1993 -0.25254,0.25254 -0.13431,0.0672 -0.37076,-0.0672 -0.50507,0 -0.10648,0.0532 -0.14606,0.1993 -0.25254,0.25254 -0.0753,0.0376 -0.17725,-0.0377 -0.25254,0 -0.10648,0.0532 -0.14606,0.1993 -0.25254,0.25253 -0.15058,0.0753 -0.35449,-0.0753 -0.50508,0 -0.10647,0.0532 -0.14605,0.1993 -0.25253,0.25254 -0.0753,0.0377 -0.17725,-0.0376 -0.25254,0 -0.10648,0.0532 -0.14606,0.1993 -0.25254,0.25254 -0.0753,0.0376 -0.17725,-0.0377 -0.25254,0 -0.10648,0.0532 -0.14606,0.1993 -0.25254,0.25254 -0.0753,0.0376 -0.17724,-0.0377 -0.25253,0 -0.10648,0.0532 -0.14606,0.1993 -0.25254,0.25254 -0.0753,0.0376 -0.17725,-0.0376 -0.25254,0 -0.10648,0.0532 -0.14606,0.1993 -0.25254,0.25254 -0.20203,0.10101 -0.55558,-0.10102 -0.75761,0 -0.10648,0.0532 -0.14606,0.19929 -0.25254,0.25253 -0.15873,0.0794 -0.85143,-0.0794 -1.01015,0 -0.10648,0.0532 -0.14606,0.1993 -0.25254,0.25254 -0.0769,0.0384 -0.64388,0 -0.75762,0 -0.58925,0 -1.17851,0 -1.76776,0 -0.0842,0 -0.16836,0 -0.25254,0 -0.0842,0 -0.17725,-0.0376 -0.25254,0 -0.10648,0.0532 -0.1396,0.21489 -0.25254,0.25254 -0.1718,0.0573 -1.12878,-0.0669 -1.26269,0 -0.10648,0.0532 -0.14606,0.1993 -0.25254,0.25254 -0.15872,0.0794 -0.85142,-0.0794 -1.01015,0 -0.10648,0.0532 -0.14606,0.1993 -0.25254,0.25254 -0.20203,0.10101 -0.55558,-0.10102 -0.75761,0 -0.10648,0.0532 -0.14606,0.19929 -0.25254,0.25253 -0.0753,0.0376 -0.17268,-0.0266 -0.25254,0 -0.17857,0.0595 -0.3265,0.19302 -0.50507,0.25254 -0.15972,0.0532 -0.3545,-0.0753 -0.50508,0 -0.10648,0.0532 -0.14606,0.1993 -0.25254,0.25254 -0.0753,0.0377 -0.17724,-0.0376 -0.25254,0 -0.10648,0.0532 -0.14606,0.1993 -0.25253,0.25254 -0.0753,0.0376 -0.17725,-0.0377 -0.25254,0 -0.21296,0.10648 -0.30697,0.373 -0.50508,0.50507 -0.15662,0.10442 -0.34846,0.14813 -0.50508,0.25254 -0.0991,0.066 -0.16835,0.16836 -0.25253,0.25254 -0.25254,0.25254 -0.50508,0.50508 -0.75762,0.75762 -0.0842,0.0842 -0.14606,0.19929 -0.25254,0.25253 -0.0753,0.0377 -0.17724,-0.0376 -0.25253,0 -0.11695,0.0585 -0.86163,0.86163 -1.01016,1.01016 -0.14853,0.14853 -0.95168,0.8932 -1.01015,1.01015 -0.0377,0.0753 0.0376,0.17724 0,0.25254 -0.0674,0.13487 -0.62466,0.62466 -0.75761,0.75761 -0.14853,0.14853 -0.89321,0.95168 -1.01016,1.01015 -0.0753,0.0377 -0.17724,-0.0376 -0.25253,0 -0.21296,0.10648 -0.29212,0.3986 -0.50508,0.50508 -0.13431,0.0672 -0.37076,-0.0672 -0.50508,0 -0.10648,0.0532 -0.14606,0.1993 -0.25253,0.25254 -0.0753,0.0376 -0.17268,-0.0266 -0.25254,0 -0.17857,0.0595 -0.32651,0.19301 -0.50508,0.25254 -0.0799,0.0266 -0.17725,-0.0377 -0.25254,0 -0.10648,0.0532 -0.14606,0.19929 -0.25254,0.25253 -0.0753,0.0376 -0.17724,-0.0376 -0.25253,0 -0.10648,0.0532 -0.14606,0.1993 -0.25254,0.25254 -0.15059,0.0753 -0.35449,-0.0753 -0.50508,0 -0.10648,0.0532 -0.14606,0.1993 -0.25254,0.25254 -0.0753,0.0377 -0.17724,-0.0376 -0.25253,0 -0.10648,0.0532 -0.14606,0.1993 -0.25254,0.25254 -0.0753,0.0376 -0.17725,-0.0377 -0.25254,0 -0.21296,0.10648 -0.29212,0.3986 -0.50508,0.50508 -0.0753,0.0376 -0.17724,-0.0377 -0.25253,0 -0.10648,0.0532 -0.14606,0.19929 -0.25254,0.25253 -0.0753,0.0376 -0.17725,-0.0376 -0.25254,0 -0.10648,0.0532 -0.14606,0.1993 -0.25254,0.25254 -0.0753,0.0377 -0.17725,-0.0376 -0.25254,0 -0.21296,0.10648 -0.29211,0.3986 -0.50507,0.50508 -0.0753,0.0376 -0.17725,-0.0377 -0.25254,0 -0.10648,0.0532 -0.14606,0.1993 -0.25254,0.25254 -0.0753,0.0376 -0.17725,-0.0376 -0.25254,0 -0.10648,0.0532 -0.14606,0.19929 -0.25254,0.25253 -0.0753,0.0376 -0.17724,-0.0376 -0.25253,0 -0.21296,0.10648 -0.29212,0.3986 -0.50508,0.50508 -0.0753,0.0377 -0.16836,0 -0.25254,0 -0.0842,0.0842 -0.14606,0.1993 -0.25254,0.25254 -0.15058,0.0753 -0.35449,-0.0753 -0.50507,0 -0.10648,0.0532 -0.14606,0.1993 -0.25254,0.25254 -0.15059,0.0753 -0.35449,-0.0753 -0.50508,0 -0.10648,0.0532 -0.14606,0.1993 -0.25254,0.25253 -0.15058,0.0753 -0.35449,-0.0753 -0.50507,0 -0.10648,0.0532 -0.14606,0.1993 -0.25254,0.25254 -0.20203,0.10102 -0.55558,-0.10101 -0.75761,0 -0.10648,0.0532 -0.14606,0.1993 -0.25254,0.25254 -0.15873,0.0794 -0.85143,-0.0794 -1.01016,0 -0.10647,0.0532 -0.14605,0.1993 -0.25253,0.25254 -0.0664,0.0332 -0.8781,0 -1.01016,0 -0.84179,0 -1.68358,0 -2.52538,0 -1.09433,0 -2.18866,0 -3.28299,0 -0.22763,0 -1.10375,0.053 -1.26269,0 -0.17858,-0.0595 -0.32651,-0.19302 -0.50508,-0.25254 -0.15972,-0.0532 -0.33672,0 -0.50508,0 -0.50507,0 -1.01015,0 -1.51523,0 -0.13205,0 -0.94375,-0.0332 -1.01015,0 -0.10648,0.0532 -0.14606,0.1993 -0.25254,0.25254 -0.0913,0.0457 -1.08704,0 -1.26269,0 -0.92597,0 -1.85194,0 -2.77792,0 -0.92597,0 -1.85194,0 -2.77792,0 -0.0998,0 -1.15483,0.0539 -1.26269,0 -0.10648,-0.0532 -0.14606,-0.1993 -0.25253,-0.25254 -0.0753,-0.0376 -0.16836,0 -0.25254,0 -0.0842,0 -0.16836,0 -0.25254,0 -0.4209,0 -0.84179,0 -1.26269,0 -1.43105,0 -2.8621,0 -4.29315,0 -0.17565,0 -1.17136,0.0457 -1.26269,0 -0.10648,-0.0532 -0.14606,-0.1993 -0.25254,-0.25254 -0.15872,-0.0794 -0.85143,0.0794 -1.01015,0 -0.10648,-0.0532 -0.14606,-0.1993 -0.25254,-0.25254 -0.15932,-0.0796 -1.10337,0.0797 -1.26269,0 -0.10648,-0.0532 -0.14606,-0.19929 -0.25254,-0.25253 -0.0753,-0.0376 -0.17724,0.0376 -0.25254,0 -0.21296,-0.10648 -0.29211,-0.3986 -0.50507,-0.50508 -0.15873,-0.0794 -0.85143,0.0794 -1.01015,0 -0.10648,-0.0532 -0.14606,-0.1993 -0.25254,-0.25254 -0.15059,-0.0753 -0.34536,0.0532 -0.50508,0 -0.17857,-0.0595 -0.3265,-0.19301 -0.50508,-0.25254 -0.23792,-0.0793 -1.35149,0.0819 -1.51522,0 -0.10648,-0.0532 -0.14606,-0.19929 -0.25254,-0.25253 -0.0751,-0.0376 -1.409,0 -1.51523,0 -0.50508,0 -1.01015,0 -1.51523,0 -0.0842,0 -0.16836,0 -0.25254,0 -0.0842,0 -0.17724,-0.0376 -0.25254,0 -0.10648,0.0532 -0.14606,0.19929 -0.25253,0.25253 -0.15932,0.0797 -1.10338,-0.0797 -1.2627,0 -0.10647,0.0532 -0.14605,0.1993 -0.25253,0.25254 -0.0753,0.0376 -0.16836,0 -0.25254,0 -0.0842,0 -0.16836,0 -0.25254,0 -0.505076,0 -1.010152,0 -1.515229,0 -0.132057,0 -0.943749,-0.0332 -1.010152,0 -0.10648,0.0532 -0.146059,0.1993 -0.252538,0.25254 -0.07529,0.0377 -0.168359,0 -0.252538,0 -0.08418,0 -0.168359,0 -0.252539,0 -0.420896,0 -0.841793,0 -1.26269,0 -0.113733,0 -0.680759,0.0384 -0.757615,0 -0.106479,-0.0532 -0.13349,-0.25254 -0.252538,-0.25254 -0.119047,0 -0.146058,0.1993 -0.252538,0.25254 -0.07686,0.0384 -0.643882,0 -0.757614,0 -0.505077,0 -1.010153,0 -1.515229,0 -1.936126,0 -3.872252,0 -5.808377,0 -0.757615,0 -1.515229,0 -2.272844,0 -0.113732,0 -0.680758,0.0384 -0.757614,0 -0.106479,-0.0532 -0.146059,-0.1993 -0.252538,-0.25254 -0.159319,-0.0797 -1.103372,0.0797 -1.262691,0 -0.106479,-0.0532 -0.146058,-0.1993 -0.252538,-0.25254 -0.150585,-0.0753 -0.354491,0.0753 -0.505076,0 -0.10648,-0.0532 -0.146059,-0.19929 -0.252538,-0.25253 -0.07529,-0.0376 -0.177246,0.0376 -0.252538,0 -0.10648,-0.0532 -0.146059,-0.1993 -0.252539,-0.25254 -0.07686,-0.0384 -0.643881,0 -0.757614,0 -0.589256,0 -1.178511,0 -1.767767,0 -0.08418,0 -0.168359,0 -0.252538,0 -0.08418,0 -0.177246,0.0376 -0.252538,0 -0.10648,-0.0532 -0.168359,-0.16836 -0.252538,-0.25254 -0.08418,-0.0842 -0.168359,-0.16836 -0.252538,-0.25254 -0.336718,-0.33672 -0.673436,-0.67343 -1.010153,-1.01015 -0.08418,-0.0842 -0.153485,-0.1865 -0.252538,-0.25254 -0.156618,-0.10441 -0.348459,-0.14813 -0.505076,-0.25254 -0.09905,-0.066 -0.168359,-0.16836 -0.252539,-0.25254 -0.08418,-0.0842 -0.199298,-0.14605 -0.252538,-0.25253 -0.03765,-0.0753 0.03765,-0.17725 0,-0.25254 -0.02417,-0.0483 -0.961811,-0.98598 -1.010152,-1.01015 -0.07529,-0.0377 -0.177246,0.0376 -0.252538,0 -0.10648,-0.0532 -0.146059,-0.1993 -0.252539,-0.25254 -0.150584,-0.0753 -0.354491,0.0753 -0.505076,0 -0.106479,-0.0532 -0.146059,-0.1993 -0.252538,-0.25254 -0.159319,-0.0797 -1.103372,0.0797 -1.262691,0 -0.106479,-0.0532 -0.146058,-0.1993 -0.252538,-0.25254 -0.159318,-0.0797 -1.103372,0.0797 -1.26269,0 -0.10648,-0.0532 -0.1396,-0.21489 -0.252539,-0.25254 -0.1301,-0.0434 -1.500626,0 -1.767767,0 -0.420896,0 -0.841793,0 -1.26269,0 -0.08418,0 -0.168359,0 -0.252538,0 -0.08418,0 -0.177246,0.0377 -0.252538,0 -0.10648,-0.0532 -0.146059,-0.1993 -0.252539,-0.25253 -0.150584,-0.0753 -0.354491,0.0753 -0.505076,0 -0.106479,-0.0532 -0.146059,-0.1993 -0.252538,-0.25254 -0.07529,-0.0377 -0.168359,0 -0.252538,0 -0.168359,0 -0.345357,0.0532 -0.505076,0 -0.112939,-0.0377 -0.146059,-0.1993 -0.252539,-0.25254 -0.159318,-0.0797 -1.103372,0.0797 -1.26269,0 -0.10648,-0.0532 -0.1396,-0.21489 -0.252538,-0.25254 -0.265469,-0.0885 -1.256303,0.0647 -1.515229,0 -0.115493,-0.0289 -0.1396,-0.21489 -0.252538,-0.25254 -0.150174,-0.0501 -1.216929,0 -1.515229,0 -1.094332,0 -2.188664,0 -3.282996,0 -1.515229,0 -3.030458,0 -4.545686,0 -0.420897,0 -0.841794,0 -1.262691,0 -0.08418,0 -0.168359,0 -0.252538,0 -0.08418,0 -0.177246,0.0376 -0.252538,0 -0.10648,-0.0532 -0.168359,-0.16836 -0.252538,-0.25254 -0.08418,-0.0842 -0.199299,-0.14605 -0.252539,-0.25253 -0.03843,-0.0769 0,-0.64389 0,-0.75762 0,-0.50507 0,-1.01015 0,-1.51523 0,-0.16594 0.04749,-0.61513 0,-0.75761 -0.05952,-0.17857 -0.193014,-0.32651 -0.252538,-0.50508 -0.05298,-0.15894 0,-1.03506 0,-1.26269 0,-0.0842 0.02662,-0.17268 0,-0.25254 -0.05952,-0.17857 -0.193014,-0.3265 -0.252538,-0.50507 -0.02662,-0.0799 0.03765,-0.17725 0,-0.25254 -0.05324,-0.10648 -0.186502,-0.15349 -0.252538,-0.25254 -0.104412,-0.15662 -0.148127,-0.34846 -0.252538,-0.50508 -0.06604,-0.0991 -0.168359,-0.16835 -0.252538,-0.25253 -0.168359,-0.16836 -0.3146,-0.36222 -0.505077,-0.50508 -0.150584,-0.11294 -0.348458,-0.14813 -0.505076,-0.25254 -0.09905,-0.066 -0.153484,-0.1865 -0.252538,-0.25254 -0.313235,-0.20882 -0.696918,-0.29625 -1.010153,-0.50507 -0.198107,-0.13207 -0.306969,-0.37301 -0.505076,-0.50508 -0.435276,-0.29018 -0.381732,-0.25254 -0.757614,-0.25254 -0.08418,0 -0.177246,0.0377 -0.252538,0 -0.10648,-0.0532 -0.146059,-0.1993 -0.252539,-0.25253 -0.163732,-0.0819 -1.277308,0.0793 -1.515228,0 -0.178572,-0.0595 -0.322466,-0.20689 -0.505077,-0.25254 -0.225461,-0.0564 -0.970371,0 -1.26269,0 -0.925973,0 -1.851947,0 -2.77792,0 -0.08603,0 -0.873477,0.0456 -1.010152,0 -0.178572,-0.0595 -0.326505,-0.19302 -0.505077,-0.25254 -0.07986,-0.0266 -0.168358,0 -0.252538,0 -0.227629,0 -1.103743,0.053 -1.26269,0 -0.178572,-0.0595 -0.322466,-0.20689 -0.505077,-0.25254 -0.326664,-0.0817 -0.690714,0.10648 -1.010152,0 -0.112939,-0.0376 -0.137045,-0.22366 -0.252538,-0.25254 -0.29512,-0.0738 -1.500232,0.0892 -1.767767,0 -0.112939,-0.0376 -0.146059,-0.1993 -0.252538,-0.25254 -0.161378,-0.0807 -0.806885,0.0678 -1.010153,0 -0.178571,-0.0595 -0.326505,-0.19301 -0.505076,-0.25253 -0.224111,-0.0747 -1.097325,0.0827 -1.262691,0 -0.106479,-0.0532 -0.146059,-0.1993 -0.252538,-0.25254 -0.07529,-0.0377 -0.168359,0 -0.252538,0 -0.168359,0 -0.336718,0 -0.505077,0 -0.589255,0 -1.178511,0 -1.767766,0 -0.08418,0 -0.168359,0 -0.252539,0 -0.08418,0 -0.177245,0.0376 -0.252538,0 -0.106479,-0.0532 -0.146058,-0.1993 -0.252538,-0.25254 -0.0664,-0.0332 -0.878095,0 -1.010152,0 -0.673435,0 -1.34687,0 -2.272844,1.01015 z"
       id="path2897"
       transform="translate(0,852.36218)" />
    <path
       style="fill:#ff2a2a;stroke:#ff2a2a;stroke-width:1px;stroke-linecap:butt;stroke-linejoin:miter;stroke-opacity:1"
       d="m 93.439111,161.6142 c 0.837563,-0.83756 -0.238096,0.11905 0.505076,-0.25253 0.106479,-0.0532 0.146059,-0.1993 0.252538,-0.25254 0.150585,-0.0753 0.354492,0.0753 0.505076,0 0.10648,-0.0532 0.146059,-0.1993 0.252538,-0.25254 0.202031,-0.10102 0.555584,0.10101 0.757615,0 0.205342,-0.10267 0.208953,-0.4006 0.505076,-0.25254 0.106479,0.0532 0.146059,0.1993 0.252538,0.25254 0.07529,0.0376 0.177246,-0.0377 0.252538,0 0.212959,0.10648 0.292118,0.3986 0.505077,0.50508 0.07529,0.0376 0.168358,0 0.252538,0 0.168358,0.0842 0.348458,0.14812 0.505076,0.25253 0.577884,0.38526 -0.15791,0.1999 0.757614,0.50508 0.07986,0.0266 0.172679,-0.0266 0.252539,0 0.178571,0.0595 0.326504,0.19301 0.505076,0.25254 0.07986,0.0266 0.172678,-0.0266 0.252538,0 0.178571,0.0595 0.326506,0.19301 0.505076,0.25254 0.15972,0.0532 0.35449,-0.0753 0.50508,0 0.10648,0.0532 0.14606,0.19929 0.25253,0.25253 0.15059,0.0753 0.3545,-0.0753 0.50508,0 0.10648,0.0532 0.14606,0.1993 0.25254,0.25254 0.20203,0.10102 0.55558,-0.10101 0.75761,0 0.10648,0.0532 0.14606,0.1993 0.25254,0.25254 0.15873,0.0794 0.85143,-0.0794 1.01015,0 0.10648,0.0532 0.14606,0.1993 0.25254,0.25254 0.149,0.0745 0.58391,-0.0579 0.75762,0 0.17857,0.0595 0.3265,0.19301 0.50507,0.25254 0.17371,0.0579 0.60861,-0.0745 0.75762,0 0.10648,0.0532 0.14606,0.19929 0.25254,0.25253 0.0768,0.0384 0.64388,0 0.75761,0 0.67343,0 1.34687,0 2.02031,0 0.16835,0 0.33671,0 0.50507,0 0.0842,0 0.17725,-0.0376 0.25254,0 0.10648,0.0532 0.14606,0.1993 0.25254,0.25254 0.0769,0.0384 0.64388,0 0.75761,0 0.58926,0 1.17851,0 1.76777,0 0.16836,0 0.34174,-0.0408 0.50508,0 0.18261,0.0457 0.3265,0.19302 0.50507,0.25254 0.0799,0.0266 0.16836,0 0.25254,0 0.16836,0 0.33672,0 0.50508,0 0.58925,0 1.17851,0 1.76776,0 0.59225,0 -0.11904,-0.0595 0.50508,0.25254 0.15335,0.0767 1.36188,-0.0767 1.51523,0 0.10648,0.0532 0.1396,0.21489 0.25254,0.25254 0.2973,0.0991 1.18014,-0.0838 1.51522,0 1.16074,0.29018 0.0573,0.25254 0.75762,0.25254 0.25254,0 0.50508,0 0.75761,0 0.0842,0 0.17725,-0.0376 0.25254,0 0.10648,0.0532 0.14606,0.19929 0.25254,0.25253 0.0753,0.0377 0.25254,-0.0842 0.25254,0 0,0.41879 -0.35415,0.17708 -0.50508,0.25254 -0.10648,0.0532 -0.1396,0.21489 -0.25254,0.25254 -0.15972,0.0532 -0.34174,-0.0408 -0.50507,0 -0.18261,0.0457 -0.32651,0.19301 -0.50508,0.25254 -0.23958,0.0799 -0.51803,-0.0799 -0.75761,0 -0.11294,0.0376 -0.14606,0.1993 -0.25254,0.25254 -0.15932,0.0797 -1.10337,-0.0797 -1.26269,0 -0.20534,0.10267 -0.20895,0.4006 -0.50508,0.25253 -0.10648,-0.0532 -0.14606,-0.19929 -0.25254,-0.25253 -0.0753,-0.0377 -0.16836,0 -0.25253,0 -0.15093,0 -0.50508,-0.0595 -0.50508,0.25253 0,0.16836 0.35449,-0.0753 0.50508,0 0.21295,0.10648 0.29211,0.3986 0.50507,0.50508 0.0753,0.0376 0.19302,-0.0595 0.25254,0 0.0595,0.0595 0,0.16836 0,0.25254 0,0.0842 0.0595,0.19301 0,0.25254 -0.11905,0.11904 -0.35449,-0.0753 -0.50508,0 -0.10648,0.0532 -0.14606,0.1993 -0.25253,0.25253 -0.11238,0.0562 -0.89465,-0.0385 -1.01016,0 -0.11294,0.0376 -0.14606,0.1993 -0.25254,0.25254 -0.0753,0.0377 -0.16835,0 -0.25253,0 -0.086,0 -0.87348,0.0456 -1.01016,0 -0.17857,-0.0595 -0.3265,-0.19301 -0.50507,-0.25254 -0.23958,-0.0799 -0.51262,0.0613 -0.75762,0 -0.18261,-0.0457 -0.3265,-0.19301 -0.50507,-0.25253 -0.23958,-0.0799 -0.51262,0.0613 -0.75762,0 -0.18261,-0.0457 -0.32246,-0.20689 -0.50507,-0.25254 -0.245,-0.0613 -0.51804,0.0799 -0.75762,0 -0.17857,-0.0595 -0.3265,-0.19302 -0.50507,-0.25254 -0.20327,-0.0678 -0.84878,0.0807 -1.01016,0 -0.10648,-0.0532 -0.14606,-0.1993 -0.25253,-0.25254 -0.15932,-0.0797 -1.10338,0.0797 -1.2627,0 -0.10648,-0.0532 -0.1396,-0.21489 -0.25253,-0.25254 -0.23958,-0.0799 -0.51804,0.0799 -0.75762,0 -0.17857,-0.0595 -0.3265,-0.19301 -0.50507,-0.25253 -0.23958,-0.0799 -0.51804,0.0799 -0.75762,0 -0.93618,-0.31207 0.30783,-0.25254 -0.50508,-0.25254 -0.59224,0 0.11905,0.0595 -0.50507,-0.25254 -0.20203,-0.10102 -0.55559,0.10101 -0.75762,0 -0.10648,-0.0532 -0.14605,-0.1993 -0.25253,-0.25254 -0.0753,-0.0376 -0.17725,0.0376 -0.25254,0 -0.10648,-0.0532 -0.14606,-0.1993 -0.25254,-0.25254 -0.15058,-0.0753 -0.35449,0.0753 -0.50508,0 -0.10648,-0.0532 -0.14606,-0.1993 -0.25253,-0.25253 -0.0753,-0.0376 -0.17725,0.0376 -0.25254,0 -0.10648,-0.0532 -0.14606,-0.1993 -0.25254,-0.25254 -0.0753,-0.0377 -0.17725,0.0376 -0.25254,0 -0.77013,-0.38507 0.46188,-0.20021 -0.75761,-0.50508 -0.16334,-0.0408 -0.33672,0 -0.50508,0 -0.0842,0 -0.17725,0.0377 -0.25254,0 -0.106477,-0.0532 -0.139598,-0.21489 -0.252536,-0.25254 -0.150174,-0.0501 -1.216929,0 -1.515229,0 -1.094332,0 -2.188664,0 -3.282996,0 -0.17565,0 -1.171364,0.0457 -1.26269,0 -0.10648,-0.0532 -0.146059,-0.1993 -0.252538,-0.25254 -0.150585,-0.0753 -0.354492,0.0753 -0.505077,0 -0.106479,-0.0532 -0.146058,-0.19929 -0.252538,-0.25253 -0.150585,-0.0753 -0.354491,0.0753 -0.505076,0 -0.10648,-0.0532 -0.146059,-0.1993 -0.252538,-0.25254 -0.158726,-0.0794 -0.851427,0.0794 -1.010153,0 -0.106479,-0.0532 -0.146059,-0.1993 -0.252538,-0.25254 -0.150585,-0.0753 -0.354492,0.0753 -0.505076,0 -1.155768,-0.57788 1.071624,0.10467 -0.757615,-0.50508 -0.227284,-0.0758 -0.53033,0.0758 -0.757614,0 -0.168359,-0.0842 -0.336718,-0.16835 -0.505076,-0.25253 -0.08418,0 -0.172679,0.0266 -0.252538,0 -0.178572,-0.0595 -0.322466,-0.20689 -0.505077,-0.25254 -0.326664,-0.0817 -0.690714,0.10648 -1.010152,0 -0.112939,-0.0377 -0.146059,-0.1993 -0.252538,-0.25254 -0.07529,-0.0377 -0.168359,0 -0.252539,0 -0.08418,0 -0.168358,0 -0.252538,0 -0.113732,0 -0.680758,0.0384 -0.757614,0 -0.10648,-0.0532 -0.146059,-0.1993 -0.252538,-0.25254 -0.150585,-0.0753 -0.505077,0.16836 -0.505077,0 0,-0.39483 0.658993,-0.21966 0.757615,-0.25254 0.112938,-0.0376 0.1396,-0.21489 0.252538,-0.25253 0.159719,-0.0532 0.336718,0 0.505076,0 0.168359,0 0.336718,0 0.505077,0 0.249871,0 0.93402,0 1.010152,0 0.252538,0 0.509981,-0.0495 0.757615,0 0.184575,0.0369 0.322465,0.20688 0.505076,0.25253 0.163332,0.0408 0.341744,-0.0408 0.505076,0 0.182611,0.0457 0.322466,0.20689 0.505076,0.25254 0.163332,0.0408 0.345357,-0.0532 0.505077,0 0.936185,0.31206 -0.307832,0.25254 0.505076,0.25254 0.08418,0 0.177246,-0.0377 0.252538,0 0.106479,0.0532 0.138071,0.28524 0.252538,0.25254 0.542965,-0.15514 0.979515,-0.93619 1.515229,-0.75762 0.399298,0.1331 -0.08254,0.84997 0,1.26269 0.01651,0.0825 0.252538,-0.0842 0.252538,0 0,0.0842 -0.168359,0 -0.252538,0 -0.08418,0 -0.252538,0.0842 -0.252538,0 0,-0.42923 0.668954,-1.15858 0.252538,-1.26269 -0.522918,-0.13073 -0.767261,0.79783 -1.262691,1.01016 -0.173011,0.0741 -0.326505,-0.19302 -0.505076,-0.25254 -0.178573,-0.0595 -0.757614,0.16382 -0.757614,-0.25254 0,-0.0842 0.168358,0 0.252538,0 0.113732,0 0.680758,-0.0384 0.757614,0 0.10648,0.0532 0.1396,0.29018 0.252538,0.25254 0.465658,-0.15522 0.773861,-0.80206 1.262691,-0.75762 0.604533,0.055 0.972288,0.73869 1.515229,1.01016 0.150584,0.0753 0.336717,0 0.505076,0 0.08418,0 0.193014,0.0595 0.252538,0 0.05952,-0.0595 0,-0.16836 0,-0.25254"
       id="path2899"
       transform="translate(0,852.36218)" />
  </g>
</svg>
