<?xml version="1.0" encoding="UTF-8" standalone="no"?>
<!-- Created with Inkscape (http://www.inkscape.org/) -->

<svg
   xmlns:dc="http://purl.org/dc/elements/1.1/"
   xmlns:cc="http://creativecommons.org/ns#"
   xmlns:rdf="http://www.w3.org/1999/02/22-rdf-syntax-ns#"
   xmlns:svg="http://www.w3.org/2000/svg"
   xmlns="http://www.w3.org/2000/svg"
   xmlns:sodipodi="http://sodipodi.sourceforge.net/DTD/sodipodi-0.dtd"
   xmlns:inkscape="http://www.inkscape.org/namespaces/inkscape"
   id="svg3948"
   version="1.1"
   inkscape:version="0.47 r22583"
   width="280"
   height="280"
   sodipodi:docname="back.svg">
  <metadata
     id="metadata3954">
    <rdf:RDF>
      <cc:Work
         rdf:about="">
        <dc:format>image/svg+xml</dc:format>
        <dc:type
           rdf:resource="http://purl.org/dc/dcmitype/StillImage" />
        <dc:title />
      </cc:Work>
    </rdf:RDF>
  </metadata>
  <defs
     id="defs3952">
    <inkscape:perspective
       sodipodi:type="inkscape:persp3d"
       inkscape:vp_x="0 : 0.5 : 1"
       inkscape:vp_y="0 : 1000 : 0"
       inkscape:vp_z="1 : 0.5 : 1"
       inkscape:persp3d-origin="0.5 : 0.33333333 : 1"
       id="perspective3956" />
  </defs>
  <sodipodi:namedview
     pagecolor="#ffffff"
     bordercolor="#666666"
     borderopacity="1"
     objecttolerance="10"
     gridtolerance="10"
     guidetolerance="10"
     inkscape:pageopacity="0"
     inkscape:pageshadow="2"
     inkscape:window-width="1280"
     inkscape:window-height="949"
     id="namedview3950"
     showgrid="false"
     inkscape:zoom="1.8084291"
     inkscape:cx="184.76195"
     inkscape:cy="146.78826"
     inkscape:window-x="0"
     inkscape:window-y="25"
     inkscape:window-maximized="1"
     inkscape:current-layer="svg3948" />
  <path
     style="fill:#4d4d4d;fill-opacity:1;stroke:#b3b3b3;stroke-width:0.39100608;stroke-miterlimit:4;stroke-opacity:1;stroke-dasharray:none"
     d="m 130.11865,38.927966 c -0.0925,0.05719 -0.15625,0.434666 -0.15625,0.84375 0,1.198397 -0.33377,2.609167 -1.09375,4.65625 -1.55671,4.193155 -5.06211,10.534163 -6.25,11.3125 -1.10217,0.722172 -1.96875,-0.03909 -3.53125,-3.09375 -1.60843,-3.144461 -4.00703,-5.918046 -7.28125,-8.4375 -1.29363,-0.995427 -5.3461,-3.497651 -5.46875,-3.375 -0.0407,0.04073 0.32685,1.403026 0.8125,3 2.30205,7.569976 2.61206,9.853995 2.8125,22.25 l 0.125,8 4.71875,0.9375 c 11.15149,2.200999 24.21756,6.209752 33.1875,10.1875 3.10131,1.375287 4.5111,2.229648 5.5,3.25 0.98518,1.016508 1.72747,1.072588 2.21875,0.1875 1.30028,-2.342519 3.3599,-4.946621 7.375,-9.34375 4.63518,-5.076213 8.86504,-9.016004 13.1875,-12.34375 l 1.625,-1.28125 -4.28125,-0.0625 c -5.25014,-0.07427 -9.01335,0.218581 -12.9375,0.96875 -4.57338,0.874281 -5.12506,0.797837 -5.125,-0.75 9e-5,-2.184419 1.49391,-9.541262 3.0625,-15.1875 0.47916,-1.724761 0.84375,-3.233944 0.84375,-3.375 0,-0.34228 -1.16066,0.248009 -2.875,1.46875 -2.9179,2.077765 -6.20449,4.211473 -7.25,4.71875 -0.61063,0.296277 -2.33778,1.518219 -3.84375,2.6875 -4.68436,3.637078 -5.56749,4.15625 -6.78125,4.15625 -0.74527,0 -1.43891,-0.710774 -1.71875,-1.75 -0.12064,-0.448034 -0.42997,-2.147036 -0.6875,-3.78125 -0.76323,-4.84333 -2.07746,-9.375001 -3.71875,-12.75 -0.83128,-1.709355 -2.11738,-3.310911 -2.46875,-3.09375 z m -118.750006,16.9375 c -0.292147,0.292147 33.707919,65.807074 42.1875,81.281244 5.209342,9.5064 7.508912,12.92199 9.3125,13.875 0.982109,0.51894 1.565586,0.49446 2.78125,-0.15625 1.031093,-0.55191 4.83131,-2.89513 5.53125,-3.40625 0.343399,-0.25076 0.31404,-0.38775 -0.625,-3.65625 -0.540347,-1.88078 -3.537972,-12.56723 -6.65625,-23.75 -5.855861,-21.000306 -11.791426,-42.009298 -13.15625,-46.624994 -1.378756,-4.662813 -1.931704,-6.238151 -2.28125,-6.375 -5.559821,-2.176698 -36.709239,-11.572012 -37.09375,-11.1875 z m 7.15625,5.46875 c 0.26931,-0.05508 0.520243,0.03233 1.03125,0.28125 1.631084,0.794541 8.410927,5.854732 18,13.40625 l 3.3125,2.59375 5.34375,13.406248 c 6.28955,15.731916 15.864676,39.998086 18.09375,45.843746 2.704447,7.0923 2.862507,7.65465 2.25,8.4375 -0.259761,0.332 -0.527584,0.32791 -1.21875,-0.0937 -0.991762,-0.60505 -1.618603,-1.78476 -3.9375,-7.3125 -2.421149,-5.77148 -13.978636,-34.38692 -20,-49.531244 l -3.71875,-9.37505 -4.9375,-3.71875 C 23.3163,68.168626 19.406201,64.916571 18.337394,63.302966 c -0.728262,-1.099474 -0.745601,-1.546747 -0.09375,-1.84375 0.102843,-0.04686 0.19148,-0.106641 0.28125,-0.125 z m 92.187506,16.96875 c -0.55397,0.03976 -0.74697,0.189158 -1.1875,0.65625 -0.7573,0.802977 -1.68405,3.516224 -2.15625,6.21875 -0.79699,4.561388 0.2626,9.935078 3.125,15.718744 1.97488,3.99037 4.03479,6.18155 7.4375,7.9375 2.09852,1.08294 5.98096,2.42305 8.1875,2.8125 1.91745,0.33843 5.45864,0.2223 7.34375,-0.21875 5.10037,-1.19331 10.83431,-3.91025 13.1875,-6.25 1.43838,-1.43016 3.39897,-4.29909 4.96875,-7.312496 2.29116,-4.39821 2.35084,-5.97479 0.21875,-7.0625 -1.61595,-0.82439 -10.19635,-4.381886 -13.1875,-5.468748 -9.95371,-3.616775 -23.14376,-7.02002 -27.25,-7.03125 -0.29197,-7.99e-4 -0.50284,-0.01325 -0.6875,0 z m 119.6875,13.593748 -16.90625,27.843746 c -9.29051,15.32255 -17.54826,28.84846 -18.34375,30.03125 -0.79549,1.18279 -2.09281,2.89852 -2.90625,3.8125 -1.68616,1.89457 -2.38303,3.09135 -2.1875,3.875 0.17505,0.70161 1.0027,1.71716 1.5,1.875 1.12383,0.35669 4.75775,-3.32717 12.3125,-12.5 2.55184,-3.09839 18.80596,-23.43335 27.6875,-34.625 l 5.90625,-7.40625 7.40625,-2.59375 c 15.28885,-5.319456 18.625,-6.061206 18.625,-4.218746 0,1.25048 -2.90455,2.472986 -17.6875,7.562496 l -6.84375,2.375 -7.125,9 c -10.9418,13.83533 -24.09874,30.26937 -29.15625,36.4375 -5.22153,6.36815 -6.09375,7.57529 -6.09375,8.3125 0,0.64327 0.36848,1.03544 1.875,1.9375 0.63883,0.38252 1.2024,0.71875 1.25,0.71875 0.74884,0 70.96475,-68.941496 70.59375,-69.312496 -0.44285,-0.44285 -31.46201,-3.03543 -37,-3.09375 l -2.90625,-0.0313 z m -88.6875,21.031246 -2.8125,0.96875 c -3.68379,1.25484 -7.4211,1.62184 -12.4375,1.25 -2.22943,-0.16525 -4.1057,-0.23804 -4.1875,-0.15625 -0.46109,0.46109 0.92431,6.84538 1.90625,8.78125 1.40783,2.77547 1.41368,3.4658 -0.0313,5.21875 -0.68461,0.83055 -1.34576,2.20103 -1.5625,3.3125 -0.20348,1.04345 -0.46145,7.44457 -0.59375,14.21875 -0.36361,18.6182 -1.42442,28.70967 -4.375,42.03125 -2.31925,10.47117 -7.99141,26.48404 -12.125,34.1875 -0.98471,1.83513 -2.45461,4.59561 -3.25,6.125 -2.614721,5.02767 -6.932151,9.93418 -14.187506,16.125 -3.745644,3.19606 -3.810515,3.30193 -3.125,4.0625 0.972046,1.07847 8.62777,4.70247 12.406255,5.875 3.537531,1.09776 9.686651,2.25 12.125001,2.25 2.43129,0 4.87521,0.86259 7.5625,2.6875 1.32331,0.89864 3.25827,1.999 4.28125,2.4375 1.60158,0.68652 10.83137,3.65052 14.375,4.625 3.28829,0.90427 17.23575,0.11317 21.375,-1.21875 l 2.625,-0.84375 3.5625,1.09375 c 3.47189,1.06502 3.77339,1.08025 10.09375,0.875 5.23691,-0.17007 7.29133,-0.40716 10.4375,-1.21875 5.01993,-1.29494 9.64875,-3.58326 11.96875,-5.90625 2.11081,-2.11352 3.97538,-5.30566 3.625,-6.21875 -0.13402,-0.34925 -2.03936,-1.81118 -4.21875,-3.25 -7.27746,-4.80454 -10.75946,-9.19468 -18.625,-23.46875 -2.69384,-4.88867 -5.94883,-10.58199 -7.21875,-12.625 -7.03917,-11.32446 -15.00762,-33.24345 -20.90625,-57.5 -5.10783,-21.00459 -6.6875,-30.04989 -6.6875,-38.46875 l 0,-5.25 z m 4.0625,10.21875 c -0.13923,0.0118 -0.26533,0.0663 -0.375,0.125 -0.66533,0.35608 -0.48094,1.19506 0.5,2.5 1.08667,1.4456 2.61935,2.91282 6.625,6.28125 3.92421,3.29995 8.55734,7.88078 10.71875,10.625 1.50294,1.9082 2.41742,3.40096 5,8.125 0.46222,0.84549 1.0133,1.71617 1.25,1.9375 1.46657,1.37132 1.92558,1.89714 2.5625,3.1875 1.09185,2.21202 2.41412,6.49012 2.65625,8.5 0.11658,0.96774 0.30408,2.4313 0.40625,3.28125 0.2036,1.69363 0.47623,2.19286 1.4375,2.46875 0.99541,0.28568 2.31961,-0.16739 2.65625,-0.90625 1.08849,-2.38896 -6.82346,-20.05191 -12.5625,-28.0625 -1.95936,-2.73488 -5.50648,-6.26723 -10.59375,-10.53125 -1.61324,-1.35218 -3.81185,-3.22494 -4.875,-4.15625 -2.71403,-2.37746 -4.43167,-3.45785 -5.40625,-3.375 z m -26.3125,3.4375 c -1.54248,0 -2.57472,0.85517 -6.0625,5 -3.42319,4.06807 -6.78399,8.56004 -9.65625,12.84375 -4.333351,6.46278 -6.554311,9.32842 -10.562506,13.6875 -1.9887,2.1628 -2.90825,3.56108 -2.90625,4.375 4e-4,0.20798 0.16193,0.65054 0.375,1 0.6957,1.14102 1.57702,0.81762 3.75,-1.4375 1.838475,-1.90795 2.896965,-3.25212 6.468756,-8.1875 3.74638,-5.17662 8.39782,-12.02511 12.09375,-17.78125 3.10297,-4.83266 4.47712,-6.52918 5.9375,-7.25 0.81432,-0.40193 1.875,-1.2492 1.875,-1.5 0,-0.36214 -0.69685,-0.75 -1.3125,-0.75 z m -39.437506,23.0625 c -2.208205,0.004 -8.117428,2.05249 -14.65625,5.03125 -4.697457,2.13992 -7.804757,4.26223 -8.3125,5.71875 -0.251693,0.72201 0.05387,1.31077 0.9375,1.90625 0.745137,0.50215 1.326146,0.57126 2.125,0.21875 1.039106,-0.45853 3.681803,-2.04073 6.5625,-3.9375 3.553655,-2.33988 7.021935,-4.18304 9.65625,-5.09375 2.308091,-0.79794 3.002789,-1.12267 4,-1.90625 1.301006,-1.02231 1.151433,-1.9395 -0.3125,-1.9375 z m 4.6875,7.0625 c -0.386268,0 -0.6875,1.0696 -0.6875,2.4375 0,2.34613 1.639839,6.06284 3.53125,7.96875 1.013764,1.02153 1.204255,1.125 1.96875,1.125 l 0.84375,0 -1.3125,-1.34375 c -1.660462,-1.67861 -2.255306,-2.9066 -2.53125,-5.34375 -0.335187,-2.96037 -1.033769,-4.84375 -1.8125,-4.84375 z m -8.0625,0.71875 c -1.54954,0.0487 -3.36983,0.48712 -5,1.34375 -2.403134,1.26281 -3.695046,2.93963 -4.375,5.59375 -0.580867,2.26735 0.09372,3.87497 2.75,6.53125 1.242552,1.24255 1.822257,1.66831 2.5625,1.90625 2.379483,0.76485 10.202829,-0.31634 11.90625,-1.65625 1.018976,-0.80152 1.020641,-1.07408 -0.03125,-2.1875 -1.693735,-1.79281 -3.060326,-4.75559 -3.78125,-8.21875 -0.197695,-0.94968 -0.511263,-1.94978 -0.6875,-2.21875 -0.517062,-0.78913 -1.79421,-1.14246 -3.34375,-1.09375 z m 108.093756,0.46875 c -0.78838,-0.0466 -1.16777,0.37399 -0.84375,1.15625 0.4478,1.08109 8.83782,8.9577 11.375,10.6875 0.47254,0.32218 1.07204,0.6214 1.34375,0.6875 1.46192,0.35548 3.51003,3.33269 3.25,4.71875 -0.15603,0.83172 -0.58976,1.23153 -1.53125,1.40625 -0.40392,0.075 -1.04206,0.37265 -1.40625,0.65625 -2.95384,2.30018 -4.57296,3.39755 -8.375,5.6875 -4.86002,2.92717 -6.85994,4.20251 -7.875,5.09375 -0.7687,0.67492 -0.84036,0.90147 -0.34375,1.03125 1.44673,0.37806 6.72715,-0.0848 9.0625,-0.78125 4.10508,-1.22423 8.81212,-5.40226 11.0625,-9.8125 1.35817,-2.66171 1.73722,-2.95317 2.8125,-2.1875 0.90118,0.6417 1.65673,0.7222 2.03125,0.1875 0.76404,-1.09083 0.0894,-2.59095 -2.0625,-4.59375 -0.69319,-0.64516 -3.08895,-2.62458 -5.34375,-4.40625 -2.2548,-1.78166 -5.54471,-4.42842 -7.28125,-5.875 -1.73654,-1.44658 -3.56051,-2.81179 -4.0625,-3.0625 -0.71872,-0.35895 -1.33947,-0.56579 -1.8125,-0.59375 z m -1.96875,6.5 c -0.0305,0.0292 0.0391,0.5086 0.15625,1.03125 0.3605,1.60862 0.31687,3.389 -0.125,4.375 -0.57173,1.27574 -2.01841,2.96377 -3.25,3.78125 -1.98548,1.31789 -3.56525,0.93313 -6.96875,-1.75 -1.25435,-0.98888 -1.65439,-1.23551 -1.78125,-1.03125 -0.37631,0.60588 -1.5882,4.23402 -1.6875,5.0625 -0.10501,0.87605 -0.083,0.88746 0.5625,1.09375 0.9813,0.31366 4.88814,0.30113 6.9375,-0.0313 2.34889,-0.38096 3.64049,-0.86772 5.28125,-2.03125 1.57488,-1.11682 2.63657,-2.23158 4.40625,-4.53125 l 1.3125,-1.65625 -2.40625,-2.1875 c -1.31088,-1.19207 -2.407,-2.1542 -2.4375,-2.125 z m -121.500006,0.5 c -0.11289,0 -0.520419,0.28132 -0.875,0.625 -0.733461,0.71089 -0.812085,1.39199 -0.3125,2.375 0.778481,1.53177 4.996767,6.19007 6.78125,7.5 0.518547,0.38065 1.319552,0.8204 1.8125,0.96875 0.492948,0.14836 1.241055,0.56239 1.65625,0.9375 1.243519,1.12344 4.546959,2.67126 6.75,3.15625 3.935635,0.8664 7.649872,-0.62189 9.1875,-3.65625 0.49908,-0.98489 0.569469,-2.11474 0.15625,-2.25 -0.113114,-0.037 -0.8154,0.44667 -1.5625,1.09375 -1.99225,1.72551 -2.671008,2.02083 -5.25,2.125 -1.722697,0.0696 -2.479803,0.013 -3.84375,-0.3125 -1.909985,-0.4558 -3.799865,-1.27579 -5.125,-2.1875 -2.225104,-1.53092 -5.90466,-5.46724 -7.90625,-8.46875 -0.699128,-1.04838 -1.35586,-1.90625 -1.46875,-1.90625 z m 129.718756,7.28125 c -0.85061,0.10852 -1.93442,0.91779 -4.375,2.9375 -3.77187,3.12143 -5.6791,4.32463 -8.875,5.625 -2.05708,0.837 -2.625,1.24327 -2.625,1.8125 0,0.53222 0.56391,1.33162 1.25,1.75 1.24325,0.75816 2.71101,0.29599 5.75,-1.78125 1.98077,-1.3539 3.52381,-2.15625 4.125,-2.15625 0.62858,0 1.14699,-0.33247 2.46875,-1.5625 0.72879,-0.67821 1.90517,-1.48647 3.03125,-2.0625 2.11648,-1.08265 2.71875,-1.54619 2.71875,-2.15625 0,-0.5056 -1.01643,-1.46507 -2.1875,-2.0625 -0.35468,-0.18095 -0.6288,-0.31346 -0.9375,-0.34375 -0.11576,-0.0114 -0.22223,-0.0155 -0.34375,0 z m -22.25,9.53125 c -0.79306,0 2.07074,3.5545 3.78125,4.6875 1.00019,0.6625 1.21837,0.56197 0.75,-0.34375 -0.66009,-1.27649 -3.85372,-4.34375 -4.53125,-4.34375 z"
     id="path4081" />
  <path
     style="fill:#782121;fill-opacity:1;stroke:#000000;stroke-width:1px;stroke-linecap:butt;stroke-linejoin:miter;stroke-opacity:1"
     d="m 108.44861,75.146355 c 1.75953,0.586509 28.93445,8.015625 28.93445,8.015625 0,0 19.1593,10.166154 19.55031,8.993144 0.391,-1.17302 6.6471,-10.557169 7.42911,-11.534684 0.78202,-0.977515 16.03125,-16.03125 16.03125,-16.03125 0,0 -23.06936,0.391007 -22.87385,-0.391006 0.1955,-0.782012 3.71456,-19.354801 3.71456,-19.354801 0,0 -22.28735,14.271722 -22.48285,13.294207 -0.19551,-0.977515 -3.51906,-15.640243 -3.51906,-15.640243 l -6.4516,-7.624619 -3.12805,12.512195 -4.30107,5.278582 -3.71455,-5.278582 -13.88072,-9.188643 4.69207,23.655868"
     id="path3609" />
  <path
     style="fill:#782121;fill-opacity:1;stroke:#000000;stroke-width:1px;stroke-linecap:butt;stroke-linejoin:miter;stroke-opacity:1"
     d="m 82.837714,147.87348 -0.391006,4.30107 -10.752667,5.27858 -7.429116,6.4516 4.887576,8.60214 c 0,0 7.820122,2.73704 8.602134,2.93254 0.782012,0.1955 9.384146,-3.12805 9.384146,-3.12805 l 1.173018,4.10557 -6.842606,6.8426 -10.361661,-2.93254 -7.233613,-5.27858 -7.233613,-10.16616 -1.95503,-5.86509 c 0,0 4.301067,-3.91006 5.083079,-4.30107 0.782012,-0.39101 14.271722,-5.66959 14.271722,-5.66959"
     id="path4121" />
  <path
     style="fill:#782121;fill-opacity:1;stroke:#000000;stroke-width:1px;stroke-linecap:butt;stroke-linejoin:miter;stroke-opacity:1"
     d="m 183.32628,156.28011 -2.54154,2.93255 16.22675,15.83575 -19.74581,12.51219 -9.57964,-8.99314 -1.17302,3.12805 c 0,0 2.93254,4.88757 3.91006,5.86509 0.97751,0.97752 15.24924,3.51905 15.24924,3.51905 l 12.51219,-6.6471 4.49657,-5.27858 3.91006,-1.75953 -0.1955,-4.10556 -13.68522,-11.73018 -6.06059,-5.08308"
     id="path4123" />
  <path
     style="fill:#ffffff;stroke:#000000;stroke-width:1px;stroke-linecap:butt;stroke-linejoin:miter;stroke-opacity:1"
     d="m 171.40059,168.2058 -3.12805,4.49657 -0.1955,6.06059 5.27858,2.54154 4.10557,7.23362 20.13681,-14.07622 -16.22675,-13.88072 -0.58651,9.18864 -2.93255,2.93255"
     id="path4125" />
  <path
     style="fill:#ffffff;stroke:#000000;stroke-width:1px;stroke-linecap:butt;stroke-linejoin:miter;stroke-opacity:1"
     d="m 82.642211,152.95656 4.887576,4.10557 2.932546,9.18864 2.737042,1.95503 -6.647103,2.34604 -6.256097,4.10556 c 0,0 -8.602134,-0.97752 -9.384146,-1.17302 -0.782013,-0.1955 -7.820122,-7.62462 -7.233613,-8.40663 0.586509,-0.78201 7.429116,-8.60213 7.429116,-8.60213"
     id="path4127" />
  <path
     style="fill:#d7e3f4;fill-opacity:1;stroke:#000000;stroke-width:1px;stroke-linecap:butt;stroke-linejoin:miter;stroke-opacity:1"
     d="M 8.155552,52.272503 50.775214,66.348721 73.453567,148.851 60.15936,152.76106"
     id="path3610" />
  <path
     style="fill:#d7e3f4;fill-opacity:1;stroke:#000000;stroke-width:1px;stroke-linecap:butt;stroke-linejoin:miter;stroke-opacity:1"
     d="m 187.62734,156.28012 42.61967,-66.86204 43.79268,3.910064 -74.29116,73.118126"
     id="path4124" />
  <path
     style="fill:#000000"
     d="m 126.43756,267.96351 c -4.34346,-1.30974 -9.06846,-3.22509 -10.5,-4.25634 -1.43154,-1.03126 -6.02479,-2.43525 -10.20723,-3.11999 -8.654431,-1.41688 -16.168606,-4.04818 -21.909409,-7.67219 -2.170538,-1.3702 -4.630374,-2.49127 -5.466303,-2.49127 -1.794445,0 -1.869922,-0.47741 -0.484688,-3.06574 0.569351,-1.06384 1.597178,-1.93426 2.28406,-1.93426 0.686882,0 4.158551,-2.19335 7.714811,-4.8741 5.313593,-4.00545 7.312488,-6.39718 11.215958,-13.42017 2.612501,-4.70033 4.750001,-8.83582 4.750001,-9.18997 0,-0.35415 1.1239,-3.10101 2.49756,-6.10413 7.7286,-16.89645 12.53229,-42.03298 12.46648,-65.23399 l -0.036,-12.67764 -2.45907,3 c -1.35248,1.65 -2.4613,3.35649 -2.46403,3.79221 -0.005,0.75101 -0.91361,2.00269 -3.75497,5.17107 -0.6875,0.76662 -1.25,1.63688 -1.25,1.9339 0,1.48638 -8.72586,12.98349 -11.180551,14.73138 -1.72927,1.23137 -2.81943,2.92032 -2.81943,4.36811 0,2.36218 -2.323865,5.50333 -4.071435,5.50333 -0.51071,0 -0.87528,0.3375 -0.81015,0.75 0.65658,4.15832 -3.563613,10.30436 -8.054166,11.72961 -6.55281,2.07978 -20.685321,-7.93603 -26.058113,-18.46758 -2.549806,-4.99803 -2.525446,-7.08212 0.122123,-10.44796 1.675202,-2.12967 1.915622,-3.16955 1.129381,-4.88486 C 56.543005,149.90437 44.785287,127.37555 30.964127,101.03889 17.142968,74.702243 5.834746,52.487258 5.834746,51.672268 c 0,-0.935773 0.644858,-1.296857 1.75,-0.979903 13.99194,4.01288 42.954599,13.142123 43.601978,13.743665 0.468588,0.43541 5.247487,16.494024 10.619775,35.6858 14.734224,52.63605 12.572073,46.61005 16.462022,45.88029 1.825689,-0.3425 4.493931,-0.17619 5.92943,0.36959 2.27595,0.86532 2.48888,1.31086 1.66369,3.48128 -0.79743,2.09739 -0.53709,2.81085 1.65477,4.53497 3.317143,2.60926 3.474933,2.4742 12.569089,-10.75903 3.98709,-5.80177 9.83676,-13.25562 12.99926,-16.56411 4.79963,-5.02119 5.75,-6.60461 5.75,-9.58012 0,-3.09498 -0.6259,-4.02564 -4.75,-7.06283 -3.1642,-2.33029 -5.66956,-5.33433 -7.5044,-8.99815 -2.47379,-4.939666 -2.71291,-6.315016 -2.34716,-13.499991 0.22399,-4.4 0.64474,-9.35 0.93501,-11 2.47815,-14.086638 1.70213,-24.69819 -2.57866,-35.261302 -1.62285,-4.004489 -1.85388,-5.539612 -0.96712,-6.426371 0.88676,-0.886759 1.58875,-0.814037 2.9387,0.304432 0.9755,0.808225 3.09118,2.125092 4.70152,2.926371 1.61034,0.801278 5.13287,3.599277 7.82785,6.217774 2.69498,2.618496 5.32174,4.500225 5.83726,4.181618 1.8362,-1.134836 3.907,-7.763094 3.907,-12.505629 0,-8.828648 3.04857,-7.260122 8.91918,4.589035 1.64204,3.31426 3.29226,7.944161 3.66716,10.288669 0.37491,2.344508 0.95885,4.132841 1.29765,3.974072 0.33881,-0.158768 5.21662,-3.361456 10.83958,-7.117083 5.8224,-3.888837 10.98831,-6.661468 12,-6.44061 2.03281,0.443773 2.03533,0.410512 -0.5897,7.769024 -1.07912,3.025 -2.27293,7.17232 -2.65291,9.216267 l -0.69089,3.716267 11.343,0.283733 c 13.79404,0.345043 14.83031,1.486197 6.6668,7.341584 -2.91493,2.090774 -6.64987,5.257253 -8.29987,7.036621 -4.7215,5.091693 -10.5,12.182552 -10.5,12.884673 0,0.35175 -1.81063,4.32534 -4.02362,8.8302 -2.77887,5.656796 -4.94439,8.717636 -7,9.894136 -2.48944,1.4248 -2.97253,2.3246 -2.95283,5.5 0.0217,3.50529 0.55993,4.21356 7.01607,9.23333 3.84589,2.99025 8.91978,7.28345 11.27531,9.54044 4.92062,4.71479 15.68507,20.58534 15.68507,23.12527 0,1.58745 0.13772,1.58281 1.95971,-0.0661 1.24168,-1.12372 2.79953,-1.56273 4.25188,-1.19821 2.02706,0.50876 3.17001,-0.77874 9.88175,-11.13148 4.17426,-6.43873 13.59046,-21.55741 20.92488,-33.59707 l 13.33531,-21.890285 9.57323,0.592986 c 18.89039,1.170153 38.07324,3.012543 38.07324,3.656743 0,0.7592 -68.27084,68.916036 -71.95977,71.839596 l -2.45977,1.94943 3.20977,3.65573 c 1.76537,2.01065 3.20977,4.47032 3.20977,5.46594 0,1.73058 -2.88589,5.12019 -4.35929,5.12019 -0.386,0 -2.09978,1.5922 -3.80841,3.53822 -5.13446,5.84783 -11.27008,8.87492 -17.61946,8.69279 -7.48159,-0.21461 -13.25022,-2.61229 -16.02389,-6.66021 -1.96778,-2.87178 -2.19093,-4.07516 -1.59239,-8.58716 0.48624,-3.66544 1.54821,-6.21786 3.52265,-8.46663 3.40951,-3.88322 3.12505,-5.41723 -3.06284,-16.51701 -4.72227,-8.47077 -18.27624,-22.40259 -18.90016,-19.42705 -0.80595,3.8437 9.37036,41.77249 15.49067,57.73627 4.20142,10.95868 11.39029,25.69078 12.53642,25.69078 0.44919,0 0.8167,0.52295 0.8167,1.16211 0,1.27882 7.69542,14.85091 12.27266,21.64476 3.50867,5.2078 10.11536,10.19313 13.50822,10.19313 2.30413,0 2.43911,0.26706 1.8953,3.75 -0.44609,2.85715 -1.86969,4.95604 -5.97913,8.81539 -7.34849,6.90128 -13.33859,8.76404 -25.88209,8.0486 -10.83555,-0.61802 -9.81942,-0.61421 -25.31496,-0.095 -10.48807,0.35144 -12.995,0.10207 -19.8972,-1.97922 z m 30.50771,-1.91428 c 2.22188,-1.15938 3.11512,-1.14457 6,0.0995 2.43867,1.05164 5.7943,1.33328 11.96215,1.00399 10.54445,-0.56295 19.23416,-4.03706 22.67734,-9.06632 2.81345,-4.10944 2.8053,-4.8021 -0.0784,-6.66268 -1.27867,-0.825 -3.65364,-2.35127 -5.27771,-3.39172 -1.62406,-1.04045 -4.06457,-3.42983 -5.42335,-5.30973 -1.35878,-1.87991 -2.92051,-3.97104 -3.47051,-4.64695 -1.1962,-1.47006 -2.06875,-2.99641 -7.58839,-13.27436 -2.3267,-4.33248 -5.08541,-9.10929 -6.13046,-10.61514 -5.96326,-8.59254 -15.26227,-33.58728 -20.37367,-54.7621 -5.76044,-23.8636 -7.40751,-32.65416 -7.40751,-39.53451 l 0,-7.23155 -4.25,1.48265 c -2.72722,0.95142 -6.27803,1.30471 -9.91013,0.98601 l -5.66013,-0.49664 0.28317,3.79671 c 0.15574,2.0882 1.00863,4.83246 1.8953,6.09836 1.50434,2.14775 1.4794,2.44292 -0.37304,4.41476 -1.80698,1.92344 -1.98681,3.5435 -2.00349,18.04866 -0.0202,17.57551 -1.61739,31.19102 -5.41746,46.18221 -2.64752,10.44441 -9.48123,27.92367 -12.66526,32.39524 -1.04443,1.46676 -1.89896,2.9663 -1.89896,3.3323 0,1.93345 -6.767981,10.03918 -11.773316,14.10042 -3.149683,2.5556 -5.850763,4.96897 -6.002393,5.36305 -0.47375,1.23122 8.990233,5.82114 15.420048,7.47853 3.379391,0.87109 7.957371,1.5838 10.173281,1.5838 2.89007,0 4.91105,0.74226 7.14959,2.62587 1.77711,1.49533 6.18484,3.43033 10.2378,4.4944 3.91443,1.0277 7.34466,2.09606 7.62273,2.37414 1.16626,1.16625 19.77301,0.4407 22.28277,-0.8689 z m 38.03533,-80.74101 c 2.2614,-1.79107 4.75028,-4.78498 5.53085,-6.65314 1.08739,-2.60248 1.72178,-3.14555 2.71327,-2.32268 0.71173,0.59068 1.59015,0.77787 1.95205,0.41598 1.62351,-1.62352 0.22862,-3.65554 -5.54361,-8.0757 -3.41088,-2.61193 -7.9076,-6.26086 -9.99272,-8.10874 -2.51702,-2.23065 -4.36086,-3.14116 -5.48641,-2.70924 -1.36327,0.52313 -0.43794,1.81767 4.72464,6.60978 3.53097,3.27758 6.79771,5.95924 7.25944,5.95924 1.39732,0 3.69665,2.75459 3.69665,4.42857 0,0.86429 -0.6199,1.57143 -1.37756,1.57143 -0.75765,0 -1.90733,0.63835 -2.55484,1.41855 -0.64751,0.7802 -4.52761,3.33545 -8.62245,5.67834 -4.09483,2.34288 -7.44515,4.69249 -7.44515,5.22135 0,0.56803 2.25794,0.72853 5.5171,0.39215 4.18898,-0.43234 6.50688,-1.35334 9.62874,-3.82589 z m -23.41857,-1.61177 c -3.47495,-3.47496 -4.43469,-2.51522 -1.09091,1.09091 1.41131,1.52203 2.83411,2.49922 3.1618,2.17154 0.32768,-0.32768 -0.60422,-1.79579 -2.07089,-3.26245 z m 11.15759,-1.44295 c 1.31167,-1.00638 2.97681,-1.82978 3.70031,-1.82978 0.7235,0 1.67531,-0.57198 2.11514,-1.27106 0.43983,-0.69908 2.03719,-1.81443 3.54969,-2.47856 3.28462,-1.44225 3.43939,-2.33876 0.69915,-4.05006 -1.82618,-1.14047 -2.54747,-0.84363 -6.58429,2.70972 -2.49339,2.19477 -6.07051,4.49777 -7.94915,5.11778 -3.64243,1.20211 -4.08043,1.90746 -2.29385,3.69404 1.29209,1.29209 3.37092,0.71049 6.763,-1.89208 z m -97.634879,-3.56268 c 1.60541,-1.44677 2.4316,-4.2671 1.25,-4.2671 -0.275,0 -1.34412,0.84412 -2.37582,1.87583 -2.147919,2.14791 -7.556463,1.98623 -12.09672,-0.36163 -2.6651,-1.37818 -7.497101,-6.42545 -9.554863,-9.98054 -0.896602,-1.54902 -1.183429,-1.58701 -2.252882,-0.29839 -1.008163,1.21476 -0.500579,2.30013 2.862395,6.12067 2.248327,2.55423 4.687124,4.64406 5.419548,4.64406 0.732424,0 1.48168,0.36666 1.665014,0.8148 0.183333,0.44814 2.133333,1.55991 4.333333,2.4706 4.347796,1.79976 8.007633,1.45309 10.749995,-1.0183 z m 94.540759,-2.344 c 1.69905,-0.59229 4.21969,-2.55906 5.60141,-4.37059 l 2.51223,-3.29371 -2.58915,-2.3794 -2.58915,-2.3794 0.49886,2.75299 c 0.35664,1.96815 -0.16087,3.46485 -1.81529,5.25 -2.81522,3.03767 -4.3459,3.1216 -7.7726,0.42615 l -2.63267,-2.07086 -1.00219,2.63596 c -0.5512,1.44978 -1.00219,3.05666 -1.00219,3.57086 0,1.27397 6.99285,1.18195 10.79074,-0.142 z m -95.151959,-5.03829 c 1.30332,-1.08166 1.32728,-1.4424 0.1549,-2.3322 -1.63725,-1.24261 -3.823496,-6.29814 -4.055496,-9.378 -0.320828,-4.25911 -10.46484,-2.26475 -12.627927,2.48271 -1.692158,3.71389 -1.360688,5.47186 1.617934,8.58088 2.4808,2.58939 3.210676,2.80585 8.048498,2.38691 2.92616,-0.2534 6.014101,-1.03653 6.862091,-1.7403 z m 94.848719,-1.86459 c 1.42388,-2.30388 -7.67321,-22.24671 -13.4659,-29.52022 -1.7521,-2.2 -5.28623,-5.69886 -7.85362,-7.77525 -2.56739,-2.07638 -5.79298,-4.81719 -7.16798,-6.09067 -3.50027,-3.24184 -6.00175,-4.01513 -5.99321,-1.8527 0.004,0.94524 2.51284,3.74362 5.57578,6.21862 8.60719,6.955 14.06047,12.96779 16.5161,18.21066 1.23376,2.63414 2.63227,4.78934 3.1078,4.78934 1.37742,0 4.79353,8.84844 4.79353,12.41624 0,1.78773 0.3,3.55043 0.66667,3.91709 0.98492,0.98493 3.12709,0.80938 3.82083,-0.31311 z m -90.412389,-2.77022 c -1.43203,-1.16754 -2.21778,-3.05409 -2.36078,-5.66813 -0.25007,-4.57116 -2.71641,-6.31378 -2.71061,-1.9152 0.005,3.58256 3.45048,9.33333 5.59235,9.33333 1.302183,0 1.198563,-0.34807 -0.52096,-1.75 z m 6.103638,-5 c 1.40412,-1.5125 5.200821,-6.54872 8.437101,-11.19161 5.53729,-7.94399 6.94341,-10.06108 11.88415,-17.89314 1.1,-1.74372 2.7875,-3.42456 3.75,-3.73521 0.9625,-0.31065 1.75,-0.98449 1.75,-1.49743 0,-1.10705 -2.07736,-1.20572 -3.52231,-0.1673 -1.92387,1.38261 -10.24162,11.73025 -13.18458,16.4022 -3.86612,6.13746 -8.122191,11.64041 -11.649786,15.06275 -1.68569,1.6354 -2.62085,3.38595 -2.28139,4.27059 0.82598,2.15247 1.92145,1.868 4.816815,-1.25085 z M 235.69015,129.79675 c 19.3732,-19.04483 35.09364,-34.756316 34.93431,-34.914416 -0.42607,-0.42277 -39.96014,-3.63771 -40.21906,-3.27064 -0.19337,0.27415 -24.02276,39.584266 -33.34184,55.002316 -1.89165,3.12966 -4.29199,6.46191 -5.33408,7.40499 -2.2425,2.02943 -2.40931,3.73276 -0.51918,5.30143 1.59934,1.32733 6.05626,-3.72129 30.81283,-34.90358 l 15.4871,-19.50687 12.29368,-4.31171 c 7.39477,-2.593536 12.65669,-3.948706 13.20465,-3.400746 1.43546,1.43547 -0.79747,2.60698 -12.91,6.773246 l -11.23619,3.86484 -16.25286,20.54405 c -8.93907,11.29923 -18.68944,23.42453 -21.66748,26.9451 -5.08158,6.00732 -5.30115,6.48402 -3.56982,7.75 1.01465,0.74193 2.12586,1.34896 2.46937,1.34896 0.34351,0 16.47536,-15.58214 35.84857,-34.62697 z M 67.67131,158.0337 c 2.919131,-1.96443 7.028825,-4.03519 9.132651,-4.60169 2.103827,-0.5665 4.105443,-1.76046 4.448037,-2.65325 0.93783,-2.44394 -4.399578,-1.27964 -14.75842,3.21941 -8.557174,3.71655 -11.525402,6.65391 -8.569726,8.48062 1.484953,0.91775 2.395027,0.50273 9.747458,-4.44509 z m 0.833633,-8.75624 3.170197,-1.91822 -1.773055,-6.21776 C 68.926904,137.72171 63.942832,119.84872 58.826368,101.42372 53.709904,82.998729 49.254759,67.607298 48.926046,67.220549 48.149017,66.306332 11.701413,55.223729 11.181543,55.743599 c -0.217791,0.217791 10.971486,22.05647 24.865062,48.530391 27.712658,52.80591 25.236767,49.37309 32.458338,45.00347 z m -4.988533,-6.60374 c -0.753333,-1.5125 -6.857479,-16.475 -13.564768,-33.25 L 37.75657,78.923729 l -9.910295,-7.5 c -8.993928,-6.806503 -11.850719,-10 -8.945652,-10 0.586232,0 5.731448,3.642064 11.433814,8.093476 L 40.702375,77.610681 53.7702,110.2672 c 7.187304,17.96108 13.067087,33.21902 13.066186,33.90652 -0.0029,2.19959 -1.905459,1.33999 -3.319976,-1.5 z m 77.61569,-33.78585 c 4.41805,-2.02264 6.2246,-3.5912 8.62023,-7.48461 4.4095,-7.166346 4.86005,-9.733386 1.9055,-10.856696 -1.31241,-0.49898 -4.39699,-1.814592 -6.85463,-2.923585 -7.87203,-3.552199 -25.59571,-8.744894 -31.9522,-9.361378 -3.19723,-0.310083 -3.58326,-0.05 -4.69356,3.162128 -1.7986,5.203446 -1.56808,10.180765 0.75236,16.244455 2.57285,6.723256 5.27069,9.827956 10.42496,11.997116 7.92644,3.33583 13.22565,3.14682 21.79734,-0.77743 z m 14.86933,-20.390731 c 1.11319,-3.09441 12.76945,-15.658632 18.83333,-20.300352 l 3.5,-2.679143 -7,-0.04138 c -3.85,-0.02276 -8.74145,0.442159 -10.86989,1.033151 -2.12844,0.590992 -4.23521,0.700982 -4.68171,0.244423 -0.70396,-0.719831 1.4013,-11.555099 3.57709,-18.410426 0.65841,-2.074459 0.24734,-1.944087 -4.40195,1.396092 -2.82049,2.026323 -5.41828,3.684225 -5.77286,3.684225 -0.35458,0 -2.56678,1.575 -4.91598,3.5 -5.88679,4.823779 -7.02779,4.583494 -7.76429,-1.635094 -0.68747,-5.804586 -3.32536,-13.637952 -5.33049,-15.829192 -1.15465,-1.261822 -1.33992,-1.134482 -1.33992,0.920974 0,3.122803 -5.65893,14.698453 -7.53807,15.419549 -0.98051,0.376256 -1.92514,-0.549083 -2.87067,-2.812065 -1.55536,-3.722498 -5.78617,-8.120214 -10.40653,-10.817075 l -3.00314,-1.752902 1.90156,6.252902 c 1.35359,4.450968 1.90377,9.313299 1.90921,16.872798 l 0.008,10.619895 6.25,1.196093 c 13.52102,2.587585 35.5736,10.351645 37.2899,13.12867 0.74161,1.199962 2.19651,1.204872 2.62677,0.0089 z"
     id="path4079" />
</svg>
