<?xml version="1.0" encoding="UTF-8" standalone="no"?>
<!-- Created with Inkscape (http://www.inkscape.org/) -->

<svg
   xmlns:dc="http://purl.org/dc/elements/1.1/"
   xmlns:cc="http://creativecommons.org/ns#"
   xmlns:rdf="http://www.w3.org/1999/02/22-rdf-syntax-ns#"
   xmlns:svg="http://www.w3.org/2000/svg"
   xmlns="http://www.w3.org/2000/svg"
   xmlns:sodipodi="http://sodipodi.sourceforge.net/DTD/sodipodi-0.dtd"
   xmlns:inkscape="http://www.inkscape.org/namespaces/inkscape"
   id="svg3897"
   version="1.1"
   inkscape:version="0.47 r22583"
   width="280"
   height="280"
   sodipodi:docname="front.svg">
  <metadata
     id="metadata3903">
    <rdf:RDF>
      <cc:Work
         rdf:about="">
        <dc:format>image/svg+xml</dc:format>
        <dc:type
           rdf:resource="http://purl.org/dc/dcmitype/StillImage" />
        <dc:title />
      </cc:Work>
    </rdf:RDF>
  </metadata>
  <defs
     id="defs3901">
    <inkscape:perspective
       sodipodi:type="inkscape:persp3d"
       inkscape:vp_x="0 : 0.5 : 1"
       inkscape:vp_y="0 : 1000 : 0"
       inkscape:vp_z="1 : 0.5 : 1"
       inkscape:persp3d-origin="0.5 : 0.33333333 : 1"
       id="perspective3905" />
  </defs>
  <sodipodi:namedview
     pagecolor="#ffffff"
     bordercolor="#666666"
     borderopacity="1"
     objecttolerance="10"
     gridtolerance="10"
     guidetolerance="10"
     inkscape:pageopacity="0"
     inkscape:pageshadow="2"
     inkscape:window-width="1280"
     inkscape:window-height="949"
     id="namedview3899"
     showgrid="false"
     inkscape:zoom="1.8084291"
     inkscape:cx="133.12124"
     inkscape:cy="130.5011"
     inkscape:window-x="0"
     inkscape:window-y="25"
     inkscape:window-maximized="1"
     inkscape:current-layer="svg3897" />
  <path
     style="fill:#4d4d4d;fill-opacity:1;stroke:#b3b3b3;stroke-width:0.39100608;stroke-miterlimit:4;stroke-opacity:1;stroke-dasharray:none"
     d="m 148.53972,38.745763 c -0.11456,0.04466 -0.26814,0.193452 -0.46875,0.375 -1.66822,1.509722 -4.21836,9.593823 -5.625,17.84375 -0.13488,0.791105 -0.54974,1.802391 -0.9375,2.28125 -0.62205,0.76821 -0.85149,0.847332 -1.9375,0.46875 -0.67695,-0.235988 -2.65072,-1.53117 -4.375,-2.84375 -1.72428,-1.312581 -4.5134,-3.222544 -6.1875,-4.25 -1.6741,-1.027457 -4.31974,-2.760838 -5.90625,-3.875 -1.58651,-1.114163 -2.9685,-1.96901 -3.0625,-1.875 -0.094,0.094 0.47296,2.702346 1.25,5.78125 1.48134,5.869573 2.61524,12.629631 2.28125,13.5 -0.25545,0.665698 -1.52942,0.642982 -5.59375,-0.09375 -3.83401,-0.695034 -16.82089,-1.243833 -16.21875,-0.6875 0.21506,0.198692 1.26848,1.030439 2.34375,1.875 5.0295,3.95039 15.55636,14.925618 18.34375,19.125 0.79294,1.194617 1.65974,2.1875 1.9375,2.1875 0.27775,0 0.84032,-0.379618 1.25,-0.84375 0.85114,-0.964279 7.15677,-4.030695 11.5,-5.59375 9.50028,-3.418985 18.30774,-5.950656 26.59375,-7.625 l 5.28125,-1.0625 0.25,-10.34375 c 0.24838,-10.654932 0.42074,-12.090412 2.15625,-18.25 0.56314,-1.998668 0.91261,-3.743633 0.78125,-3.875 -0.43008,-0.430074 -5.56052,3.28474 -8.03125,5.8125 -1.3294,1.360085 -3.18658,3.79335 -4.09375,5.40625 -1.71072,3.041604 -2.74142,3.763278 -4,2.71875 -1.72657,-1.432925 -6.01363,-10.370597 -6.8125,-14.21875 -0.28044,-1.350856 -0.39921,-1.889196 -0.625,-1.9375 -0.0339,-0.0072 -0.0557,-0.01489 -0.0937,0 z m 118.375,17.03125 c -2.11914,0.174606 -16.76378,4.402336 -29.46875,8.5625 l -7.0625,2.3125 -0.875,3.03125 c -2.37064,8.000396 -8.07401,28.080954 -14.5625,51.281257 l -7.15625,25.59375 1.125,0.90625 c 1.3641,1.08953 5.30039,3.21809 6.75,3.65625 0.56885,0.17194 1.17623,0.32525 1.3125,0.34375 0.98476,0.13358 50.87936,-94.995644 50.1875,-95.687507 -0.0258,-0.0258 -0.10872,-0.01164 -0.25,0 z m -6.125,5 c 0.49498,-0.02482 0.6875,0.267632 0.6875,0.8125 0,1.332453 -4.62101,5.401966 -15.53125,13.65625 l -4.375,3.28125 -5.125,12.75 c -14.46407,35.832717 -20.59878,50.204597 -22.46875,52.656257 -1.19971,1.57289 -1.75,1.66864 -1.75,0.34375 0,-1.70514 6.93939,-19.82859 21.59375,-56.375007 l 4.40625,-11.03125 7.625,-5.90625 c 9.31582,-7.229097 13.45256,-10.11304 14.9375,-10.1875 z m -91.625,17.09375 -3.21875,0.25 c -6.2001,0.456196 -22.3965,5.323064 -33.875,10.1875 -4.75725,2.016062 -5.72449,2.565228 -6.03125,3.4375 -0.47706,1.356508 0.36918,3.552904 3.03125,7.937504 2.41952,3.985083 3.91965,5.661923 6.40625,7.062503 2.3745,1.33744 7.83117,3.61074 9.75,4.0625 4.37924,1.03102 12.41895,-0.505 17.15625,-3.28125 4.5114,-2.64385 8.80345,-10.928193 9.40625,-18.156257 0.2848,-3.41501 -0.55013,-8.060312 -1.84375,-10.1875 l -0.78125,-1.3125 z m -7.1875,2.125 c 0.73812,-0.09219 1.55814,0.159553 2.71875,0.6875 1.92496,0.875647 2.47127,1.460238 2.59375,2.96875 0.2109,2.597491 -0.0694,3.747726 -1.125,4.90625 -1.44608,1.587141 -2.98955,1.811604 -5.09375,0.75 -3.20055,-1.614723 -3.771,-5.397993 -1.21875,-8.03125 0.74204,-0.76559 1.38688,-1.189057 2.125,-1.28125 z m 0.8125,4.375 c -0.49823,0 -0.889,0.318281 -1,0.8125 -0.0909,0.404938 0.0985,0.812537 0.5,1.09375 0.43573,0.305193 1.07159,0.122636 1.375,-0.375 0.29122,-0.477645 0.23272,-0.798532 -0.15625,-1.1875 -0.2684,-0.268395 -0.39949,-0.34375 -0.71875,-0.34375 z m -24.59375,2.625 c 2.86431,0 5.1845,2.331056 5.1875,5.21875 0.001,1.236344 -0.25896,1.790204 -1.5,3.031254 -1.26316,1.26316 -1.7772,1.53125 -3.09375,1.53125 -1.25934,0 -1.88856,-0.29553 -3,-1.34375 -1.21608,-1.14692 -1.375,-1.55657 -1.375,-3.156254 0,-3.039157 1.60285,-5.28125 3.78125,-5.28125 z m 1.09375,2.96875 c -0.15989,0.01306 -0.34502,0.08824 -0.5,0.25 -0.5526,0.576787 -0.5425,1.698981 0,2.28125 0.62091,0.666424 1.40625,0.04454 1.40625,-1.125 0,-0.867897 -0.42657,-1.445444 -0.90625,-1.40625 z m -90.687496,1.3125 -1.78125,0.03125 c -2.679222,0.0066 -36.433078,2.651834 -36.65625,2.875004 -0.106999,0.107 0.360669,0.87383 1.0625,1.6875 5.623286,6.519403 39.481281,40.833853 58.375,59.187503 6.446716,6.26243 11.929099,11.28525 12.3125,11.28125 0.380261,-0.004 2.092073,-0.86219 3.8125,-1.9375 1.720426,-1.0753 3.51613,-2.16107 4,-2.40625 0.483866,-0.24519 0.874996,-0.58405 0.874996,-0.75 0,-0.6701 -26.021294,-44.10058 -39.874996,-66.531253 l -2.125,-3.437504 z m 115.124996,3.906254 c 1.37834,0 1.61807,3.46839 0.40625,5.843753 -1.33862,2.62391 -5.10742,5.2872 -8.8125,6.21875 -2.32596,0.58481 -5.69987,0.80241 -7.125,0.46875 -1.50482,-0.35231 -2.59555,-1.04646 -4.3125,-2.75 -1.61385,-1.60124 -1.94239,-2.82981 -1.09375,-4.125 0.51379,-0.78414 0.92636,-0.969893 1.90625,-0.875003 0.99848,0.0967 1.39774,0.425303 1.96875,1.593753 0.55592,1.13759 1.02728,1.52292 2.21875,1.84375 1.82956,0.49265 7.22892,-0.0777 8.875,-0.9375 1.65894,-0.86649 3.14374,-2.604553 3.8125,-4.500003 0.74102,-2.10029 1.25174,-2.78125 2.15625,-2.78125 z m -147.718746,1.1875 c 0.136178,-0.0192 0.30497,-0.0104 0.53125,0 0.301707,0.0138 0.674177,0.072 1.1875,0.125 1.744824,0.18008 17.578506,5.225933 23.03125,7.343753 0.765167,0.29719 2.53125,2.17514 5.0625,5.375 2.134257,2.698 8.649125,10.89169 14.46875,18.21875 18.417329,23.18789 23.723107,30.56636 23.125,32.125 -0.113939,0.29692 -0.354222,0.5625 -0.53125,0.5625 -0.894231,0 -6.87926,-7.30196 -29.90625,-36.375 l -12.875,-16.21875 -8.0625,-2.84375 c -13.693204,-4.797313 -16.5,-6.098213 -16.5,-7.593753 0,-0.44399 0.06022,-0.66118 0.46875,-0.71875 z m 121.656246,16.156253 -0.25,6.5 c -0.32735,8.64604 -1.47258,15.18478 -6.09375,34.71875 -3.66731,15.50187 -7.84735,29.04004 -12.84375,41.75 -2.96168,7.53397 -5.67023,13.10557 -9.53125,19.5625 -1.80438,3.01754 -5.11694,8.8843 -7.375,13.03125 -2.51398,4.61695 -5.50842,9.40027 -7.71875,12.375 -3.6821,4.9555 -3.74465,5.02992 -10.968746,10 -1.571318,1.08105 -2.96456,2.25708 -3.09375,2.59375 -0.367427,0.9575 1.447933,3.90864 3.625,5.90625 2.243966,2.05901 8.583716,5.49595 12.093746,6.5625 1.94995,0.59249 3.65642,0.7086 10.15625,0.6875 6.92779,-0.0225 8.12346,-0.0952 10.375,-0.84375 3.16474,-1.05221 3.77385,-1.05455 6.34375,-0.0313 1.13699,0.45276 3.27588,0.95847 4.78125,1.125 9.90144,1.09536 27.49163,-2.3285 34.1875,-6.65625 3.8799,-2.5077 4.5579,-2.76805 9.71875,-3.34375 5.85517,-0.65316 9.77396,-1.57742 14.6875,-3.53125 3.89124,-1.54732 8.875,-4.26264 8.875,-4.84375 0,-0.19856 -2.25807,-2.40725 -5,-4.875 -6.55496,-5.8995 -10.73595,-10.69486 -12.1875,-13.96875 -0.4128,-0.93107 -1.60932,-3.10362 -2.65625,-4.84375 -2.34361,-3.89536 -6.35978,-13.48429 -9.25,-22.09375 -4.30739,-12.83095 -6.45945,-23.61725 -7.6875,-38.6875 -0.32491,-3.98734 -0.97761,-31.05759 -1.15625,-47.90625 l 0,-1.15625 -6.5625,0 c -6.01281,-0.003 -6.77199,-0.10287 -9.5,-1.03125 l -2.96875,-1 z m -4.46875,10.21875 c -1.01959,0.0904 -3.22377,1.68529 -8.0625,5.75 -9.57464,8.04304 -14.15265,13.48722 -18.21875,21.625 -1.96724,3.93718 -3.40625,7.88258 -3.40625,9.375 0,1.90967 1.15569,1.04627 2.71875,-2.0625 2.1061,-4.18882 6.76377,-11.85867 8.8125,-14.5 1.71864,-2.21578 7.56192,-8.00854 14.4375,-14.28125 3.95906,-3.61192 4.9904,-5.0096 4.25,-5.75 -0.12817,-0.12817 -0.29596,-0.17711 -0.53125,-0.15625 z m 27.71875,3.53125 c -0.59006,-0.0961 -0.50222,0.71352 0.3125,2.3125 0.52673,1.03377 1.12837,1.9353 2.5625,3.78125 2.48192,3.19461 3.56269,4.74269 5,7.1875 2.56627,4.36514 9.9466,14.76581 13.46875,19 0.95716,1.15067 2.15136,2.31922 2.84375,2.75 0.38687,0.2407 0.48236,0.23802 0.71875,-0.0625 0.54887,-0.69776 0.77121,-2.02813 0.46875,-2.875 -0.4033,-1.12923 -1.01649,-1.95453 -3.90625,-5.15625 -2.50408,-2.77439 -2.91883,-3.30366 -5.90625,-7.8125 -2.67008,-4.0299 -3.39851,-5.07218 -5.53125,-7.90625 -3.87774,-5.15291 -7.97678,-9.95801 -9.21875,-10.8125 -0.34785,-0.23933 -0.61581,-0.37423 -0.8125,-0.40625 z m 35.96875,20.9375 c -0.93765,0 -0.0568,1.66784 1.78125,3.40625 3.09685,2.92887 5.44678,4.31011 15.03125,8.71875 4.89098,2.24975 8.6875,4.20995 8.6875,4.5 0,0.283 -0.51883,0.88987 -1.15625,1.34375 -0.63741,0.45388 -1.73083,1.9185 -2.4375,3.25 -1.86798,3.51963 -5.7102,7.42562 -8.78125,8.9375 -4.74512,2.33601 -11.10221,1.8789 -14.46875,-1.03125 -1.75738,-1.51914 -1.58711,-2.34376 0.5625,-2.6875 1.15281,-0.18434 1.81494,-0.60392 2.59375,-1.625 0.57544,-0.75444 1.28968,-1.375 1.59375,-1.375 1.30845,0 1.83527,-2.97723 0.71875,-4.09375 -0.91487,-0.91487 -3.07323,-0.52318 -4.5,0.84375 -1.41564,1.35627 -3.84375,6.12539 -3.84375,7.5625 0,2.18699 4.42548,6.25881 7.625,7 6.98544,1.61822 16.03152,-2.61313 20.625,-9.625 2.21572,-3.38227 3.04205,-5.51355 3.03125,-7.84375 -0.0164,-3.53205 -2.73173,-7.83622 -5.46875,-8.65625 -0.88651,-0.2656 -4.99987,-1.88839 -9.125,-3.625 -8.92273,-3.7563 -12.04112,-5 -12.46875,-5 z m -2.65625,8.6875 c -0.28759,0 -1.0667,0.62535 -1.5625,1.25 -2.26606,2.855 -4.007,7.31999 -4,10.3125 0.002,0.69698 0.15111,1.04223 0.5,1.21875 0.37558,0.19004 0.80819,0.15745 1.375,-0.125 0.68994,-0.34381 1.83231,-1.481 2.21875,-2.21875 1.57221,-3.00151 2.61795,-10.4375 1.46875,-10.4375 z m 5.625,0.46875 c -1.04474,0.11836 -1.59205,1.37898 -1.46875,3.59375 0.0746,1.3395 0.42403,2.25985 1,2.59375 0.63074,0.36565 1.82276,-0.0574 3.3125,-1.125 1.4219,-1.01899 1.62388,-1.27936 1.375,-1.875 -0.23169,-0.55452 -2.3359,-2.56639 -3.03125,-2.90625 -0.45489,-0.22233 -0.83925,-0.3207 -1.1875,-0.28125 z m -104.5,0.5625 c -0.6332,0.0383 -1.19919,0.16665 -1.4375,0.34375 -0.37144,0.27602 -0.34037,0.60755 0.0625,1.75 0.64717,1.83521 0.74091,2.24155 0.59375,2.59375 -0.071,0.16998 -0.51754,0.64303 -0.96875,1.0625 -1.82979,1.70107 -5.359835,4.13997 -9.374996,6.4375 -2.935461,1.67971 -4.110714,2.77303 -4.9375,4.5625 -1.242054,2.68826 -0.638363,6.01999 1.875,10.09375 2.245676,3.63989 4.9433,6.34778 6.875,6.9375 0.134409,0.041 0.379777,0.0888 0.53125,0.0937 0.24075,0.007 0.27463,-0.0265 0.21875,-0.21875 -0.114396,-0.39359 -0.763596,-1.22887 -1.84375,-2.4375 -2.326201,-2.60289 -2.7664,-3.74587 -3,-7.5625 -0.136592,-2.23168 -0.07517,-4.26727 0.15625,-5.0625 0.213882,-0.73496 0.764299,-1.30107 1.625,-1.65625 0.338313,-0.1396 1.148671,-0.47681 1.8125,-0.75 4.409446,-1.81467 8.176976,-4.95374 9.843746,-8.21875 0.74155,-1.45261 1.62193,-3.96139 1.8125,-5.1875 0.18401,-1.18391 -0.13834,-2.01107 -0.90625,-2.40625 -0.59351,-0.30542 -1.88216,-0.43888 -2.9375,-0.375 z m 114.40625,5.34375 c -0.1081,0.009 -0.19335,0.0526 -0.21875,0.0937 -0.33607,0.54377 3.23531,2.06442 5.34375,2.28125 0.18817,0.0193 0.3481,0.0233 0.375,0.0313 0.0269,0.008 0.1148,-0.0165 0.1875,-0.0625 0.48831,-0.30944 -3.66712,-2.15032 -5.21875,-2.3125 -0.20725,-0.0216 -0.36065,-0.0403 -0.46875,-0.0313 z m -103.9375,1.65625 c -1.02363,-0.019 -1.9383,0.11997 -2.34375,0.40625 -0.5413,0.38221 -0.78877,1.45103 -0.90625,3.71875 -0.0779,1.50458 0.0293,2.22664 0.375,2.46875 0.43576,0.30522 2.30165,0.10706 2.875,-0.3125 0.57754,-0.4226 0.6101,-0.56962 0.625,-2.28125 l 0.0313,-1.5625 0.28125,-0.25 c 0.56529,-0.48623 1.20901,-0.19956 2.46875,1.09375 0.48876,0.50179 1.00395,0.97335 1.15625,1.03125 0.39423,0.14988 0.75284,0.0168 1.15625,-0.375 0.40179,-0.38975 0.50065,-0.65323 0.40625,-1.15625 -0.13772,-0.73408 -1.49588,-1.74937 -3.0625,-2.28125 -0.91531,-0.31076 -2.03887,-0.48103 -3.0625,-0.5 z m 103.1875,3.03125 c -1.73738,-0.0547 -2.7179,0.32465 -3.125,1.15625 -0.21793,0.44509 -0.2162,0.78786 0.0625,1.34375 0.39927,0.79636 1.59855,1.83121 2.8125,2.46875 0.79499,0.41751 1.39525,0.41725 1.8125,0 0.44922,-0.44922 0.619,-1.16692 0.625,-2.5625 0.005,-1.05723 -0.0122,-1.2334 -0.21875,-1.59375 -0.36866,-0.6432 -0.65227,-0.771 -1.96875,-0.8125 z m -110.71875,3.53125 c -0.0816,-0.003 -0.20807,0.0486 -0.40625,0.125 -0.22929,0.0884 -0.68101,0.36154 -1.03125,0.625 -0.65732,0.49443 -2.82072,2.65704 -3.21875,3.21875 -0.12386,0.17473 -0.19085,0.3125 -0.15625,0.3125 0.0346,0 0.31994,-0.17524 0.625,-0.40625 1.12464,-0.85166 2.40579,-1.52425 2.90625,-1.53125 1.016,-0.0149 2.08363,-1.07207 1.8125,-1.78125 -0.0492,-0.12871 -0.1996,-0.30456 -0.3125,-0.40625 -0.0976,-0.0879 -0.13715,-0.15309 -0.21875,-0.15625 z m 8.03125,3.46875 c -0.28762,-0.006 -0.54684,0.0573 -0.71875,0.21875 -0.3269,0.30709 -0.32148,0.7406 0,1.375 0.36064,0.71169 1.00733,1.29531 2.25,1.96875 1.70017,0.92136 2.38185,1.49885 2.875,2.4375 0.18831,0.35842 0.251,0.6004 0.25,1.25 -0.001,0.74345 -0.0481,0.83154 -0.4375,1.59375 -0.27625,0.54072 -0.81247,1.31134 -1.59375,2.25 -2.48777,2.98891 -4.30934,5.91924 -4.0625,6.5625 0.09,0.23455 0.33818,0.20075 0.84375,-0.125 0.94247,-0.60725 2.85953,-2.81774 4.34375,-5.03125 1.84268,-2.74811 2.47919,-4.82609 1.96875,-6.34375 -0.69029,-2.05243 -3.09459,-5.03479 -4.78125,-5.90625 -0.33136,-0.17123 -0.64988,-0.2444 -0.9375,-0.25 z m 97.15625,0 c -0.76002,-0.0373 -1.50135,0.13357 -1.90625,0.5 -0.56367,0.51012 0.18903,1.12867 1.5625,1.28125 1.94423,0.21597 3.23519,-0.36995 2.375,-1.09375 -0.48749,-0.4102 -1.27123,-0.65022 -2.03125,-0.6875 z m -102.71875,2 c -1.37398,0.0442 -3.38294,0.61305 -4.9375,1.5 -1.26125,0.71959 -1.58021,1.11996 -1.40625,1.75 0.0606,0.21936 0.18242,0.41565 0.3125,0.46875 0.3574,0.1459 1.00377,-0.0186 2.84375,-0.625 2.10739,-0.69455 3.6096,-1.38508 4.21875,-1.96875 0.5472,-0.52432 0.56802,-0.80184 0.0937,-1 -0.27644,-0.1155 -0.66701,-0.13974 -1.125,-0.125 z m 4.53125,4 c -1.83253,-0.0674 -3.68995,0.6125 -4.96875,1.78125 -1.57298,1.43761 -1.14115,2.68859 1.0625,3 1.18521,0.16749 2.89019,-0.0811 3.84375,-0.5625 0.97622,-0.49279 1.82477,-1.64339 1.9375,-2.625 0.0429,-0.37331 0.031,-0.54019 -0.15625,-0.8125 -0.42787,-0.6224 -0.70432,-0.74395 -1.71875,-0.78125 z"
     id="path3962" />
  <path
     style="fill:#782121;fill-opacity:1;stroke:#000000;stroke-width:1px;stroke-linecap:butt;stroke-linejoin:miter;stroke-opacity:1"
     d="m 93.07671,156.04532 c 0.78202,-0.1955 7.23362,-0.58651 7.23362,-0.58651 l 0.391,8.60213 -10.16616,9.97066 -5.474081,2.15053 1.173018,8.79764 7.038113,7.82012 -7.820125,-1.17302 -8.211128,-10.75266 2.737042,-12.12119 12.316691,-7.82012 -1.17302,-4.30107"
     id="path2821" />
  <path
     style="fill:#ffffff;stroke:#000000;stroke-width:1px;stroke-linecap:butt;stroke-linejoin:miter;stroke-opacity:1"
     d="m 92.68571,176.96414 c -0.58651,-0.78201 -2.737045,-1.36852 -1.95503,-2.34603 0.78201,-0.97752 8.21112,-7.62462 8.21112,-7.62462 l 3.91007,-4.49657 6.4516,-0.1955 4.10556,4.30106 -2.93255,4.49657 -8.60213,1.36853 2.54154,5.66958 4.69207,3.12805 c 0,0 -4.69207,6.84261 -5.66959,6.4516 -0.97751,-0.391 -6.25609,-3.71456 -6.25609,-3.71456 l -5.27858,-5.66958"
     id="path3605" />
  <path
     style="fill:#782121;fill-opacity:1;stroke:#000000;stroke-width:1px;stroke-linecap:butt;stroke-linejoin:miter;stroke-opacity:1"
     d="m 107.15293,172.27207 -4.30106,1.95503 6.06059,6.64711 -4.10556,7.42911 -0.78202,5.86509 4.88758,-3.12805 c 0,0 6.2561,-8.21112 5.86509,-8.99314 -0.39101,-0.78201 -5.27858,-10.55716 -5.27858,-10.55716"
     id="path3595" />
  <path
     style="fill:#782121;fill-opacity:1;stroke:#000000;stroke-width:1px;stroke-linecap:butt;stroke-linejoin:miter;stroke-opacity:1"
     d="m 197.67084,145.48816 -3.32355,1.95503 2.93254,5.47408 21.11433,11.53468 -8.40663,10.55716 -7.42911,2.54154 -5.27859,-2.34603 5.66959,-4.88758 0.39101,-6.06059 -7.62462,0.58651 -5.08308,8.40663 2.73704,7.42911 9.38415,4.30107 14.85823,-6.06059 6.4516,-9.97066 0.97752,-8.01562 -4.88758,-7.23362 -14.07622,-5.08308"
     id="path3597" />
  <path
     style="fill:#782121;fill-opacity:1;stroke:#000000;stroke-width:1px;stroke-linecap:butt;stroke-linejoin:miter;stroke-opacity:1"
     d="m 98.7463,64.549893 15.05374,13.48971 10.36166,12.9032 c 0,0 14.27172,-7.624618 15.05373,-7.820121 0.78201,-0.195503 32.258,-7.233613 32.0625,-8.211128 -0.1955,-0.977515 -0.39101,-13.098704 -0.39101,-13.098704 l 5.08308,-24.633383 -9.18864,4.301067 -9.97065,10.752667 -5.66959,-8.99314 -1.56403,-9.384146 -5.08308,6.647103 -5.08308,16.226753 -22.28734,-13.098704 4.69207,20.723323 c 0,0 -16.22675,-1.368522 -17.00876,-1.173019 -0.78202,0.195503 -2.93255,0.586509 -2.93255,0.586509"
     id="path3599" />
  <path
     style="fill:#ff0000;stroke:#000000;stroke-width:1px;stroke-linecap:butt;stroke-linejoin:miter;stroke-opacity:1"
     d="m 139.80194,94.070857 2.34604,-3.128054 -3.12805,-2.737042 -2.93255,3.128048"
     id="path3601" />
  <path
     style="fill:#ff0000;stroke:#000000;stroke-width:1px;stroke-linecap:butt;stroke-linejoin:miter;stroke-opacity:1"
     d="m 160.13426,82.731676 3.12805,-0.782013 2.34603,2.737043 -1.17302,3.519055 -4.69207,-1.759528"
     id="path3603" />
  <path
     style="fill:#ffffff;stroke:#000000;stroke-width:1px;stroke-linecap:butt;stroke-linejoin:miter;stroke-opacity:1"
     d="m 195.91131,153.50378 6.0606,1.75953 16.22675,8.79763 -5.47408,8.40664 -5.66959,4.10556 -8.99314,-0.58651 2.73704,-3.32355 2.73704,-2.73704 0.19551,-5.47409 -7.23362,-0.39101 -6.25609,6.64711 -4.88758,-3.32355 3.91006,-9.97066"
     id="path3607" />
  <path
     style="fill:#d7e3f4;fill-opacity:1;stroke:#000000;stroke-width:1px;stroke-linecap:butt;stroke-linejoin:miter;stroke-opacity:1"
     d="M 5.5296611,92.820973 80.733052,168.57733 93.45127,160.83581 49.213984,88.95021"
     id="path2834" />
  <path
     style="fill:#d7e3f4;fill-opacity:1;stroke:#000000;stroke-width:1px;stroke-linecap:butt;stroke-linejoin:miter;stroke-opacity:1"
     d="m 205.97988,147.01165 13.27118,6.6356 52.53178,-101.469286 -43.9608,13.54767"
     id="path3608" />
  <path
     style="fill:#000000"
     d="m 91.81516,268.0107 c -6.918861,-2.34885 -15.478061,-10.51968 -16.258971,-15.52123 -0.5438,-3.48294 -0.40882,-3.75 1.8953,-3.75 3.39287,0 9.99956,-4.98533 13.508221,-10.19313 4.57725,-6.79385 12.27267,-20.36594 12.27267,-21.64476 0,-0.63916 0.36751,-1.16211 0.8167,-1.16211 1.14613,0 8.335,-14.7321 12.53642,-25.69078 6.12031,-15.96378 16.29662,-53.89257 15.49067,-57.73627 -0.25246,-1.20399 -2.24844,0.16253 -7.51311,5.14374 -6.27293,5.93518 -9.32044,10.21575 -15.97271,22.43541 -0.19525,0.35866 1.21934,1.58098 3.14352,2.71628 4.02119,2.37256 4.65111,5.77856 1.58234,8.55575 -1.88271,1.70384 -1.87399,1.79628 0.5,5.29454 1.32889,1.95823 2.41617,4.12349 2.41617,4.81169 0,2.20627 -6.56172,10.89448 -9.98405,13.21964 -4.47994,3.0437 -11.00318,2.96733 -17.515951,-0.20505 -6.18252,-3.01152 -7.31129,-3.98248 -10.71157,-9.21403 -3.91122,-6.01768 -4.27233,-8.46208 -1.92873,-13.05592 l 2.01843,-3.95644 -37.93907,-37.85307 C 19.304959,109.38577 2.2323801,92.05948 2.2323801,91.702091 c 0,-0.638733 19.2501789,-2.484286 38.0750889,-3.650335 l 9.57509,-0.593099 18.84111,30.890403 c 24.444761,40.07771 21.28305,35.9586 27.288141,35.55135 4.80261,-0.3257 5.10004,-0.52277 7.5464,-5 5.78836,-10.5936 11.33703,-16.61883 25.47315,-27.66094 4.53349,-3.54123 5.12541,-4.43543 5.16091,-7.79651 0.0336,-3.18377 -0.44027,-4.07145 -2.93627,-5.5 -2.05561,-1.1765 -4.22113,-4.23735 -7,-9.894143 -2.21299,-4.50486 -4.02362,-8.478455 -4.02362,-8.830208 0,-0.702118 -5.7785,-7.792977 -10.5,-12.88467 -1.65,-1.779368 -5.38494,-4.945847 -8.29987,-7.036621 -8.16351,-5.855387 -7.12724,-6.996541 6.6668,-7.341584 l 11.343,-0.283733 -0.69089,-3.716267 c -0.37998,-2.043947 -1.57379,-6.191267 -2.65291,-9.216267 -2.62503,-7.358512 -2.62251,-7.325251 -0.5897,-7.769024 1.01169,-0.220858 6.1776,2.551773 12,6.44061 5.62296,3.755627 10.50077,6.958315 10.83958,7.117083 0.3388,0.158769 0.92274,-1.629564 1.29765,-3.974072 0.3749,-2.344508 2.02512,-6.974409 3.66716,-10.288669 5.87061,-11.849156 8.91918,-13.417682 8.91918,-4.589035 0,4.742535 2.0708,11.370793 3.907,12.505629 0.51552,0.318607 3.14228,-1.563122 5.83726,-4.181618 2.69498,-2.618497 6.21751,-5.416496 7.82785,-6.217774 1.61034,-0.801279 3.72602,-2.118146 4.70152,-2.926371 1.34995,-1.118468 2.05194,-1.19119 2.9387,-0.304431 0.88676,0.886758 0.65573,2.421881 -0.96712,6.42637 -4.28079,10.563112 -5.05681,21.174664 -2.57866,35.261302 0.29027,1.65 0.71102,6.6 0.93501,11 0.36575,7.18498 0.12663,8.56034 -2.34716,13.500003 -1.83484,3.66382 -4.3402,6.66786 -7.5044,8.99814 -4.1241,3.0372 -4.75,3.96786 -4.75,7.06283 0,2.97552 0.95037,4.55893 5.75,9.58013 3.1625,3.30849 9.01217,10.76234 12.99926,16.56411 9.09414,13.23323 9.25193,13.36829 12.56908,10.75903 2.09682,-1.64936 2.43417,-2.48499 1.74016,-4.31037 -0.62622,-1.64708 -0.36387,-2.9233 0.96234,-4.6815 1.81388,-2.40471 1.84229,-2.40807 5.52501,-0.6519 2.03597,0.97089 3.9418,1.52522 4.23518,1.23184 0.29337,-0.29338 5.59586,-18.58586 11.78328,-40.64996 6.18744,-22.064109 11.62919,-40.468715 12.09278,-40.899131 0.64047,-0.594637 29.69442,-9.748511 43.5929,-13.734586 1.10514,-0.316954 1.75,0.04413 1.75,0.979903 0,0.81499 -11.30822,23.029975 -25.12938,49.366634 -13.82116,26.33666 -25.58464,48.87812 -26.14107,50.09215 -0.84309,1.83947 -0.48823,2.8035 2.12938,5.78479 3.56618,4.06166 4.07473,8.33757 1.67476,14.08149 -1.99525,4.77532 -10.95351,12.936 -15.79143,14.38548 -4.07291,1.22027 -10.61828,0.65393 -14.24225,-1.23233 -4.2744,-2.22479 -7.22709,-7.12187 -6.61842,-10.97675 0.0651,-0.4125 -0.29944,-0.75 -0.81015,-0.75 -1.74757,0 -4.07143,-3.14115 -4.07143,-5.50333 0,-1.44779 -1.09016,-3.13674 -2.81945,-4.36811 -2.42795,-1.72885 -11.18055,-13.23832 -11.18055,-14.70216 0,-0.49356 -1.13608,-1.97491 -3.75,-4.88968 -0.6875,-0.76662 -1.25224,-1.76351 -1.25497,-2.21529 -0.003,-0.45179 -1.11155,-2.17143 -2.46403,-3.82143 l -2.45907,-3 -0.036,12.67764 c -0.0658,23.20101 4.73788,48.33754 12.46648,65.23399 1.37366,3.00312 2.49756,5.74998 2.49756,6.10413 0,0.35415 2.1375,4.48964 4.75,9.18997 3.90346,7.02299 5.90235,9.41472 11.21594,13.42017 3.55627,2.68075 7.02793,4.8741 7.71482,4.8741 0.68688,0 1.71471,0.87042 2.28406,1.93426 1.38523,2.58833 1.30975,3.06574 -0.48469,3.06574 -0.83593,0 -3.29577,1.12107 -5.4663,2.49127 -5.72299,3.61276 -13.23669,6.24987 -21.9094,7.6896 -4.20536,0.69812 -9.00541,2.20336 -10.73871,3.36753 -1.72386,1.15783 -6.89886,3.1155 -11.5,4.35039 -7.10636,1.90724 -10.02164,2.16679 -19.36572,1.72413 -13.30822,-0.63046 -12.6176,-0.62757 -25,-0.10467 -7.59209,0.32061 -11.18403,0.0203 -14.91722,-1.24702 z m 24.42606,-2.6329 c 2.7557,-1.15868 3.66529,-1.14874 6.10169,0.0667 7.07566,3.5298 33.23704,-0.45393 39.92226,-6.07916 2.23854,-1.88361 4.25952,-2.62587 7.14959,-2.62587 2.21591,0 6.79389,-0.71271 10.17328,-1.5838 6.4298,-1.65739 15.89378,-6.24731 15.42004,-7.47853 -0.15164,-0.39408 -2.85272,-2.80745 -6.0024,-5.36305 -5.00533,-4.06124 -11.7733,-12.16697 -11.7733,-14.10042 0,-0.366 -0.85453,-1.86554 -1.89896,-3.3323 -3.1839,-4.47137 -10.01769,-21.95064 -12.66496,-32.39406 -4.0668,-16.04344 -5.32312,-28.38549 -5.53641,-54.38949 l -0.19801,-24.14164 -5.60083,0.49127 c -3.57213,0.31332 -7.14024,-0.0458 -9.85083,-0.99139 l -4.25,-1.48266 0,7.23156 c 0,6.88035 -1.64707,15.67091 -7.40751,39.53451 -5.1114,21.17482 -14.41041,46.16956 -20.37364,54.7621 -1.04505,1.50585 -3.80376,6.28266 -6.13046,10.61514 -5.51964,10.27795 -6.39219,11.8043 -7.58839,13.27436 -0.55,0.67591 -2.11786,2.77511 -3.48412,4.66488 -2.416481,3.34238 -3.192311,3.98786 -9.836211,8.18352 -3.77756,2.38556 -3.84493,2.90455 -0.92967,7.16268 2.20469,3.22027 10.297751,7.64961 15.750001,8.62001 5.56119,0.98978 15.96077,0.63726 19.00884,-0.64436 z m -8.95921,-75.38833 c 3.37662,-3.95491 4.95037,-6.82177 4.95037,-9.01796 0,-2.34586 -4.02307,-7.23204 -5.95455,-7.23204 -1.89124,0 -1.09054,2.50521 1.12275,3.51287 3.97991,1.81195 4.55339,4.10135 1.80374,7.20076 -3.03407,3.42 -5.26412,7.28637 -4.20265,7.28637 0.43242,0 1.45858,-0.7875 2.28034,-1.75 z m -20.468641,-2.16546 c -2.26901,-2.36834 -2.8202,-3.896 -2.93709,-8.14043 -0.1368,-4.96701 0.007,-5.27974 2.9065,-6.33453 5.005711,-1.82081 9.397881,-5.55003 10.971001,-9.31503 2.35434,-5.63474 1.98381,-7.29455 -1.62839,-7.29455 -2.55183,0 -2.98529,0.31269 -2.42591,1.75 0.3746,0.9625 0.76024,2.15646 0.85699,2.65325 0.18389,0.9442 -5.339441,4.99881 -11.324091,8.31288 -5.26493,2.91551 -6.11933,7.51774 -2.53207,13.63895 2.63359,4.49387 5.90694,7.64492 7.94166,7.64492 0.53052,0 -0.29235,-1.31196 -1.8286,-2.91546 z m 13.940841,2.26871 c 1.3471,-0.51693 1.06243,-0.9087 -1.41821,-1.95173 -1.70699,-0.71773 -3.10362,-1.70182 -3.10362,-2.18686 0,-0.48503 -1.80726,-2.8395 -4.01613,-5.23214 -3.000641,-3.25026 -4.303711,-4.06268 -5.153431,-3.21296 -1.82687,1.82687 1.20253,8.33604 5.102951,10.96454 3.45966,2.33146 5.65408,2.74517 8.58844,1.61915 z m 5.27817,-6.55325 c 1.86035,-1.86035 1.41845,-3.8 -0.86574,-3.8 -2.90888,0 -5.93426,1.8023 -5.93426,3.53518 0,1.80364 5.06398,2.00084 6.8,0.26482 z m 102.65974,-1.91049 c 8.03211,-2.22995 15.54025,-10.76019 15.54025,-17.65578 0,-2.96835 -3.27974,-8.23373 -5.12869,-8.23373 -0.54094,0 -5.6341,-2.025 -11.31813,-4.5 -11.2716,-4.90799 -11.55317,-4.99192 -11.55317,-3.44363 0,1.77043 5.97715,6.63946 10.36176,8.44077 3.80616,1.56367 14.48101,6.56842 15.6299,7.32786 0.27042,0.17875 -0.29208,0.76361 -1.25,1.29969 -0.95792,0.53608 -1.74167,1.45007 -1.74167,2.0311 0,0.58102 -1.4337,2.86659 -3.18599,5.07905 -5.06538,6.39557 -12.58767,8.48492 -18.86366,5.23948 -3.34683,-1.73071 -3.87746,-3.47432 -1.05733,-3.47432 1.04116,0 2.15203,-0.675 2.46862,-1.5 0.31658,-0.825 1.15222,-1.5 1.85699,-1.5 0.70476,0 1.28138,-1.125 1.28138,-2.5 0,-2.01711 -0.49561,-2.5 -2.56586,-2.5 -1.93962,0 -3.09893,0.94848 -4.75,3.88615 -1.20128,2.13739 -2.16992,4.49989 -2.15254,5.25 0.0554,2.39221 4.63876,6.6939 7.60379,7.13654 1.57553,0.2352 3.31461,0.49256 3.86461,0.5719 0.55,0.0793 2.78188,-0.35045 4.95974,-0.95508 z m -109.78074,-3.0904 c 3.39891,-1.22906 4.45684,-2.79911 1.8861,-2.79911 -2.40196,0 -6.5651,1.8867 -6.5651,2.97525 0,1.31265 0.62711,1.28904 4.679,-0.17614 z m -1.90928,-5.79911 c 1.48213,0 2.48852,-1.72237 1.39962,-2.39534 -0.47481,-0.29345 -2.16965,0.90592 -3.76632,2.66526 -1.59666,1.75935 -1.9676,2.41835 -0.82428,1.46445 1.14331,-0.9539 2.57925,-1.73437 3.19098,-1.73437 z m 108.73028,2 c -0.33992,-0.55 -1.49148,-1 -2.55902,-1 -1.06754,0 -1.94098,0.45 -1.94098,1 0,0.55 1.15156,1 2.55902,1 1.45136,0 2.2915,-0.43284 1.94098,-1 z m 5.5,-5.55902 c 0,-1.92131 -0.51967,-2.44098 -2.44098,-2.44098 -3.49422,0 -4.27234,2.00397 -1.61396,4.15659 2.6995,2.18593 4.05494,1.61245 4.05494,-1.71561 z m -104.81286,-1.19098 c -0.36169,-2.60117 0.99647,-2.93861 2.84803,-0.70762 0.93589,1.12767 1.57378,1.24401 2.37245,0.43268 1.55294,-1.57757 -1.9772,-3.97559 -5.84875,-3.97306 -2.79226,0.002 -3.08109,0.31302 -3.31379,3.5702 -0.22791,3.19012 -0.016,3.53426 2,3.248 1.69548,-0.24076 2.1773,-0.87842 1.94206,-2.5702 z m 86.17303,-1.5 c 1.62881,-2.60606 2.8506,-10.75 1.61277,-10.75 -1.52189,0 -4.68455,5.43796 -5.37972,9.25 -0.54535,2.99053 -0.37555,3.75 0.83841,3.75 0.83725,0 2.15509,-1.0125 2.92854,-2.25 z M 86.502249,164.10492 c 2.32657,-1.449 4.370091,-2.75147 4.541161,-2.89436 0.22052,-0.18421 -40.264791,-67.322423 -42.384411,-70.28756 -0.12442,-0.174058 -8.63935,0.388442 -18.92205,1.25 -10.28271,0.861557 -19.43799,1.566467 -20.3450599,1.566467 -0.90708,0 14.7711399,16.425003 34.8404899,36.500003 20.06934,20.075 36.83848,36.5 37.26473,36.5 0.42626,0 2.67857,-1.18555 5.00514,-2.63455 z m -25.56031,-30.70645 -20.79044,-26.26567 -11.20956,-3.84274 c -11.64565,-3.992233 -15.31302,-6.022723 -12.63711,-6.996693 0.78515,-0.28578 6.80829,1.40596 13.38476,3.759433 l 11.95722,4.27904 21.30614,26.77769 c 18.74998,23.5651 22.27751,28.74528 19.47041,28.59228 -0.38004,-0.0207 -10.04668,-11.85722 -21.48142,-26.30334 z m 152.424111,29.70909 c -1.85148,-0.80782 -3.60432,-1.23078 -3.89518,-0.93991 -0.63996,0.63996 3.66268,2.45231 5.7615,2.42686 0.825,-0.01 -0.0148,-0.67913 -1.86632,-1.48695 z m -10.5748,-1.81042 c 1.91207,-1.42073 1.90896,-1.47495 -0.208,-3.62135 -2.46067,-2.4949 -4.35087,-1.86233 -4.35087,1.45603 0,3.79343 1.44441,4.47948 4.55887,2.16532 z m -18.42234,-6.00401 c -1.45009,-1.62049 -3.21772,-3.58382 -3.92806,-4.36296 -0.71034,-0.77914 -2.90303,-3.95329 -4.87263,-7.05366 -3.51383,-5.53114 -11.7986,-15.93992 -13.81353,-17.35499 -2.4751,-1.73824 -1.41037,1.65045 1.72815,5.50016 1.89124,2.31978 4.01164,5.29987 4.71201,6.62241 2.25212,4.25279 13.21546,19.53533 15.36974,21.42492 2.02104,1.77272 2.10686,1.77272 2.76333,0 0.4573,-1.23488 -0.17944,-2.78719 -1.95901,-4.77588 z m -78.76275,3.69634 c 0.60396,-1.7411 3.43756,-6.79561 7.29095,-13.00544 2.68227,-4.32254 8.8773,-10.71743 15.73686,-16.24456 3.07166,-2.475 5.58788,-5.27338 5.59162,-6.21862 0.009,-2.16243 -2.49294,-1.38914 -5.99321,1.8527 -1.375,1.27348 -4.6106,4.01841 -7.19022,6.09983 -2.57962,2.08143 -6.25184,5.80529 -8.16049,8.27525 -6.47904,8.38448 -11.74355,20.99084 -8.76592,20.99084 0.48585,0 1.15654,-0.7875 1.49041,-1.75 z M 243.01649,103.5974 c 13.89579,-26.478146 25.08687,-48.320272 24.86908,-48.538063 -0.52012,-0.520122 -36.96835,10.563168 -37.74281,11.47695 -0.32778,0.386749 -5.46485,18.25318 -11.41571,39.703183 -5.95085,21.45 -10.994,39.49543 -11.207,40.10096 -0.30732,0.8737 7.5838,5.22957 9.72185,5.36643 0.28024,0.0179 11.87881,-21.63132 25.77459,-48.10946 z m -30.78575,39.9754 c -9e-4,-0.73333 5.87887,-16.02877 13.06618,-33.98985 l 13.06782,-32.656531 10.36794,-8.093476 c 5.70236,-4.451412 10.84758,-8.093476 11.43381,-8.093476 2.90406,0 0.0494,3.193024 -8.94029,10 l -9.90493,7.5 -13.29445,32.937713 c -11.63218,28.81935 -15.78999,37.34648 -15.79608,32.39562 z m -52.49836,-34.58965 c 5.15507,-2.17221 7.8525,-5.27698 10.42496,-11.999213 2.32044,-6.063705 2.55096,-11.041024 0.75236,-16.24447 -1.1103,-3.212131 -1.49633,-3.472211 -4.69356,-3.162128 -6.35649,0.616484 -24.08017,5.809179 -31.9522,9.361378 -2.45764,1.108993 -5.54222,2.424605 -6.85463,2.923582 -2.96209,1.126182 -2.50405,3.690278 1.95322,10.934271 3.0199,4.90796 4.45243,5.89625 13.86985,9.56867 4.11361,1.60415 10.72791,1.05011 16.5,-1.38209 z m -14.98425,-3.47647 c -1.88856,-1.62447 -2.63599,-3.01149 -2.21459,-4.10963 0.87973,-2.292543 3.3551,-2.080033 3.98859,0.34242 0.42258,1.61596 1.35708,1.99717 4.86663,1.98526 5.881,-0.02 9.14611,-1.84606 10.30412,-5.762853 1.14383,-3.8688 3.0395,-3.71246 3.0395,0.25067 0,4.149123 -5.98835,8.675253 -12.27742,9.279553 -4.10452,0.3944 -5.29739,0.0871 -7.70683,-1.98542 z m -8.76575,-10.159253 c -2.11717,-1.60716 -2.20389,-4.423749 -0.21708,-7.050611 1.20474,-1.592861 1.96426,-1.769605 4.21819,-0.981594 3.44315,1.20378 4.36231,5.863819 1.57353,7.977625 -2.27664,1.72562 -3.35936,1.73622 -5.57464,0.0546 z m 4.25,-4.10796 c 0,-0.825 -0.45,-1.5 -1,-1.5 -0.55,0 -1,0.675 -1,1.5 0,0.825 0.45,1.5 1,1.5 0.55,0 1,-0.675 1,-1.5 z m 19.75,-2.892046 c -2.17406,-1.650346 -2.25798,-4.95712 -0.17857,-7.036525 1.8564,-1.856401 1.62382,-1.827891 4.86347,-0.59618 1.91791,0.729189 2.5651,1.687948 2.5651,3.8 0,4.789785 -3.53052,6.656192 -7.25,3.832705 z m 3.69721,-3.693364 c -0.32197,-0.520968 -1.01165,-0.683779 -1.53262,-0.361804 -0.52097,0.321976 -0.68378,1.011657 -0.3618,1.532624 0.32197,0.520968 1.01165,0.683779 1.53262,0.361804 0.52097,-0.321976 0.68378,-1.011657 0.3618,-1.532624 z m -37.98711,3.149963 c 1.7163,-2.777025 23.76888,-10.541085 37.2899,-13.12867 l 6.25,-1.196093 0.008,-10.619895 c 0.005,-7.559499 0.55562,-12.42183 1.90921,-16.872798 l 1.90156,-6.252902 -3.00314,1.752902 c -4.62036,2.696861 -8.85117,7.094577 -10.40653,10.817075 -0.94553,2.262982 -1.89016,3.188321 -2.87067,2.812065 -1.8795,-0.721096 -7.53843,-12.296746 -7.53843,-15.419549 0,-6.466893 -5.62878,6.11331 -6.67041,14.908218 -0.7365,6.218588 -1.8775,6.458873 -7.76429,1.635094 -2.3492,-1.925 -4.5614,-3.5 -4.91598,-3.5 -0.35458,0 -2.95237,-1.657902 -5.77286,-3.684226 -4.64929,-3.340179 -5.06036,-3.470551 -4.40195,-1.396092 2.17579,6.855327 4.28105,17.690595 3.57709,18.410426 -0.4465,0.456559 -2.55327,0.346569 -4.68171,-0.244423 -2.12844,-0.590992 -7.01989,-1.05591 -10.86989,-1.033151 l -7,0.04138 3.5,2.679143 c 6.06388,4.64172 17.72014,17.205942 18.83333,20.300352 0.43026,1.196011 1.88516,1.191105 2.62677,-0.0089 z"
     id="path3960" />
  <path
     style="fill:#4d4d4d;fill-opacity:1;stroke:#b3b3b3;stroke-width:0.39100608;stroke-miterlimit:4;stroke-opacity:1;stroke-dasharray:none"
     d=""
     id="path3985" />
</svg>
