<?xml version="1.0" encoding="UTF-8" standalone="no"?>
<!-- Created with Inkscape (http://www.inkscape.org/) -->

<svg
   xmlns:dc="http://purl.org/dc/elements/1.1/"
   xmlns:cc="http://creativecommons.org/ns#"
   xmlns:rdf="http://www.w3.org/1999/02/22-rdf-syntax-ns#"
   xmlns:svg="http://www.w3.org/2000/svg"
   xmlns="http://www.w3.org/2000/svg"
   xmlns:sodipodi="http://sodipodi.sourceforge.net/DTD/sodipodi-0.dtd"
   xmlns:inkscape="http://www.inkscape.org/namespaces/inkscape"
   id="svg4245"
   version="1.1"
   inkscape:version="0.47 r22583"
   width="245"
   height="245"
   sodipodi:docname="back.png">
  <metadata
     id="metadata4251">
    <rdf:RDF>
      <cc:Work
         rdf:about="">
        <dc:format>image/svg+xml</dc:format>
        <dc:type
           rdf:resource="http://purl.org/dc/dcmitype/StillImage" />
        <dc:title></dc:title>
      </cc:Work>
    </rdf:RDF>
  </metadata>
  <defs
     id="defs4249">
    <inkscape:perspective
       sodipodi:type="inkscape:persp3d"
       inkscape:vp_x="0 : 0.5 : 1"
       inkscape:vp_y="0 : 1000 : 0"
       inkscape:vp_z="1 : 0.5 : 1"
       inkscape:persp3d-origin="0.5 : 0.33333333 : 1"
       id="perspective4253" />
  </defs>
  <sodipodi:namedview
     pagecolor="#ffffff"
     bordercolor="#666666"
     borderopacity="1"
     objecttolerance="10"
     gridtolerance="10"
     guidetolerance="10"
     inkscape:pageopacity="0"
     inkscape:pageshadow="2"
     inkscape:window-width="1148"
     inkscape:window-height="790"
     id="namedview4247"
     showgrid="false"
     inkscape:zoom="2.017094"
     inkscape:cx="53.238057"
     inkscape:cy="126.24955"
     inkscape:window-x="0"
     inkscape:window-y="25"
     inkscape:window-maximized="0"
     inkscape:current-layer="svg4245" />
  <path
     style="fill:#000000"
     d="m 160.52119,242.52036 c -0.825,-0.22667 -8.39174,-0.88413 -16.81497,-1.46102 -23.90938,-1.63751 -43.791164,-7.90274 -53.704359,-16.92355 -3.459485,-3.14806 -3.474805,-3.19904 -1.77228,-5.89717 1.867359,-2.95937 9.329185,-10.18474 10.541605,-10.20755 0.4125,-0.008 0.75,-1.27811 0.75,-2.82299 0,-3.63248 1.633494,-5.73446 6.156604,-7.92237 2.677,-1.29491 5.34988,-4.31381 9.97717,-11.26876 l 6.32055,-9.5 0.7846,-15 c 0.43153,-8.25 0.95589,-16.35 1.16525,-18 0.20936,-1.65 0.65283,-6.825 0.9855,-11.5 0.33266,-4.675 0.8892,-11.0875 1.23675,-14.25 l 0.63191,-5.75 -10.87916,0.0239 c -13.52188,0.0297 -17.643454,0.94833 -20.734294,4.62159 -1.327972,1.57821 -4.153832,3.4868 -6.279688,4.24131 -2.125855,0.75451 -6.565192,2.94301 -9.865192,4.86333 -3.3,1.92031 -7.005639,3.49338 -8.234753,3.49569 -3.798179,0.007 -7.265247,-2.95228 -7.265247,-6.20149 0,-2.03659 -0.60336,-3.10105 -2.010967,-3.54781 -2.245135,-0.71258 -4.957213,-5.31681 -4.268494,-7.24652 0.292557,-0.81971 -0.577114,-1.25 -2.526422,-1.25 -1.634902,0 -4.007301,-0.83789 -5.271997,-1.86198 -1.983643,-1.60626 -2.263214,-2.6442 -2.035619,-7.55752 l 0.263829,-5.695534 -3.909335,0.390933 c -5.441273,0.544128 -8.240995,-0.680625 -8.240995,-3.605064 0,-2.221353 -0.518919,-2.457563 -7.210588,-3.282224 C 21.767354,88.59919 21.045899,88.285573 20.515338,86.016949 19.9763,83.712075 19.465897,83.508524 13.975926,83.409 l -5.9547398,-0.107949 0.05295,-9.637724 c 0.04584,-8.342634 0.314593,-9.835598 1.9999998,-11.110248 3.952084,-2.988901 8.44705,-1.305296 8.44705,3.16387 0,2.259854 0.190972,2.3 10.940983,2.3 6.215299,0 11.207927,-0.431925 11.559017,-1 0.665439,-1.076702 22.249413,-1.417126 24.918213,-0.393011 0.869983,0.333844 1.581787,1.18506 1.581787,1.891592 0,1.901023 4.498519,2.687031 7.514311,1.312945 2.147152,-0.978308 2.796242,-0.93335 3.54199,0.24533 1.528034,2.41511 1.065082,4.480483 -1.556301,6.943144 -3.368011,3.164082 -3.151678,4 1.035183,4 4.801429,0 7.845298,2.230289 9.924727,7.271998 0.959101,2.325401 2.154481,4.903002 2.656401,5.728002 0.501919,0.825 1.375597,2.66721 1.941508,4.093799 0.979055,2.468082 1.267274,2.556122 5.946361,1.816457 7.213434,-1.140289 19.969674,-2.440472 27.017184,-2.753732 l 3.52137,-0.156524 2.23799,-14.25 c 1.2309,-7.8375 2.23094,-16.95 2.22232,-20.25 -0.0147,-5.626371 -0.2043,-6.107339 -3.04464,-7.723734 l -3.02895,-1.723733 0.28528,-10.276267 0.28527,-10.276266 3.20648,-1.411768 c 3.0425,-1.33957 3.22149,-1.72195 3.5,-7.4771 l 0.29352,-6.065333 9.44431,-1.745256 c 5.19437,-0.959891 9.5812,-1.608371 9.7485,-1.441067 0.1673,0.167305 0.47956,1.842365 0.69391,3.722357 0.21434,1.879992 0.44002,3.755667 0.5015,4.168167 0.0615,0.4125 1.88591,0.75 4.05428,0.75 3.92334,0 3.944,-0.02066 4.25,-4.25 l 0.3075,-4.25 9.36822,-0.28909 9.36822,-0.28909 -0.62289,2.481787 c -1.01566,4.046715 1.10115,7.288411 5.19289,7.952409 1.9737,0.320287 3.68237,0.483709 3.79706,0.363162 0.11469,-0.120548 0.43222,-1.654097 0.70562,-3.407887 0.8891,-5.703404 1.54044,-5.866838 12.44088,-3.121684 l 4.25,1.070315 0,4.870039 c 0,3.460683 0.55289,5.422933 1.91053,6.780567 2.27475,2.274753 4.33343,11.324445 3.89952,17.141833 -0.27824,3.73043 -0.74879,4.402589 -4.58689,6.552249 -2.35226,1.317465 -4.82726,2.402281 -5.5,2.410703 -3.1236,0.0391 -3.75557,1.540796 -2.79035,6.630421 0.52323,2.758947 1.01787,13.529817 1.09921,23.935266 l 0.14788,18.919001 8.30855,8.5 c 4.5697,4.675 8.58541,9.43644 8.92379,10.58099 0.42761,1.44632 -0.38013,3.39726 -2.64849,6.3969 -1.79506,2.37376 -3.83601,5.08185 -4.53544,6.01798 -1.10792,1.48287 -0.72156,2.0692 3,4.55287 9.17358,6.1222 10.68166,8.83546 6.77169,12.18329 -1.1,0.94185 -2,2.6893 -2,3.88322 0,2.19611 -1.72338,3.38475 -4.90747,3.38475 -0.95915,0 -2.80078,1.125 -4.09253,2.5 -1.29175,1.375 -3.05769,2.51431 -3.92431,2.5318 -0.86663,0.0175 -2.3254,0.60197 -3.2417,1.29883 -1.48984,1.13305 -1.53312,1.94922 -0.40924,7.7182 0.69122,3.54814 3.07337,10.33242 5.29365,15.07617 3.60964,7.71219 4.32311,8.625 6.74142,8.625 5.33782,0 10.35251,5.05126 9.36165,9.42992 -0.17681,0.78133 1.47853,3.22672 3.67853,5.4342 5.68858,5.70793 8.5841,9.44079 8.0249,10.3456 -0.71008,1.14893 -14.09423,7.56608 -21.0249,10.08057 -13.6281,4.94436 -24.49856,6.9922 -39.5,7.44122 -7.975,0.23871 -15.175,0.24856 -16,0.0219 z m 33.07378,-5.11785 c 13.45769,-2.30491 37.92622,-11.1097 37.92622,-13.64741 0,-2.28889 -6.03524,-9.73815 -7.88965,-9.73815 -0.63817,0 -3.73657,0.92689 -6.88533,2.05975 -13.59423,4.89093 -19.40117,5.79365 -41.8891,6.51191 -23.05478,0.73637 -31.10803,0.14071 -49.83592,-3.68608 -5.60399,-1.1451 -13.07721,-3.52172 -17,-5.4063 l -7,-3.36293 -3.520979,2.41911 c -4.551872,3.1274 -7.460231,7.82901 -5.718427,9.24433 1.159932,0.94251 6.048992,3.78058 10.352396,6.0095 10.87372,5.63198 25.85056,9.13441 42.38701,9.91248 6.325,0.2976 11.6875,0.71145 11.91667,0.91966 1.21191,1.1011 28.88668,0.18062 37.15711,-1.23587 z m 4.81905,-19.83933 c 5.71605,-0.76472 10.66605,-1.82537 11,-2.35699 0.33394,-0.53163 2.34789,-1.44511 4.47545,-2.02997 6.50794,-1.789 9.47246,-5.91853 6.43172,-8.95927 -1.48983,-1.48983 -5.17029,-1.60815 -4.26106,-0.13699 0.36134,0.58466 -0.11293,1.91376 -1.05394,2.95357 -1.60785,1.77665 -3.86226,2.40394 -17.485,4.86524 -3.025,0.54655 -14.5,1.26648 -25.5,1.59985 -19.57799,0.59335 -20.31651,0.54139 -35,-2.46248 -18.10798,-3.70443 -27.09051,-6.6123 -29.10154,-9.42088 l -1.50244,-2.09831 -1.89788,2.29887 c -1.83268,2.21991 -1.7622,4.30766 0.23278,6.89479 1.7883,2.31911 23.43016,7.91334 37.26908,9.63373 8.2207,1.02196 46.92223,0.48586 56.39283,-0.78116 z m 2.10717,-9.42785 c 3.575,-0.50418 7.72932,-1.39782 9.23181,-1.98587 l 2.73182,-1.06918 -4.03789,-8.28166 c -4.19191,-8.59754 -7.50795,-15.00164 -9.35259,-18.06218 -0.7784,-1.29149 -0.75493,-1.97883 0.0855,-2.50255 0.63725,-0.39712 0.93241,-1.90543 0.65592,-3.35181 -0.35849,-1.87531 -1.37892,-2.88107 -3.55686,-3.50569 -6.39018,-1.83268 -9.99043,-11.208 -6.54767,-17.05062 1.51734,-2.57506 1.65247,-3.55615 0.69987,-5.08151 -1.68081,-2.69139 0.64395,-7.0967 5.35328,-10.14421 l 3.73681,-2.41818 0,-8.91417 c 0,-8.70736 -0.0812,-9.01324 -3.5,-13.18545 -4.83717,-5.90313 -4.45095,-11.5653 0.78888,-11.5653 1.80124,0 1.87316,-0.94744 1.55,-20.418115 -0.18638,-11.229962 -0.56388,-20.62469 -0.83888,-20.877174 -0.275,-0.252483 -5.225,0.178827 -11,0.958466 -22.93731,3.096592 -33.13712,2.768537 -46.75,-1.503614 l -3.25,-1.019953 0,5.78851 c 0,3.183681 -0.93045,11.978355 -2.06766,19.54372 l -2.06766,13.75521 2.06766,2.200926 c 2.90148,3.088484 2.57576,6.217764 -1.02164,9.815164 -3.369,3.369 -2.96211,0.97092 -6.83046,40.25686 -1.37335,13.94741 -1.40571,22.81918 -0.0802,22 0.55,-0.33992 1.42775,-0.35367 1.95055,-0.0306 0.9715,0.60042 -0.32094,2.75475 -7.51745,12.53056 -4.09343,5.56056 -9.4331,14.62009 -9.4331,16.00463 0,1.52388 9.47116,4.36476 27,8.09867 7.2477,1.54387 11.96224,1.74589 32,1.3712 12.925,-0.24169 26.425,-0.85195 30,-1.35612 z m 2.90082,-44.36838 c 0.46001,-1.2375 0.62236,-2.8125 0.36079,-3.5 -0.69811,-1.83486 -4.3396,-1.52277 -5.83405,0.5 -1.03227,1.39721 -1.54707,1.49934 -2.55365,0.50659 -1.0119,-0.998 -0.72914,-1.79826 1.43268,-4.05472 1.48138,-1.54622 2.69341,-3.33881 2.69341,-3.98354 0,-1.92523 4.70146,-4.44786 6.95596,-3.73231 1.38513,0.43963 2.24993,0.14102 2.65595,-0.91707 0.33114,-0.86292 1.45392,-1.56895 2.49508,-1.56895 1.04115,0 1.89301,-0.62254 1.89301,-1.38342 0,-1.90848 -4.71755,-2.66183 -6.11609,-0.97669 -0.62084,0.74806 -1.9737,1.36011 -3.00635,1.36011 -1.03266,0 -1.87756,0.45 -1.87756,1 0,0.55 -0.88963,1 -1.97695,1 -1.08732,0 -2.72888,1.1476 -3.64792,2.55023 -0.91903,1.40262 -2.24216,2.33104 -2.94029,2.06314 -3.01739,-1.15788 -3.29312,7.02579 -0.36226,10.75177 2.77209,3.52415 8.57681,3.75145 9.82824,0.38486 z m 6.25206,-3.33576 c -0.51625,-2.7935 -4.08171,-7.41424 -5.72097,-7.41424 -2.12625,0 -1.74276,1.36905 1.06809,3.81305 1.375,1.19555 2.5,3.1142 2.5,4.26367 0,1.2384 0.50931,1.91186 1.25,1.65287 0.6875,-0.24039 1.0938,-1.2823 0.90288,-2.31535 z m 7.0988,-1.99925 c 0.85008,-0.85009 -1.15644,-6.09106 -2.87946,-7.52103 -1.17394,-0.97429 -1.77648,-0.91827 -2.971,0.27624 -1.33119,1.3312 -1.2977,1.85095 0.30019,4.65778 1.64869,2.89606 4.09908,4.0382 5.55027,2.58701 z m 4.31066,-6.51586 c 0.79508,-1.28647 -3.17283,-5.62197 -4.20274,-4.59207 -0.79281,0.79282 1.57452,5.69294 2.75036,5.69294 0.4246,0 1.07817,-0.49539 1.45238,-1.10087 z m -22.92566,-9.43209 c -0.62517,-1.34829 -1.48383,-2.45495 -1.90812,-2.45924 -1.28154,-0.013 -3.03471,4.752 -2.37803,6.46328 0.5594,1.45778 0.82531,1.45981 3.01814,0.023 2.10181,-1.37715 2.26152,-1.88438 1.26801,-4.02705 z m 9.19174,-3.24988 c 6.17658,-6.36374 9.17225,-10.50519 9.15742,-12.65994 -0.009,-1.2641 -3.86399,-5.89035 -10,-11.99974 -8.24148,-8.20573 -9.98584,-9.53818 -9.98584,-7.62782 0,1.54371 2.66469,5.04472 8,10.5108 7.58439,7.77029 9.74297,11.55954 6.58499,11.55954 -2.19484,0 -9.58499,8.9752 -9.58499,11.64079 0,3.32957 1.59258,2.94057 5.82842,-1.42363 z m -0.78638,-10.76191 2.39066,-2.54474 -3.21635,-3.00594 -3.21635,-3.00594 0,5.55068 c 0,3.05288 0.37156,5.55069 0.82569,5.55069 0.45412,0 1.90148,-1.14514 3.21635,-2.54475 z M 78.870459,122.30755 c 3.3829,-2.04017 6.256423,-3.75836 6.385608,-3.81821 0.129184,-0.0598 -0.658316,-1.86077 -1.75,-4.00205 -2.581246,-5.06296 -2.573201,-11.99315 0.01886,-16.244511 2.754737,-4.518182 2.564698,-8.748304 -0.532147,-11.845148 -3.446819,-3.446819 -5.047477,-2.64457 -4.648372,2.32976 0.250354,3.120345 -0.200513,4.589953 -2,6.519029 -1.988128,2.131302 -3.450924,2.561807 -10.141714,2.984736 -8.890033,0.561944 -11.63408,2.137374 -9.774596,5.611854 0.795103,1.48566 2.2849,2.14499 5.347621,2.36666 4.630079,0.33511 6.120176,3.04101 1.99712,3.62661 -1.416431,0.20118 -2.478404,1.23595 -2.870096,2.79657 -0.782764,3.11878 -0.319917,3.55641 4.299845,4.0655 4.634221,0.51069 5.310953,1.11981 3.067029,2.7606 -2.02157,1.47821 -2.332465,5.15567 -0.498428,5.89572 2.831484,1.14253 5.255821,0.47697 11.099273,-3.04712 z m -6.349273,-9.7906 c 0,-0.825 0.45,-1.5 1,-1.5 0.55,0 1,0.675 1,1.5 0,0.825 -0.45,1.5 -1,1.5 -0.55,0 -1,-0.675 -1,-1.5 z m -1.403444,-6.34377 c -0.346049,-0.55992 -0.1419,-1.31919 0.453663,-1.68727 1.537485,-0.95022 2.529468,0.35135 1.245982,1.63484 -0.71818,0.71818 -1.277526,0.73543 -1.699645,0.0524 z m 19.81427,7.02352 c -0.786045,-1.50707 -1.343006,-5.21138 -1.272743,-8.46491 0.135395,-6.269522 -0.260449,-7.265598 -2.539782,-6.390936 -1.853143,0.711118 -3.025926,6.583116 -2.197147,11.000896 0.739668,3.94277 4.0409,7.82653 6.010255,7.07082 1.196053,-0.45897 1.195969,-0.92173 -5.83e-4,-3.21587 z m 28.257388,-5.12677 c 12.25105,-0.0638 13.33179,-0.40106 13.33179,-4.15997 l 0,-2.89301 -8.25,0.0195 c -8.2965,0.0196 -28.941847,2.36297 -30.769409,3.49247 -1.007647,0.62276 -1.367049,4.76822 -0.489476,5.6458 0.270115,0.27011 3.982615,-0.0811 8.250005,-0.78035 4.26738,-0.69931 12.33458,-1.29532 17.92709,-1.32446 z m -65.096785,-1.62441 c -2.037974,-2.03797 -2.002161,-5.29514 0.08356,-7.59983 1.551895,-1.714827 1.528015,-1.828741 -0.38337,-1.828741 -2.135097,0 -3.233143,2.387327 -3.257964,7.083331 -0.01627,3.07752 0.674567,3.91667 3.22444,3.91667 1.731602,0 1.761905,-0.14286 0.333334,-1.57143 z M 73.565408,93.463665 c 2.030169,-2.446204 1.586474,-7.457397 -0.824907,-9.316698 -1.470856,-1.134106 -2.206095,-2.975439 -2.416667,-6.052297 -0.166456,-2.432254 -0.865148,-4.607254 -1.552648,-4.833334 -0.941829,-0.309714 -1.25,1.959328 -1.25,9.203664 0,7.607501 -0.311949,9.734425 -1.494256,10.188119 -2.427779,0.931626 -0.65204,2.36383 2.930828,2.36383 1.825196,0 3.898639,-0.698978 4.60765,-1.553284 z M 41.021186,92.016949 c -0.339919,-0.55 -0.816476,-1 -1.059017,-1 -0.242541,0 -0.440983,0.45 -0.440983,1 0,0.55 0.476558,1 1.059017,1 0.582459,0 0.780902,-0.45 0.440983,-1 z m 16.5,-3.011947 c 0,-1.145712 -6.501971,-2.393142 -8.49247,-1.629316 -3.105154,1.191559 -1.337818,2.450597 3.49247,2.488013 2.75,0.0213 5,-0.365112 5,-0.858697 z m 6.631943,-9.240454 c 0.07257,-5.636179 -0.09243,-9.358819 -0.366668,-8.272532 -0.75967,3.009156 -3.306512,4.442068 -8.265275,4.650233 l -4.5,0.188907 4.898478,0.592897 c 5.796165,0.701549 8.046685,3.076305 5.412113,5.710877 -1.954174,1.954173 -5.30233,1.105854 -4.44573,-1.12641 0.453586,-1.182026 -0.335573,-1.491571 -3.802626,-1.491571 -3.882666,0 -4.31614,0.225065 -3.851984,2 0.402861,1.540543 1.364016,2 4.183874,2 4.02103,0 8.105875,2.296289 8.105875,4.556704 0,0.793813 0.5625,1.442216 1.25,1.440895 0.909922,-0.0017 1.285897,-2.790391 1.381943,-10.25 z m -17.875257,2.445697 c -2.559467,-1.90385 -2.171075,-3.115378 1.493314,-4.658156 l 3.25,-1.368311 -2.758705,-0.694008 c -1.834325,-0.461461 -2.997448,-1.578412 -3.471206,-3.333414 -0.612192,-2.267821 -0.799102,-1.935488 -1.327639,2.360593 -0.338326,2.75 -0.412884,6.84486 -0.165684,9.099689 l 0.449454,4.09969 2.143576,-2.09969 c 2.022784,-1.981371 2.044586,-2.173322 0.38689,-3.406393 z m -6.756686,2.806704 c 0,-1.835052 -0.666667,-2 -8.083333,-2 -12.726101,0 -8.957672,3.355144 4.333333,3.858095 3.130635,0.118467 3.75,-0.188423 3.75,-1.858095 z m 0.511385,-9.067384 c 0.377949,-2.237062 0.530003,-4.149562 0.337897,-4.25 -0.192105,-0.100439 -6.761782,-0.0464 -14.599282,0.120096 l -14.25,0.302712 0,3.947288 0,3.947288 13.912102,0 13.912102,0 0.687181,-4.067384 z m 35.988615,-1.932616 c 0.339919,-0.55 0.168034,-1 -0.381966,-1 -0.55,0 -1.278115,0.45 -1.618034,1 -0.339919,0.55 -0.168034,1 0.381966,1 0.55,0 1.278115,-0.45 1.618034,-1 z m -16.138374,-2.5 c 0.472027,-1.230083 -0.498418,-1.5 -5.393011,-1.5 -5.516424,0 -6.987761,0.64752 -5.301948,2.333333 0.366666,0.366667 2.793521,0.666667 5.393011,0.666667 3.278704,0 4.902647,-0.459438 5.301948,-1.5 z m -44.361626,-5 c 0,-0.833333 -0.888889,-1.5 -2,-1.5 -1.111111,0 -2,0.666667 -2,1.5 0,0.833333 0.888889,1.5 2,1.5 1.111111,0 2,-0.666667 2,-1.5 z M 178.02119,58.459773 c 12.23416,-1.590079 26.47779,-4.705768 31.02605,-6.786718 2.38817,-1.092648 2.49112,-1.457999 1.87554,-6.656106 -0.79465,-6.710234 -1.07176,-7.239087 -3.21228,-6.130523 -0.92912,0.481187 -3.80803,1.18216 -6.39757,1.557717 l -4.70826,0.682833 -0.68034,-5.128636 c -0.60609,-4.568964 -0.91074,-5.073489 -2.79174,-4.623288 -1.16127,0.277941 -3.80387,0.812084 -5.87245,1.186985 -2.06857,0.374901 -3.94051,0.97202 -4.15985,1.326932 -0.21935,0.354911 -0.048,2.563589 0.38071,4.908172 0.43465,2.376951 0.38467,4.50691 -0.11299,4.814478 -0.49088,0.30338 -5.41421,1.026703 -10.94074,1.607385 -7.26455,0.763299 -10.3533,0.750726 -11.14941,-0.04538 -0.60564,-0.605643 -1.00053,-3.588657 -0.87753,-6.62892 l 0.22364,-5.527755 -4.80139,-0.01365 c -2.64077,-0.0075 -5.81389,-0.284994 -7.05139,-0.616631 -2.09549,-0.561571 -2.25,-0.285956 -2.25,4.013655 0,5.341715 -0.77379,5.599836 -9.78207,3.263118 l -5.21793,-1.353518 -0.011,3.103513 c -0.006,1.706932 -0.27315,4.687593 -0.59354,6.623691 -0.53761,3.248658 -0.31954,3.645595 2.82721,5.146175 3.36146,1.602972 15.90566,5.307616 20.77734,6.13612 5.23965,0.891082 11.90608,0.647219 23.5,-0.859649 z m -1.19655,-17.093346 c 2.75538,-0.455319 3.65119,-1.025302 3.25089,-2.068463 -0.30391,-0.791973 -0.27355,-3.184777 0.0675,-5.317342 0.59353,-3.711711 0.81782,-3.908994 5.24911,-4.617016 l 4.62909,-0.739625 -5,-1.101635 c -4.81007,-1.059789 -5.01178,-1.24214 -5.31019,-4.800544 -0.37664,-4.491326 -2.60079,-5.936968 -8.47802,-5.510484 -4.16659,0.302351 -4.21504,0.350137 -4.51427,4.452886 l -0.30247,4.147256 -6.69753,0.981819 c -3.68363,0.540001 -7.03502,0.784678 -7.44752,0.543728 -0.4125,-0.240951 -0.75,-2.485318 -0.75,-4.987483 0,-4.217322 -0.16423,-4.508472 -2.25,-3.9888 -1.2375,0.308326 -4.18992,0.869008 -6.56094,1.245961 -3.86793,0.614939 -4.29379,0.95383 -4.14404,3.297817 0.48144,7.536357 -0.0245,10.112447 -1.98604,10.112447 -2.07265,0 -3.60339,1.545529 -2.31772,2.340117 0.42566,0.263073 2.39704,0.78281 4.38084,1.154973 l 3.6069,0.676659 0.4908,-5.107861 c 0.26994,-2.809324 0.75286,-5.369919 1.07315,-5.690211 0.32029,-0.320292 2.0729,0.18295 3.89468,1.118317 1.82178,0.935366 6.12483,1.943927 9.56233,2.241246 l 6.25,0.540581 0,5.863089 0,5.86309 4.75,-0.01101 c 2.6125,-0.0061 6.46155,-0.293835 8.55345,-0.639516 z m 30.93893,-5.99928 c 1.3102,-0.809747 0.8236,-2.350198 -0.74238,-2.350198 -1.14954,0 -1.5,-1.27122 -1.5,-5.440983 0,-2.992541 -0.38042,-5.676097 -0.84538,-5.963458 -0.46496,-0.287361 -2.71496,-0.821433 -5,-1.186825 l -4.15462,-0.66435 0,4.127808 c 0,3.461141 0.32301,4.127808 2,4.127808 1.71085,0 2,0.666667 2,4.611291 l 0,4.611291 3.74238,-0.702076 c 2.05832,-0.386141 4.08332,-0.91278 4.5,-1.170308 z"
     id="path4417" />
  <path
     style="fill:#cccccc;fill-opacity:1;stroke:#b3b3b3;stroke-width:0.49576271;stroke-miterlimit:4;stroke-opacity:1;stroke-dasharray:none"
     d="m 172.3125,17.375 c -3.00057,0.03138 -4.34913,0.335647 -4.84375,1.09375 -0.2185,0.334888 -0.48037,1.861233 -0.65625,3.90625 -0.15829,1.840519 -0.3497,3.41644 -0.4375,3.5 -0.21306,0.202806 -9.3297,1.436554 -12,1.625 -2.02172,0.142675 -2.11664,0.103649 -2.40625,-0.4375 -0.1711,-0.319705 -0.39543,-2.211971 -0.5,-4.34375 -0.10182,-2.075512 -0.26918,-3.891281 -0.375,-4.0625 -0.24852,-0.402121 -1.50937,-0.248564 -7.03125,0.84375 -2.63935,0.522105 -4.47037,0.996944 -4.75,1.25 -0.407,0.368334 -0.45635,0.933102 -0.53125,5.40625 -0.0754,4.505054 -0.13626,5.096241 -0.59375,5.875 -0.41309,0.703188 -0.75164,0.925061 -1.75,1.15625 -1.67592,0.388095 -2.05818,0.56015 -2.34375,1.09375 -0.43226,0.80767 0.77663,1.339613 5.15625,2.21875 1.40408,0.281851 2.68281,0.4239 2.8125,0.34375 0.12968,-0.08015 0.21859,-0.502458 0.21875,-0.9375 4.8e-4,-1.268355 0.74595,-7.3845 1.03125,-8.46875 0.43058,-1.636393 0.60169,-1.647162 4.5625,-0.0625 3.11466,1.246129 6.98667,2.068088 11.90625,2.46875 l 3.8125,0.3125 0,5.9375 0,5.9375 4.625,-0.15625 c 5.34341,-0.18594 8.63881,-0.547675 10.375,-1.125 l 1.21875,-0.40625 0.0625,-3.125 c 0.0609,-4.473964 0.55104,-6.394013 1.84375,-7.0625 0.43847,-0.226741 2.27967,-0.658761 4.0625,-0.96875 1.78283,-0.309989 3.07951,-0.64687 2.875,-0.71875 -0.2045,-0.07188 -1.92512,-0.472479 -3.8125,-0.90625 -4.52481,-1.039922 -4.73922,-1.236944 -5.21875,-4.5 -0.39251,-2.670895 -0.7933,-3.563508 -1.90625,-4.5 -1.08473,-0.912739 -2.47053,-1.218198 -5.40625,-1.1875 z m 23.3125,2.5 c -0.057,0 -0.0531,1.495136 0,3.3125 0.116,3.969684 0.33257,4.464016 2.03125,4.71875 0.61012,0.09149 1.25594,0.344059 1.4375,0.5625 0.23683,0.284921 0.34645,1.5615 0.40625,4.46875 0.0661,3.215096 0.16947,4.0625 0.4375,4.0625 0.74547,0 6.26107,-1.245835 7.09375,-1.59375 1.69148,-0.706734 1.71468,-1.779119 0.0313,-2.25 -1.16399,-0.325583 -1.5299,-1.18768 -1.5625,-3.71875 -0.0335,-2.598745 -0.44167,-6.76353 -0.71875,-7.28125 -0.13421,-0.250773 -0.71306,-0.579764 -1.28125,-0.75 -0.81112,-0.243003 -7.4214,-1.53125 -7.87505,-1.53125 z m -1.9375,11.59375 c -0.54506,0.04586 -1.46657,0.20141 -3.09375,0.53125 -6.86156,1.390875 -7.40625,1.610475 -7.40625,2.8125 0,0.432472 0.18133,2.188861 0.40625,3.90625 0.22684,1.732409 0.3449,3.525481 0.25,4.03125 -0.21511,1.146663 -0.39381,1.208472 -6.84375,2.03125 -8.74241,1.115214 -13.85487,1.352789 -15.40625,0.75 -0.90443,-0.351417 -1.06265,-1.329016 -1.15625,-7 l -0.0937,-5.5 -4.125,0 c -2.35769,-0.0025 -5.15613,-0.16845 -6.5,-0.375 -2.06409,-0.317248 -2.38674,-0.317092 -2.625,0 -0.1495,0.198968 -0.3456,1.749812 -0.4375,3.46875 -0.24597,4.600891 -0.75064,5.276095 -3.84375,4.96875 -1.25965,-0.125165 -8.68868,-1.880213 -10.75,-2.53125 -0.39049,-0.123328 -0.4335,0.09505 -0.4375,2.0625 -0.002,1.202117 -0.11506,3.179238 -0.25,4.40625 -0.13494,1.227013 -0.32085,3.0934 -0.40625,4.125 l -0.15625,1.875 0.96875,0.78125 c 1.50991,1.245436 7.32886,3.372899 15,5.46875 6.78028,1.852459 8.01501,2.072217 12.5,2.25 2.31769,0.09187 4.41483,0.12742 4.6875,0.09375 0.27267,-0.03367 1.71906,-0.13444 3.21875,-0.21875 13.03714,-0.732916 36.56963,-5.261956 42.28125,-8.15625 1.7307,-0.877013 1.84199,-1.419881 1.34375,-5.71875 -0.65127,-5.619259 -0.96904,-6.8125 -1.8125,-6.8125 -0.23851,0 -1.06368,0.225827 -1.84375,0.5 -2.40569,0.84553 -10.23874,2.189335 -10.5625,1.8125 -0.0979,-0.113942 -0.38645,-1.721981 -0.625,-3.5625 -0.53251,-4.108666 -0.82205,-5.312091 -1.375,-5.8125 -0.19504,-0.176516 -0.36119,-0.233362 -0.90625,-0.1875 z m -56.5,27.3125 c -0.46661,0.05801 -0.46875,0.778156 -0.46875,3.5 0,4.949476 -0.72705,11.829165 -2.53125,24.3125 L 132.71875,96.90625 134,98.4375 c 3.39535,4.03517 3.39589,6.36914 0.0313,10.5 -1.17956,1.44818 -2.39293,3.07459 -2.6875,3.625 -1.20179,2.24556 -5.51715,43.61691 -5.53125,53.03125 -0.007,4.89474 0.22967,5.625 1.84375,5.625 1.10895,0 1.22057,0.14713 0.96875,1.40625 -0.15591,0.77956 -2.79296,5.00804 -5.875,9.40625 -6.21347,8.8669 -10.48105,16.01446 -10.53125,17.625 -0.0284,0.91001 0.72328,1.31403 5.4375,2.875 6.25993,2.07277 21.83754,5.69684 27.125,6.3125 7.86157,0.91537 43.52538,0.27761 54.53125,-0.96875 4.39091,-0.49726 8.88782,-1.45184 11.5625,-2.46875 l 1.25,-0.46875 -7,-13.84375 c -6.97379,-13.81685 -7.00764,-13.88812 -6.15625,-15.1875 0.67407,-1.02877 0.76233,-1.68389 0.40625,-3.125 -0.40006,-1.61915 -0.82553,-2.00757 -3.84375,-3.5 -2.66955,-1.32002 -3.71598,-2.15918 -4.84375,-3.9375 -2.80341,-4.42052 -3.17417,-8.80129 -1.125,-13.28125 1.17053,-2.55903 1.24619,-2.99464 0.6875,-4.6875 -1.23354,-3.73763 0.48827,-6.89716 5.84375,-10.71875 l 3.15625,-2.28125 -0.15625,-8.5625 -0.15625,-8.53125 -2.65625,-3.84375 c -3.21968,-4.60953 -4.28208,-7.63027 -3.5,-10 0.57208,-1.7334 1.71027,-2.625 3.375,-2.625 2.10086,0 2.20532,-1.17303 1.84375,-20.0625 -0.188,-9.82175 -0.46548,-18.468909 -0.625,-19.21875 -0.36889,-1.734187 -0.71184,-1.756825 -14.90625,-0.1875 -15.2407,1.685002 -19.88139,1.915906 -26.625,1.28125 -4.8833,-0.459579 -11.80488,-1.877838 -18,-3.71875 -0.27179,-0.08077 -0.50071,-0.144335 -0.65625,-0.125 z m -123.6875,6.5 c -0.899435,0.02601 -1.8125,0.488495 -1.8125,1.1875 0,0.461827 0.61007,1.087812 1.25,1.3125 0.603786,0.211996 1.565406,-0.05996 2.03125,-0.59375 C 15.5222,66.553323 15.513354,66.357104 14.90625,65.75 14.563379,65.407129 14.039661,65.265644 13.5,65.28125 z m 43.15625,4.9375 c -0.882591,-0.01896 -1.9146,-0.0017 -2.9375,0.03125 -2.0458,0.06595 -4.000402,0.235363 -4.40625,0.4375 -0.801841,0.399367 -0.834478,0.5282 -0.25,1.25 0.34486,0.425884 0.861783,0.585596 2.3125,0.75 4.602637,0.521597 8.28125,-0.126474 8.28125,-1.46875 0,-0.509461 -0.170001,-0.666317 -1,-0.84375 -0.384237,-0.08214 -1.117409,-0.137292 -2,-0.15625 z m -20.71875,1.5625 c -2.235193,0.019 -5.266072,0.08739 -8.53125,0.15625 -6.530356,0.13772 -12.724656,0.2487 -13.78125,0.25 l -1.9375,0 0,3.84375 0,3.84375 13.75,0 13.78125,0 0.125,-0.5625 C 39.664895,77.919609 40.217758,73.93703 40.21875,73 40.219511,72.208279 40.100291,71.923678 39.75,71.8125 39.623852,71.77246 38.172693,71.76225 35.9375,71.78125 z M 64,71.8125 63.5,72.71875 c -1.112994,2.031518 -3.117809,3.013355 -7.09375,3.4375 -2.775644,0.296099 -3.544886,0.5 -2,0.5 1.349771,0 4.503689,0.658309 5.6875,1.1875 1.358207,0.60715 2.40625,1.693209 2.40625,2.46875 0,2.440635 -3.468596,4.480487 -5.21875,3.0625 -0.467502,-0.378773 -0.59375,-0.739382 -0.59375,-1.6875 0,-1.183349 -0.01136,-1.159606 -1,-1.375 -1.385091,-0.30177 -5.664175,-0.132451 -6.125,0.25 -0.283697,0.235447 -0.341484,0.536002 -0.1875,1.21875 0.347618,1.54129 0.858479,1.823401 3.75,2.09375 1.41927,0.132698 3.017927,0.35426 3.5625,0.5 2.444146,0.654111 4.42463,2.182183 4.84375,3.75 0.151566,0.566969 0.417949,1.198734 0.5625,1.375 0.470587,0.573834 1.021222,0.168512 1.375,-0.96875 0.254745,-0.818908 0.36035,-3.166832 0.4375,-8.90625 L 64,71.8125 z M 32.40625,83.21875 c -6.5712,0.02092 -9.150652,0.465242 -8.34375,1.4375 0.572867,0.690263 5.469153,1.712273 9.6875,2 4.316931,0.294452 5.325402,0.07634 5.5625,-1.1875 0.379399,-2.022367 -0.320827,-2.27097 -6.90625,-2.25 z m 47.375,1.375 c -1.081689,0 -1.29967,0.672877 -1.34375,4.3125 -0.04545,3.753084 -0.264538,4.486242 -2.03125,6.375 -1.99063,2.128144 -3.055289,2.464712 -9.9375,3.0625 -6.545085,0.568505 -8.970747,1.19005 -10.03125,2.625 -0.618103,0.83635 -0.408905,2.10733 0.5,3.1875 0.921254,1.09485 1.728181,1.44069 4.46875,1.875 1.339756,0.21232 2.917743,0.63664 3.53125,0.9375 1.005369,0.49303 1.125,0.6243 1.125,1.40625 0,0.85596 -0.0068,0.88907 -1.71875,1.4375 -2.085971,0.66827 -2.915668,1.46555 -3.34375,3.25 -0.359074,1.49679 -0.239365,2.24998 0.46875,2.6875 0.281748,0.17408 2.01008,0.5365 3.8125,0.8125 3.102161,0.47504 4.375,0.926 4.375,1.5 0,0.13968 -0.542113,0.79211 -1.21875,1.46875 -2.365087,2.36509 -2.287277,5.20524 0.15625,5.9375 1.84474,0.55282 4.03418,0.0719 7,-1.53125 3.610861,-1.95183 9.4375,-5.46354 9.4375,-5.6875 0,-0.12478 -0.509508,-1.27664 -1.125,-2.59375 -1.711802,-3.66316 -2.130256,-5.25221 -2.28125,-8.5625 -0.175684,-3.85154 0.150099,-5.3525 1.96875,-9.21875 1.317738,-2.801357 1.4838,-3.389336 1.59375,-5.0625 0.101419,-1.543292 0.05022,-2.157976 -0.375,-3.28125 -0.879543,-2.323421 -3.553513,-4.9375 -5.03125,-4.9375 z m 8.375,13.625 c -3.126361,0 -4.525569,9.14226 -2.125,13.90625 0.729359,1.44743 2.122567,3.14559 3.0625,3.71875 0.912907,0.55669 1.603944,0.59741 2.25,0.125 0.462099,-0.3379 0.481353,-0.41788 -0.28125,-2.3125 -1.129271,-2.80558 -1.341697,-4.09456 -1.53125,-9.5 -0.181142,-5.165613 -0.366337,-5.9375 -1.375,-5.9375 z m 38.6875,2.96875 c -7.55047,8.2e-4 -16.66785,0.72876 -26.5,2.125 -5.851303,0.83093 -6.917597,1.18573 -7.3125,2.34375 -0.316116,0.92698 -0.405233,3.41366 -0.15625,4.0625 0.212486,0.55373 1.207448,0.49943 7.59375,-0.34375 6.97765,-0.92125 11.05413,-1.21412 20.625,-1.5 7.79179,-0.23274 9.06702,-0.35958 10.1875,-1.09375 0.86488,-0.56669 1.09375,-1.34056 1.09375,-3.625 l 0,-1.96875 -5.53125,0 z m -54.28125,2.96875 c 0.433279,-0.007 0.809435,0.1227 0.90625,0.375 0.207924,0.54184 -0.220198,1.51011 -0.875,1.96875 -0.657427,0.46048 -0.675753,0.45947 -1.25,0.125 -0.570771,-0.33244 -0.578931,-1.53857 0,-2.0625 0.286035,-0.25886 0.785471,-0.39882 1.21875,-0.40625 z M 197,106.4375 c -0.0698,0.0164 -0.13483,0.0723 -0.1875,0.125 -0.59362,0.59362 1.2495,3.56633 4.28125,6.9375 0.99926,1.11113 3.33123,3.67423 5.21875,5.71875 4.1224,4.46529 5.50384,6.23679 6.03125,7.8125 0.46301,1.3833 0.2718,1.8003 -0.96875,2.0625 -2.12372,0.44887 -7.07682,5.7506 -9.09375,9.75 -0.52652,1.04404 -0.73169,2.92287 -0.375,3.5 0.2774,0.44885 1.28291,0.24009 2.25,-0.46875 2.10578,-1.54347 8.26653,-8.18117 10.3125,-11.125 1.13952,-1.63959 2.01187,-3.73637 1.84375,-4.40625 -0.41126,-1.63857 -7.45729,-9.47646 -14,-15.59375 -3.76644,-3.52154 -4.82362,-4.42707 -5.3125,-4.3125 z M 73.46875,110.875 c 0.232133,-0.0158 0.478202,0.13717 0.75,0.4375 0.464331,0.51308 0.538258,1.56746 0.15625,2.28125 -0.145605,0.27207 -0.533258,0.46875 -0.875,0.46875 -1.049612,0 -1.473921,-1.57809 -0.71875,-2.65625 0.234486,-0.33477 0.455367,-0.51546 0.6875,-0.53125 z M 196.25,140.25 c -0.13036,-0.0162 -0.2708,0.074 -0.5,0.28125 -0.72055,0.6516 -1.33465,2.01042 -1.6875,3.71875 -0.27779,1.34513 -0.26992,1.64365 0.0937,2.40625 0.44017,0.92304 0.6674,0.96302 1.9375,0.1875 1.6387,-1.00059 2.46875,-1.83023 2.46875,-2.4375 0,-0.74081 -1.07623,-2.96096 -1.8125,-3.75 -0.24872,-0.26655 -0.36964,-0.39008 -0.5,-0.40625 z m 13.9375,3.625 c -0.25761,-0.0116 -0.49478,-0.003 -0.75,0.0313 -0.52251,0.0701 -1.42973,0.49298 -2.09375,1 -0.63946,0.48826 -1.56651,0.94825 -2.0625,1.03125 -1.6484,0.27572 -2.47079,0.63913 -2.625,1.125 -0.18612,0.5864 -0.70128,0.86608 -2,1.09375 -1.27871,0.22417 -2.57138,1.12991 -3.6875,2.5625 -1.14936,1.47525 -2.03165,2.02925 -3.1875,2.03125 -0.78094,0.001 -1.00733,0.12528 -1.40625,0.78125 -0.77564,1.27545 -0.9045,3.53398 -0.3125,5.875 0.62445,2.46939 1.54305,4.05757 2.875,5.03125 1.17767,0.86089 1.87765,1.16355 3.25,1.40625 3.03484,0.53674 5.15188,-0.96695 5.5,-3.90625 0.18978,-1.60244 -0.29739,-2.41891 -1.5625,-2.65625 -1.35526,-0.25425 -2.77684,0.32179 -4,1.5625 -0.60457,0.61325 -1.29537,1.0625 -1.59375,1.0625 -0.72496,0 -1.6875,-0.93427 -1.6875,-1.65625 0,-0.84221 0.32166,-1.36222 2.25,-3.59375 1.07536,-1.24444 1.88322,-2.43804 2.15625,-3.21875 0.54119,-1.54754 2.03678,-2.95816 3.96875,-3.6875 1.15845,-0.43738 1.71505,-0.50498 3.1875,-0.375 1.30698,0.11538 1.83875,0.0778 2.03125,-0.15625 0.14413,-0.17521 0.55737,-0.65795 0.90625,-1.09375 0.34888,-0.43581 0.8299,-0.8702 1.0625,-0.9375 0.2326,-0.0673 0.89164,-0.22592 1.46875,-0.375 0.60889,-0.15729 1.15389,-0.48488 1.3125,-0.78125 0.5125,-0.95763 -1.1967,-2.07482 -3,-2.15625 z m 6.96875,3.40625 c -0.69275,0 0.2602,2.97762 1.5,4.71875 0.62882,0.8831 1.20626,0.93462 1.9375,0.15625 0.46965,-0.49992 0.51336,-0.67075 0.28125,-1.28125 -0.57279,-1.50655 -2.73365,-3.59375 -3.71875,-3.59375 z m -4.65625,3.25 c -0.91414,0 -2.28125,1.39669 -2.28125,2.34375 0,1.46784 2.28967,4.93658 3.75,5.65625 1.09882,0.5415 1.83997,0.50378 2.4375,-0.0937 0.58663,-0.58663 0.6108,-0.75594 0.15625,-2.21875 -1.05664,-3.40043 -2.70269,-5.6875 -4.0625,-5.6875 z m -8.75,2.75 c -1.37955,0.13188 -1.20002,0.72949 0.84375,2.875 1.97382,2.07208 2.74751,3.33485 3.03125,4.90625 0.0973,0.539 0.271,1.11083 0.40625,1.28125 0.32481,0.40924 0.56077,0.40798 1.03125,-0.0625 1.14159,-1.14159 -0.19174,-4.61572 -2.84375,-7.375 -1.47235,-1.53192 -1.70766,-1.6977 -2.46875,-1.625 z M 106.5,199.75 l -1.0625,1.21875 c -2.22827,2.52959 -2.58282,4.35989 -1.21875,6.6875 0.57794,0.98617 0.97355,1.2803 2.53125,2 7.34215,3.39229 29.36673,8.34037 39.375,8.84375 0.81801,0.0411 6.86219,0.0999 13.40625,0.125 12.10685,0.0465 25.46397,-0.2208 32.84375,-0.6875 7.72546,-0.48855 15.45,-1.88189 17.28125,-3.09375 0.53748,-0.35569 2.30161,-1.10364 3.9375,-1.6875 4.37483,-1.56141 6.36087,-2.8534 7.3125,-4.71875 1.37673,-2.69861 -0.93584,-5.45342 -4.3125,-5.15625 -0.33649,0.0296 -0.42405,0.26993 -0.40625,1.15625 0.0386,1.92262 -1.42464,3.54597 -4.03125,4.46875 -2.81548,0.99672 -14.26784,3.15606 -18.84375,3.5625 -8.69729,0.77252 -33.06124,1.6803 -38.125,1.40625 -6.0532,-0.3276 -11.1436,-1.16111 -22.9375,-3.75 -17.02584,-3.73736 -23.04637,-6.00432 -25.1875,-9.46875 L 106.5,199.75 z m -5.46875,10.5625 -2.25,1.53125 c -4.201031,2.85711 -7.3125,6.58022 -7.3125,8.75 0,0.7103 0.189957,0.91284 1.46875,1.78125 1.982869,1.34654 8.2347,4.79766 11.5625,6.375 6.62634,3.14079 15.21456,5.65533 24.375,7.15625 5.19192,0.85069 9.48718,1.30329 18.4375,1.875 4.32493,0.27626 8.37996,0.5868 9.03125,0.71875 0.65129,0.13194 1.58533,0.29365 2.0625,0.34375 4.45433,0.46763 24.54992,-0.27121 32.125,-1.1875 7.04026,-0.8516 17.90636,-3.7767 27.96875,-7.5 8.16966,-3.02295 12.78125,-5.37201 12.78125,-6.53125 0,-1.63361 -4.3942,-7.55879 -6.625,-8.9375 -1.11603,-0.68974 -1.31024,-0.62972 -9.28125,2.03125 -13.48592,4.50201 -17.9857,5.17902 -39.75,5.96875 -9.82205,0.3564 -25.60952,0.15859 -30.53125,-0.375 -8.38785,-0.90936 -20.22307,-3.12827 -26.625,-4.96875 -5.12245,-1.47264 -7.92567,-2.51352 -13.125,-4.96875 l -4.3125,-2.0625 z"
     id="path4419" />
  <path
     style="fill:#cccccc;fill-opacity:1;stroke:#b3b3b3;stroke-width:0.24788135;stroke-miterlimit:4;stroke-opacity:1;stroke-dasharray:none"
     d=""
     id="path4479" />
  <path
     style="fill:#cccccc;fill-opacity:1;stroke:#b3b3b3;stroke-width:0.24788135;stroke-miterlimit:4;stroke-opacity:1;stroke-dasharray:none"
     d="m 43.82077,87.040314 c -0.0658,-0.194493 -0.237535,-1.715353 -0.381645,-3.37969 -0.316634,-3.656844 0.02097,-9.849395 0.658817,-12.084484 0.107459,-0.376548 0.246515,-0.209607 0.619425,0.743645 0.757446,1.936221 2.055649,3.014773 4.162624,3.458324 1.654813,0.348364 1.579908,0.512223 -0.664415,1.453444 -2.409109,1.01033 -3.181125,1.54538 -3.521481,2.440585 -0.299838,0.788634 -0.0068,1.302952 1.536253,2.695867 l 1.25697,1.134703 -0.5234,0.724407 c -1.005621,1.39182 -3.015453,3.190671 -3.143148,2.813199 z"
     id="path4481" />
  <path
     style="fill:#cccccc;fill-opacity:1;stroke:#b3b3b3;stroke-width:0.24788135;stroke-miterlimit:4;stroke-opacity:1;stroke-dasharray:none"
     d="m 52.078004,107.60495 c -1.080125,-0.3965 -1.343997,-1.24613 -1.293036,-4.16337 0.07391,-4.230925 1.104548,-6.219931 3.222967,-6.219931 0.587999,0 1.06909,0.06489 1.06909,0.144193 0,0.07931 -0.388047,0.617753 -0.862326,1.196549 -1.15259,1.406584 -1.651927,2.678989 -1.651769,4.209029 1.63e-4,1.58111 0.326216,2.45323 1.41303,3.77954 0.469251,0.57266 0.853183,1.10609 0.853183,1.18539 0,0.22749 -2.038745,0.13011 -2.751139,-0.1314 z"
     id="path4483" />
  <path
     style="fill:#cccccc;fill-opacity:1;stroke:#b3b3b3;stroke-width:0.24788135;stroke-miterlimit:4;stroke-opacity:1;stroke-dasharray:none"
     d="m 39.873635,92.59453 c -0.239398,-0.239398 -0.203195,-1.322034 0.04421,-1.322034 0.29772,0 1.029944,0.850959 1.029944,1.196955 0,0.309213 -0.79719,0.402042 -1.074152,0.125079 z"
     id="path4485" />
  <path
     style="fill:#cccccc;fill-opacity:1;stroke:#b3b3b3;stroke-width:0.24788135;stroke-miterlimit:4;stroke-opacity:1;stroke-dasharray:none"
     d="m 67.253288,94.734368 c -0.79634,-0.115295 -1.532925,-0.392686 -1.829037,-0.688798 l -0.495766,-0.495766 0.892767,-0.580921 c 1.548998,-1.007929 1.607805,-1.353532 1.872827,-11.00648 0.198238,-7.220436 0.358322,-8.537364 1.03779,-8.537364 0.468383,0 1.030673,1.84529 1.493126,4.900042 0.521519,3.444924 0.799224,4.111675 2.481865,5.958793 3.160426,3.469357 2.426788,9.20842 -1.29837,10.156824 -1.691857,0.430738 -2.710988,0.502765 -4.155202,0.29367 l 0,0 z"
     id="path4487" />
  <path
     style="fill:#cccccc;fill-opacity:1;stroke:#b3b3b3;stroke-width:0.24788135;stroke-miterlimit:4;stroke-opacity:1;stroke-dasharray:none"
     d="m 49.839707,89.550051 c -1.40379,-0.258029 -2.259973,-0.691839 -2.137454,-1.083003 0.05049,-0.161188 0.475565,-0.496391 0.944618,-0.744895 1.47575,-0.781854 6.775577,-0.192957 8.293571,0.92155 0.476673,0.349972 0.469089,0.369362 -0.252127,0.644627 -0.959417,0.366179 -5.364469,0.534519 -6.848608,0.261721 z"
     id="path4489" />
  <path
     style="fill:#cccccc;fill-opacity:1;stroke:#b3b3b3;stroke-width:0.24788135;stroke-miterlimit:4;stroke-opacity:1;stroke-dasharray:none"
     d="m 74.041233,74.666523 c -0.185611,-0.300325 0.958768,-1.489366 1.433423,-1.489366 0.667198,0 0.670434,0.346626 0.0097,1.03631 -0.693618,0.723981 -1.181076,0.877017 -1.443098,0.453056 z"
     id="path4491" />
</svg>
