<?xml version="1.0" encoding="UTF-8" standalone="no"?>
<!-- Created with Inkscape (http://www.inkscape.org/) -->

<svg
   xmlns:dc="http://purl.org/dc/elements/1.1/"
   xmlns:cc="http://creativecommons.org/ns#"
   xmlns:rdf="http://www.w3.org/1999/02/22-rdf-syntax-ns#"
   xmlns:svg="http://www.w3.org/2000/svg"
   xmlns="http://www.w3.org/2000/svg"
   xmlns:sodipodi="http://sodipodi.sourceforge.net/DTD/sodipodi-0.dtd"
   xmlns:inkscape="http://www.inkscape.org/namespaces/inkscape"
   id="svg3043"
   version="1.1"
   inkscape:version="0.47 r22583"
   width="250"
   height="250"
   sodipodi:docname="back.png">
  <metadata
     id="metadata3049">
    <rdf:RDF>
      <cc:Work
         rdf:about="">
        <dc:format>image/svg+xml</dc:format>
        <dc:type
           rdf:resource="http://purl.org/dc/dcmitype/StillImage" />
        <dc:title></dc:title>
      </cc:Work>
    </rdf:RDF>
  </metadata>
  <defs
     id="defs3047">
    <inkscape:perspective
       sodipodi:type="inkscape:persp3d"
       inkscape:vp_x="0 : 0.5 : 1"
       inkscape:vp_y="0 : 1000 : 0"
       inkscape:vp_z="1 : 0.5 : 1"
       inkscape:persp3d-origin="0.5 : 0.33333333 : 1"
       id="perspective3051" />
  </defs>
  <sodipodi:namedview
     pagecolor="#ffffff"
     bordercolor="#666666"
     borderopacity="1"
     objecttolerance="10"
     gridtolerance="10"
     guidetolerance="10"
     inkscape:pageopacity="0"
     inkscape:pageshadow="2"
     inkscape:window-width="1272"
     inkscape:window-height="936"
     id="namedview3045"
     showgrid="false"
     inkscape:zoom="1.8656126"
     inkscape:cx="113.43279"
     inkscape:cy="75.244088"
     inkscape:window-x="0"
     inkscape:window-y="25"
     inkscape:window-maximized="0"
     inkscape:current-layer="svg3043" />
  <path
     style="fill:#b3b3b3;fill-opacity:1;stroke:#b3b3b3;stroke-width:0.26800847;stroke-miterlimit:4;stroke-opacity:1;stroke-dasharray:none"
     d="m 112.79131,9.7595339 c -0.90852,-0.0015 -1.17412,0.0516 -1.59375,0.3125001 -0.31184,0.193891 -0.5,0.42569 -0.5,0.59375 0,0.503546 0.8016,2.676755 1.59375,4.3125 0.94982,1.961314 1.98672,3.56241 2.71875,4.21875 0.70505,0.632148 0.90625,1.066988 0.90625,1.875 0,0.964847 -0.23127,1.184271 -1.6875,1.5625 -0.67242,0.174651 -1.83596,0.513464 -2.5625,0.78125 -1.68614,0.621484 -6.22096,2.873478 -7.0625,3.5 -0.74443,0.554226 -0.72708,0.543956 0.0313,2.0625 0.88505,1.772287 1.37275,1.831446 5.59375,0.59375 3.37899,-0.990798 6.34865,-1.77535 6.78125,-1.78125 0.29866,-0.0041 0.39381,0.0929 0.6875,0.75 1.00806,2.255356 2.36256,9.514146 2.375,12.71875 0.004,0.921972 0.18191,1.380043 0.65625,1.625 0.56586,0.292219 4.24509,-0.107479 5.125,-0.5625 0.53606,-0.277206 0.90612,-0.800843 1,-1.4375 0.13108,-0.888881 -0.31631,-3.286027 -1.0625,-5.84375 -0.65497,-2.245076 -0.681,-2.438745 -0.6875,-3.96875 -0.006,-1.429849 0.0296,-1.67536 0.3125,-2.25 0.71933,-1.461041 1.89217,-2.155975 4.71875,-2.78125 3.14215,-0.695081 3.65625,-1.055383 3.65625,-2.4375 0,-0.70262 -0.0365,-0.829484 -0.34375,-1.09375 -0.53422,-0.459518 -1.57341,-0.60022 -5.46875,-0.6875 -1.95311,-0.04376 -3.95843,-0.13777 -4.4375,-0.21875 -1.2191,-0.206067 -1.74793,-0.793569 -2.375,-2.53125 -0.99208,-2.749191 -1.79047,-4.28125 -2.21875,-4.28125 -0.29167,0 -1.09296,-0.987534 -1.625,-2 -0.72265,-1.375221 -1.2262,-1.90104 -2.40625,-2.5 -0.94648,-0.4804101 -1.12709,-0.5295501 -2.125,-0.5312501 z m 10.4375,37.0000001 0.71875,0.875 c 1.27911,1.500118 2.72181,2.884919 3.34375,3.1875 0.74164,0.360812 1.21667,0.364213 2.3125,0.03125 0.46841,-0.142322 1.16274,-0.29508 1.53125,-0.34375 1.06897,-0.141172 1.63514,-0.344605 1.71875,-0.5625 0.14516,-0.378274 -0.80013,-1.206952 -2.09375,-1.84375 -1.90851,-0.939486 -2.90995,-1.16508 -5.40625,-1.25 l -2.125,-0.09375 z m 12.65625,0.8125 c 0,0.02263 0.39193,0.649453 0.875,1.375 1.42949,2.147012 2.23986,4.77068 3.40625,11.0625 0.70809,3.819587 1.18171,5.79751 1.6875,6.875 0.28716,0.611731 0.39776,0.715242 0.875,0.84375 0.72212,0.194446 1.41227,0.628565 2.09375,1.34375 1.2192,1.279496 1.8546,2.348285 2.53125,4.3125 0.69954,2.03062 1.03514,2.381186 2.5,2.625 0.39039,0.06498 2.97887,0.1164 5.75,0.125 l 5.03125,0.03125 -0.0625,-3.3125 c -0.11052,-7.13683 -0.35294,-9.638978 -1.21875,-11.71875 -2.59409,-6.231289 -9.55681,-11.41873 -17.15625,-12.78125 -1.21584,-0.217991 -6.3125,-0.85129 -6.3125,-0.78125 z m -19.34375,1.9375 c -3.21147,0.04338 -7.26712,0.566181 -10.59375,1.46875 -1.84388,0.500275 -3.12487,0.996831 -4.90625,1.9375 -7.618125,4.022814 -9.422383,9.213581 -7.437496,21.28125 0.538406,3.273385 0.871016,4.049756 1.90625,4.34375 0.655705,0.186213 2.845645,0.09104 3.4375,-0.15625 0.638617,-0.266831 0.831842,-0.647698 1,-1.875 0.208946,-1.52498 0.756286,-2.540183 1.906246,-3.625 2.34286,-2.210136 6.44657,-3.28777 11.875,-3.125 3.71589,0.111419 4.45028,0.411357 7.34375,2.84375 0.9332,0.784486 2.07116,1.40375 2.53125,1.40625 0.45349,0.0025 1.02204,-0.398146 1.28125,-0.90625 0.73334,-1.437451 1.01031,-4.189856 0.90625,-8.90625 -0.10435,-4.729882 -0.63121,-8.034293 -1.75,-10.78125 -0.83243,-2.043891 -1.62789,-2.966027 -2.96875,-3.4375 -0.97745,-0.343692 -2.60436,-0.49478 -4.53125,-0.46875 z m 18.90625,7.875 c -0.14624,0 -0.61443,0.254867 -1.0625,0.53125 -1.11087,0.685217 -1.86987,0.66813 -3.375,-0.03125 -1.29769,-0.602988 -1.87154,-0.607038 -1.9375,-0.03125 -0.0523,0.456904 0.42387,2.084672 0.8125,2.78125 0.34973,0.626841 0.59988,0.660181 1.46875,0.0625 0.82357,-0.566512 1.74938,-0.87255 3,-0.96875 1.17433,-0.09034 1.77227,-0.285015 1.9375,-0.59375 0.25478,-0.476056 -0.36317,-1.75 -0.84375,-1.75 z m -1.65625,5.53125 c -0.39927,0.08993 -0.71875,0.596088 -0.71875,1.34375 0,0.555824 0.0719,0.728154 0.40625,1.0625 0.32901,0.329004 0.43758,0.367032 0.65625,0.25 0.71171,-0.380894 0.93591,-1.639149 0.40625,-2.3125 -0.22833,-0.290276 -0.51043,-0.39771 -0.75,-0.34375 z m -4.0625,3.96875 c -0.65019,0.129004 -0.89085,1.015392 -0.40625,1.5 0.68636,0.686361 1.7618,-0.03847 1.4375,-0.96875 -0.12731,-0.365209 -0.59791,-0.61723 -1.03125,-0.53125 z m 5.3125,4.09375 c -2.57881,0.05759 -3.4821,0.582109 -5.1875,2.1875 -2.07068,1.949251 -3.62662,4.252259 -4.09375,6.0625 -0.30688,1.189239 -0.52748,1.588618 -1.0625,1.84375 -0.39383,0.187809 -0.53786,0.209036 -1.03125,0.0625 -0.78578,-0.233376 -1.96936,-1.477367 -3.0625,-3.21875 -1.74294,-2.776537 -3.75796,-4.250633 -6.53125,-4.78125 -1.78613,-0.341744 -3.64942,-0.178712 -5.78125,0.53125 -1.35249,0.450422 -4.42988,1.954865 -4.78125,2.34375 -0.44125,0.488379 -0.32289,1.521287 0.46875,4.25 0.75696,2.60913 0.96269,4.072429 0.6875,4.90625 -0.21801,0.660589 -1.09533,1.4375 -1.625,1.4375 -0.60665,0 -0.79281,-0.153951 -1.65625,-1.28125 -1.31122,-1.711917 -2.507076,-2.376647 -4.406246,-2.53125 -2.714903,-0.221007 -5.441673,1.417357 -6.78125,4.09375 -0.794527,1.587417 -0.769354,1.788394 0.40625,3.78125 2.742119,4.648378 4.995828,7.60656 6.34375,8.3125 0.221107,0.1158 0.45555,0.21575 0.5,0.21875 0.04445,0.003 0.753772,-0.15718 1.59375,-0.375 2.193976,-0.56894 10.245466,-2.222354 12.843746,-2.625 6.34639,-0.983475 16.04173,-1.465851 22.9375,-1.15625 5.82269,0.261422 8.45041,0.576171 10.90625,1.34375 2.32549,0.726836 3.66597,0.482037 6.3125,-1.21875 2.83697,-1.823164 8.13874,-6.626129 9.375,-8.46875 0.92418,-1.377466 1.3104,-2.355346 1.375,-3.59375 0.048,-0.919815 0.017,-1.116138 -0.28125,-1.625 -0.19555,-0.333674 -0.55829,-0.696998 -0.875,-0.875 -2.49714,-1.403472 -11.94006,-0.850339 -14.5,0.84375 -0.85054,0.562863 -1.85828,1 -2.25,1 -0.42219,0 -0.84991,-0.376291 -1.0625,-0.9375 -0.27218,-0.718529 -0.4375,-3.020919 -0.4375,-6.53125 l 0,-3.59375 -0.78125,-0.09375 c -0.42378,-0.04365 -2.35122,-0.16108 -4.3125,-0.25 -1.32623,-0.06012 -2.39039,-0.0817 -3.25,-0.0625 z m -1.3125,28.03125 c -10.41015,-0.006 -20.43654,0.69625 -27.71875,1.906246 -3.99874,0.66443 -5.61698,1.16216 -6.124996,1.9375 -0.605073,0.92346 -3.074974,7.71336 -4.09375,11.25 -5.659045,19.64511 -9.382285,53.93165 -8.4375,77.625 0.440313,11.0422 0.653504,13.16879 1.40625,13.6875 1.229734,0.8474 8.74572,3.59892 11.749996,4.3125 0.66332,0.15755 2.5348,0.38582 4.15625,0.5 3.36418,0.2369 13.89238,0.11104 22.375,-0.28125 8.75512,-0.4049 13.30331,-1.11813 21.15625,-3.25 7.02687,-1.90761 16.375,-5.22017 16.375,-5.8125 0,-0.10653 -0.90626,-2.11705 -2,-4.46875 -3.27869,-7.04968 -6.20855,-15.32569 -7.34375,-20.78125 -0.26739,-1.28503 -0.60764,-2.27924 -0.84375,-2.40625 -0.2211,-0.11894 -1.00007,-0.2821 -1.71875,-0.375 -2.8094,-0.3633 -3.32121,-2.30881 -1.34375,-5.1875 1.00726,-1.46631 1.04631,-1.53166 1,-3.78125 -0.026,-1.26197 -0.6625,-5.96663 -1.40625,-10.46875 -2.33857,-14.15604 -3.06497,-22.21768 -3.375,-37.25 -0.18899,-9.16342 -0.52291,-14.10916 -1,-15.15625 -0.75005,-1.646186 -2.97262,-1.994996 -12.8125,-1.999996 z m 18.34375,5.343746 c -0.28884,-0.001 -0.52348,0.26004 -0.65625,0.75 -0.25782,0.95142 -0.29731,1.69982 -0.34375,6.84375 -0.048,5.31504 0.0207,7.87301 0.25,8.6875 0.13595,0.48276 0.3673,0.47878 0.84375,-0.0625 0.79007,-0.89756 1.77412,-2.75988 2.25,-4.25 0.95476,-2.98957 -0.14724,-10.18712 -1.78125,-11.6875 -0.2038,-0.18714 -0.38919,-0.28058 -0.5625,-0.28125 z m 3.28125,35.65625 c -0.0464,0.033 -0.0799,0.14354 -0.15625,0.375 -0.10172,0.3082 -0.15048,0.77503 -0.0937,1.1875 0.10554,0.76735 0.25985,0.81803 0.46875,0.21875 0.20145,-0.57784 0.18921,-1.35475 -0.0313,-1.65625 -0.0851,-0.11643 -0.14114,-0.15801 -0.1875,-0.125 z m -1.28125,7.96875 c -0.21091,0.0114 -0.39851,0.0652 -0.5,0.1875 -0.17661,0.21281 0.0145,1.06541 0.3125,1.4375 0.25593,0.31959 1.07694,0.89635 1.375,0.96875 1.28492,0.31216 1.85936,-0.58374 1,-1.5625 -0.55703,-0.63444 -1.55476,-1.06541 -2.1875,-1.03125 z m 13.5625,11 c -1.2468,0 -4.16983,3.17834 -5.65625,6.125 -1.30787,2.5927 -1.85188,5.17232 -1.4375,6.96875 0.35226,1.52711 1.32744,2.74447 2.5625,3.21875 0.55649,0.21375 1.03814,0.27625 2.09375,0.28125 1.30532,0.007 1.72976,-0.10562 1.0625,-0.3125 -0.16583,-0.0514 -0.68673,-0.30369 -1.15625,-0.53125 -1.01916,-0.49395 -1.65183,-1.25358 -1.96875,-2.34375 -0.32507,-1.1182 -0.1904,-3.49148 0.28125,-4.90625 0.73555,-2.20637 1.79575,-3.99973 3.5,-5.84375 1.24733,-1.34963 1.53125,-1.69555 1.53125,-2.0625 0,-0.33558 -0.3569,-0.59375 -0.8125,-0.59375 z m -10.3125,2.9375 c -1.25965,0 -1.40785,0.83342 -0.65625,3.28125 0.24151,0.78656 0.48055,1.40625 0.53125,1.40625 0.15565,0 1.72075,-3.44822 1.71875,-3.78125 -0.001,-0.17199 -0.0382,-0.38125 -0.0937,-0.46875 -0.16169,-0.25429 -0.80772,-0.4375 -1.5,-0.4375 z m 13.25,1.90625 c -0.12555,0.0171 -0.27143,0.0566 -0.4375,0.0937 -0.88973,0.19911 -1.82224,0.94877 -2.46875,2.03125 -0.93913,1.57244 -1.65238,4.71689 -1.25,5.46875 0.3572,0.66743 1.15696,0.0686 1.375,-1.03125 0.39851,-2.01034 0.82769,-2.93044 2.25,-4.65625 1.04153,-1.26373 1.33403,-1.83491 0.84375,-1.90625 -0.0817,-0.0119 -0.18695,-0.0171 -0.3125,0 z m 9.3125,0 c -0.86311,0.007 -1.75023,0.37786 -1.875,0.875 -0.12305,0.49024 -0.9823,1.05636 -2.875,1.90625 -2.4316,1.09189 -3.0625,1.74514 -3.0625,3.15625 0,0.76446 0.31593,1.48692 0.78125,1.75 0.21885,0.12376 0.57527,0.18685 0.96875,0.15625 1.1197,-0.0872 1.98211,-0.99843 2.53125,-2.65625 0.30953,-0.93444 0.75677,-1.59385 1.28125,-1.9375 0.17954,-0.11763 0.75256,-0.30551 1.28125,-0.40625 1.55812,-0.29689 2.4724,-1.08868 2.375,-2.09375 -0.0354,-0.36575 -0.1346,-0.47271 -0.59375,-0.625 -0.25363,-0.0841 -0.5248,-0.1274 -0.8125,-0.125 z m 6.5,0.9375 c -0.5991,0.11258 -1.57317,1.1997 -1.9375,2.25 -0.11504,0.33166 -0.23625,1.07223 -0.28125,1.625 l -0.0937,1 0.375,-0.34375 c 0.52851,-0.48465 1.59988,-1.98463 2,-2.78125 0.37969,-0.75594 0.45768,-1.60309 0.15625,-1.71875 -0.068,-0.0261 -0.13316,-0.0473 -0.21875,-0.0313 z m -102.468746,3.03125 -6.53125,0.0625 c -6.939886,0.0572 -7.576717,0.1122 -7.6875,0.6875 -0.222259,1.15422 5.814023,3.8668 10.78125,4.84375 1.46489,0.28811 2.3584,0.24197 2.71875,-0.0937 0.499959,-0.46578 0.58705,-0.89564 0.65625,-3.25 l 0.0625,-2.25 z m 85.124996,35.6875 c -0.0935,0 -1.48564,0.46641 -3.09375,1.0625 -11.18687,4.14674 -20.24121,6.61426 -30.40625,8.25 -13.95306,2.24531 -26.69311,2.36442 -36.374996,0.375 -2.688571,-0.55244 -4.656513,-1.16327 -7.34375,-2.28125 -2.490055,-1.03594 -4.644167,-1.74168 -5.90625,-1.9375 -0.781796,-0.12133 -1.065059,-0.10937 -1.65625,0.0625 -0.99769,0.29003 -1.868346,1.06484 -2.40625,2.1875 -0.368004,0.76807 -0.4299,1.04904 -0.4375,1.96875 -0.01597,1.93605 0.76405,2.99325 3.09375,4.15625 5.315114,2.65336 18.518796,4.66855 32.999996,5.03125 10.98233,0.27507 21.74379,-0.28542 29.5,-1.53125 14.22257,-2.2845 26.77625,-7.2235 26.78125,-10.53125 8.1e-4,-0.5776 -0.67684,-1.99348 -1.5,-3.09375 -1.03387,-1.38191 -3.07738,-3.71875 -3.25,-3.71875 z m 12.90625,9.5 c -0.0713,0 -0.8425,0.42078 -1.71875,0.9375 -2.10879,1.24355 -3.2578,1.82008 -5.84375,2.875 -4.3732,1.78402 -9.84076,3.74435 -18.78125,6.71875 l -5.15625,1.6875 -20.71875,0.0313 c -18.00049,0.0108 -21.26146,-0.0191 -24.8125,-0.21875 -9.730773,-0.54719 -13.657041,-1.35719 -23.249996,-4.8125 -3.858174,-1.38968 -5.531432,-1.84975 -6.6875,-1.84375 -0.899271,0.005 -1.129148,0.11455 -1.4375,0.71875 -0.754876,1.47915 -3.35557,10.6494 -4.0625,14.34375 -0.359646,1.87948 -0.634536,1.60283 2.875,3 15.35288,6.11212 26.851342,8.45838 43.281246,8.84375 2.24792,0.0527 4.35147,0.1128 4.65625,0.125 0.30479,0.0122 3.44101,-0.051 6.96875,-0.125 10.29156,-0.21597 16.85816,-0.63894 21.40625,-1.40625 1.72821,-0.29156 17.59387,-3.97951 19.90625,-4.625 6.89238,-1.92397 13.87805,-4.4708 16.4375,-6 0.61228,-0.36583 2.33322,-1.58433 3,-2.125 0.0789,-0.064 -0.11178,-0.70105 -1.21875,-4.46875 -1.34622,-4.582 -2.68963,-8.61315 -3.625,-10.90625 -0.45096,-1.10554 -0.8622,-2.17232 -0.9375,-2.375 -0.0754,-0.20268 -0.20995,-0.375 -0.28125,-0.375 z"
     id="path3057" />
  <path
     style="fill:#000000"
     d="m 94.941737,246.7049 c -9.310884,-2.05781 -15.946854,-3.94537 -17.5,-4.97775 -0.55,-0.36558 -3.178466,-1.25448 -5.841036,-1.97532 -2.66257,-0.72084 -5.089538,-1.9582 -5.393261,-2.74969 -0.697636,-1.81801 1.622793,-15.02041 3.114917,-17.72275 2.037267,-3.68964 4.943603,-6.52728 6.685286,-6.52728 0.974137,0 1.97548,-1.02876 2.313941,-2.37729 0.328164,-1.30752 1.726948,-3.11789 3.108408,-4.02306 2.484024,-1.62759 2.511745,-1.80001 2.511745,-15.6227 l 0,-13.97695 -2.877876,0 c -1.582832,0 -4.395332,-0.64106 -6.25,-1.42458 -3.816101,-1.61214 -11.37879,-8.9466 -10.571635,-10.2526 0.291553,-0.47175 4.721713,-0.99086 9.844798,-1.1536 5.123086,-0.16273 9.462493,-0.44367 9.643127,-0.6243 0.180634,-0.18063 0.77988,-4.76464 1.331659,-10.18667 1.230292,-12.08945 5.444197,-34.62154 8.088107,-43.24777 1.169923,-3.81708 1.5765,-6.6353 1.009874,-7 -0.52167,-0.33576 -1.294795,-1.73548 -1.718054,-3.110476 -0.423259,-1.375 -1.068092,-2.724996 -1.432961,-2.999996 -1.699527,-1.280925 -5.067039,-6.996182 -5.067039,-8.599652 0,-0.985 1.215473,-3.059591 2.701051,-4.6102 2.687232,-2.804866 2.694906,-2.855121 1.5,-9.823278 -1.646465,-9.601444 -1.536218,-11.280199 1.028408,-15.65971 3.952947,-6.750293 10.873364,-10.831653 20.231234,-11.931485 6.1209,-0.719393 5.94154,-0.381557 4.88288,-9.197003 -0.61565,-5.126497 -0.73433,-5.297586 -3.24131,-4.672886 -1.43124,0.356643 -4.08085,1.34765 -5.88802,2.202237 -3.73257,1.765086 -3.60952,1.820467 -4.90567,-2.208023 -0.61758,-1.919479 -1.74741,-3.115094 -3.136901,-3.319551 -4.456869,-0.655806 -2.385382,-2.772853 6.078331,-6.212011 3.1625,-1.285056 5.74458,-2.591159 5.73795,-2.902452 -0.007,-0.311292 -1.15732,-2.569665 -2.55711,-5.018606 l -2.54507,-4.452619 2.30712,-1.8003561 c 3.29801,-2.5736046 6.57214,-3.2343029 8.42156,-1.6994169 0.87366,0.7250771 3.07963,3.649355 4.90214,6.498397 l 3.31365,5.180075 4.57681,-0.515873 c 5.31383,-0.598946 7.09099,0.482614 7.9638,4.846702 0.93905,4.695211 -0.75248,6.895711 -5.30073,6.895711 l -3.8595,0 0.87083,3.75 c 0.47896,2.0625 0.88157,5.2125 0.89469,7 0.0232,3.1631 0.64397,3.661235 4.14283,3.324494 3.17624,-0.305691 16.20152,2.905573 17.85505,4.402 0.9259,0.837928 1.96507,1.523506 2.30926,1.523506 0.77078,0 5.71671,4.880512 5.71671,5.641084 0,0.302596 0.93854,1.868234 2.08565,3.479196 1.76275,2.475563 2.04013,4.130206 1.79165,10.687863 -0.2291,6.046146 0.0831,8.297235 1.41435,10.197857 2.1058,3.006456 2.12386,4.055392 0.14132,8.210073 -0.95763,2.00684 -3.07993,4.018978 -5.45733,5.174051 -2.13966,1.039568 -4.88038,2.944037 -6.09051,4.232153 l -2.20022,2.342029 2.57659,2.026736 c 5.13599,4.03998 5.5116,16.3475 0.63749,20.88843 -1.71997,1.6024 -1.78381,1.95074 -0.4512,2.46211 0.85372,0.3276 1.56653,1.62226 1.58402,2.87703 0.0175,1.25476 0.67808,3.13517 1.46796,4.1787 0.78989,1.04353 1.19358,2.28983 0.8971,2.76955 -0.29649,0.47973 -0.009,2.47986 0.63997,4.44474 0.77827,2.35819 0.84244,3.90911 0.1888,4.56275 -0.65365,0.65365 -0.46941,2.03425 0.54201,4.06171 1.4174,2.84124 1.39425,3.17238 -0.30883,4.4177 -1.01259,0.74043 -2.46306,1.34623 -3.22326,1.34623 -0.77605,0 -1.23676,0.76744 -1.05056,1.75 0.3879,2.04685 7.40662,3.05838 9.14678,1.31822 1.77038,-1.77038 6.89121,-1.20736 9.26012,1.01812 1.57218,1.47698 4.07357,2.25352 8.56445,2.65875 4.00649,0.36152 6.75987,1.13869 7.47338,2.10943 1.54864,2.10694 0.0169,6.1518 -3.66572,9.67996 -2.61309,2.5035 -3.57754,2.78876 -8.71917,2.57892 -5.07286,-0.20704 -6.07587,0.0778 -8.18728,2.32533 -2.56394,2.72919 -6.82947,3.38936 -8.84925,1.36958 -1.52815,-1.52815 2.02767,8.97364 5.55007,16.39163 1.8193,3.83135 3.4458,5.88547 4.96146,6.26588 1.24017,0.31126 2.98731,1.68379 3.88252,3.05006 1.07549,1.6414 2.5538,2.48412 4.35766,2.48412 3.49432,0 5.30282,2.06325 8.32703,9.5 2.54526,6.25898 5.72642,15.52544 5.7179,16.65574 -0.007,0.94318 -12.39737,6.60693 -17.32859,7.92113 -2.297,0.61217 -7.10136,1.9161 -10.67636,2.89763 -14.64963,4.02211 -23.32368,5.02747 -42.63178,4.94119 -14.53398,-0.0649 -20.82076,-0.51584 -27.368213,-1.9629 z m 56.500003,-3.33499 c 3.85,-0.93442 9.24999,-2.18228 11.99999,-2.77302 8.01779,-1.72232 19.80064,-5.79979 22.36678,-7.74004 l 2.36678,-1.78951 -1.7128,-5.90762 c -0.94203,-3.24918 -2.32108,-7.3688 -3.06454,-9.15471 l -1.35174,-3.24709 -3.46858,2.04651 c -1.90773,1.12558 -9.01873,3.91256 -15.80224,6.19327 l -12.33365,4.14675 -25.5,0.0538 c -27.005305,0.057 -30.850309,-0.42842 -44.843262,-5.66142 -3.648119,-1.3643 -5.66835,-1.67314 -6.367982,-0.97351 -0.893172,0.89317 -5.095277,16.42804 -4.509764,16.67227 19.729235,8.22915 32.847188,10.55358 57.221008,10.13924 12.6052,-0.21425 20.09797,-0.81516 25,-2.00492 z m -10.92368,-21.63844 c 15.97951,-1.49302 33.42367,-7.44744 33.42367,-11.4089 0,-0.80241 -1.08029,-2.71484 -2.40064,-4.24984 l -2.40064,-2.79092 -6.34936,2.34603 c -25.46192,9.40796 -56.68426,11.71187 -70.849353,5.228 -2.475,-1.13289 -5.496667,-2.06969 -6.714816,-2.08177 -2.901741,-0.0288 -4.833217,3.47982 -3.511977,6.37963 2.522779,5.53689 33.207226,8.96929 58.803116,6.57777 z m 5.92368,-14.37775 c 8.08887,-2.1231 16.34739,-4.91979 18.32373,-6.20519 0.17805,-0.11581 -0.48046,-1.71488 -1.46335,-3.55349 -3.47533,-6.50095 -7.78448,-19.03044 -8.28607,-24.09293 -0.0409,-0.4125 -0.98844,-0.75 -2.1057,-0.75 -2.79262,0 -3.5756,-2.6718 -1.46609,-5.00279 1.66176,-1.83622 1.64606,-2.49107 -0.32866,-13.71276 -2.46,-13.9794 -3.27159,-23.27346 -3.55401,-40.69936 -0.19097,-11.78317 -0.38065,-12.98192 -2.16458,-13.679706 -5.76374,-2.254491 -42.84115,-0.0133 -45.467631,2.748396 -0.442639,0.46542 -1.922734,4.22122 -3.289101,8.34622 -5.894126,17.7941 -10.125071,52.26124 -9.555013,77.83934 0.196059,8.79706 0.698852,16.33689 1.117316,16.75517 0.418465,0.41828 3.793465,1.8196 7.5,3.11405 6.292069,2.19739 7.866949,2.32581 23.739159,1.93565 14.2475,-0.35022 18.61911,-0.84286 27,-3.0426 z m 18.74999,-32.63277 c -3.6809,-1.47954 -2.65618,-8.56266 1.89757,-13.11641 1.59171,-1.59171 1.856,-2.35124 0.926,-2.66124 -1.7324,-0.57747 -5.70442,4.16023 -7.14343,8.52048 -1.53006,4.63614 0.25486,8.31665 3.98884,8.22494 2.53909,-0.0624 2.54446,-0.0781 0.33102,-0.96777 z m -81.249993,-3.96884 0,-3 -7.622445,0 c -6.678265,0 -7.467504,0.18669 -6.371595,1.50718 1.252893,1.50965 8.9557,4.29229 12.24404,4.42317 1.293256,0.0515 1.75,-0.71334 1.75,-2.93035 z m 83.999993,-0.81144 c 0,-0.99629 0.91753,-2.79629 2.03896,-4 1.48607,-1.59511 1.65485,-2.18856 0.62244,-2.18856 -1.85506,0 -3.33692,1.85898 -4.18941,5.25559 -0.44077,1.75618 -0.28968,2.74441 0.4196,2.74441 0.60963,0 1.10841,-0.81515 1.10841,-1.81144 z m 8.41064,-0.68856 c 0.39005,-1.55406 1.33652,-2.5 2.50142,-2.5 1.03068,0 2.13298,-0.675 2.44957,-1.5 0.39152,-1.02029 -0.054,-1.5 -1.39301,-1.5 -1.08274,0 -1.96862,0.40598 -1.96862,0.90217 0,0.4962 -1.35,1.37279 -3,1.94799 -2.01892,0.70379 -3,1.71687 -3,3.09782 0,3.05498 3.62384,2.68691 4.41064,-0.44798 z m 10.58936,-3.77446 c 0,-2.01636 -2.52158,0.11819 -2.7794,2.35279 -0.27057,2.34514 -0.23106,2.36032 1.25,0.48054 0.84117,-1.06762 1.5294,-2.34262 1.5294,-2.83333 z m -28.78167,-3.56394 c -1.98228,-0.4879 -2.49832,0.38084 -1.70707,2.87383 l 0.69385,2.18615 1.19404,-2.36079 c 0.96394,-1.90582 0.92909,-2.42601 -0.18082,-2.69919 z m -1.46785,-12.4116 c -0.22891,-0.6875 -1.16483,-1.39519 -2.07983,-1.57265 -1.16013,-0.225 -1.48098,0.15332 -1.06015,1.25 0.70939,1.84865 3.75218,2.16131 3.13998,0.32265 z m -1.1463,-9.47917 c -0.3323,-0.33229 -0.56864,0.25834 -0.52522,1.3125 0.048,1.16495 0.28494,1.4019 0.60416,0.60417 0.28887,-0.72188 0.25335,-1.58438 -0.0789,-1.91667 z m -0.94912,-24.03364 c 0.86524,-3.44579 -0.56517,-10.98872 -2.20304,-11.61723 -1.20597,-0.46278 -1.44662,1.00489 -1.42021,8.66142 0.0291,8.44476 0.1587,9.05073 1.54343,7.21862 0.83139,-1.1 1.76731,-3.01826 2.07982,-4.26281 z M 109.94174,96.586237 c 11.27612,-2.123485 30.8195,-2.126993 36.16311,-0.0065 2.88066,1.14313 5.89658,-0.541928 13.41322,-7.494256 3.67853,-3.402364 4.58046,-7.675489 1.84187,-8.726382 -3.18235,-1.221183 -11.9719,-0.607896 -14.26036,0.99501 -3.01632,2.11272 -3.65784,1.246267 -3.65784,-4.940363 l 0,-5.161628 -5.62685,-0.296229 c -5.13063,-0.270106 -5.89624,-0.02684 -8.68156,2.758484 -1.68009,1.680092 -3.19801,4.063395 -3.37315,5.296229 -0.44921,3.162002 -2.85658,2.782692 -4.81387,-0.758484 -2.9633,-5.361253 -8.42943,-6.815821 -14.60344,-3.886059 -3.89633,1.848928 -3.76116,1.452354 -2.23323,6.552136 0.91788,3.063625 0.89747,4.158838 -0.0953,5.116019 -0.99973,0.963843 -1.58172,0.748542 -2.78988,-1.032096 -2.214952,-3.264506 -7.489037,-3.074399 -10.196464,0.367537 -1.132425,1.439646 -1.771302,3.127146 -1.419725,3.75 4.071199,7.212558 6.881096,10.633139 8.273918,10.072109 0.857777,-0.34551 6.284601,-1.517997 12.059601,-2.605527 z m -9.9682,-19.584119 c 0.08084,-4.448476 5.09722,-7.25 12.98178,-7.25 3.82327,0 5.46913,0.542856 7.58163,2.500663 4.0427,3.74664 5.40479,1.943408 5.40479,-7.155226 0,-7.282507 -1.63891,-13.386204 -3.98342,-14.835186 -2.75922,-1.705295 -13.99128,-0.668447 -19.35376,1.786575 -8.854245,4.053608 -11.043472,8.996473 -9.280293,20.953174 0.807399,5.475234 0.985767,5.75 3.732693,5.75 2.068624,0 2.893775,-0.495105 2.91658,-1.75 z m 60.59751,-7.824881 c -0.10787,-5.90124 -0.5818,-7.758315 -2.85693,-11.194724 -3.45116,-5.212723 -10.07179,-9.123215 -16.79387,-9.919346 l -5.22639,-0.618988 1.60558,2.45043 c 0.88308,1.347737 2.14453,5.917023 2.80323,10.15397 0.70181,4.514216 1.68026,7.703539 2.36337,7.703539 1.67415,0 4.21656,3.085798 4.94345,6 0.58313,2.337886 1.03428,2.5 6.95723,2.5 l 6.33364,0 -0.12931,-7.074881 z m -29.62931,-1.425119 c 0,-0.55 -0.45,-1 -1,-1 -0.55,0 -1,0.45 -1,1 0,0.55 0.45,1 1,1 0.55,0 1,-0.45 1,-1 z m 4,-3.5 c 0,-0.825 -0.45,-1.5 -1,-1.5 -0.55,0 -1,0.675 -1,1.5 0,0.825 0.45,1.5 1,1.5 0.55,0 1,-0.675 1,-1.5 z m -0.33139,-4.5 c 1.62258,0 2.10191,-0.434429 1.68322,-1.525523 -0.43708,-1.139 -0.91967,-1.248103 -1.90469,-0.430606 -0.95625,0.793611 -1.88726,0.790953 -3.38322,-0.0097 -2.14562,-1.148299 -2.54796,-0.459171 -1.43114,2.45122 0.44842,1.168577 0.94371,1.338077 1.7,0.581787 0.58697,-0.58693 2.08809,-1.067178 3.33583,-1.067178 z m -2.91861,-9.285776 c 3.70882,-0.141105 -1.44899,-3.642592 -5.42433,-3.682421 l -3.17434,-0.0318 2.17434,2.487498 c 1.3046,1.492503 2.77432,2.244856 3.67433,1.880891 0.825,-0.333634 2.0625,-0.628009 2.75,-0.654165 z m -4.75,-10.174407 c 0,-1.232754 -0.49679,-3.666464 -1.10398,-5.408244 -1.82353,-5.230987 -0.51533,-8.008906 4.12074,-8.750243 2.99912,-0.47958 3.98324,-1.099498 3.98324,-2.509138 0,-1.618844 -0.80144,-1.872192 -5.92245,-1.872192 -5.88183,0 -5.93037,-0.02401 -7.07755,-3.5 -0.63531,-1.925 -1.49798,-3.5 -1.91704,-3.5 -0.41906,0 -1.27452,-1.125 -1.90101,-2.5 -1.05737,-2.3206791 -4.86766,-3.4809561 -6.39981,-1.948813 -0.67457,0.674578 2.81126,8.079489 4.21048,8.944253 1.42498,0.880687 1.25276,3.162683 -0.24262,3.214749 -2.01165,0.07004 -10.75145,4.144342 -10.73469,5.004274 0.008,0.432045 0.41834,1.422244 0.91093,2.200442 0.76392,1.206836 1.72576,1.153796 6.54068,-0.360682 3.10477,-0.976572 5.7637,-1.61328 5.90873,-1.414905 0.89637,1.226121 2.62435,9.144477 2.62435,12.025901 0,3.334797 0.1003,3.42147 3.5,3.024574 2.83743,-0.331254 3.5,-0.832905 3.5,-2.649976 z"
     id="path3055" />
</svg>
