<?xml version="1.0" encoding="UTF-8" standalone="no"?>
<!-- Created with Inkscape (http://www.inkscape.org/) -->

<svg
   xmlns:dc="http://purl.org/dc/elements/1.1/"
   xmlns:cc="http://creativecommons.org/ns#"
   xmlns:rdf="http://www.w3.org/1999/02/22-rdf-syntax-ns#"
   xmlns:svg="http://www.w3.org/2000/svg"
   xmlns="http://www.w3.org/2000/svg"
   xmlns:sodipodi="http://sodipodi.sourceforge.net/DTD/sodipodi-0.dtd"
   xmlns:inkscape="http://www.inkscape.org/namespaces/inkscape"
   id="svg2818"
   version="1.1"
   inkscape:version="0.47 r22583"
   width="270"
   height="270"
   sodipodi:docname="front.png">
  <metadata
     id="metadata2824">
    <rdf:RDF>
      <cc:Work
         rdf:about="">
        <dc:format>image/svg+xml</dc:format>
        <dc:type
           rdf:resource="http://purl.org/dc/dcmitype/StillImage" />
        <dc:title></dc:title>
      </cc:Work>
    </rdf:RDF>
  </metadata>
  <defs
     id="defs2822">
    <inkscape:perspective
       sodipodi:type="inkscape:persp3d"
       inkscape:vp_x="0 : 0.5 : 1"
       inkscape:vp_y="0 : 1000 : 0"
       inkscape:vp_z="1 : 0.5 : 1"
       inkscape:persp3d-origin="0.5 : 0.33333333 : 1"
       id="perspective2826" />
  </defs>
  <sodipodi:namedview
     pagecolor="#ffffff"
     bordercolor="#666666"
     borderopacity="1"
     objecttolerance="10"
     gridtolerance="10"
     guidetolerance="10"
     inkscape:pageopacity="0"
     inkscape:pageshadow="2"
     inkscape:window-width="1280"
     inkscape:window-height="949"
     id="namedview2820"
     showgrid="false"
     inkscape:zoom="1.7416974"
     inkscape:cx="79.026265"
     inkscape:cy="124.25074"
     inkscape:window-x="0"
     inkscape:window-y="25"
     inkscape:window-maximized="1"
     inkscape:current-layer="svg2818" />
  <path
     style="fill:#dddddd;fill-opacity:1;stroke:#b3b3b3;stroke-width:0.14353813;stroke-miterlimit:4;stroke-opacity:1;stroke-dasharray:none"
     d="m 122.73464,11.585805 c -0.21662,0.0033 -0.43034,0.0322 -0.65625,0.0625 -0.90533,0.12143 -1.8026,0.365097 -2,0.5625 -0.2079,0.207894 0.54087,2.184805 1.8125,4.6875 2.15436,4.239992 3.84553,9.74256 3.375,10.96875 -0.51467,1.341203 -9.28394,3.52365 -14.1875,3.53125 -0.88419,0.0014 -1.63321,0.226891 -1.75,0.53125 -0.11153,0.290645 0.31655,2.006436 0.9375,3.78125 l 1.125,3.21875 7.1875,0 c 4.87982,0 7.33608,0.150795 7.65625,0.46875 0.71669,0.711734 0.96894,8.371178 0.40625,12.3125 -0.27083,1.896999 -0.6059,4.276432 -0.71875,5.28125 l -0.1875,1.8125 0.84375,-1.3125 c 0.54687,-0.857676 1.63305,-1.66651 3.09375,-2.3125 1.90563,-0.842761 2.36386,-1.272505 3.03125,-2.78125 0.75338,-1.703148 1.68757,-7.056475 2.25,-13 0.23379,-2.470614 0.36292,-2.8071 1.28125,-3.15625 4.24113,-1.612475 7.3638,-3.113804 8.1875,-3.9375 0.84769,-0.847689 0.92677,-1.212359 0.71875,-2.96875 -0.25817,-2.17984 -2.07483,-5.921576 -3.21875,-6.625 -0.5212,-0.320497 -0.88506,-0.284634 -1.40625,0.09375 -1.62065,1.176579 -5.19679,2.65001 -6.53125,2.6875 -1.35176,0.03797 -1.49686,-0.0825 -2.25,-2 -3.48735,-8.878765 -5.75073,-11.955778 -9,-11.90625 z m 33.96875,45.4375 c -1.47614,-0.01925 -3.18657,0.0029 -4.8125,0.03125 -3.25186,0.05669 -6.19493,0.194077 -6.375,0.375 -0.13473,0.135368 0.47683,1.781981 1.375,3.65625 3.17108,6.617271 5.71875,16.932892 5.71875,23.28125 0,2.059401 0.10114,3.882389 0.25,4.03125 0.35416,0.354165 0.57123,0.3242 2.875,-0.15625 1.07163,-0.223488 4.41649,-0.55956 7.4375,-0.75 3.37682,-0.212869 5.82805,-0.564675 6.375,-0.90625 1.58981,-0.992852 1.91785,-2.593674 1.90625,-9.09375 -0.009,-5.101075 -0.16195,-6.602169 -0.9375,-9.3125 -1.3513,-4.722383 -2.62519,-6.829629 -5.46875,-8.9375 -2.05306,-1.521885 -2.83098,-1.84229 -4.90625,-2.0625 -0.7195,-0.07635 -1.96136,-0.137 -3.4375,-0.15625 z m -18.78125,0.28125 c -0.13176,8.64e-4 -0.25626,0.03181 -0.34375,0.0625 -0.24542,0.08609 -0.2344,0.108265 0.125,0.34375 0.21788,0.142764 1.01526,0.485924 1.78125,0.75 0.76599,0.264077 1.55861,0.468047 1.75,0.46875 l 0.34375,0 -0.3125,-0.34375 c -0.57569,-0.612796 -2.42146,-1.287298 -3.34375,-1.28125 z m -4.3125,0.9375 c -1.45029,0.104904 -1.62921,0.822148 -0.40625,1.53125 0.62999,0.365283 0.48985,0.333021 1.0625,0.09375 0.44606,-0.186376 1.09375,-0.82854 1.09375,-1.09375 0,-0.307732 -0.92825,-0.59069 -1.75,-0.53125 z m 4,3.15625 c -0.33793,0.03816 -0.53125,0.275531 -0.53125,0.625 0,0.347111 0.55313,0.899712 1.21875,1.25 0.23684,0.124638 0.64967,0.2468 0.90625,0.25 0.40453,0.005 0.46875,-0.06104 0.46875,-0.375 0,-0.525877 -1.03844,-1.602849 -1.65625,-1.71875 -0.14248,-0.02673 -0.29361,-0.04397 -0.40625,-0.03125 z m 5.96875,0.59375 c -0.0277,0.0092 -0.0744,0.04776 -0.0937,0.125 -0.0505,0.201154 -0.31032,0.916663 -0.59375,1.59375 -0.65025,1.553369 -1.54208,2.54498 -2.90625,3.15625 -0.51924,0.232664 -1.09612,0.546374 -1.28125,0.71875 -0.69405,0.646231 -1.01184,1.721387 -0.625,2.1875 0.24803,0.298863 1.06941,0.279756 1.34375,-0.03125 0.12187,-0.138155 0.25782,-0.461519 0.3125,-0.71875 0.0547,-0.257231 0.22871,-0.54671 0.375,-0.625 0.34348,-0.183805 1.74314,-0.185022 2.71875,0 0.42002,0.07966 1.10517,0.14645 1.53125,0.15625 1.66616,0.03841 1.64486,-0.610482 -0.21875,-5.375 -0.35337,-0.903425 -0.47934,-1.215096 -0.5625,-1.1875 z m -15.53125,0.1875 c -0.83057,0.02844 -1.83867,0.108157 -2.84375,0.1875 -6.4874,0.512126 -14.20709,3.271466 -18.65625,6.6875 -3.68585,2.829972 -5.35556,7.708871 -5.03125,14.8125 0.15079,3.302994 0.38243,4.554053 1.125,6 1.28868,2.50935 1.83214,2.81374 5.09375,2.875 1.56305,0.02936 3.28552,0.192234 3.84375,0.375 1.88429,0.61692 2.52661,0.270889 4.03125,-2.21875 0.81214,-1.34381 2.19093,-2.913602 3.09375,-3.53125 3.85539,-2.637601 10.27063,-3.061648 14.4375,-0.96875 1.13778,0.571473 2.12545,1.03125 2.21875,1.03125 0.44237,0 0.10461,-10.744731 -0.4375,-13.84375 -1.1173,-6.387191 -3.25952,-11.105938 -5.15625,-11.375 -0.2551,-0.03619 -0.88818,-0.05969 -1.71875,-0.03125 z m 14.40625,9.5 c -0.0987,0.009 -0.17518,0.05018 -0.25,0.125 -0.32819,0.328194 -0.29893,1.353017 0.0625,1.8125 0.34007,0.432324 0.77498,0.501298 1.15625,0.15625 0.34112,-0.308713 0.35432,-0.832948 0,-1.40625 -0.28432,-0.460043 -0.67276,-0.714646 -0.96875,-0.6875 z m 4.5,4.21875 c -0.17775,0.0089 -0.39905,0.09028 -0.84375,0.25 -2.17157,0.779971 -2.83089,0.835726 -5.75,0.5 -0.77629,-0.08928 -0.80853,-0.07462 -1.0625,0.3125 -0.23042,0.351231 -0.27065,0.782517 -0.3125,3.21875 -0.0461,2.68088 0.11081,5.066677 0.40625,5.84375 0.0724,0.190552 0.29219,0.47768 0.46875,0.625 0.60044,0.500999 0.64331,0.357486 0.3125,-0.875 -0.26473,-0.986291 -0.25641,-2.972858 0,-4.0625 0.40879,-1.737208 1.48515,-2.60797 3.21875,-2.59375 1.2345,0.01013 2.19748,0.410613 3.75,1.65625 0.66805,0.535998 1.26104,0.96577 1.34375,0.9375 0.0955,-0.03264 0.16285,-0.746613 0.15625,-1.96875 -0.009,-1.667608 -0.064,-2.018031 -0.34375,-2.65625 -0.22439,-0.511809 -0.4802,-0.821042 -0.8125,-1 -0.23346,-0.125727 -0.3535,-0.196411 -0.53125,-0.1875 z m -49.53125,4.46875 c -0.06687,-0.06029 -0.160277,0.249362 -0.375,1.15625 -0.301094,1.27169 -0.32116,1.621473 -0.25,3.71875 0.111645,3.290523 0.856879,6.620465 1.78125,8.03125 0.225127,0.343589 0.441054,0.52891 0.59375,0.5 0.431497,-0.0817 0.368182,-0.845114 -0.1875,-2.1875 -0.839347,-2.027648 -1.3247,-5.292239 -1.375,-9.25 -0.0095,-0.749987 -0.07005,-1.575662 -0.125,-1.8125 -0.02144,-0.0924 -0.04021,-0.136154 -0.0625,-0.15625 z m 46.09375,2 c -0.0468,-0.01039 -0.086,0.0071 -0.125,0.03125 -0.35875,0.221717 -0.022,2.0307 0.53125,2.875 0.5256,0.802165 0.89266,0.194351 0.625,-1 -0.2138,-0.954001 -0.70392,-1.833509 -1.03125,-1.90625 z m -17.6875,6.75 c -1.31579,0.0255 -2.57574,0.2035 -3.5625,0.53125 -3.0242,1.004477 -3.77671,2.024485 -4.1875,5.6875 -0.19026,1.696577 -0.4586,3.250072 -0.59375,3.46875 -0.44045,0.712661 -2.11458,0.421257 -5.15625,-0.90625 -4.08519,-1.782939 -7.77249,-1.858854 -10.5625,-0.21875 -4.053071,2.382595 -4.401668,4.219155 -1.625,8.312505 0.87845,1.295 2.17135,3.51067 2.875,4.90625 0.70365,1.39558 1.53605,2.53125 1.84375,2.53125 0.3077,0 2.83005,-0.55827 5.59375,-1.21875 6.32407,-1.51135 11.06381,-1.95412 24.1875,-2.28125 9.56526,-0.23843 15.88015,0.0217 20.8125,0.875 1.28018,0.22146 1.60518,0.0928 2.65625,-1.09375 2.65258,-2.99456 4.65358,-4.62148 8.9375,-7.28125 5.99589,-3.722689 6.42152,-4.78021 3.375,-8.250005 -2.00625,-2.284996 -4.36423,-3.49398 -6.96875,-3.5625 -2.55699,-0.06728 -3.96878,0.428575 -7.4375,2.59375 -1.36214,0.850245 -3.06147,1.643545 -3.75,1.78125 -1.19582,0.239163 -1.24653,0.185126 -1.5,-1.3125 -0.46216,-2.730656 -0.65222,-3.040882 -2.125,-3.65625 -1.01633,-0.42465 -2.03779,-0.542164 -3.5,-0.34375 -3.45607,0.468969 -5.02706,1.301109 -6.1875,3.28125 -1.73246,2.956223 -3.67179,2.859286 -5.1875,-0.28125 -0.50568,-1.047761 -1.40954,-2.097633 -2.21875,-2.5625 -1.21353,-0.697136 -3.52577,-1.042497 -5.71875,-1 z m 7.15625,24.375005 c -3.33616,0.003 -6.43219,0.1092 -8.84375,0.3125 -9.91986,0.83626 -17.4375,2.68787 -17.4375,4.3125 0,0.92819 1.8596,1.11493 8.125,0.84375 l 5.9375,-0.25 4.90625,4.75 c 3.28332,3.19613 5.18028,5.40432 5.78125,6.6875 1.99565,4.26113 1.84443,11.56652 -0.34375,15.9375 -2.6763,5.34601 -10.10443,11.1693 -14.25,11.1875 -2.1534,0.009 -4.3843,0.76652 -4.84375,1.625 -0.22592,0.42214 -0.4375,1.36211 -0.4375,2.125 0,2.22134 -0.75719,3.85865 -2.25,4.78125 -3.2358,1.99984 -1.75722,2.23915 15.25,2.21875 13.39889,-0.0161 14.68205,-0.10438 18.25,-0.9375 5.09922,-1.19069 7.25482,-1.12699 11.40625,0.28125 1.88789,0.6404 3.4998,1.1143 3.5625,1.0625 0.0627,-0.0518 -0.0812,-1.99341 -0.3125,-4.3125 -0.23132,-2.31909 -0.54237,-8.34224 -0.6875,-13.40625 l -0.28125,-9.21875 -1.96875,1.65625 c -1.66209,1.4015 -2.31679,1.68862 -4.1875,1.84375 -2.05786,0.17066 -2.31321,0.1054 -3.375,-1.03125 -1.0248,-1.09706 -1.50106,-2.1518 -2.34375,-5.28125 -0.18787,-0.69764 -0.40764,-0.88342 -0.90625,-0.65625 -0.37059,0.16884 -1.59813,0.38045 -2.71875,0.46875 -1.75262,0.13805 -2.18051,0.0293 -3.15625,-0.875 -1.38699,-1.28542 -1.39572,-3.26614 0,-4.1875 0.82689,-0.54586 0.97926,-0.50271 1.9375,0.53125 l 1.03125,1.125 1.25,-1.1875 c 0.6826,-0.65152 2.09181,-2.57531 3.125,-4.25 3.25519,-5.27632 5.85621,-7.92015 7.28125,-7.40625 0.90969,0.32806 0.55028,1.44771 -1.71875,5.25 -1.22811,2.05799 -2.21875,3.7877 -2.21875,3.875 0,0.0873 1.07899,0.096 2.40625,0 1.95499,-0.14142 2.68081,-0.0119 3.8125,0.6875 l 1.375,0.875 0.25,-1.75 c 0.51945,-3.81055 0.77422,-15.60896 0.34375,-15.875 -1.64988,-1.01968 -13.74153,-1.82267 -23.75,-1.8125 z m -19.34375,9.0625 c -5.41835,0.17007 -10.5486,3.76261 -13.59375,10.09375 -2.496213,5.18984 -3.55437,12.54705 -2.3125,16.1875 0.703926,2.06351 3.36565,4.24295 6.34375,5.1875 1.34767,0.42743 2.4831,0.76875 2.53125,0.78125 0.0482,0.0125 2.09116,-0.24906 4.5625,-0.59375 11.02998,-1.53842 15.58684,-4.9596 17.71875,-13.28125 1.64148,-6.40732 -1.31938,-12.59019 -7.875,-16.4375 -2.40175,-1.40952 -4.91212,-2.0148 -7.375,-1.9375 z m -1.46875,7.4375 c 1.44408,-0.0365 2.83378,0.24003 3.46875,0.875 1.09779,1.09779 1.03296,1.61238 -0.59375,5 -0.77076,1.6051 -1.66433,4.29839 -2,5.96875 -0.65445,3.25663 -1.2759,4.0625 -3.125,4.0625 -0.60894,0 -1.35887,0.0504 -1.65625,0.125 -0.59591,0.1495 -2.8552,-0.0274 -4.28125,-0.34375 -0.75532,-0.16755 -0.90625,-0.48023 -0.90625,-1.78125 0,-3.5392 3.08794,-10.91932 5.375,-12.84375 0.79764,-0.67117 2.27467,-1.02602 3.71875,-1.0625 z m -1.09375,3.25 c -0.41764,0.10155 -1.20072,1.24611 -2.125,3.125 -1.46473,2.9775 -2.17902,5.3502 -1.9375,6.3125 0.1411,0.5622 0.61495,0.478 1.3125,-0.25 0.81162,-0.84706 1.25111,-1.843 1.84375,-4.0625 0.27404,-1.0263 0.67058,-2.34541 0.875,-2.9375 0.42865,-1.24154 0.4797,-1.96557 0.1875,-2.15625 -0.0442,-0.0288 -0.0966,-0.0457 -0.15625,-0.0313 z m 40.46875,1.78125 c -0.93176,0.0465 -2.02306,0.73814 -2.75,1.96875 -0.73485,1.244 -0.65864,1.6297 0.6875,3.125 2.14057,2.37777 4.90272,-0.43023 3.78125,-3.84375 -0.23812,-0.72479 -0.74029,-1.12547 -1.34375,-1.21875 -0.12572,-0.0194 -0.24189,-0.0379 -0.375,-0.0313 z m -43.84375,25.21875 c -0.52548,-0.0332 -1.40625,0.61155 -1.40625,1.125 0,0.19595 0.47302,0.375 1.03125,0.375 1.03061,0 1.41485,-0.93004 0.59375,-1.4375 -0.057,-0.0352 -0.14368,-0.0578 -0.21875,-0.0625 z m 58.25,7.125 c -0.1249,0.006 -0.25817,0.0181 -0.375,0.0625 -0.86165,0.32759 -0.28846,1.33716 2,3.5 2.26403,2.13977 4.27455,4.73534 5.875,7.5625 1.43019,2.52641 1.77614,4.1626 1,5.03125 -0.37105,0.41528 -0.53065,0.48021 -1.96875,0.65625 -1.57027,0.19221 -2.08848,0.40214 -2.375,0.9375 -0.53023,0.99075 1.85282,3.23491 3.875,3.65625 1.6208,0.3377 2.95717,-0.15309 4.6875,-1.71875 2.08782,-1.88914 2.08358,-4.24895 -0.0313,-7.8125 -1.11798,-1.8839 -4.58511,-6.43658 -5.9375,-7.78125 -1.35097,-1.34325 -3.31758,-2.70792 -4.9375,-3.46875 -0.97344,-0.45718 -1.43779,-0.64281 -1.8125,-0.625 z m -62.71875,0.78125 c -0.36234,8.6e-4 -0.456,0.0428 -0.75,0.1875 -0.2619,0.12893 -0.3693,0.2053 -0.46875,0.375 -0.27521,0.46961 -0.12952,1.01885 0.4375,1.625 0.3158,0.3376 0.53332,0.51295 0.875,0.65625 0.28636,0.12014 0.57664,0.10374 0.84375,-0.0313 0.38259,-0.19328 0.625,-0.66288 0.625,-1.28125 0,-0.62801 -0.34588,-1.15305 -0.90625,-1.40625 -0.19757,-0.0893 -0.33465,-0.12576 -0.65625,-0.125 z m 45.125,1.34375 c -1.25903,-0.0641 -2.95046,0.32841 -6.0625,1.25 -3.77965,1.11929 -5.2347,1.82375 -5.6875,2.75 -0.23341,0.47746 -0.22233,0.57393 -0.0313,1.03125 0.24968,0.59756 0.97464,1.04592 2.28125,1.34375 1.05816,0.24119 2.77791,0.15252 3.375,-0.15625 0.2572,-0.133 0.47164,-0.38618 0.53125,-0.625 0.13964,-0.55949 0.46296,-0.868 1,-0.96875 0.90424,-0.16964 2.01821,0.35118 2.46875,1.15625 0.2366,0.42278 0.33048,0.21516 0.46875,-1.125 0.14105,-1.36709 0.27721,-1.76611 0.71875,-1.90625 0.56526,-0.17941 1.23118,0.082 2.9375,1.15625 0.93979,0.5917 1.82466,1.09375 1.96875,1.09375 0.33797,0 0.84375,-0.8203 0.84375,-1.375 0,-0.90632 -1.18166,-2.19069 -2.78125,-3.03125 -0.65965,-0.34663 -1.27583,-0.55531 -2.03125,-0.59375 z m 30.3125,1.71875 c -0.0681,0.0137 -0.0937,0.059 -0.0937,0.15625 0,0.60641 1.15338,2.41287 2.21875,3.46875 0.66305,0.65715 0.708,0.70201 0.75,0.40625 0.0719,-0.50625 -0.90552,-2.3966 -1.65625,-3.1875 -0.53993,-0.56881 -1.0144,-0.88486 -1.21875,-0.84375 z m -58.40625,0.0313 c -0.38594,-0.007 -0.84382,0.007 -1.375,0.0313 -0.66006,0.0298 -1.54716,0.0844 -1.96875,0.125 -3.59471,0.34619 -6.90374,1.28597 -8.65625,2.46875 -0.4169,0.28137 -0.91087,0.79724 -1.03125,1.0625 -0.23104,0.50912 -0.071,1.11104 0.40625,1.375 0.0558,0.0308 0.20085,0.031 0.3125,0.0313 0.70836,0.001 1.32621,-0.30704 3.625,-1.9375 0.70891,-0.50281 1.40932,-0.8654 1.8125,-0.9375 0.62742,-0.11216 1.25366,0.12901 2.71875,1.0625 1.31447,0.83752 2.22556,1.2006 3.09375,1.25 0.83521,0.0475 1.42583,-0.16574 1.96875,-0.75 0.68558,-0.73778 1.28667,-2.69803 1,-3.25 -0.18194,-0.35034 -0.74843,-0.51056 -1.90625,-0.53125 z m 64.125,0.0937 c -0.43268,0 -0.46297,0.0858 -0.0313,1.4375 0.49703,1.55602 0.70992,3.93384 0.59375,7.3125 l -0.125,2.84375 1.9375,-0.6875 c 2.30034,-0.8109 2.96913,-1.14332 3.40625,-1.78125 0.45118,-0.65845 0.6565,-2.15275 0.5625,-4.09375 -0.0871,-1.7997 -0.36129,-2.61273 -1.0625,-3.125 -0.77466,-0.56593 -4.49795,-1.90625 -5.28125,-1.90625 z m -58.0625,0.84375 c -1.37303,-0.004 -1.9751,0.24399 -2.3125,0.96875 -0.10604,0.22777 -0.10703,0.37624 -0.125,0.8125 -0.0277,0.67328 0.0336,1.05998 0.25,1.34375 0.35805,0.46944 0.97145,0.6533 2.5,0.75 1.02708,0.065 4.09768,-0.002 4.84375,-0.0937 1.14818,-0.1411 1.80261,-0.34736 2.09375,-0.6875 0.34701,-0.40541 0.2918,-0.74248 -0.21875,-1.25 -0.47309,-0.47028 -1.13794,-0.82582 -2.0625,-1.09375 -0.72063,-0.20883 -2.19043,-0.47192 -4.0625,-0.71875 -0.11249,-0.0148 -0.51633,-0.0302 -0.90625,-0.0313 z m 34.65625,1.09375 c -3.5357,0.003 -4.188,0.2676 -4.8125,1.9375 -0.1974,0.52785 -0.49238,0.99638 -0.78125,1.25 -0.47854,0.42016 -1.52865,0.75 -2.4375,0.75 -0.75406,0 -1.90436,0.40327 -2.40625,0.84375 -0.72007,0.63197 -1.47444,0.87879 -3.1875,1.03125 -3.03672,0.27027 -3.70263,0.39695 -4.75,0.90625 -1.28417,0.62445 -1.34788,0.65937 -2.71875,0.90625 -0.76048,0.13696 -2.72306,0.22675 -5.8125,0.28125 -7.21371,0.1273 -12.42512,-0.40321 -16.375,-1.65625 -3.32224,-1.05394 -3.87493,-1.10449 -5.25,-0.375 -0.67154,0.35625 -1.24732,0.54245 -1.8125,0.59375 -1.67565,0.15194 -3.75431,-0.53172 -5.5625,-1.875 -1.6191,-1.20284 -1.90748,-1.29325 -4.375,-1.28125 -1.191502,0.006 -3.863763,0.16459 -5.96875,0.375 -7.082986,0.708 -9.684379,0.7543 -13.875,0.28125 -0.975904,-0.11016 -0.980777,0.12613 -0.0625,1.09375 0.505308,0.53246 1.070504,0.89883 2.1875,1.4375 4.137662,1.99541 12.671088,4.57969 17.71875,5.375 0.78946,0.12438 1.58388,0.2767 1.78125,0.3125 0.37117,0.0674 1.10897,0.0195 5.25,-0.21875 1.34208,-0.0772 6.00172,-0.27674 10.34375,-0.4375 21.67432,-0.80246 25.76281,-0.99171 28.125,-1.34375 1.53798,-0.22921 3.04778,-0.35872 10.125,-0.8125 5.40608,-0.34663 8.77855,-0.64179 10.53125,-0.9375 1.37989,-0.23281 3.37314,-0.68564 3.5,-0.8125 0.14846,-0.14846 -3.61601,-5.63292 -4.375,-6.375 -1.12776,-1.10265 -1.75615,-1.253 -5,-1.25 z m -3.25,12.28125 c -0.3923,0.0129 -0.96678,0.0842 -1.75,0.25 -5.6713,1.20054 -20.99553,2.3514 -37.625,2.8125 -12.74335,0.35334 -16.20602,0.69717 -17.03125,1.6875 -0.33174,0.39811 -1.01407,2.44384 -1.40625,4.1875 -0.774929,3.44537 -1.372182,8.43989 -1.71875,14.15625 -0.156537,2.58202 -0.208446,13.34375 -0.0625,13.34375 0.04958,0 3.52499,0.47401 7.71875,1.0625 7.28742,1.0226 10.17466,1.3529 13.34375,1.4375 3.98036,0.10622 18.34392,0.0592 22.1875,-0.0625 8.39135,-0.26574 14.9879,-0.655 18.65625,-1.09375 3.23534,-0.38697 8.60852,-1.73425 9.0625,-2.28125 0.23489,-0.28308 0.21129,-1.13025 -0.0625,-1.90625 -0.11685,-0.33119 -0.66613,-1.53369 -1.21875,-2.65625 -1.16717,-2.37095 -1.73653,-3.80957 -3.46875,-8.9375 -2.83231,-8.38459 -5.22071,-17.0487 -5.59375,-20.34375 -0.0792,-0.69932 -0.22131,-1.35887 -0.3125,-1.46875 -0.11323,-0.13641 -0.32645,-0.20036 -0.71875,-0.1875 z m 19.03125,38.09375 c -1.91182,0.0151 -3.41901,0.27493 -7.59375,1.28125 -4.02136,0.96933 -7.68224,1.58318 -13.78125,2.34375 -16.42161,2.04784 -29.56175,1.72726 -54.84375,-1.34375 -4.822814,-0.58583 -6.431492,-0.6279 -8.03125,-0.21875 -2.462885,0.6299 -3.58405,1.85239 -3.5625,3.84375 0.02947,2.7233 1.721272,5.03891 4.71875,6.5 1.366115,0.66589 1.933612,0.80984 4.09375,1 4.58849,0.40394 19.77437,0.84215 31.0625,0.90625 2.76311,0.0157 6.57405,0.0461 8.46875,0.0625 4.88943,0.0423 20.44537,-0.19934 23.6875,-0.375 3.47815,-0.18845 4.76216,-0.38905 6.1875,-0.90625 0.63157,-0.22916 2.35312,-0.7542 3.84375,-1.1875 1.49063,-0.43329 3.21106,-0.97921 3.8125,-1.21875 3.81884,-1.52097 5.90625,-4.04602 5.90625,-7.15625 0,-1.67544 -0.50083,-2.6759 -1.59375,-3.21875 -0.56667,-0.2815 -0.86389,-0.3245 -2.375,-0.3125 z m 4.53125,11.75 c -0.10599,0.0139 -0.22939,0.0258 -0.375,0.0625 -0.35636,0.0897 -1.86002,0.7886 -3.34375,1.53125 -2.88793,1.44549 -4.66698,2.12267 -7.09375,2.71875 -5.99326,1.4721 -16.10326,1.96149 -45.875,2.1875 -25.592776,0.1943 -30.158153,-0.33403 -34.59375,-4 -0.581944,-0.48098 -1.260761,-0.9871 -1.53125,-1.125 -0.616151,-0.31413 -1.024661,-0.22703 -2.40625,0.59375 -2.758521,1.63881 -5.356436,5.56342 -6.84375,10.3125 -0.402081,1.28387 -1.28125,5.30521 -1.28125,5.875 0,0.20364 0.898305,0.65847 4.0625,2.0625 5.714797,2.53578 8.667406,3.56173 13.15625,4.59375 4.97532,1.14387 10.3091,1.81379 17.3125,2.125 1.8947,0.0842 3.80757,0.1594 4.28125,0.1875 2.47006,0.14679 28.3323,-0.0498 32.375,-0.25 8.96179,-0.44373 10.23488,-0.62282 15.9375,-2.28125 6.35605,-1.84846 16.19835,-4.51205 22.03125,-5.9375 1.49997,-0.36656 2.96852,-0.79977 3.28125,-0.96875 1.29131,-0.69773 1.51736,-1.84632 0.875,-4.46875 -1.08114,-4.41369 -2.40495,-7.25204 -4.46875,-9.53125 -0.97855,-1.08069 -3.37554,-2.93369 -4.46875,-3.4375 -0.51422,-0.23698 -0.71328,-0.2917 -1.03125,-0.25 z"
     id="path2869" />
  <path
     style="fill:#000000"
     d="m 106.6954,265.6264 c -12.111559,-1.55087 -18.706129,-3.31981 -27.052249,-7.25654 l -5.83334,-2.75149 0.58646,-3.94008 c 0.791,-5.31426 3.95037,-11.2578 8.15444,-15.34051 2.4395,-2.36908 3.31467,-3.97395 2.94272,-5.3963 -0.85164,-3.25667 1.36555,-6.69145 5.49565,-8.51364 l 3.84036,-1.69437 0.0596,-9.55755 c 0.0328,-5.25665 0.42681,-11.79631 0.87561,-14.53257 1.08045,-6.58729 -0.49647,-8.96137 -7.26986,-10.94491 -6.17126,-1.80721 -16.91609,-8.32465 -16.38236,-9.93698 0.24446,-0.73847 4.77447,-1.32008 12.7977,-1.64309 l 12.4193,-0.5 1.41531,-8.31905 1.415319,-8.31905 -2.653719,-2.46067 c -1.45955,-1.35337 -2.92153,-3.6848 -3.24884,-5.18095 -0.32732,-1.49615 -0.77442,-3.29845 -0.99357,-4.0051 -0.55507,-1.78983 1.52081,-11.15123 3.20378,-14.44775 0.76728,-1.50292 2.73698,-4.10535 4.377109,-5.78317 l 2.98205,-3.0506 -2.4829,-5.89911 c -1.365589,-3.2445 -3.622099,-7.57781 -5.014459,-9.62956 -2.42698,-3.57636 -2.58843,-6.48811 -0.48555,-8.757127 0.43436,-0.468674 -0.13466,-3.076488 -1.26448,-5.795142 -1.89252,-4.553902 -1.95523,-5.496936 -0.79666,-11.979893 1.04796,-5.864055 1.94833,-7.846104 5.40208,-11.89211 5.034899,-5.898275 12.472179,-9.980719 18.182579,-9.980719 3.94592,0 4.2011,-0.186013 5.30366,-3.86602 0.63706,-2.12631 1.15829,-5.756503 1.15829,-8.067094 l 0,-4.201075 -6.84485,0.222002 c -3.76466,0.122101 -7.33515,-0.08102 -7.93441,-0.451389 -1.02179,-0.6315 -4.22074,-10.135971 -4.22074,-12.540331 0,-0.64017 1.97577,-1.098413 4.75,-1.10167 2.6125,-0.0031 6.41251,-0.467319 8.44446,-1.031671 l 3.69447,-1.026093 -1.46408,-4.149659 c -0.80525,-2.282312 -2.63219,-5.681126 -4.05988,-7.55292 -1.42769,-1.871793 -2.20636,-3.754011 -1.73038,-4.182709 0.47597,-0.4286977 3.06714,-1.3132847 5.75815,-1.9657497 4.72422,-1.1454436 4.99228,-1.0909267 7.78317,1.582917 1.58975,1.5230697 3.88801,4.9451487 5.10727,7.6046217 l 2.21682,4.835404 3.44428,-2.554282 c 1.89435,-1.404855 3.91935,-2.528956 4.5,-2.498001 0.58064,0.03095 2.53703,3.162136 4.34753,6.958183 3.79577,7.958524 3.72241,8.149982 -5.10487,13.323114 -4.56064,2.672713 -4.76453,2.98205 -4.60034,6.979542 0.0945,2.300584 -0.15698,5.407874 -0.55883,6.905089 l -0.73064,2.722209 12.86425,-0.615334 12.86424,-0.615333 5.48719,5.030004 c 6.29989,5.774989 7.98917,9.899152 7.98345,19.490496 -0.003,4.52092 -0.56614,7.188205 -2.02336,9.578326 l -2.01961,3.312577 2.02335,2.572282 c 2.85453,3.628948 2.6115,7.694775 -0.6115,10.229985 -1.44917,1.13992 -3.21713,2.07258 -3.9288,2.07258 -0.71166,0 -2.90098,1.51563 -4.86514,3.36808 l -3.5712,3.36807 0,26.63193 c 0,14.64755 0.36,26.63192 0.8,26.63192 0.44,0 1.28078,-0.48078 1.8684,-1.0684 1.18132,-1.18132 7.53838,0.97592 8.77573,2.978 0.42733,0.69143 3.87198,1.06891 9.08541,0.99561 7.42451,-0.10439 8.73637,0.15488 11.32605,2.23836 5.1097,4.11093 7.72816,11.87268 4.94441,14.65643 -0.67159,0.67159 -3.89176,1.2 -7.31291,1.2 -5.48675,0 -6.40732,0.3073 -8.98709,3 -4.19189,4.37539 -8.47097,3.88962 -14.43274,-1.63845 -2.47626,-2.29612 -5.08479,-3.12853 -5.05012,-1.61155 0.009,0.4125 0.93816,4.125 2.06385,8.25 1.1257,4.125 2.39673,8.85 2.82453,10.5 0.4278,1.65 2.08656,5.7 3.68615,9 2.6896,5.54876 3.18238,6.02287 6.55225,6.30404 4.80672,0.40106 7.1252,3.11277 7.30874,8.54836 0.12435,3.68275 0.71971,4.86004 3.84565,7.60466 4.22122,3.70627 7.70169,10.75269 7.70169,15.59251 0,2.83264 -0.45632,3.44488 -3.25,4.36048 -4.0396,1.32394 -29.82867,8.01323 -35.25,9.14332 -7.68475,1.60189 -39.44736,1.8871 -50.63404,0.45466 z m 55.63404,-4.7711 c 5.69825,-1.76115 22.63064,-6.31187 26.75,-7.18929 3.2293,-0.68783 3.42534,-2.20934 1.14642,-8.89762 -1.04058,-3.05392 -2.82537,-5.63815 -5.08355,-7.36055 -3.413,-2.60322 -3.54101,-2.62142 -6.6527,-0.94566 -8.13132,4.379 -12.8263,4.91668 -46.27045,5.299 -33.651459,0.38469 -37.850569,-0.0349 -42.505509,-4.2476 -1.55191,-1.40446 -1.95506,-1.39489 -4.23735,0.10052 -2.96136,1.94035 -6.06516,7.52176 -7.01215,12.60955 l -0.67104,3.60529 5.82389,2.61361 c 11.66543,5.23513 22.866259,6.60041 51.212439,6.24232 16.80789,-0.21232 23.76491,-0.67517 27.5,-1.82957 z m 3.70295,-23.63646 c 1.26338,-0.49475 4.23534,-1.42054 6.60436,-2.05732 5.40413,-1.45259 8.19269,-4.18377 8.19269,-8.0241 0,-4.15054 -2.82576,-4.61607 -12.55355,-2.06812 -4.35742,1.14132 -14.22796,2.52375 -21.93452,3.07208 -13.30706,0.9468 -25.99587,0.25446 -49.155359,-2.68208 -5.05678,-0.64117 -8.35657,0.93956 -8.35657,4.00312 0,3.22256 2.23345,5.87409 6.13816,7.28717 4.04601,1.46422 67.454839,1.88291 71.064789,0.46925 z m -3.70295,-14.11605 c 3.3,-0.63043 6.39885,-1.53119 6.88634,-2.00167 0.50987,-0.49209 -0.0538,-2.44881 -1.32707,-4.60687 -2.27346,-3.85322 -9.05927,-25.9675 -9.05927,-29.52324 0,-1.42827 -0.49236,-1.83812 -1.75,-1.45675 -3.96789,1.2032 -24.73958,2.82558 -38.94846,3.04209 -10.00476,0.15244 -15.69088,0.64025 -16.63945,1.42749 -1.741889,1.44565 -3.527009,13.70234 -3.543709,24.33123 l -0.0121,7.69669 4.196849,0.60784 c 2.30827,0.33431 7.12186,1.00797 10.69686,1.49703 8.41236,1.1508 41.74262,0.46814 49.5,-1.01384 z m 15.60448,-35.27006 c 3.43893,-2.61922 3.2417,-5.47185 -0.75925,-10.98127 -3.96405,-5.45859 -5.35141,-6.80806 -9.09372,-8.84536 -3.34541,-1.82124 -4.15198,-0.0357 -1.10757,2.45191 3.44993,2.81893 7.85606,9.437 7.85606,11.79991 0,1.31781 -0.72917,1.86045 -2.5,1.86045 -2.90659,0 -3.26045,1.70225 -0.75,3.60795 2.18021,1.65502 4.27516,1.6901 6.35448,0.10641 z m -52.14294,-3.2306 c 10.70385,-0.34496 19.72818,-0.792 20.05407,-0.99341 0.3259,-0.20142 4.84392,-0.58251 10.04006,-0.84688 5.19613,-0.26437 10.63416,-0.7785 12.0845,-1.14251 l 2.63698,-0.66184 -2.56621,-3.91956 c -2.34407,-3.58028 -2.94846,-3.91956 -6.98219,-3.91956 -3.57499,0 -4.5156,0.38089 -4.939,2 -0.33378,1.27635 -1.36402,2 -2.84737,2 -1.27839,0 -2.60246,0.45 -2.94238,1 -0.33992,0.55 -2.07648,1 -3.85902,1 -1.78254,0 -3.66848,0.41994 -4.19098,0.9332 -1.76338,1.73219 -18.53992,1.47447 -23.7708,-0.36517 -3.67003,-1.2907 -5.1505,-1.42178 -6.20201,-0.5491 -1.55723,1.29238 -5.11846,0.49721 -7.62918,-1.7035 -1.3659,-1.19725 -3.18428,-1.278 -10.499999,-0.46631 -4.86641,0.53994 -10.19801,0.72223 -11.84801,0.4051 -2.71095,-0.52106 -2.86721,-0.41588 -1.62178,1.09155 1.9423,2.3509 19.697009,7.66377 23.621779,7.06853 1.1,-0.16684 10.75769,-0.58558 21.46154,-0.93054 z m 65.03846,-7.48376 c 0,-3.36805 -0.36117,-3.93025 -3.14922,-4.90217 -4.09603,-1.42789 -4.1944,-1.40865 -3.33486,0.65217 0.40145,0.9625 0.65471,3.64602 0.56281,5.96338 l -0.16709,4.21338 3.04418,-1.0612 c 2.67282,-0.93175 3.04418,-1.5253 3.04418,-4.86556 z m -74.62604,-2.49063 c 3.05278,2.00026 5.12927,1.49829 5.89365,-1.42474 0.4827,-1.84582 0.12628,-2.07108 -3.11123,-1.96632 -6.91285,0.22369 -13.01322,2.68627 -11.74357,4.74061 0.47578,0.76983 1.58187,0.46555 3.52207,-0.9689 2.7056,-2.00034 2.94188,-2.01687 5.43908,-0.38065 z m 17.62604,0.11563 c 0,-0.75625 -1.40625,-1.65625 -3.125,-2 -5.37556,-1.07511 -6.875,-0.77522 -6.875,1.375 0,1.73333 0.66666,2 5,2 3.57576,0 5,-0.39167 5,-1.375 z m 9,0.375 c 0,-1.43935 2.73883,-1.23421 3.33772,0.25 0.27741,0.6875 0.53991,0.2375 0.58333,-1 0.0925,-2.63609 0.85973,-2.79227 3.75497,-0.76437 1.87453,1.31297 2.18719,1.3132 2.69036,0.002 0.34548,-0.90032 -0.40726,-2.12352 -1.91452,-3.11112 -2.16045,-1.41558 -3.10018,-1.46092 -7.21785,-0.34824 -6.60194,1.78398 -8.25257,2.75981 -7.58979,4.48699 0.63294,1.64938 6.35578,2.08586 6.35578,0.48474 z m 38.04584,-1.91435 c -0.61392,-1.14711 -1.57138,-2.08565 -2.12771,-2.08565 -0.55632,0 -0.20299,1.08093 0.78519,2.40206 2.124,2.83967 2.92994,2.64972 1.34252,-0.31641 z m -76.04584,-3.58565 c 0,-0.825 -0.675,-1.5 -1.5,-1.5 -1.56158,0 -1.98397,1.1827 -0.83334,2.33333 1.15064,1.15064 2.33334,0.72824 2.33334,-0.83333 z m 38.83616,-2.46113 c 4.78841,-1.31115 5.80367,-1.29302 9.89053,0.1766 l 4.55437,1.63775 -0.64053,-7.57749 c -0.35229,-4.16762 -0.64053,-10.51303 -0.64053,-14.10092 l 0,-6.52344 -2.31445,2.17432 c -3.24958,3.05281 -6.87672,2.82369 -8.43555,-0.53286 -0.6875,-1.48036 -1.25,-3.29268 -1.25,-4.02738 0,-1.02594 -0.46395,-1.08752 -2,-0.26545 -3.6588,1.95813 -8.27576,-2.47547 -4.80902,-4.61803 0.65504,-0.40484 1.36754,-0.2064 1.58333,0.44098 0.81526,2.44578 2.99767,1.01198 5.52352,-3.62883 2.87819,-5.28819 6.32082,-8.9088 7.42293,-7.80669 0.38967,0.38967 0.16764,1.47441 -0.49341,2.41053 -0.66105,0.93612 -1.88904,2.92957 -2.72886,4.42988 -1.52271,2.7203 -1.51905,2.72627 1.32359,2.15774 1.89416,-0.37883 3.3849,-0.0357 4.44325,1.02261 1.45694,1.45694 1.6201,0.80419 1.91402,-7.65774 0.17672,-5.08775 0.28684,-9.35977 0.24471,-9.49339 -0.31061,-0.98506 -12.63082,-2.25575 -21.81055,-2.24951 -16.48794,0.0112 -30.11168,2.53067 -29.02316,5.3673 0.31063,0.80951 2.6083,1.06629 7.2129,0.80611 l 6.75705,-0.38181 5.0877,4.57428 c 6.25987,5.62816 7.73728,8.96706 7.14232,16.14146 -0.34835,4.20065 -1.16953,6.39086 -3.46624,9.24495 -4.06668,5.05362 -8.97233,8.23696 -12.72197,8.25547 -4.10369,0.0203 -5.10211,0.89208 -5.10211,4.45516 0,2.00984 -0.67289,3.30593 -2.08073,4.00782 -4.55507,2.27095 -1.1184,3.02171 13.83211,3.02171 10.27267,0 16.98992,-0.4768 20.58478,-1.46113 z m -35.08616,-6.28887 c -0.47189,-1.41567 -2.07999,-1.26005 -2.58334,0.25 -0.18333,0.55 0.41667,1 1.33334,1 0.91666,0 1.47916,-0.5625 1.25,-1.25 z m 5.16321,-6.80568 c 7.72487,-1.25339 11.6944,-3.86927 14.18135,-9.34539 3.66808,-8.07689 1.43435,-15.34613 -6.19571,-20.16278 -7.61387,-4.80643 -16.60498,-2.06674 -21.25484,6.47659 -3.622759,6.6562 -4.692379,15.83831 -2.274799,19.528 1.32215,2.01786 4.836249,3.8344 8.630789,4.46152 0.275,0.0454 3.38594,-0.38562 6.91321,-0.95794 z m -10.36619,-8.86823 c -0.87239,-1.41156 1.00231,-7.88272 3.42603,-11.82609 1.62266,-2.64006 2.63709,-3.25 5.40526,-3.25 4.07485,0 5.10761,1.86123 2.83396,5.10732 -0.90026,1.28531 -1.87881,4.14947 -2.17456,6.3648 -0.52185,3.90906 -0.66037,4.03682 -4.69593,4.33089 -2.28702,0.16666 -4.44466,-0.16046 -4.79476,-0.72692 z m 6.55357,-5.65086 c 0.35859,-1.60887 0.98081,-3.71273 1.38269,-4.67523 0.41171,-0.98605 0.29485,-1.75 -0.26771,-1.75 -0.97587,0 -4.21557,6.99618 -4.21557,9.10357 0,2.24573 2.48069,0.10287 3.10059,-2.67834 z m 43.89941,-1.94069 c 0,-2.85575 -2.45768,-3.884 -4.47106,-1.87062 -1.93725,1.93724 -1.92276,2.8494 0.077,4.84917 2.01355,2.01356 4.39405,0.39992 4.39405,-2.97855 z m -39.5,-26.0982 c 7.76121,-1.64392 35.0156,-2.06887 39.97428,-0.62329 2.63956,0.76951 3.20225,0.53055 5,-2.12332 1.11415,-1.64473 4.60625,-4.37401 7.76022,-6.06507 6.06261,-3.250581 6.79284,-4.751482 3.99326,-8.207621 -4.00107,-4.939409 -9.13917,-5.595 -14.63262,-1.86704 -4.60097,3.1223 -5.59514,3.134274 -5.59514,0.06739 0,-2.950886 -2.48911,-3.941459 -7.5285,-2.996063 -2.57111,0.482343 -3.88486,1.385677 -4.54663,3.126276 -1.12747,2.965457 -4.28526,2.755135 -4.72568,-0.31475 -0.40925,-2.852658 -6.56045,-4.713226 -11.19139,-3.385089 -4.02321,1.153842 -4.97216,2.437274 -4.99249,6.752238 -0.0173,3.67382 -1.24344,4.05487 -5.65101,1.756161 -4.01228,-2.092552 -8.63277,-1.869427 -11.72944,0.566419 -3.249609,2.556149 -3.309699,4.352359 -0.27875,8.333039 1.29586,1.70191 2.68652,4.13943 3.09034,5.41671 0.51714,1.63567 1.22495,2.13374 2.39389,1.68451 0.91281,-0.35079 4.80966,-1.30501 8.65966,-2.12049 z M 98.910461,91.269757 c -0.59456,-1.110948 -1.12709,-4.411989 -1.18338,-7.335647 -0.0935,-4.855168 -0.17088,-5.025914 -0.89315,-1.970675 -0.93729,3.964805 1.17988,13.303899 2.67666,11.807112 0.26449,-0.264487 -0.006,-1.389842 -0.60013,-2.50079 z m 16.805419,-0.256962 c 2.33038,-5.264702 11.36223,-7.578156 17.36356,-4.447568 l 2.75,1.434536 0,-7.262558 c 0,-7.026054 -1.78955,-14.417062 -4.29046,-17.720002 -1.01263,-1.337369 -2.30121,-1.470081 -7.82134,-0.805521 -8.65247,1.041658 -17.74742,5.374856 -20.182,9.61551 -4.361999,7.597893 -2.6071,22.132398 2.53861,21.025468 1.24035,-0.266821 3.38019,-0.136047 4.75519,0.29061 1.375,0.426656 2.72765,0.820595 3.00589,0.875419 0.27823,0.05482 1.12448,-1.297828 1.88055,-3.005894 z m 47.93778,-3.33853 c 7.58284,-0.08365 8.08949,-0.686743 8.28854,-9.866459 0.16584,-7.648211 -2.53981,-16.322266 -5.59171,-17.92649 -1.11158,-0.584295 -2.34251,-1.557488 -2.73541,-2.162651 -0.76479,-1.177956 -17.16241,-1.55686 -18.29649,-0.422781 -0.35693,0.356926 0.0339,1.700501 0.86855,2.985721 3.24029,4.989644 7.25914,21.24292 6.24838,25.270102 -0.7202,2.869522 0.27702,3.890696 2.86849,2.937396 1.11398,-0.409791 4.87133,-0.776468 8.34965,-0.814838 z m -23.46345,-2.058132 c -0.31706,-0.82623 -0.29436,-2.62623 0.0504,-4 0.74208,-2.956717 3.97835,-3.360182 6.76005,-0.842776 1.71578,1.55276 1.82874,1.526928 1.82874,-0.418213 0,-3.992377 -1.01109,-5.301211 -3.1931,-4.13343 -1.09625,0.586695 -3.07627,0.79488 -4.40004,0.462634 -2.2948,-0.575957 -2.40686,-0.378157 -2.40686,4.248302 0,2.668812 0.3,5.152386 0.66666,5.519052 1.06989,1.069889 1.313,0.777236 0.69411,-0.835569 z m 4.23923,-2.097764 c -0.35589,-0.927441 -0.87208,-1.461256 -1.14708,-1.186256 -0.275,0.275 -0.20881,1.258815 0.14708,2.186256 0.35589,0.927441 0.87207,1.461256 1.14707,1.186256 0.275,-0.275 0.20882,-1.258815 -0.14707,-2.186256 z m -0.6,-10.340983 c 0,-0.517541 -0.45,-1.219098 -1,-1.559017 -0.55,-0.339919 -1,0.08352 -1,0.940983 0,0.857459 0.45,1.559017 1,1.559017 0.55,0 1,-0.423442 1,-0.940983 z m -4,-4.184017 c 0,-0.716667 1.08889,-0.907222 3,-0.525 3.2943,0.658861 3.53526,0.146339 1.89701,-4.0349 l -1.10298,-2.8151 -0.89968,2.344317 c -0.49483,1.289374 -1.79848,2.579358 -2.89702,2.866631 -2.01502,0.526939 -2.85257,3.289052 -0.99733,3.289052 0.55,0 1,-0.50625 1,-1.125 z m -0.8,-7.075 c -0.64167,-0.641667 -1.49864,-0.834699 -1.90438,-0.42896 -0.40573,0.405738 -0.0888,1.13877 0.70438,1.62896 1.86759,1.154235 2.71091,0.310913 1.2,-1.2 z m -3.7,-2.8 c 0.33992,-0.55 -0.33508,-1 -1.5,-1 -1.16492,0 -1.83992,0.45 -1.5,1 0.33992,0.55 1.01492,1 1.5,1 0.48508,0 1.16008,-0.45 1.5,-1 z m -5.90043,-3.614347 c 3.33956,-0.838175 4.5186,-3.44871 5.26578,-11.659035 l 0.63465,-6.973794 4.22039,-1.646803 c 6.28104,-2.450871 6.83976,-3.293043 5.39153,-8.126791 -1.20957,-4.037181 -3.70414,-6.192915 -4.96285,-4.288748 -0.35699,0.540054 -2.13195,1.489322 -3.94436,2.109485 -2.84117,0.972179 -3.36964,0.891395 -3.83478,-0.586199 -3.3763,-10.725292 -6.89043,-14.4862097 -11.78179,-12.609218 -1.40102,0.53762 -1.37129,0.897436 0.2685,3.25 2.39534,3.436549 5.37243,12.350588 4.39891,13.171316 -1.41431,1.192351 -8.97581,2.974134 -12.62157,2.974134 -4.08304,0 -4.10746,0.04864 -2.39788,4.776379 l 1.2361,3.418376 7.24574,-0.365894 c 5.42391,-0.273895 7.37602,-0.02638 7.7639,0.984411 0.86574,2.256076 0.57915,12.896111 -0.418,15.518806 -0.51488,1.354252 -0.62738,2.773917 -0.25,3.154811 0.37739,0.380894 0.83159,-0.02253 1.00935,-0.896496 0.17776,-0.873966 1.42713,-1.866099 2.77638,-2.20474 z m 11.40043,2.614347 c -0.825,-0.533156 -2.175,-0.944637 -3,-0.914402 -0.98906,0.03625 -0.81874,0.34772 0.5,0.914402 2.74908,1.181322 4.32796,1.181322 2.5,0 z"
     id="path2830" />
</svg>
