<?xml version="1.0" encoding="UTF-8" standalone="no"?>
<!-- Created with Inkscape (http://www.inkscape.org/) -->

<svg
   xmlns:dc="http://purl.org/dc/elements/1.1/"
   xmlns:cc="http://creativecommons.org/ns#"
   xmlns:rdf="http://www.w3.org/1999/02/22-rdf-syntax-ns#"
   xmlns:svg="http://www.w3.org/2000/svg"
   xmlns="http://www.w3.org/2000/svg"
   xmlns:sodipodi="http://sodipodi.sourceforge.net/DTD/sodipodi-0.dtd"
   xmlns:inkscape="http://www.inkscape.org/namespaces/inkscape"
   width="64"
   height="64"
   id="svg2"
   version="1.1"
   inkscape:version="0.47 r22583"
   sodipodi:docname="bases.svg">
  <defs
     id="defs4">
    <inkscape:perspective
       sodipodi:type="inkscape:persp3d"
       inkscape:vp_x="0 : 526.18109 : 1"
       inkscape:vp_y="0 : 1000 : 0"
       inkscape:vp_z="744.09448 : 526.18109 : 1"
       inkscape:persp3d-origin="372.04724 : 350.78739 : 1"
       id="perspective10" />
    <inkscape:perspective
       id="perspective2855"
       inkscape:persp3d-origin="0.5 : 0.33333333 : 1"
       inkscape:vp_z="1 : 0.5 : 1"
       inkscape:vp_y="0 : 1000 : 0"
       inkscape:vp_x="0 : 0.5 : 1"
       sodipodi:type="inkscape:persp3d" />
    <inkscape:perspective
       id="perspective2881"
       inkscape:persp3d-origin="0.5 : 0.33333333 : 1"
       inkscape:vp_z="1 : 0.5 : 1"
       inkscape:vp_y="0 : 1000 : 0"
       inkscape:vp_x="0 : 0.5 : 1"
       sodipodi:type="inkscape:persp3d" />
    <inkscape:perspective
       id="perspective3714"
       inkscape:persp3d-origin="0.5 : 0.33333333 : 1"
       inkscape:vp_z="1 : 0.5 : 1"
       inkscape:vp_y="0 : 1000 : 0"
       inkscape:vp_x="0 : 0.5 : 1"
       sodipodi:type="inkscape:persp3d" />
    <inkscape:perspective
       id="perspective3748"
       inkscape:persp3d-origin="0.5 : 0.33333333 : 1"
       inkscape:vp_z="1 : 0.5 : 1"
       inkscape:vp_y="0 : 1000 : 0"
       inkscape:vp_x="0 : 0.5 : 1"
       sodipodi:type="inkscape:persp3d" />
  </defs>
  <sodipodi:namedview
     id="base"
     pagecolor="#ffffff"
     bordercolor="#666666"
     borderopacity="1.0"
     inkscape:pageopacity="0.0"
     inkscape:pageshadow="2"
     inkscape:zoom="5.6568542"
     inkscape:cx="43.160324"
     inkscape:cy="15.288968"
     inkscape:document-units="px"
     inkscape:current-layer="layer1"
     showgrid="false"
     inkscape:window-width="1280"
     inkscape:window-height="999"
     inkscape:window-x="1280"
     inkscape:window-y="0"
     inkscape:window-maximized="1"
     showguides="true"
     inkscape:guide-bbox="true" />
  <metadata
     id="metadata7">
    <rdf:RDF>
      <cc:Work
         rdf:about="">
        <dc:format>image/svg+xml</dc:format>
        <dc:type
           rdf:resource="http://purl.org/dc/dcmitype/StillImage" />
        <dc:title></dc:title>
      </cc:Work>
    </rdf:RDF>
  </metadata>
  <g
     inkscape:label="Layer 1"
     inkscape:groupmode="layer"
     id="layer1"
     transform="translate(0,-988.36218)">
    <g
       id="g3693">
      <path
         id="rect2818"
         d="m 32.25,1020.1434 c -9.178814,0 -17.034736,3.7046 -20.34375,8.9688 l -1.15625,0 c -0.286856,0 -0.53125,0.088 -0.53125,0.1875 l 0,5.375 0,0.5937 c 0,0.012 0.02437,0.02 0.03125,0.031 0.495403,7.7329 10.152463,13.9062 22,13.9062 11.847537,0 21.504597,-6.1733 22,-13.9062 0.0069,-0.012 0.03125,-0.019 0.03125,-0.031 l 0,-0.5937 0,-5.375 c 0,-0.099 -0.244394,-0.1875 -0.53125,-0.1875 l -1.125,0 c -3.308724,-5.2646 -11.195728,-8.9688 -20.375,-8.9688 z"
         style="fill:#ffffff;fill-opacity:1;stroke:#000000;stroke-opacity:1" />
      <path
         transform="matrix(0.99676697,0,0,0.9029612,19.815596,998.3716)"
         d="m 34.648233,33.064079 a 22.097088,16.086679 0 1 1 -44.1941753,0 22.097088,16.086679 0 1 1 44.1941753,0 z"
         sodipodi:ry="16.086679"
         sodipodi:rx="22.097088"
         sodipodi:cy="33.064079"
         sodipodi:cx="12.551146"
         id="path2822-9"
         style="fill:#ffffff;fill-opacity:1;stroke:#000000;stroke-opacity:1"
         sodipodi:type="arc" />
    </g>
    <g
       id="g3736">
      <path
         id="rect2818-6"
         d="m 32.153925,1016.587 c -7.417452,0 -13.765868,2.9937 -16.439901,7.2477 l -0.934372,0 c -0.23181,0 -0.429306,0.071 -0.429306,0.1516 l 0,4.3435 0,0.4798 c 0,0.01 0.01969,0.016 0.02525,0.025 0.400338,6.249 8.204264,11.2376 17.778326,11.2376 9.574062,0 17.377988,-4.9886 17.778326,-11.2376 0.0056,-0.01 0.02525,-0.015 0.02525,-0.025 l 0,-0.4798 0,-4.3435 c 0,-0.08 -0.197496,-0.1516 -0.429306,-0.1516 l -0.909119,0 c -2.673799,-4.2543 -9.047332,-7.2477 -16.465154,-7.2477 z"
         style="fill:#ffffff;fill-opacity:1;stroke:#000000;stroke-width:0.80810571;stroke-opacity:1" />
      <path
         transform="matrix(0.80549309,0,0,0.72968811,21.980612,1001.3681)"
         d="m 34.648233,33.064079 a 22.097088,16.086679 0 1 1 -44.1941753,0 22.097088,16.086679 0 1 1 44.1941753,0 z"
         sodipodi:ry="16.086679"
         sodipodi:rx="22.097088"
         sodipodi:cy="33.064079"
         sodipodi:cx="12.551146"
         id="path2822-9-5"
         style="fill:#ffffff;fill-opacity:1;stroke:#000000;stroke-opacity:1"
         sodipodi:type="arc" />
    </g>
    <path
       style="fill:#ffffff;fill-opacity:1;stroke:#000000;stroke-width:0.69945431;stroke-opacity:1"
       d="M 32.125 9.90625 L 24.65625 21.375 L 17.1875 32.84375 L 17.25 32.84375 C 16.375247 34.159131 15.875 35.596666 15.875 37.125 C 15.875 43.039616 23.156502 47.84375 32.125 47.84375 C 41.093498 47.84375 48.34375 43.039616 48.34375 37.125 C 48.34375 35.5959 47.844332 34.159652 46.96875 32.84375 L 47.0625 32.84375 L 39.59375 21.375 L 32.125 9.90625 z "
       transform="translate(0,988.36218)"
       id="path2822-9-5-9" />
    <path
       sodipodi:type="arc"
       style="fill:#ffffff;fill-opacity:1;stroke:#000000;stroke-width:1;stroke-miterlimit:4;stroke-opacity:1;stroke-dasharray:none"
       id="path3792"
       sodipodi:cx="32.438522"
       sodipodi:cy="11.408933"
       sodipodi:rx="6.9826794"
       sodipodi:ry="6.9826794"
       d="m 39.421202,11.408933 a 6.9826794,6.9826794 0 1 1 -13.965359,0 6.9826794,6.9826794 0 1 1 13.965359,0 z"
       transform="matrix(0.88187607,0,0,0.88187607,3.3014356,988.47241)" />
  </g>
</svg>
