<?xml version="1.0" encoding="UTF-8" standalone="no"?>
<!-- Created with Inkscape (http://www.inkscape.org/) -->

<svg
   xmlns:dc="http://purl.org/dc/elements/1.1/"
   xmlns:cc="http://creativecommons.org/ns#"
   xmlns:rdf="http://www.w3.org/1999/02/22-rdf-syntax-ns#"
   xmlns:svg="http://www.w3.org/2000/svg"
   xmlns="http://www.w3.org/2000/svg"
   xmlns:sodipodi="http://sodipodi.sourceforge.net/DTD/sodipodi-0.dtd"
   xmlns:inkscape="http://www.inkscape.org/namespaces/inkscape"
   id="svg3560"
   version="1.1"
   inkscape:version="0.47 r22583"
   width="210"
   height="210"
   sodipodi:docname="back.svg">
  <metadata
     id="metadata3566">
    <rdf:RDF>
      <cc:Work
         rdf:about="">
        <dc:format>image/svg+xml</dc:format>
        <dc:type
           rdf:resource="http://purl.org/dc/dcmitype/StillImage" />
        <dc:title />
      </cc:Work>
    </rdf:RDF>
  </metadata>
  <defs
     id="defs3564">
    <inkscape:perspective
       sodipodi:type="inkscape:persp3d"
       inkscape:vp_x="0 : 0.5 : 1"
       inkscape:vp_y="0 : 1000 : 0"
       inkscape:vp_z="1 : 0.5 : 1"
       inkscape:persp3d-origin="0.5 : 0.33333333 : 1"
       id="perspective3568" />
    <inkscape:perspective
       id="perspective4137"
       inkscape:persp3d-origin="0.5 : 0.33333333 : 1"
       inkscape:vp_z="1 : 0.5 : 1"
       inkscape:vp_y="0 : 1000 : 0"
       inkscape:vp_x="0 : 0.5 : 1"
       sodipodi:type="inkscape:persp3d" />
    <inkscape:perspective
       id="perspective4162"
       inkscape:persp3d-origin="0.5 : 0.33333333 : 1"
       inkscape:vp_z="1 : 0.5 : 1"
       inkscape:vp_y="0 : 1000 : 0"
       inkscape:vp_x="0 : 0.5 : 1"
       sodipodi:type="inkscape:persp3d" />
    <inkscape:perspective
       id="perspective4187"
       inkscape:persp3d-origin="0.5 : 0.33333333 : 1"
       inkscape:vp_z="1 : 0.5 : 1"
       inkscape:vp_y="0 : 1000 : 0"
       inkscape:vp_x="0 : 0.5 : 1"
       sodipodi:type="inkscape:persp3d" />
    <inkscape:perspective
       id="perspective4212"
       inkscape:persp3d-origin="0.5 : 0.33333333 : 1"
       inkscape:vp_z="1 : 0.5 : 1"
       inkscape:vp_y="0 : 1000 : 0"
       inkscape:vp_x="0 : 0.5 : 1"
       sodipodi:type="inkscape:persp3d" />
    <inkscape:perspective
       id="perspective4237"
       inkscape:persp3d-origin="0.5 : 0.33333333 : 1"
       inkscape:vp_z="1 : 0.5 : 1"
       inkscape:vp_y="0 : 1000 : 0"
       inkscape:vp_x="0 : 0.5 : 1"
       sodipodi:type="inkscape:persp3d" />
  </defs>
  <sodipodi:namedview
     pagecolor="#ffffff"
     bordercolor="#666666"
     borderopacity="1"
     objecttolerance="10"
     gridtolerance="10"
     guidetolerance="10"
     inkscape:pageopacity="0"
     inkscape:pageshadow="2"
     inkscape:window-width="1280"
     inkscape:window-height="949"
     id="namedview3562"
     showgrid="false"
     inkscape:zoom="1.5817744"
     inkscape:cx="115.90225"
     inkscape:cy="153.36678"
     inkscape:window-x="0"
     inkscape:window-y="25"
     inkscape:window-maximized="1"
     inkscape:current-layer="svg3560" />
  <path
     style="fill:#782121;fill-opacity:1;stroke:#000000;stroke-width:1px;stroke-linecap:butt;stroke-linejoin:miter;stroke-opacity:1"
     d="m 66.184414,38.84928 c 0.44704,-0.894068 4.91738,-5.364407 4.91738,-5.364407 0,0 4.91737,-10.28178 5.81144,-11.175847 0.89406,-0.894068 12.06991,-8.493645 12.06991,-8.493645 l 12.516966,-2.90572 15.42267,0.894068 8.71716,5.14089 7.82309,7.376059 9.61123,25.257416 -11.8464,5.364407 -26.15148,2.011652 -18.998956,-4.917373 -13.85805,-7.376059"
     id="path3616-9" />
  <path
     style="fill:#782121;stroke:#000000;stroke-width:1px;stroke-linecap:butt;stroke-linejoin:miter;stroke-opacity:1;fill-opacity:1"
     d="m 70.806558,94.781293 9.324971,2.844907 -3.793209,13.27623 c 0,0 -6.163964,-1.10635 -6.480064,-1.73855 -0.316101,-0.63221 -1.580504,-12.485983 -1.580504,-12.485983"
     id="path4152" />
  <path
     style="fill:#782121;stroke:#000000;stroke-width:1px;stroke-linecap:butt;stroke-linejoin:miter;stroke-opacity:1;fill-opacity:1"
     d="m 50.734163,88.301229 c 0.790252,0.15805 11.063525,3.951259 11.063525,3.951259 l -0.474151,7.586416 -3.319058,4.425406 -4.42541,1.10636 c 0,0 -6.954215,-1.89661 -7.112265,-2.68686 -0.158051,-0.79025 0,-6.163963 -0.948303,-6.638114 -0.948302,-0.474151 -10.589373,-3.635158 -10.589373,-4.42541 0,-0.790252 1.896604,-4.899561 1.896604,-4.899561 l 11.379625,3.002957"
     id="path4177" />
  <path
     style="fill:#782121;stroke:#000000;stroke-width:1px;stroke-linecap:butt;stroke-linejoin:miter;stroke-opacity:1;fill-opacity:1"
     d="m 131.65594,108.53167 30.02957,9.32497 2.21271,-1.42245 9.95717,3.00296 0.79025,8.69277 -8.37667,28.44906 c 0,0 -10.27327,-2.2127 -10.27327,-2.84491 0,-0.6322 1.10635,-6.00591 1.10635,-6.00591 l -17.54359,-15.64698"
     id="path4202" />
  <path
     style="fill:#ffffff;stroke:#000000;stroke-width:1px;stroke-linecap:butt;stroke-linejoin:miter;stroke-opacity:1"
     d="m 59.426932,103.94821 3.319058,7.11227 3.793208,3.79321 3.477108,-0.47415 0.948302,-4.26736 4.109309,0.79025 1.106353,6.32201 -6.796165,2.68686 -6.163964,-0.9483 -5.057611,-5.68982 -3.319058,-8.06056"
     id="path4227" />
  <path
     style="fill:#000000"
     d="m 81.381356,202.94582 c -4.95,-0.80388 -11.025,-2.10046 -13.5,-2.88129 -2.475,-0.78083 -6.075,-1.72451 -8,-2.09706 -5.427947,-1.0505 -21.966443,-6.65713 -22.583786,-7.65601 -0.694992,-1.12452 1.202499,-11.05807 3.135771,-16.41605 1.179221,-3.26817 2.185701,-4.29614 5.204962,-5.3161 6.165126,-2.08271 8.243053,-3.37999 8.243053,-5.14627 0,-2.35864 3.483013,-5.23601 6.338106,-5.23601 2.179249,0 2.665803,-0.90122 5.19638,-9.625 1.535601,-5.29375 3.126008,-10.075 3.534237,-10.625 0.712972,-0.96058 3.110271,-9.06119 4.35144,-14.70377 0.594595,-2.70313 0.593606,-2.70363 -4.242267,-2.13089 -4.415602,0.52296 -5.156768,0.29211 -8.507448,-2.64983 -2.018746,-1.77248 -3.685419,-3.96358 -3.703717,-4.8691 -0.05735,-2.8382 -3.673583,-6.16792 -8.475672,-7.80416 -4.439202,-1.51258 -4.608576,-1.71374 -4.306012,-5.11392 0.310717,-3.491799 0.237611,-3.565338 -5.435047,-5.4672 -3.1625,-1.060286 -5.75,-2.354746 -5.75,-2.876578 0,-0.521832 0.639316,-2.478883 1.420702,-4.349003 l 1.420701,-3.400218 6.031361,1.826149 c 4.285646,1.297589 6.141726,1.495085 6.412666,0.682337 0.267878,-0.803564 2.522152,-0.513389 7.578174,0.975477 l 7.196869,2.119289 1.739454,-2.211357 c 2.473814,-3.144944 8.71023,-6.87656 15.832292,-9.473394 4.198268,-1.530765 6.470772,-2.984453 7.213377,-4.614292 0.841644,-1.847208 0.774304,-2.553952 -0.301044,-3.159502 -2.35168,-1.324277 -11.953716,-10.684644 -13.668106,-13.3241 -0.892955,-1.374783 -1.963804,-4.51478 -2.379666,-6.97777 -0.519967,-3.079569 -1.808715,-5.562158 -4.126446,-7.949006 -4.089611,-4.211569 -4.156861,-5.074672 -0.555003,-7.123034 1.63686,-0.930875 3.879628,-3.842646 5.391691,-7 3.000492,-6.265352 5.052135,-8.612311 11.265834,-12.887449 7.000049,-4.81616 11.602483,-6.0212264 22.902868,-5.9967131 10.76924,0.02336 15.4894,1.3819011 20.62428,5.9360061 1.375,1.219483 3.01631,2.515319 3.64735,2.879637 2.8382,1.638572 14.35265,27.40202 14.35265,32.113898 0,0.500167 -1.0083,1.053193 -2.24066,1.228946 -1.47136,0.209837 -2.93055,1.726345 -4.25,4.416944 -2.45812,5.012528 -5.9147,9.402607 -7.40326,9.402607 -0.67108,0 -1.10608,2.11637 -1.10608,5.381311 0,4.914001 0.28689,5.600133 3.30368,7.901151 11.01075,8.39831 17.37733,18.228051 18.43352,28.460604 0.58386,5.65663 1.14343,6.42323 5.83896,7.99922 2.41101,0.80922 3.27591,0.72537 4,-0.38782 0.78385,-1.20507 1.88126,-1.09483 7.24228,0.72754 6.89794,2.34481 8.16649,4.00527 8.19981,10.73309 0.0231,4.6545 -5.80402,25.61703 -8.32117,29.9349 -2.13202,3.65722 -2.98755,3.86849 -7.06139,1.74384 -1.57537,-0.82161 -3.47203,-1.49384 -4.21481,-1.49384 -2.08684,0 -3.66705,-3.67151 -2.5104,-5.83274 0.81267,-1.51849 -0.11966,-2.92347 -5.43747,-8.19401 -3.53008,-3.4987 -6.65579,-6.1238 -6.94604,-5.83355 -1.66511,1.6651 6.94539,20.67689 10.48864,23.15868 1.01133,0.70836 2.37408,2.4628 3.02834,3.89874 0.9297,2.04045 2.15122,2.75502 5.59155,3.27093 6.56849,0.985 9.05151,3.76578 10.74363,12.03195 0.78811,3.85 1.74899,8.2375 2.1353,9.75 0.49378,1.93325 0.32233,2.75 -0.57728,2.75 -0.70382,0 -2.03324,0.68198 -2.95428,1.5155 -1.71045,1.54794 -22.85803,8.07356 -30.98287,9.56055 -2.475,0.45297 -14.625,1.06225 -27,1.35396 -17.082477,0.40268 -24.667015,0.17846 -31.500004,-0.93122 z m 63.000004,-4.75416 c 2.75,-0.8418 8.96011,-2.66737 13.80025,-4.05684 4.84013,-1.38947 9.45263,-3.06774 10.25,-3.72949 1.75188,-1.45393 1.82552,-4.17779 0.29251,-10.81917 l -1.15725,-5.01346 -4.59275,2.29731 c -13.43786,6.72164 -42.67036,10.48045 -66.552527,8.55753 -7.17213,-0.57748 -14.390237,-1.28858 -16.040237,-1.58022 -8.071926,-1.42675 -25.613762,-5.98539 -30.695533,-7.97692 l -5.710557,-2.23795 -0.977056,3.15729 c -0.537381,1.73651 -1.269504,5.04871 -1.62694,7.36045 -0.637432,4.12263 -0.57808,4.23316 3.097831,5.76906 4.560973,1.90569 25.308258,7.32016 34.912255,9.11113 10.158582,1.89438 58.091974,1.27588 65.000004,-0.83872 z m -5,-17.79481 c 9.38864,-2.33289 20.99654,-5.97461 23.45684,-7.35907 l 2.45685,-1.38252 -3.95685,-1.09854 c -5.21313,-1.44732 -4.87777,-1.50033 -9.67772,1.52975 -6.35695,4.01296 -18.09547,7.26405 -28.77912,7.97064 -20.36194,1.34669 -49.120551,-2.78116 -63.593183,-9.12781 -4.745166,-2.08089 -5.325965,-2.13024 -8.5,-0.72217 l -3.406821,1.51134 6,1.95659 c 12.766893,4.16326 25.214037,6.75043 37.5,7.79445 12.948324,1.10032 42.374064,0.44952 48.500004,-1.07266 z m -4.5,-5.55279 c 9.95354,-2.38601 17.40237,-6.2096 17.81955,-9.14703 0.40792,-2.87218 -0.65426,-2.86108 -11.05444,0.11555 -12.50939,3.58031 -31.17802,5.21677 -43.359191,3.8008 -9.076887,-1.05511 -24.506393,-4.28396 -35.210261,-7.36826 -3.644062,-1.05002 -4.447053,-1.01462 -5.234688,0.23081 -0.511692,0.80911 -0.937239,1.79823 -0.945661,2.19805 -0.06167,2.9276 20.106767,9.19167 34.484687,10.71053 5.5,0.581 11.575004,1.24029 13.500004,1.46507 6.92293,0.80839 22.64631,-0.24273 30,-2.00552 z m -12.67006,-8.92448 c 6.69353,-0.84009 14.27961,-2.19009 16.85796,-3 2.57834,-0.8099 5.36428,-1.47255 6.19098,-1.47255 2.65595,0 2.60983,-1.57497 -0.20783,-7.09658 -2.72491,-5.33988 -4.26556,-9.74761 -8.18027,-23.40342 -1.10367,-3.85 -2.42528,-7.9 -2.93689,-9 -1.39308,-2.99519 -4.11106,-12.93332 -6.15355,-22.499996 -1.34481,-6.298895 -1.71215,-11.42954 -1.41856,-19.812995 0.21791,-6.222148 0.0862,-11.152627 -0.29279,-10.956621 -8.48503,4.388838 -11.20353,5.111606 -20.83218,5.538666 -5.968126,0.264704 -10.897991,0.02747 -11.976956,-0.576347 -1.64825,-0.922407 -2.223028,0.0529 -5.681456,9.640535 -5.471082,15.167215 -9.883726,32.280478 -9.841277,38.166758 0.01467,2.03471 -3.967048,15.22976 -5.006934,16.59251 -0.891739,1.16861 -6.850191,18.76025 -6.850191,20.2244 0,1.69524 16.138582,5.51992 36.000004,8.53163 5.04456,0.76495 8.41163,0.61986 20.32994,-0.87599 z m 44.98562,-14.72255 c 0.87301,-2.3375 1.8725,-5.6 2.22109,-7.25 0.34859,-1.65 1.27045,-4.69661 2.04858,-6.77024 1.48471,-3.95662 1.95869,-16.27557 0.65715,-17.07996 -0.41668,-0.25753 -2.44168,-0.78416 -4.5,-1.17031 l -3.74238,-0.70207 0,7.7974 c 0,7.94203 -2.11677,18.69103 -4.66835,23.70596 -1.37271,2.69796 -1.31681,2.82338 1.87675,4.21086 4.49669,1.95364 4.32475,2.03083 6.10716,-2.74164 z M 159.29444,138.062 c 0.27232,-2.26323 0.71032,-7.32638 0.97333,-11.25143 l 0.47819,-7.13647 -13.0928,-4.6197 c -7.20105,-2.54083 -13.24663,-4.46587 -13.43464,-4.27786 -0.18801,0.18801 1.17738,4.75924 3.03421,10.15829 3.2922,9.57266 3.57164,9.99711 11.25234,17.09135 8.7646,8.09538 9.81919,8.09889 10.78937,0.0358 z M 74.230693,116.44477 c 1.060397,-0.99432 -0.128443,-4.99774 -1.484112,-4.99774 -0.55,0 -0.713419,0.90294 -0.363153,2.00653 1.387319,4.37105 -7.607757,4.57842 -9.887208,0.22793 -0.978263,-1.86708 -1.529577,-2.18147 -2.127856,-1.21344 -0.528173,0.8546 0.158384,2.13737 1.984768,3.70836 2.3545,2.02526 3.437872,2.297 6.910244,1.73329 2.264889,-0.36768 4.500182,-1.0269 4.967317,-1.46493 z m -5.38114,-3.74774 c -0.01749,-0.4125 -0.692492,-1.62351 -1.5,-2.69113 -1.798093,-2.37729 -1.931678,-10.788071 -0.218197,-13.738013 2.882151,-4.961932 8.551334,-9.611493 12.541129,-10.285564 3.123036,-0.527634 4.099856,-1.184681 4.444933,-2.989835 0.396937,-2.076444 0.176878,-2.235101 -2.146896,-1.547851 -12.42696,3.67524 -19.318537,11.175343 -19.242884,20.942023 0.04241,5.47457 2.405634,11.06037 4.679398,11.06037 0.810876,0 1.460008,-0.3375 1.442517,-0.75 z m 79.240087,-4.83725 c -0.8813,-8.799467 -6.34642,-18.186041 -14.21848,-24.420822 l -3.9898,-3.159983 0,2.962709 c 0,2.310741 0.62384,3.221111 2.83487,4.136952 3.12303,1.293602 9.11015,8.733855 11.12439,13.824384 0.70859,1.7908 1.02521,4.57166 0.7036,6.17969 -0.36825,1.84125 -0.13641,3.10399 0.6262,3.41067 2.27815,0.91616 3.21091,-0.0212 2.91922,-2.9336 z M 59.098023,106.2637 c -1.527513,-1.52752 -2.654639,-0.40039 -1.807423,1.80742 0.500231,1.30358 0.933915,1.43275 1.823539,0.54313 0.889623,-0.88963 0.88579,-1.44865 -0.01612,-2.35055 z m 18.168762,-2.05602 c 0.844729,-2.88164 1.17724,-5.597977 0.738914,-6.036303 -0.438326,-0.438326 -2.445619,-1.064498 -4.46065,-1.391492 l -3.663693,-0.594536 0,5.478021 c 0,4.69273 0.322547,5.63359 2.25,6.56317 3.41804,1.64845 3.490795,1.59152 5.135429,-4.01886 z m 63.202455,-2.14164 c -0.59982,-3.194998 -7.46747,-11.619006 -9.47236,-11.619006 -1.39996,0 -1.39275,0.764807 0.0827,8.772337 1.14879,6.234699 1.36534,6.578149 5.25,8.326639 4.01874,1.80883 4.05454,1.80664 4.38851,-0.26863 0.18519,-1.15078 0.0732,-3.49589 -0.24884,-5.21134 z m -81.161036,-1.61901 c 2.063719,-7.303683 1.947843,-7.668218 -2.819085,-8.868544 -6.228682,-1.5684 -6.054832,-1.647871 -7.400358,3.382899 -1.75006,6.543275 -1.556974,7.337875 2.007531,8.261535 3.604357,0.93398 7.539519,-0.39623 8.211912,-2.77589 z M 46.336182,91.373942 c -0.227264,-0.367721 -1.660071,-0.920193 -3.184017,-1.227715 -1.523945,-0.307522 -3.558309,-0.86379 -4.520809,-1.236151 -1.19719,-0.463155 -1.75,-0.19571 -1.75,0.846636 0,1.921541 8.173689,4.89244 9.184017,3.338124 0.376209,-0.578771 0.498074,-1.353173 0.270809,-1.720894 z m 34.36322,0.573092 c 1.277293,-2.803352 0.835239,-2.972299 -3.668823,-1.402175 -3.293652,1.148174 -4.018525,2.384737 -1.899223,3.239894 2.756168,1.112138 4.483802,0.541937 5.568046,-1.837719 z M 115.20509,69.497441 c 7.30665,-2.089512 16.96335,-7.849787 18.74709,-11.182738 0.60017,-1.121429 0.92134,-2.208847 0.7137,-2.416485 -0.20764,-0.207637 -2.8316,0.275563 -5.83102,1.073778 -6.32326,1.682762 -25.21711,1.928428 -31.953504,0.415473 -4.829338,-1.084641 -8.230494,-2.475604 -17.200893,-7.034608 l -5.700894,-2.897351 1.405173,4.745762 c 1.060054,3.580172 2.888054,6.149988 7.442801,10.463142 9.240132,8.750018 18.695987,10.745602 32.377547,6.833027 z m 20.51043,-18.36861 c 4.10524,-2.155521 5.18365,-3.190252 4.68086,-4.49129 -0.35931,-0.929779 -1.56311,-4.390507 -2.67511,-7.690507 -1.11199,-3.3 -2.50128,-6.580932 -3.0873,-7.29096 -0.58602,-0.710028 -2.09435,-3.511651 -3.35184,-6.225828 -1.77226,-3.825223 -3.59216,-5.780989 -8.09357,-8.697772 -5.41017,-3.505636 -6.4119,-3.78781 -14.65173,-4.127198 -15.719024,-0.647446 -28.232116,5.484486 -33.155184,16.247411 -1.297109,2.835769 -3.290309,5.999329 -4.429335,7.030133 -2.529904,2.289533 -2.612448,3.778799 -0.320955,5.790771 2.425193,2.129363 15.471027,8.642355 24.25,12.10655 0.825,0.325546 9.150004,0.492355 18.500004,0.370687 16.47779,-0.214419 17.16385,-0.307249 22.33416,-3.021997 z"
     id="path3721" />
  <path
     style="fill:#4d4d4d;fill-opacity:1;stroke:#b3b3b3;stroke-width:0.31610069;stroke-miterlimit:4;stroke-opacity:1;stroke-dasharray:none"
     d="M 74.53125 48.25 C 74.206963 48.574288 76.465669 54.658619 77.53125 56.34375 C 78.898295 58.505624 84.76063 64.352142 87.28125 66.0625 C 91.02647 68.603804 95.06613 70.267589 98.96875 70.90625 C 101.58403 71.334239 107.53449 71.040946 111.125 70.28125 C 118.51944 68.7167 126.93374 64.711931 131.71875 60.5 C 133.16887 59.223555 134.83836 56.557107 134.4375 56.15625 C 134.31426 56.033012 132.47542 56.320719 130.34375 56.78125 C 124.0496 58.141059 121.11174 58.38553 111.125 58.375 C 96.649037 58.35974 93.796011 57.636376 79.71875 50.59375 C 76.961902 49.214544 74.61885 48.1624 74.53125 48.25 z M 125.71875 69.28125 C 125.24465 69.30191 124.21154 69.713212 122.15625 70.6875 C 117.71141 72.794524 114.58972 73.656404 109.6875 74.0625 C 103.99736 74.533865 96.084277 74.471489 94.03125 73.9375 C 92.515461 73.543244 92.23995 73.524196 91.78125 73.9375 C 90.055304 75.492637 82.312108 98.822203 79.71875 110.25 C 78.660728 114.91224 78.295049 116.99502 77.9375 120.375 C 77.450352 124.98011 75.045828 133.28927 72.65625 138.6875 C 71.117418 142.16384 66.684003 155.16135 66.375 157.09375 C 66.236375 157.96066 66.30303 158.45153 66.625 158.71875 C 68.538195 160.30656 89.31577 164.90391 103.0625 166.78125 C 109.23193 167.62379 129.15106 165.33421 139.5 162.59375 C 141.45696 162.07554 143.74782 161.54972 144.59375 161.4375 C 145.43969 161.32529 146.30821 161.1066 146.53125 160.96875 C 147.32313 160.47934 146.85255 158.68965 144.6875 153.9375 C 141.43565 146.79988 141.2367 146.27072 136.90625 131.90625 C 135.77939 128.16836 134.08566 122.84418 133.125 120.0625 C 130.44118 112.29125 127.46681 100.04778 126.59375 93.1875 C 126.3804 91.511025 126.2314 86.116439 126.25 80.0625 C 126.2673 74.4122 126.1739 69.596703 126.03125 69.375 C 125.98205 69.29854 125.87678 69.274364 125.71875 69.28125 z M 130.09375 80.65625 L 130.09375 82.5625 C 130.09375 85.212897 130.52754 85.905008 132.9375 87.3125 C 135.2567 88.666989 137.32715 90.746628 139.9375 94.28125 C 143.73145 99.418578 144.6867 101.90142 144.75 106.84375 C 144.792 110.12376 144.8294 110.23813 145.59375 110.625 C 146.58267 111.12551 146.60598 111.14162 147.3125 110.625 C 148.20327 109.97365 147.8247 105.73093 146.5625 101.96875 C 144.03268 94.428234 140.03317 88.796254 133.25 83.25 L 130.09375 80.65625 z M 83.75 81.15625 C 83.66035 81.15895 83.529188 81.17281 83.375 81.1875 C 82.734241 81.24852 80.539151 81.921173 78.9375 82.53125 C 69.345356 86.184946 63.839829 92.21631 62.90625 100.09375 C 62.741633 101.48277 62.81649 104.07727 63.0625 105.53125 C 63.66625 109.09958 65.047788 112.08865 66.5 113.03125 C 66.938478 113.31566 67.068374 113.35 67.625 113.3125 C 68.310865 113.2663 68.71875 113.02706 68.71875 112.65625 C 68.71875 112.36287 68.273664 111.52198 67.5 110.34375 C 67.137527 109.79174 66.751954 109.01101 66.625 108.625 C 65.694812 105.79674 65.662005 100.33203 66.5625 97.46875 C 67.470322 94.582176 71.800559 89.88158 75.75 87.5 C 77.20968 86.619789 78.220673 86.231275 80.03125 85.84375 C 83.005036 85.20726 83.748737 84.611787 84.09375 82.625 C 84.19805 82.024334 84.20972 81.711778 84.125 81.46875 C 84.03854 81.220744 84.018939 81.148213 83.75 81.15625 z M 59.09375 161.75 C 58.590824 161.87622 58.071947 162.4238 57.625 163.34375 C 56.96777 164.69653 56.985805 164.77229 57.53125 165.375 C 59.683023 167.75268 73.972561 172.37976 84.84375 174.21875 C 90.140117 175.11469 102.1595 176.4978 107 176.75 C 112.4656 177.03476 117.183 176.88005 124.5 176.15625 C 131.72784 175.44126 135.39086 174.6996 140.6875 172.9375 C 148.08807 170.47545 152.6975 167.36527 152.46875 165 L 152.375 164 L 150.46875 164.03125 C 149.31178 164.05525 146.49684 164.64174 143.21875 165.53125 C 130.33811 169.02639 119.01411 170.39638 105.75 170.0625 C 95.019041 169.79238 83.791578 167.82916 65.96875 163.15625 C 62.251042 162.18151 59.560477 161.63286 59.09375 161.75 z M 54.15625 169.59375 C 52.867702 169.52225 51.817059 169.90203 50.125 170.6875 L 48.0625 171.65625 L 49 172.03125 C 51.171491 172.90137 63.572877 176.49745 67.96875 177.53125 C 76.639841 179.57047 86.21196 181.00493 94.53125 181.53125 C 99.719547 181.85949 123.59663 181.64821 130.09375 181.21875 C 136.47663 180.79685 138.36446 180.50205 144.5625 178.8125 C 154.87721 176.00078 164.99125 172.367 164.3125 171.71875 C 163.88735 171.31269 158.14069 169.84399 156.96875 169.84375 C 156.18783 169.8436 154.89276 170.3828 152.59375 171.71875 C 146.71179 175.13677 141.2656 177.14033 133.5625 178.6875 C 126.97333 180.01094 123.3735 180.3175 114.53125 180.3125 C 94.37957 180.3002 74.095737 176.94036 59.5625 171.21875 C 56.961975 170.19495 55.444798 169.66529 54.15625 169.59375 z M 44.1875 174.15625 C 44.12317 174.15225 44.078599 174.1714 44.0625 174.1875 C 43.270168 174.97983 40.927962 186.54148 41.34375 187.625 C 41.455227 187.91551 42.022882 188.46444 42.59375 188.8125 C 45.323467 190.47684 60.661379 194.77785 75.25 197.96875 C 79.187461 198.82997 83.984298 199.45653 88.375 199.6875 C 89.50506 199.7469 99.252212 199.7347 110.03125 199.6875 C 130.48351 199.5979 139.61709 199.16466 143.78125 198.09375 C 146.57108 197.37627 158.71887 193.76382 162.6875 192.46875 C 169.07953 190.38285 169.81486 189.61756 169.5 185.46875 C 169.36301 183.66375 168.06516 176.8226 167.5625 175.3125 C 167.4788 175.06105 166.15944 175.52735 163.71875 176.6875 C 152.06303 182.22787 134.51555 185.43922 113.8125 185.84375 C 100.14993 186.11071 85.04296 184.99797 75.90625 183.0625 C 66.07564 180.98004 53.807035 177.61631 47.96875 175.375 C 46.201811 174.69667 44.637804 174.1818 44.1875 174.15625 z "
     id="path3725" />
</svg>
