<?xml version="1.0" encoding="UTF-8" standalone="no"?>
<!-- Created with Inkscape (http://www.inkscape.org/) -->

<svg
   xmlns:dc="http://purl.org/dc/elements/1.1/"
   xmlns:cc="http://creativecommons.org/ns#"
   xmlns:rdf="http://www.w3.org/1999/02/22-rdf-syntax-ns#"
   xmlns:svg="http://www.w3.org/2000/svg"
   xmlns="http://www.w3.org/2000/svg"
   xmlns:sodipodi="http://sodipodi.sourceforge.net/DTD/sodipodi-0.dtd"
   xmlns:inkscape="http://www.inkscape.org/namespaces/inkscape"
   id="svg3572"
   version="1.1"
   inkscape:version="0.47 r22583"
   width="230"
   height="230"
   sodipodi:docname="front.svg">
  <metadata
     id="metadata3578">
    <rdf:RDF>
      <cc:Work
         rdf:about="">
        <dc:format>image/svg+xml</dc:format>
        <dc:type
           rdf:resource="http://purl.org/dc/dcmitype/StillImage" />
        <dc:title />
      </cc:Work>
    </rdf:RDF>
  </metadata>
  <defs
     id="defs3576">
    <inkscape:perspective
       sodipodi:type="inkscape:persp3d"
       inkscape:vp_x="0 : 0.5 : 1"
       inkscape:vp_y="0 : 1000 : 0"
       inkscape:vp_z="1 : 0.5 : 1"
       inkscape:persp3d-origin="0.5 : 0.33333333 : 1"
       id="perspective3580" />
  </defs>
  <sodipodi:namedview
     pagecolor="#ffffff"
     bordercolor="#666666"
     borderopacity="1"
     objecttolerance="10"
     gridtolerance="10"
     guidetolerance="10"
     inkscape:pageopacity="0"
     inkscape:pageshadow="2"
     inkscape:window-width="1280"
     inkscape:window-height="999"
     id="namedview3574"
     showgrid="false"
     inkscape:zoom="1.4574428"
     inkscape:cx="122.67735"
     inkscape:cy="217.9397"
     inkscape:window-x="1280"
     inkscape:window-y="0"
     inkscape:window-maximized="1"
     inkscape:current-layer="svg3572" />
  <path
     style="fill:#4d4d4d;fill-opacity:1;stroke:#b3b3b3;stroke-width:0.24258475;stroke-miterlimit:4;stroke-opacity:1;stroke-dasharray:none"
     d="m 108.59269,12.246822 c -7.85198,0.02189 -11.996049,0.680171 -16.437499,2.5625 -11.118262,4.712024 -16.880114,11.330876 -19.21875,22.125 -1.135211,5.239641 -1.688032,15.300933 -1,17.875 0.160483,0.600397 1.01387,2.592813 1.90625,4.4375 1.527406,3.157386 1.652713,3.322889 2,2.875 0.202901,-0.261678 0.953681,-1.26293 1.6875,-2.21875 1.759466,-2.291754 7.543621,-7.348259 9.65625,-8.46875 0.9009,-0.477817 2.871902,-1.694947 4.40625,-2.6875 12.532889,-8.107388 35.204389,-15.591347 48.999999,-16.15625 1.80119,-0.07375 4.08554,-0.17576 5.0625,-0.25 l 1.78125,-0.125 -1.03125,-0.90625 c -0.57394,-0.488043 -3.03314,-2.692118 -5.4375,-4.90625 -8.54349,-7.867561 -13.91075,-11.207053 -20.96875,-12.96875 -4.04108,-1.008665 -5.92966,-1.20277 -11.40625,-1.1875 z m 40.65625,23.6875 c -0.33518,0.02692 -0.61981,0.09474 -0.84375,0.1875 -1.04661,0.433518 -1.13248,0.911627 -0.21875,1.46875 0.43084,0.26269 0.97069,0.468251 1.1875,0.46875 0.9037,0.0021 1.9153,-0.323856 2.40625,-0.78125 0.46824,-0.436233 0.4849,-0.515096 0.15625,-0.84375 -0.36903,-0.369032 -1.68197,-0.580754 -2.6875,-0.5 z m -9.96875,0.34375 c -7.09349,0.08487 -25.66809,5.605066 -38.4375,11.4375 -9.532877,4.354147 -19.734678,11.767727 -21.562499,15.65625 -0.943637,2.0075 -0.58466,4.367652 1.15625,7.625 2.568429,4.805687 8.991288,11.032168 15.28125,14.8125 4.294269,2.5809 6.958799,3.686871 10.062499,4.1875 1.84703,0.297926 10.62421,0.05357 13.34375,-0.375 7.14775,-1.126406 9.87904,-2.426971 15.625,-7.46875 2.55426,-2.241219 5.84532,-5.825673 7.875,-8.59375 4.13519,-5.639566 7.19196,-17.848166 6.25,-24.90625 -0.35507,-2.660501 -0.88119,-4.050762 -2.1875,-5.875 -0.55704,-0.777911 -1.1725,-1.990932 -1.375,-2.6875 -0.46167,-1.588091 -1.02964,-2.341523 -2.46875,-3.1875 -1.04609,-0.614951 -1.32576,-0.65176 -3.5625,-0.625 z m -1.78125,6.40625 c 0.57784,-0.0029 1.09036,0.07489 1.46875,0.21875 1.44656,0.549983 3.34375,3.79748 3.34375,5.71875 0,0.891556 -1.71057,2.531313 -3.5,3.375 -1.48873,0.701912 -2.56175,0.858671 -4,0.59375 -4.0699,-0.749663 -5.93965,-6.294757 -2.8125,-8.34375 1.40508,-0.920641 3.76648,-1.55382 5.5,-1.5625 z m -2,3.40625 c -0.29841,0.04168 -0.57849,0.175425 -0.71875,0.4375 -0.41947,0.783784 -0.2842,1.715798 0.34375,2.34375 0.32749,0.327489 0.78774,0.59375 1,0.59375 0.59194,0 1.5625,-1.108991 1.5625,-1.78125 0,-0.950943 -1.29228,-1.718777 -2.1875,-1.59375 z m -31.65625,4.25 c 3.0574,-0.01685 5.70567,2.688971 5.71875,5.875 0.009,2.1702 -1.36688,4.187507 -3.5,5.15625 -1.90385,0.864618 -3.91698,0.46685 -5.6875,-1.125 -1.807741,-1.625315 -2.707423,-3.873947 -2.343749,-5.8125 0.373212,-1.989389 3.325549,-4.08004 5.812499,-4.09375 z m -0.125,3.75 c -1.04452,0 -2.14895,0.921319 -2.15625,1.8125 -0.006,0.739604 0.33117,1.100135 1.3125,1.4375 0.84167,0.289354 2.83746,0.162541 3.1875,-0.1875 0.61093,-0.610933 -1.26699,-3.0625 -2.34375,-3.0625 z m 23.3125,10.78125 c 3.16274,-0.0092 3.31309,0.01592 4.71875,0.71875 2.209,1.104496 2.5625,1.771365 2.5625,5 0,5.090306 -0.91375,9.636658 -2.125,10.71875 -1.29428,1.156271 -1.93477,1.246678 -10.75,1.4375 -4.60304,0.09964 -8.81006,0.267164 -9.34375,0.40625 -0.53369,0.139084 -1.43099,0.27805 -2,0.28125 -0.90965,0.0051 -1.07734,-0.08804 -1.5,-0.78125 -1.0517,-1.724914 -0.35508,-4.695898 1.96875,-8.21875 1.48274,-2.247793 3.38385,-4.267187 5.5,-5.875 2.07551,-1.57693 2.87516,-2.013045 5.375,-2.875 2.14263,-0.738785 2.53959,-0.8036 5.59375,-0.8125 z m 0.125,3.4375 c -2.82979,-2.67e-4 -6.63541,1.530474 -10.34375,4.25 -1.89719,1.391314 -3.1557,2.713818 -3.84375,4.0625 -0.66158,1.296814 -0.64132,1.667843 0.15625,1.84375 0.36691,0.08092 0.77283,0.19475 0.90625,0.25 0.5126,0.212262 11.97831,-0.140225 13.21875,-0.40625 0.73089,-0.156748 1.53897,-0.50772 1.84375,-0.8125 0.66554,-0.665536 2.0625,-4.862855 2.0625,-6.21875 0,-1.32148 -0.31826,-1.809362 -1.53125,-2.4375 -0.67781,-0.351001 -1.52549,-0.531161 -2.46875,-0.53125 z m 7.5,19.8125 c -0.185,-0.07099 -1.735,0.510034 -3.4375,1.3125 -3.75365,1.769263 -6.50567,2.775215 -9.5625,3.4375 -6.04519,1.309771 -14.06068,1.283333 -18.53125,-0.03125 -0.93183,-0.274008 -3.483925,-1.218878 -5.687499,-2.125 -2.203573,-0.906121 -4.65869,-1.852707 -5.4375,-2.09375 l -1.40625,-0.4375 -0.46875,0.59375 c -0.775035,0.991841 -4.190779,7.98236 -5,10.21875 -1.40111,3.872158 -2.313069,9.105108 -3.59375,20.999998 -0.714617,6.63732 -0.730032,7.34375 -0.25,7.34375 0.19209,0 2.279974,0.14691 4.65625,0.34375 2.376276,0.19684 12.349762,0.92176 22.156249,1.59375 9.80649,0.67199 20.74558,1.40806 24.28125,1.65625 8.6191,0.60503 9.03787,0.61412 9.5,0.0937 0.33378,-0.37587 0.34493,-0.69591 0.0625,-2.84375 -0.82798,-6.29658 -3.66048,-20.73249 -5.09375,-25.9375 -0.98221,-3.566938 -1.50719,-6.939338 -1.71875,-11.124998 -0.10707,-2.118193 -0.22028,-2.90466 -0.46875,-3 z M 78.686441,101.80932 c -0.296817,0.0252 -0.648371,0.0811 -1.0625,0.1875 -4.256115,1.09337 -10.83597,5.67794 -14.90625,10.375 -5.635585,6.50341 -8.78415,13.83685 -9.125,21.28125 -0.166186,3.62965 0.160432,6.05893 1.15625,9.03125 1.203142,3.59113 3.379415,6.79583 6.375,9.375 0.641867,0.55264 1.22055,1.002 1.3125,1 0.654945,-0.0146 2.25,-2.28774 2.25,-3.21875 0,-1.16197 -1.33691,-3.0547 -4.625,-6.625 -1.021275,-1.10893 -1.725744,-2.13767 -2,-2.90625 -1.275326,-3.57399 -0.888063,-9.30979 0.90625,-13.875 1.408139,-3.58268 6.899458,-11.32182 10.21875,-14.375 0.652727,-0.6004 2.609269,-1.8473 4.34375,-2.78125 4.325982,-2.32938 6.4375,-4.46401 6.4375,-6.53125 0,-0.70728 -0.390799,-1.01297 -1.28125,-0.9375 z m 63.562499,3.9375 c 0.009,1.25843 2.03659,12.72635 2.34375,13.25 0.22382,0.38155 0.53499,0.14197 1.25,-0.9375 0.85274,-1.28741 1.12885,-2.64326 1.09375,-5.21875 -0.0433,-3.17568 -0.78494,-4.60725 -3.25,-6.28125 -0.79431,-0.5394 -1.43825,-0.91753 -1.4375,-0.8125 z m -101.687499,20.875 c -2.411784,0 -4.420889,1.6118 -5.15625,4.125 -0.214346,0.73255 -0.728451,2.12307 -1.15625,3.125 -0.935535,2.19105 -1.258542,3.52048 -1.59375,6.5625 -0.300198,2.7243 -0.156666,5.12468 0.65625,11.03125 1.115451,8.10477 3.077884,16.24416 4.46875,18.53125 0.257819,0.42395 0.700645,0.87657 1,1 0.589805,0.24318 1.263749,0.18188 4.8125,-0.40625 l 2.3125,-0.375 -0.1875,-1.3125 c -0.112552,-0.71773 -0.372868,-2.03602 -0.5625,-2.9375 -1.064324,-5.05962 -1.658064,-14.80073 -1.3125,-21.21875 0.244888,-4.54822 0.855533,-7.04469 3.03125,-12.4375 0.861754,-2.13597 1.5625,-4.02449 1.5625,-4.1875 0,-0.33639 -0.07851,-0.36061 -3.875,-1.03125 -1.52962,-0.27021 -3.336932,-0.46875 -4,-0.46875 z m 22.53125,3.25 c -0.782834,0.002 -1.016104,0.10985 -1.25,0.34375 -0.376078,0.37608 -0.524734,1.90906 -0.25,2.625 0.11864,0.30917 0.312905,0.29127 1.28125,-0.15625 1.082092,-0.50005 1.378711,-0.51764 6.46875,-0.40625 8.336577,0.18242 11.10875,0.11551 11.71875,-0.21875 1.456774,-0.79826 0.0027,-1.15548 -5.40625,-1.34375 -2.268167,-0.0789 -5.865255,-0.30032 -8,-0.5 -2.439474,-0.22818 -3.779666,-0.34542 -4.5625,-0.34375 z m 31.5,2 c -0.473776,-0.001 -0.934739,0.0137 -1.375,0.0313 -0.587015,0.0233 -1.116923,0.0674 -1.53125,0.125 -0.973219,0.13536 -0.739356,0.2369 0.8125,0.3125 1.926414,0.0939 5.344081,0.0137 5.71875,-0.125 0.139918,-0.0518 0.147557,-0.0556 -0.03125,-0.0937 -0.716098,-0.15358 -2.172423,-0.2463 -3.59375,-0.25 z m 11.593749,1.125 c -0.47115,0.008 -0.85621,0.0351 -1.15625,0.0625 l -1.75,0.15625 0.53125,0.71875 c 0.44354,0.60022 0.5425,1.0462 0.53125,2.59375 -0.0166,2.27989 -0.68343,3.9323 -1.78125,4.5 -1.23402,0.63814 -4.909014,0.92262 -9.874999,0.75 -3.313678,-0.11519 -4.789287,-0.0811 -5.3125,0.125 l -0.75,0.28125 1.375,1.25 c 1.709281,1.5975 2.939201,2.01386 7.375,2.46875 6.534639,0.67014 8.046589,1.11947 9.218749,2.65625 0.6676,0.87527 0.673,0.90311 0.53125,3.40625 l -0.15625,2.53125 12.59375,0 12.625,0 0,-1.625 c 0.007,-2.11804 0.29474,-3.3763 0.96875,-4.09375 0.29803,-0.31724 1.7929,-1.16169 3.3125,-1.90625 3.67614,-1.8012 4.63257,-2.75061 5.5625,-5.46875 1.25823,-3.67772 3.49835,-5.21037 6.96875,-4.75 1.66029,0.22024 2.32066,0.62417 3.65625,2.1875 1.13491,1.32842 1.30028,1.41129 3.625,1.9375 0.38397,0.0869 1.35938,0.80214 2.15625,1.5625 l 1.4375,1.375 2.21875,0.125 c 1.80152,0.10272 2.39931,0.23753 3.03125,0.6875 1.10196,0.78467 1.9678,2.40017 2.125,3.9375 0.22743,2.22414 0.4546,2.58051 1.875,2.875 0.76145,0.15787 3.92209,0.2271 8.0625,0.1875 l 6.78125,-0.0625 0.28125,-2.90625 c 0.15729,-1.60106 0.37255,-4.60593 0.46875,-6.6875 l 0.1875,-3.78125 -2.28125,-0.28125 c -3.2235,-0.39174 -6.75472,-0.66004 -19.875,-1.5 -6.33753,-0.40573 -18.6401,-1.21634 -27.3125,-1.8125 -16.20782,-1.11416 -23.95192,-1.55694 -27.25,-1.5 z m -20.999999,1.84375 c -0.101905,0.0129 -0.161797,0.045 -0.25,0.0937 -0.5802,0.32112 -0.582602,1.07622 0,1.78125 0.241009,0.29166 0.858144,0.70256 1.25,0.84375 0.411135,0.14815 1.157455,0.11522 1.5,-0.0625 0.292546,-0.15179 0.50151,-0.35035 0.59375,-0.59375 0.298032,-0.78643 -1.248939,-1.9773 -2.65625,-2.0625 -0.201607,-0.0122 -0.335595,-0.0129 -0.4375,0 z m -18.0625,0.84375 c -1.922931,0.0205 -2.397,0.16146 -2.4375,0.5 -0.01845,0.15424 0.206191,0.55325 0.375,0.6875 0.382611,0.30427 2.428782,0.5901 4.71875,0.6875 0.216811,0.009 1.159329,0.0251 2.09375,0.0313 4.017118,0.0276 8.033781,-0.30761 8.375,-0.71875 0.05645,-0.068 0.02163,-0.12235 -0.1875,-0.21875 -1.192698,-0.54989 -4.866265,-0.89425 -10.5,-0.96875 -1.005819,-0.0133 -1.796523,-0.007 -2.4375,0 z m 27.3125,0.375 c -0.916099,-0.002 -1.774855,0.0516 -2.09375,0.125 -0.84398,0.19418 -1.018976,0.33137 -0.90625,0.75 0.232722,0.86426 1.576886,1.38045 4.3125,1.59375 0.466976,0.0364 1.076907,0.0535 1.34375,0.0625 0.266844,0.009 0.654695,0.0241 0.875,0.0313 0.606009,0.0185 1.936345,-0.0806 2.312499,-0.1875 0.62593,-0.17789 0.8868,-0.44098 0.8125,-0.8125 -0.0696,-0.34774 -0.40948,-0.5793 -1.218749,-0.84375 -0.704062,-0.23013 -1.823377,-0.45671 -2.9375,-0.59375 -0.609089,-0.0751 -1.583901,-0.12343 -2.5,-0.125 z m -45.21875,1.34375 c -0.05418,0.0253 -0.117108,0.0856 -0.1875,0.15625 -1.066567,1.07045 -2.032582,11.7732 -1.40625,15.5625 0.0827,0.50033 0.22063,0.90625 0.3125,0.90625 0.09187,0 0.740896,-0.41777 1.4375,-0.9375 1.281036,-0.95578 2.021847,-1.32513 3.25,-1.59375 0.801492,-0.17531 1.228754,-1.11474 1,-2.15625 -0.08574,-0.39037 -0.646915,-1.80197 -1.25,-3.15625 -1.424764,-3.19945 -1.905865,-4.633 -2.125,-6.25 -0.09843,-0.72629 -0.334757,-1.61651 -0.53125,-2 -0.227119,-0.44327 -0.337475,-0.60717 -0.5,-0.53125 z m 12.6875,2 c -0.418392,0.0288 -0.444167,0.41819 -0.0625,1.15625 0.512087,0.99027 3.089754,3.72199 4.09375,4.34375 1.305605,0.80855 1.74081,0.63579 4.25,-1.84375 l 2.3125,-2.28125 -2.84375,0 c -3.08172,-0.003 -4.753232,-0.29553 -6.5625,-1.0625 -0.54789,-0.23226 -0.936465,-0.32976 -1.1875,-0.3125 z m 83.968749,0.625 c -0.9748,0 -2.11686,1.07554 -2.3125,2.15625 -0.23174,1.28011 -0.79354,2.2943 -2.15625,3.875 -1.79817,2.08583 -3.98769,3.91139 -5.375,4.53125 -1.24954,0.55831 -1.52425,0.98433 -1.53125,2.25 -0.002,0.30897 0.0806,0.77317 0.21875,1.03125 0.50782,0.94887 1.89678,0.61742 4.75,-1.1875 5.88882,-3.7252 10.06155,-10.3134 7.71875,-12.15625 -0.35155,-0.27652 -0.94047,-0.5 -1.3125,-0.5 z m 52.03125,0.96875 c -3.61689,0 -9.05849,0.39643 -9.90625,0.71875 -0.83356,0.31692 -1.375,0.94126 -1.375,1.59375 0,0.73164 0.26978,0.86074 1.9375,1.09375 0.74817,0.10451 3.82435,0.18785 6.84375,0.15625 6.38099,-0.0669 6.75,-0.1728 6.75,-1.84375 0,-1.5132 -0.46846,-1.71875 -4.25,-1.71875 z m -118.031249,1.15625 c -1.042155,-0.004 -2.175607,0.14971 -3.1875,0.53125 -2.98063,1.12386 -6.115645,4.42562 -8.1875,8.625 -1.50883,3.0582 -2.165434,5.4471 -2.34375,8.40625 -0.144151,2.39219 0.115911,4.24947 0.8125,5.625 l 0.34375,0.6875 0.375,-0.5 c 0.199503,-0.28483 0.887501,-1.8693 1.53125,-3.5 2.220869,-5.62572 4.294756,-8.51981 10.65625,-14.84375 2.181671,-2.1688 3.1875,-3.31359 3.1875,-3.6875 0,-0.84745 -1.450575,-1.33773 -3.1875,-1.34375 z m 72.937499,1.75 c -0.64471,0 -1.00998,0.43102 -1.78125,1.96875 -0.61982,1.23576 -2.51815,3.48036 -6.5625,7.75 l -2.75,2.90625 2.0625,0 c 4.1163,0 6.07411,-0.80252 7.625,-3.125 1.42009,-2.1266 2.25664,-4.4414 2.40625,-6.59375 0.14548,-2.09284 -0.13251,-2.90625 -1,-2.90625 z m -67.406249,3.40625 c -1.626455,0 -6.564597,4.92289 -9.90625,9.875 -1.888565,2.79873 -2.67164,4.65972 -2.6875,6.34375 -0.02732,2.90047 1.603429,4.27934 5.875,4.90625 1.806207,0.26509 7.543942,0.0419 9.875,-0.375 4.198498,-0.75086 5.421788,-2.09991 2.53125,-2.78125 -0.627144,-0.14783 -2.865254,-0.37614 -5,-0.5 -5.318759,-0.3086 -7.906704,-1.06068 -8.5625,-2.5 -0.350744,-0.7698 0.20292,-1.73017 1.15625,-2.0625 0.745101,-0.25975 1.66814,-0.0875 4.71875,0.84375 0.667108,0.20365 2.523941,0.4263 4.125,0.5 4.12396,0.18993 7.818266,-0.56826 9.125,-1.875 1.096578,-1.09658 0.503149,-1.33508 -4.71875,-1.9375 -4.792883,-0.55293 -7.186725,-1.17478 -7.71875,-2 -0.890271,-1.38089 -0.57302,-2.375 0.78125,-2.375 0.387836,0 2.108476,0.22056 3.8125,0.5 3.645679,0.59783 8.071674,0.54364 10.1875,-0.125 1.666399,-0.52662 2.968749,-1.64248 2.968749,-2.5625 0,-0.37857 -0.11666,-0.77328 -0.28125,-0.875 -0.16459,-0.10172 -2.331941,-0.30544 -4.812499,-0.46875 -4.809594,-0.31665 -6.670369,-0.68409 -9.25,-1.8125 -0.889604,-0.38914 -1.888881,-0.71875 -2.21875,-0.71875 z m 74.656249,0 c -1.16128,0 -2.3232,1.18656 -2.90625,2.96875 -0.77895,2.38099 -1.43321,3.45146 -4.5625,7.34375 -1.37732,1.71316 -2.02789,3.01351 -1.78125,3.65625 0.52987,1.38084 4.80762,-1.2737 7.25,-4.5 2.4794,-3.27522 3.88993,-7.08115 3.21875,-8.6875 -0.28866,-0.69087 -0.43927,-0.78125 -1.21875,-0.78125 z m -25.96875,10.3125 c -2.36763,0 -3.03629,0.35995 -3.90625,2.0625 -1.48751,2.9111 0.0166,6.55938 4.6875,11.3125 1.48485,1.51099 2.83533,3.07118 3,3.46875 0.64327,1.55299 -0.31081,2.84684 -3.5,4.75 -1.86322,1.11187 -9.21854,4.72807 -14.71875,7.21875 l -1.375,0.625 -2.59375,-2.4375 c -7.58185,-7.14068 -10.79452,-14.12272 -10.8125,-23.5 -0.005,-2.88372 -0.14925,-3.1741 -1.875,-3.1875 -1.58311,-0.0123 -2.28971,0.43284 -2.65625,1.65625 -0.1546,0.51601 -0.838813,1.57066 -1.499999,2.3125 -1.565747,1.75672 -2.201379,3.00527 -2.375,4.6875 -0.449058,4.35095 -4.7702,5.71675 -18.25,5.71875 l -4.9375,0 0.15625,2.78125 c 0.175409,3.07119 0.44291,3.89928 1.59375,4.71875 1.374337,0.97861 7.659158,3.85142 10.8125,4.9375 3.906149,1.34536 12.144505,3.33597 14.906249,3.59375 2.71867,0.25377 28.29427,0.0367 33.71875,-0.28125 2.33487,-0.13685 4.97651,-0.36258 5.84375,-0.5 2.35128,-0.3726 5.62434,-1.5391 7.34375,-2.625 0.83761,-0.52901 2.80731,-1.47174 4.40625,-2.09375 3.40906,-1.32617 4.75,-2.01364 4.75,-2.46875 0,-1.62622 -2.4738,-9.85629 -3.65625,-12.1875 -0.83307,-1.64242 -1.61981,-2.40014 -3.5,-3.34375 -1.6739,-0.84008 -2.62534,-1.76029 -3.15625,-3.03125 -0.20518,-0.49121 -0.48663,-0.94575 -0.625,-1.03125 -0.13836,-0.0855 -1.08659,-0.19115 -2.125,-0.21875 -1.78026,-0.0473 -2.04642,-0.13431 -4.75,-1.5 -2.8165,-1.42276 -2.92866,-1.4375 -4.90625,-1.4375 z m -23.40625,0.28125 c -1.85444,0.0426 -2.15625,0.30267 -2.15625,1.8125 0,5.55032 1.82979,12.35053 4.53125,16.71875 1.39238,2.25145 3.95499,4.92875 5.40625,5.6875 1.23277,0.64451 1.37833,0.70425 1.5625,0.40625 0.15027,-0.24313 -0.56679,-1.27875 -3.3125,-4.75 -2.31773,-2.93018 -3.02914,-4.27025 -3.21875,-6 -0.0777,-0.70924 -0.24779,-3.95206 -0.34375,-7.1875 -0.20486,-6.90714 -0.13881,-6.7411 -2.46875,-6.6875 z m 6.59375,0.0937 c -0.36973,0 -0.55129,1.0152 -0.6875,4.125 -0.24694,5.63766 0.631,10.74014 2.28125,13.40625 1.2368,1.99816 2.94544,3.43434 4.53125,3.8125 1.0836,0.2584 1.61409,0.24892 2.5625,-0.0937 1.78709,-0.6458 1.508,-1.36937 -1.53125,-3.96875 -4.07473,-3.485 -5.81506,-7.2022 -6.21875,-13.3125 -0.18263,-2.76435 -0.45858,-3.96875 -0.9375,-3.96875 z m 6,0.0313 c -0.77523,0.0575 -1.41194,1.32148 -1.65625,3.5 -0.42971,3.83179 0.59592,6.69441 3.46875,9.71875 1.80501,1.90021 3.81618,3.45587 5.84375,4.53125 1.53222,0.81266 2.27077,0.82003 2.46875,0.0313 0.18329,-0.73027 -0.28347,-1.42913 -2.84375,-4.21875 -2.24583,-2.44701 -3.2799,-4.40579 -4.3125,-8.21875 -0.80012,-2.95447 -1.37715,-4.26417 -2.15625,-4.96875 -0.28508,-0.25782 -0.55409,-0.39415 -0.8125,-0.375 z m 39.5,19.96875 c -0.19018,0.073 -0.5675,0.68722 -0.875,1.34375 -0.723,1.54364 -1.58989,2.38157 -4,3.96875 -5.63008,3.7077 -13.61673,6.96086 -19.96875,8.125 -5.40241,0.99011 -7.57756,1.132 -18.875,1.125 -14.53359,-0.009 -21.951573,-0.67202 -29.281249,-2.5625 -4.65967,-1.20183 -6.753856,-1.97002 -16,-6 -5.998437,-2.61446 -9.31202,-2.69972 -9.21875,-0.21875 0.09569,2.54528 2.469464,4.86177 7.40625,7.21875 5.922789,2.82774 12.16699,4.62479 22.90625,6.625 10.028479,1.86783 11.260099,2.05892 15.843749,2.46875 2.35379,0.2105 6.36228,0.27595 12.125,0.21875 9.28789,-0.0922 12.03773,-0.33371 16.40625,-1.46875 5.89794,-1.53241 16.9737,-6.45791 22.65625,-10.09375 5.77476,-3.69484 6.89017,-8.42826 2.4375,-10.34375 -0.65837,-0.28326 -1.37232,-0.47925 -1.5625,-0.40625 z M 60.998941,189.27807 c -2.152197,0.0224 -5.167896,0.74672 -6.625,1.75 -1.332244,0.91731 -0.624657,2.33415 2.0625,4.03125 3.555929,2.24577 11.710209,5.90229 15.09375,6.78125 6.475863,1.68227 21.112022,3.9504 27.40625,4.25 6.916669,0.32922 28.459939,-0.54462 32.874999,-1.34375 l 1.5625,-0.28125 -1.4375,-0.1875 c -0.80053,-0.0894 -3.41091,-0.1726 -5.8125,-0.1875 -8.60925,-0.0532 -19.39935,-0.7303 -24.875,-1.59375 -5.245501,-0.82716 -16.733311,-3.05081 -18.312499,-3.53125 -6.982637,-2.12431 -14.504496,-5.50575 -18.0625,-8.125 -0.830564,-0.61143 -1.792812,-1.21745 -2.125,-1.34375 -0.437755,-0.16643 -1.032601,-0.22622 -1.75,-0.21875 z m 110.218749,0.6875 c -3.94853,-2e-4 -5.27257,0.29368 -7.4375,1.71875 -3.72077,2.4492 -12.86597,7.0346 -18.875,9.46875 -1.40093,0.5675 -2.60065,1.0732 -2.65625,1.125 -0.21941,0.20439 0.54693,0.0529 5.21875,-1.09375 9.87567,-2.42393 19.62873,-5.35214 23.84375,-7.15625 2.77376,-1.18721 4.90625,-2.60775 4.90625,-3.28125 0,-0.45618 -2.11301,-0.7811 -5,-0.78125 z m 7.25,3.90625 c -0.0667,0 -0.80039,0.50532 -1.625,1.09375 -1.8799,1.34147 -4.98473,2.70828 -9.96875,4.40625 -7.38019,2.5143 -21.27555,6.33182 -28.5625,7.84375 -15.41338,3.19805 -39.882463,3.51641 -55.749999,0.71875 -13.369296,-2.35718 -29.177281,-8.6282 -31.53125,-12.5 -0.706154,-1.16148 -0.976988,-1.35625 -1.40625,-1 -0.914665,0.75911 -4.1875,10.39223 -4.1875,12.34375 0,0.71546 2.348981,2.91173 4.90625,4.59375 3.002451,1.97484 4.441781,2.69225 7.78125,3.84375 1.529477,0.52739 3.473046,1.29499 4.3125,1.71875 2.519036,1.2716 10.313403,3.12715 17.21875,4.09375 5.698854,0.79773 5.923077,0.82103 11.875,1 8.663809,0.26006 10.295269,0.25366 20.374999,0 14.56174,-0.36645 16.92388,-0.5912 28.15625,-2.5625 4.06936,-0.71418 9.46499,-1.62078 12,-2.03125 6.5843,-1.06614 8.05978,-1.39428 11.9375,-2.59375 5.79014,-1.79104 9.74576,-3.46334 13.71875,-5.84375 2.21379,-1.3264 2.5915,-1.64963 2.5,-2.09375 -0.0593,-0.28761 -0.169,-1.2848 -0.25,-2.21875 -0.49145,-5.66551 -1.21014,-10.8125 -1.5,-10.8125 z m -40.34375,9.03125 c -0.0973,0.013 -0.16589,0.0549 -0.25,0.0937 -0.11004,0.0509 -0.24075,0.1257 -0.28125,0.1875 -0.0692,0.10627 -0.04,0.14015 0.0313,0.21875 0.0964,0.10649 0.29456,0.1449 0.65625,0.1875 0.54049,0.0636 1.42033,0.009 1.625,-0.125 l 0.0937,-0.0937 -0.125,-0.125 c -0.0752,-0.0672 -0.30057,-0.15285 -0.5,-0.21875 -0.29746,-0.0983 -0.41831,-0.123 -0.8125,-0.125 -0.19831,-0.001 -0.34016,-0.013 -0.4375,0 z"
     id="path3586" />
  <path
     style="fill:#782121;stroke:#000000;stroke-width:1px;stroke-linecap:butt;stroke-linejoin:miter;stroke-opacity:1;fill-opacity:1"
     d="m 75.646193,66.357216 c 0,0 -6.518266,-11.321199 -6.518266,-12.350399 0,-1.0292 4.631399,-26.759197 4.631399,-26.759197 L 87.825058,14.211088 109.78132,8.8935551 127.62079,14.039555 c 0,0 13.72266,10.463532 14.4088,10.978132 0.68613,0.5146 14.06573,9.434332 14.06573,9.434332 0,0 -16.9818,0.5146 -17.66793,0.5146 -0.68614,0 -24.52927,6.003666 -24.52927,6.003666 l -21.270129,9.091266 -7.718999,5.489066"
     id="path3596" />
  <path
     style="fill:#782121;stroke:#000000;stroke-width:1px;stroke-linecap:butt;stroke-linejoin:miter;stroke-opacity:1;fill-opacity:1"
     d="m 50.773862,125.53621 c -0.171534,0.68613 0.5146,10.292 0.5146,10.292 l 5.317532,16.29566 -9.262799,4.80294 0.686134,14.58033 c 0,0 -11.321199,2.40147 -11.492733,1.37227 -0.171533,-1.0292 -4.288333,-14.9234 -4.459866,-15.60954 -0.171533,-0.68613 -1.715333,-19.04019 -1.715333,-19.04019 l 7.718999,-13.8942"
     id="path3598" />
  <path
     style="fill:#782121;stroke:#000000;stroke-width:1px;stroke-linecap:butt;stroke-linejoin:miter;stroke-opacity:1;fill-opacity:1"
     d="m 60.894327,127.25154 c -0.171533,0.68614 -1.0292,8.06207 -1.0292,8.06207 l 2.916067,0 4.974466,-1.71533 34.4782,0.85766 -1.20074,-3.6022 -34.992793,-2.91606"
     id="path3600" />
  <path
     style="fill:#782121;stroke:#000000;stroke-width:1px;stroke-linecap:butt;stroke-linejoin:miter;stroke-opacity:1;fill-opacity:1"
     d="m 74.616993,140.11654 -7.2044,7.719 -7.890532,-10.12046 9.262799,1.88686"
     id="path3602" />
  <path
     style="fill:#782121;stroke:#000000;stroke-width:1px;stroke-linecap:butt;stroke-linejoin:miter;stroke-opacity:1;fill-opacity:1"
     d="m 84.908992,142.68954 3.087599,3.77373 15.781069,3.25914 -1.20074,6.6898 3.77374,1.0292 1.88686,14.9234 c 0,0 8.57667,11.14966 9.2628,11.49273 0.68614,0.34306 4.6314,1.20073 4.6314,1.20073 l 14.4088,-9.7774 -6.00367,-4.97446 c 0,0 -4.1168,-13.72267 -3.25913,-13.72267 0.85767,0 5.31753,0 5.31753,-0.68613 0,-0.68614 -0.85766,-4.6314 -0.34306,-5.31754 0.5146,-0.68613 7.89053,-5.31753 8.2336,-6.17519 0.34306,-0.85767 2.0584,-5.48907 2.0584,-5.48907 l 4.80293,-1.0292 3.77373,4.45987 12.865,4.80293 -0.34307,6.1752 c 0,0 19.89787,0.5146 19.89787,-0.17154 0,-0.68613 1.37227,-7.37593 1.37227,-7.37593 0,0 19.38326,0.85767 19.21173,0.17153 -0.17154,-0.68613 -0.5146,-6.51826 -0.5146,-6.51826 l -18.35407,0.34307 -1.37226,-3.0876 -81.99293,-5.48907 -1.0292,2.74453 c 0,0 3.0876,6.00367 2.0584,6.00367 -1.0292,0 -13.551132,0 -13.551132,0"
     id="path3604" />
  <path
     style="fill:#ffffff;stroke:#000000;stroke-width:1px;stroke-linecap:butt;stroke-linejoin:miter;stroke-opacity:1"
     d="m 79.591459,139.77348 -9.777399,5.66059 -4.974466,9.2628 c 0,0 0.171533,9.2628 0.171533,9.94894 0,0.68613 1.715333,3.6022 2.401466,3.6022 0.686134,0 3.430667,0.17153 3.430667,0.17153 l 9.262799,3.25913 14.065732,-2.22993 1.200733,-5.83213 4.1168,-5.83214 4.288336,-6.1752 -1.5438,-3.6022 -16.981802,-3.25913 -1.200733,-3.43066"
     id="path3606" />
  <path
     style="fill:#ffffff;stroke:#000000;stroke-width:1px;stroke-linecap:butt;stroke-linejoin:miter;stroke-opacity:1"
     d="m 137.91279,156.24067 -5.31754,-0.85766 -0.34306,-5.146 c 0,0 7.03286,-3.77374 7.37593,-4.45987 0.34307,-0.68613 3.25913,-6.1752 3.25913,-6.1752 l 3.25914,-1.5438 4.6314,3.77374 4.11679,0.85766 1.20074,3.25913 5.83213,-0.17153 2.0584,5.48907 -6.34673,10.12046 -4.6314,2.573 -4.1168,-1.71533 -1.0292,-3.77373 -6.51827,0.68613"
     id="path3608" />
  <path
     style="fill:#ffffff;stroke:#000000;stroke-width:1px;stroke-linecap:butt;stroke-linejoin:miter;stroke-opacity:1"
     d="m 110.12439,80.937548 c 0.85767,-0.171533 20.92706,-1.200733 20.92706,-1.200733 l 2.0584,-10.978132 -5.83213,-2.0584 -10.46353,3.430666 -5.83213,6.003666"
     id="path3610" />
  <path
     style="fill:#ffffff;stroke:#000000;stroke-width:1px;stroke-linecap:butt;stroke-linejoin:miter;stroke-opacity:1"
     d="m 102.91999,59.667417 5.31753,-2.573 -3.94526,-5.317533 -4.45987,2.916067"
     id="path3612" />
  <path
     style="fill:#ffffff;stroke:#000000;stroke-width:1px;stroke-linecap:butt;stroke-linejoin:miter;stroke-opacity:1"
     d="m 132.93832,46.287818 0.68613,4.288333 3.94527,0.171533 2.91607,-2.572999 -1.5438,-3.430667"
     id="path3614" />
  <path
     style="fill:#000000"
     d="m 76.347456,224.18515 c -13.764696,-2.55542 -24.39361,-7.08098 -32.306538,-13.75542 -2.740091,-2.31123 -2.778342,-2.4837 -1.615611,-7.28463 2.188435,-9.03608 6.940266,-14.47911 14.450852,-16.55289 2.391237,-0.66025 3.471297,-1.54354 3.471297,-2.83888 0,-2.41583 4.573831,-6.02558 7.634859,-6.02558 2.083217,0 2.365141,-0.46564 2.365141,-3.90638 0,-3.38168 -0.262121,-3.83783 -1.951486,-3.39606 -2.533619,0.66256 -6.039551,-4.869 -6.044776,-9.53727 -0.0074,-6.63975 -7.967457,-9.12012 -12.231502,-3.81136 -2.143789,2.66902 -2.252416,8.20664 -0.236804,12.0718 0.837712,1.6064 1.172439,3.24834 0.74384,3.64876 -0.4286,0.40042 -3.523382,1.03484 -6.877295,1.40982 -6.416554,0.7174 -7.985536,0.0359 -10.429306,-4.53037 -1.768849,-3.30513 -4.447658,-20.27823 -4.36347,-27.64722 0.05137,-4.4962 2.318187,-11.13371 5.329425,-15.60517 l 2.561374,-3.80345 5.817523,0.61075 c 3.199638,0.33591 6.377821,0.82575 7.062629,1.08853 0.745182,0.28596 2.202416,-1.5661 3.629379,-4.61273 3.368815,-7.19256 16.361644,-19.48339 22.169031,-20.971238 2.376791,-0.60894 4.776537,-1.254597 5.332768,-1.434807 0.556232,-0.18021 2.094991,-2.520496 3.419464,-5.20063 1.324474,-2.680134 2.876543,-5.183036 3.449042,-5.562005 0.613436,-0.406067 -1.306954,-3.150522 -4.676212,-6.682838 -3.144416,-3.296591 -6.626813,-7.936526 -7.73866,-10.310965 -1.111847,-2.37444 -3.115145,-6.114434 -4.451773,-8.311099 -3.531131,-5.80319 -4.154165,-13.106686 -1.952912,-22.892913 2.195147,-9.759074 3.922158,-13.090813 9.611223,-18.541901 11.403202,-10.9262 30.161012,-14.8774588 44.223312,-9.315464 5.94696,2.352169 16.47787,9.388984 21.10519,14.102602 2.4505,2.496202 5.93687,4.72576 9,5.755561 2.75,0.92453 5.30046,2.14374 5.6677,2.709356 0.36723,0.565616 -0.92638,2.710626 -2.8747,4.766689 l -3.5424,3.738295 -0.15256,10.835855 c -0.1762,12.514949 -1.56374,16.544474 -9.04481,26.266676 -4.11802,5.351681 -4.55323,6.435967 -4.55323,11.344 0,5.854965 1.59183,11.725176 3.17953,11.725176 0.54113,0 3.02042,1.66879 5.50953,3.70843 4.41937,3.62135 4.51118,3.81402 3.90938,8.20458 -0.39648,2.89265 -1.55425,5.4752 -3.24634,7.24136 -2.19512,2.29121 -2.53148,3.35284 -2.03385,6.41933 0.32792,2.02076 0.79373,3.87161 1.03513,4.11301 0.24139,0.2414 9.06638,0.94766 19.61107,1.56948 16.76995,0.98892 19.29332,1.35694 20.13904,2.93719 0.822,1.53591 2.3102,1.80662 9.93169,1.80662 l 8.96482,0 0,4.96379 0,4.96379 -9.75,0.28621 -9.75,0.28621 0,3.5 0,3.5 -10.93234,-0.0511 -10.93234,-0.0511 -3.55601,3.93607 c -3.7261,4.12435 -4.00003,5.87299 -1.94497,12.41603 0.8795,2.80023 1.47553,3.25 4.30685,3.25 4.44275,0 8.88179,4.34602 8.32361,8.14918 -0.43007,2.93022 1.06314,3.81036 6.50995,3.83717 3.30543,0.0163 4.10266,1.70475 5.20021,11.01365 1.2292,10.42555 1.17098,11.16436 -0.97496,12.37329 -1.1,0.61969 -2.225,1.37678 -2.5,1.68241 -0.86269,0.9588 -9.28342,4.5701 -14.5,6.21846 -6.23323,1.96959 -17.53665,4.33321 -28,5.85498 -12.34017,1.79473 -51.457674,2.00697 -60.500004,0.32826 z m 56.500004,-3.30202 c 10.28778,-1.85073 18.79646,-3.31237 24.18958,-4.15533 6.04693,-0.94515 15.40707,-4.28735 20.07875,-7.16948 l 3.26834,-2.01635 -0.65507,-6.65711 c -0.36028,-3.66141 -0.81577,-6.84185 -1.0122,-7.06765 -0.19643,-0.22579 -1.1474,0.29257 -2.11327,1.15191 -2.73714,2.43526 -17.07254,7.0957 -35.75613,11.62433 -14.15756,3.43159 -38.32783,4.17406 -55.500004,1.70488 -14.4425,-2.07669 -32.872339,-9.18956 -34.447688,-13.29485 -0.361232,-0.94136 -0.964418,-1.22918 -1.45218,-0.69295 -1.117418,1.22847 -4.100132,10.32879 -4.100132,12.50958 0,1.91953 8.265506,7.45434 12.723078,8.51972 1.527307,0.36503 3.259614,1.04051 3.849571,1.50106 1.852193,1.44593 13.182363,3.99119 21.723988,4.88018 10.504506,1.09329 41.392197,0.56727 49.203367,-0.83794 z m -1,-15.9701 c 4.0616,-0.70621 2.37248,-0.89244 -9,-0.99227 -7.83369,-0.0688 -17.74383,-0.81134 -22.5,-1.68593 -4.675004,-0.85967 -10.835997,-1.97254 -13.6911,-2.47304 -6.137485,-1.07592 -18.912954,-6.43984 -21.944445,-9.21362 -1.635138,-1.49613 -2.939104,-1.80324 -5.564856,-1.31065 -9.698917,1.81953 -7.062217,5.10016 9.567271,11.90379 3.705284,1.51594 18.157971,4.10239 27.633126,4.94521 6.649104,0.59144 29.739144,-0.17183 35.500004,-1.17349 z m 7.6875,-1.86839 c -0.72187,-0.28887 -1.58437,-0.25335 -1.91667,0.0789 -0.33229,0.33229 0.25834,0.56864 1.3125,0.52522 1.16495,-0.048 1.4019,-0.28494 0.60417,-0.60416 z m 12.44068,-2.825 c 15.8028,-4.10591 24.37182,-7.45225 24.37182,-9.51757 0,-1.35338 -10.3459,-1.22842 -11.71582,0.1415 -2.03745,2.03745 -15.04307,8.56456 -22.28418,11.18372 -3.67331,1.32867 0.76232,0.4959 9.62818,-1.80765 z m -13.27252,-1.04009 c 7.7079,-1.94217 22.2586,-8.81983 25.89434,-12.23945 3.20599,-3.01542 3.57367,-6.70117 0.81574,-8.17717 -2.68538,-1.43717 -2.99916,-1.3405 -3.97433,1.22439 -0.56911,1.49689 -3.85171,3.73951 -9.72525,6.64416 -10.78582,5.33393 -19.4165,6.53879 -41.36616,5.77478 -15.345714,-0.53415 -23.299549,-2.36345 -35.621057,-8.19245 -6.36186,-3.00964 -10.378947,-3.27174 -10.378947,-0.67719 0,3.75568 4.422627,6.96016 14.144205,10.24838 3.495687,1.18238 7.480795,2.3394 8.855795,2.57116 1.375,0.23176 4.75,0.86835 7.5,1.41464 11.650614,2.31443 15.583744,2.73902 26.355654,2.84511 7.29347,0.0718 13.55364,-0.44199 17.50001,-1.43636 z m 1.68833,-11.46014 c 2.92433,-0.55459 6.02325,-1.6227 6.88649,-2.37357 0.86323,-0.75088 3.25075,-1.90496 5.30559,-2.56462 2.05484,-0.65966 3.96568,-1.57089 4.24631,-2.02496 0.28063,-0.45407 -0.47601,-3.95577 -1.68143,-7.78155 -1.83746,-5.83179 -2.65764,-7.13185 -5.07497,-8.04429 -1.58583,-0.59858 -3.11173,-1.96178 -3.3909,-3.02933 -0.3473,-1.32805 -1.11136,-1.7831 -2.41956,-1.441 -1.05159,0.275 -2.92528,-0.15609 -4.16375,-0.95798 -10.30307,-6.67106 -14.90825,3.0024 -5.47151,11.49323 5.75518,5.1783 5.16855,5.91387 -10.53563,13.21061 l -5.75537,2.67415 -3.57086,-3.32617 c -6.61137,-6.15835 -10.02677,-14.11573 -9.68996,-22.57618 0.11187,-2.81015 -0.19935,-3.25 -2.29953,-3.25 -1.36797,0 -2.42891,0.5875 -2.42891,1.34501 0,0.73976 -0.900004,2.1595 -2.000004,3.15499 -1.1,0.99549 -2,2.85486 -2,4.13193 0,4.01717 -4.00788,5.66254 -14.058002,5.77131 l -8.941323,0.0968 -3.37e-4,3.59098 c -3.22e-4,3.41953 0.298069,3.7337 6.249662,6.5801 3.4375,1.64401 8.95,3.56622 12.25,4.27157 3.3,0.70536 6.45,1.42129 7,1.59096 2.582414,0.79666 36.842134,0.34974 41.543994,-0.54195 z m -20.04399,-5.39705 c 0,-0.22296 -1.575,-2.29054 -3.5,-4.59461 -3.35156,-4.01156 -3.5,-4.5245 -3.5,-12.09461 0,-7.8794 -0.009,-7.90539 -2.64246,-7.90539 -2.63328,0 -2.64028,0.0209 -2.01405,6.01231 0.67894,6.49568 3.43395,12.85605 7.19989,16.62198 2.08065,2.08065 4.45662,3.12576 4.45662,1.96032 z m 6.70826,-3.39314 c 0.83235,-0.529 0.10022,-1.65204 -2.35327,-3.60972 -4.19084,-3.34395 -6.35499,-7.9616 -6.35499,-13.55963 0,-2.21767 -0.45,-4.03212 -1,-4.03212 -1.35357,0 -1.27253,10.86892 0.11259,15.10078 1.80076,5.50172 6.16865,8.27872 9.59567,6.10069 z m 6.69381,-3.04302 c 0.28606,-0.46285 -1.02038,-2.33465 -2.90321,-4.15955 -2.50303,-2.42604 -3.72135,-4.75367 -4.53198,-8.65845 -1.50601,-7.25442 -4.96688,-7.05165 -4.96688,0.291 0,4.46938 2.89006,8.532 8.57904,12.05974 2.35307,1.45914 3.14983,1.55653 3.82303,0.46726 z m -87.708292,-5.57711 c 0.106579,-0.0746 -0.253474,-2.12616 -0.80012,-4.5591 -1.484886,-6.60874 -1.938103,-20.92878 -0.819144,-25.88203 0.541692,-2.39788 1.830689,-6.11038 2.864439,-8.25 1.033749,-2.13962 1.582882,-3.90981 1.220294,-3.93376 -0.362588,-0.0239 -2.625663,-0.42339 -5.029055,-0.88763 -3.455874,-0.66755 -4.76304,-0.50739 -6.25,0.76579 -1.034108,0.88543 -1.880196,2.13343 -1.880196,2.77332 0,0.6399 -0.672228,2.45239 -1.493839,4.02776 -0.821612,1.57537 -1.496612,5.4021 -1.5,8.50384 -0.0071,6.46764 2.517646,20.78502 4.503178,25.53707 1.260629,3.0171 1.588021,3.18375 5.168274,2.63073 2.102313,-0.32472 3.909589,-0.65142 4.016169,-0.72599 z m 44.801293,-2.57947 c 4.081315,-1.55171 1.973634,-3.00187 -4.362962,-3.00187 -6.218696,0 -10.496369,-1.98733 -8.544952,-3.96984 0.769952,-0.78222 1.88311,-0.80186 3.815099,-0.0673 5.786817,2.20012 15.59774,0.9153 15.59774,-2.04267 0,-0.37389 -2.735759,-0.8777 -6.079464,-1.11956 -3.686454,-0.26665 -6.415834,-0.98401 -6.934017,-1.82244 -1.432773,-2.31828 -0.293264,-2.69454 4.923816,-1.62584 6.088446,1.24721 12.411129,-0.0281 12.902369,-2.60235 0.286,-1.49878 -0.47327,-1.75 -5.28904,-1.75 -3.098097,0 -6.955193,-0.68891 -8.589845,-1.53422 -2.700968,-1.39673 -3.167027,-1.38266 -5.20034,0.15702 -3.767297,2.8527 -9.628986,10.62496 -10.292917,13.64782 -1.042563,4.74676 1.653029,6.72938 9.149326,6.72938 3.453952,0 7.461286,-0.44916 8.905187,-0.99813 z M 75.929786,151.48426 c 2.677502,-2.89108 5.55432,-5.78872 6.392928,-6.43919 2.492518,-1.93334 -0.150054,-3.69471 -4.358624,-2.90518 -8.154708,1.52983 -14.986966,16.71294 -10.807939,24.01814 0.292697,0.51165 1.291163,-1.39792 2.218813,-4.24349 1.078676,-3.30886 3.441405,-7.06852 6.554822,-10.43028 z m 80.388034,7.49349 c 3.42704,-3.13946 6.25953,-9.26 5.13066,-11.08654 -1.1778,-1.90572 -3.91262,-0.29771 -4.56792,2.68581 -0.324,1.47521 -1.9265,4.11321 -3.5611,5.86223 -5.12897,5.48798 -2.57845,7.64732 2.99836,2.5385 z m -6.90297,-3.28607 c 3.64635,-1.95146 6.51905,-11.96393 3.43261,-11.96393 -0.825,0 -1.5,0.58615 -1.5,1.30256 0,0.71641 -2.29023,3.64141 -5.08941,6.5 l -5.08941,5.19744 3.15515,0 c 1.73533,0 4.02631,-0.46623 5.09106,-1.03607 z m -97.29767,-3.96393 c 2.184754,0 2.274886,-1.99223 0.268097,-5.92587 -1.120802,-2.19695 -2.037821,-4.88582 -2.037821,-5.97527 0,-1.08946 -0.395211,-2.22508 -0.878246,-2.52361 -1.19111,-0.73615 -2.121754,4.39778 -2.121754,11.70474 0,5.77841 0.0763,5.96094 1.828741,4.375 1.005807,-0.91025 2.329249,-1.65499 2.940983,-1.65499 z m 78.23028,0.0468 c 0,-2.53487 0.63216,-3.23283 4.46269,-4.92726 3.29602,-1.45799 4.64726,-2.70942 5.16867,-4.78689 0.97078,-3.86789 2.69081,-5.33264 6.26203,-5.33264 2.01279,0 3.39704,0.67416 4.10661,2 0.5887,1.1 1.95072,2 3.02671,2 1.07599,0 2.47204,0.82577 3.10234,1.83504 0.76716,1.22841 1.9428,1.68272 3.55631,1.37428 2.78363,-0.53213 5.23331,2.03711 5.28284,5.54068 0.0304,2.15127 0.39843,2.25 8.3872,2.25 l 8.35539,0 0.62443,-6.68684 c 0.34343,-3.67777 0.4524,-6.85888 0.24214,-7.06914 -0.36569,-0.36569 -14.03629,-1.37909 -36.57736,-2.71149 -5.775,-0.34136 -15.9,-1.04061 -22.5,-1.5539 -12.78804,-0.99454 -22.80936,-1.14732 -20.75,-0.31635 1.72432,0.69578 1.57387,5.82404 -0.2144,7.30817 -0.87624,0.72722 -3.988893,1.13183 -7.749997,1.00742 -9.466842,-0.31315 -9.543717,-0.29154 -7.221997,2.03018 1.465667,1.46567 3.690718,2.11133 8.237698,2.3904 7.345746,0.45085 9.533606,1.86626 8.957036,5.79467 l -0.41196,2.80688 12.82681,0 12.82681,0 0,-2.95321 z m 10.87925,-0.0743 c 4.80118,-3.47796 8.1606,-9.33266 6.37795,-11.11531 -1.57186,-1.57184 -4.2572,-0.30535 -4.2572,2.00784 0,1.90063 -6.15758,8.13498 -8.0348,8.13498 -0.53086,0 -0.9652,0.9 -0.9652,2 0,2.79717 2.0149,2.49623 6.87925,-1.02749 z m -77.708975,-4.73057 c -1.074934,-1.50807 -2.902992,-3.59918 -4.062352,-4.64693 -2.650592,-2.39541 -2.797012,-10.20083 -0.302054,-16.10208 1.862961,-4.40641 8.780805,-13.66438 11.275379,-15.08955 0.869689,-0.49686 3.197128,-1.75751 5.172087,-2.80144 3.177994,-1.67984 5.475288,-5.20665 4.213445,-6.46849 -1.395397,-1.3954 -9.119235,2.57615 -14.252242,7.32841 -13.730423,12.71195 -16.319892,32.12185 -5.609587,42.04783 2.675742,2.47979 2.711165,2.484 4.109379,0.48777 1.241868,-1.77302 1.176868,-2.34118 -0.544055,-4.75552 z m 6.829721,-3.74192 2.348628,-2.5 -3.740055,0 c -2.057031,0 -4.610472,-0.46583 -5.674314,-1.03518 -2.798523,-1.49773 -2.499383,0.56096 0.520286,3.58063 3.058684,3.05869 3.633015,3.0547 6.545455,-0.0454 z M 202.34746,142.6857 c 0,-1.90534 -0.51818,-2.02251 -7.73916,-1.75 -6.43742,0.24293 -7.79536,0.58641 -8.07332,2.04206 -0.29593,1.54975 0.58964,1.75 7.73916,1.75 7.46209,0 8.07332,-0.15461 8.07332,-2.04206 z m -101.24811,-5.20795 c -0.46348,-1.39681 -9.751894,-2.12256 -9.751894,-0.76197 0,1.23487 1.994664,1.84367 6.333333,1.93302 2.646471,0.0545 3.704911,-0.30807 3.418561,-1.17105 z m -20.88482,-0.80451 c -0.771563,-0.43179 -4.094795,-0.85802 -7.384958,-0.94718 -8.154527,-0.22098 -8.69423,-0.15053 -7.959134,1.03888 0.371966,0.60185 4.021042,0.96503 8.693975,0.86527 4.514837,-0.0964 7.436611,-0.51683 6.650117,-0.95697 z m 8.132926,0.0231 c 0,-1.19717 -2.820624,-2.48133 -3.643264,-1.65869 -0.875711,0.87571 0.609651,2.69007 2.202281,2.69007 0.792541,0 1.440983,-0.46412 1.440983,-1.03138 z m -15.842004,-4.29779 c 5.819693,0.38616 8.798166,0.20912 9.267881,-0.5509 0.470908,-0.76194 -0.718251,-1.11993 -3.720169,-1.11993 -2.426779,0 -7.178337,-0.28911 -10.559017,-0.64246 -5.908767,-0.61758 -6.146691,-0.55478 -6.146691,1.62245 0,1.73702 0.300923,2.01516 1.291136,1.19335 0.822128,-0.6823 4.406285,-0.86484 9.86686,-0.50251 z m 25.074095,-0.39556 c -1.79735,-0.22256 -4.49735,-0.21797 -6,0.0102 -1.50265,0.22818 -0.03209,0.41027 3.267909,0.40466 3.3,-0.006 4.529441,-0.1923 2.732091,-0.41486 z m 44.767913,-1.41418 c 0,-3.14186 -4.20136,-25.18034 -5.50435,-28.87343 -0.82261,-2.331508 -1.49565,-6.432532 -1.49565,-9.113383 0,-2.68085 -0.24735,-4.874273 -0.54966,-4.874273 -0.30231,0 -1.82319,0.658568 -3.37973,1.463485 -6.08355,3.145926 -11.87504,4.507987 -19.2274,4.521962 -6.3748,0.01212 -8.77651,-0.487836 -14.344532,-2.986038 -3.678263,-1.650325 -7.032556,-2.787491 -7.453984,-2.527034 -0.421428,0.260457 -2.142013,3.353732 -3.823522,6.873945 -2.453842,5.137076 -3.348902,8.941976 -4.534704,19.277026 -0.812578,7.08216 -1.40768,12.95592 -1.322448,13.05281 0.08523,0.0969 13.200694,1.05296 29.14547,2.12461 15.94478,1.07164 29.77801,2.00487 30.74051,2.07384 0.9625,0.069 1.75,-0.38712 1.75,-1.01352 z M 78.618678,116.97775 c 0.296517,-3.4375 0.377969,-6.25 0.181003,-6.25 -1.290619,0 -6.404192,2.89705 -8.748072,4.95615 -2.997032,2.63289 -6.704153,8.08737 -6.704153,9.86417 0,0.63159 2.609296,1.20854 6.25,1.38196 7.475803,0.35611 8.201039,-0.44398 9.021222,-9.95228 z m 68.523182,-4.63543 c -0.21146,-2.79086 -0.9695,-4.3316 -2.69081,-5.46919 l -2.39642,-1.58375 0.71818,4.96918 c 0.395,2.73306 0.97749,6.05271 1.29443,7.37701 0.55543,2.32081 0.62671,2.33888 1.97264,0.5 0.78973,-1.07899 1.26848,-3.59581 1.10198,-5.79325 z M 126.6741,87.960281 c 5.84875,-2.302759 15.98695,-12.433025 18.56562,-18.551068 4.55067,-10.796777 5.29171,-22.610717 1.66934,-26.613389 -0.85888,-0.949053 -1.5616,-2.401577 -1.5616,-3.227831 0,-0.826254 -1.12646,-2.105142 -2.50324,-2.841973 -2.15401,-1.152791 -3.93278,-1.038561 -12.75,0.818787 -9.19022,1.93592 -27.05913,8.403696 -33.797582,12.233274 -10.679678,6.06944 -16.67867,11.023684 -17.549448,14.493143 -1.708392,6.806776 10.766176,20.063248 23.60027,25.079527 4.72154,1.845442 18.04154,1.084093 24.32664,-1.39047 z m -17.64898,-4.888195 c -3.02709,-3.027087 2.62905,-12.361452 9.82234,-16.209877 4.57939,-2.449983 11.1031,-2.74981 13.89214,-0.638476 1.61407,1.221877 1.81121,2.324862 1.34144,7.505555 -0.78114,8.61457 -1.35299,9.050804 -11.62036,8.864572 -4.74276,-0.08603 -9.5535,0.138858 -10.69055,0.499741 -1.13704,0.360883 -2.37229,0.351201 -2.74501,-0.02152 z m 21.24941,-7.564961 c 1.76125,-5.05233 1.36566,-6.556167 -1.91413,-7.27653 -5.04595,-1.108275 -16.00643,5.654747 -16.01528,9.882018 -0.002,0.757539 2.7008,1.012073 8.42707,0.793735 8.40703,-0.320552 8.43225,-0.329573 9.50234,-3.399223 z M 99.516765,59.215866 c -2.945885,-3.745085 -1.468165,-7.517918 3.409645,-8.705332 3.93115,-0.956965 8.0445,4.156944 6.18655,7.691397 -2.26233,4.30372 -6.64426,4.766715 -9.596195,1.013935 z m 6.815375,-2.238112 c -0.0378,-1.853153 -1.926,-3.486498 -3.38376,-2.927102 -2.58956,0.993706 -1.93345,3.677102 0.89908,3.677102 1.375,0 2.4931,-0.3375 2.48468,-0.75 z m 25.67031,-6.078741 c -2.43563,-2.691339 -2.05699,-5.667065 0.89206,-7.010744 4.52659,-2.062453 7.08351,-1.466624 8.51268,1.983674 1.19607,2.887585 1.11532,3.295646 -0.98947,5 -2.9135,2.35921 -6.29487,2.370087 -8.41527,0.02707 z m 5.84501,-3.240897 c 0,-0.771635 -0.7875,-1.554631 -1.75,-1.739991 -1.72374,-0.331962 -2.43634,1.789953 -1.0625,3.163796 1.04821,1.048207 2.8125,0.155048 2.8125,-1.423805 z m -56.780526,8.742813 c 1.260223,-1.004754 2.931743,-2.467254 3.71449,-3.25 0.782746,-0.782746 1.711739,-1.423175 2.064428,-1.423175 0.352689,0 2.522332,-1.283999 4.821429,-2.853331 11.689369,-7.979004 36.585229,-16.082849 49.846789,-16.225616 4.03337,-0.04342 6.82264,-0.288671 6.19839,-0.545 -0.62425,-0.256329 -3.77425,-3.033303 -7,-6.171053 C 129.72471,15.244753 120.17799,11.417601 106.15021,12.0772 98.036783,12.458702 95.423566,13.021158 90.150213,15.52096 77.729181,21.409078 72.677885,29.656979 71.633455,45.755652 c -0.485703,7.486553 -0.283267,9.057132 1.657806,12.861951 l 2.211068,4.334051 1.636645,-2.36195 c 0.900155,-1.299072 2.667737,-3.184021 3.92796,-4.188775 z M 152.34746,36.620765 c 0,-0.491156 -1.125,-0.893011 -2.5,-0.893011 -2.59883,0 -3.42998,1.508937 -1.25,2.269359 1.60814,0.560953 3.75,-0.225164 3.75,-1.376348 z"
     id="path3584" />
</svg>
