<?xml version="1.0" encoding="UTF-8" standalone="no"?>
<!-- Created with Inkscape (http://www.inkscape.org/) -->

<svg
   xmlns:dc="http://purl.org/dc/elements/1.1/"
   xmlns:cc="http://creativecommons.org/ns#"
   xmlns:rdf="http://www.w3.org/1999/02/22-rdf-syntax-ns#"
   xmlns:svg="http://www.w3.org/2000/svg"
   xmlns="http://www.w3.org/2000/svg"
   xmlns:sodipodi="http://sodipodi.sourceforge.net/DTD/sodipodi-0.dtd"
   xmlns:inkscape="http://www.inkscape.org/namespaces/inkscape"
   id="svg3370"
   version="1.1"
   inkscape:version="0.47 r22583"
   width="270"
   height="270"
   sodipodi:docname="back.svg">
  <metadata
     id="metadata3376">
    <rdf:RDF>
      <cc:Work
         rdf:about="">
        <dc:format>image/svg+xml</dc:format>
        <dc:type
           rdf:resource="http://purl.org/dc/dcmitype/StillImage" />
        <dc:title />
      </cc:Work>
    </rdf:RDF>
  </metadata>
  <defs
     id="defs3374">
    <inkscape:perspective
       sodipodi:type="inkscape:persp3d"
       inkscape:vp_x="0 : 0.5 : 1"
       inkscape:vp_y="0 : 1000 : 0"
       inkscape:vp_z="1 : 0.5 : 1"
       inkscape:persp3d-origin="0.5 : 0.33333333 : 1"
       id="perspective3378" />
  </defs>
  <sodipodi:namedview
     pagecolor="#ffffff"
     bordercolor="#666666"
     borderopacity="1"
     objecttolerance="10"
     gridtolerance="10"
     guidetolerance="10"
     inkscape:pageopacity="0"
     inkscape:pageshadow="2"
     inkscape:window-width="1280"
     inkscape:window-height="949"
     id="namedview3372"
     showgrid="false"
     inkscape:zoom="1.761194"
     inkscape:cx="26.052502"
     inkscape:cy="113.57868"
     inkscape:window-x="0"
     inkscape:window-y="25"
     inkscape:window-maximized="1"
     inkscape:current-layer="svg3370" />
  <path
     style="fill:#4d4d4d;fill-opacity:1;stroke:#b3b3b3;stroke-width:0.40149283;stroke-miterlimit:4;stroke-opacity:1;stroke-dasharray:none"
     d="m 128.6589,22.506356 c -0.92884,0 -7.79171,13.136722 -9.53125,18.25 -2.50181,7.353861 -2.25324,10.963374 1.46875,20.59375 1.12609,2.913668 2.0625,5.529201 2.0625,5.84375 0,0.314546 -0.33283,0.695659 -0.71875,0.84375 -0.87502,0.33578 -2.39032,-1.289023 -5,-5.4375 -2.38488,-3.791124 -3.20332,-4.295298 -6.25,-3.65625 -5.45557,1.144318 -9.73697,4.610822 -13.093752,10.625 -1.075587,1.927077 -2.066605,3.53125 -2.21875,3.53125 -0.15215,0 -3.878046,0.366004 -8.28125,0.8125 -12.379489,1.2553 -15.552521,1.891767 -23,4.65625 -5.789832,2.149171 -8.581068,1.393543 -5.8125,-1.5625 l 1.125,-1.21875 -4.625,0.25 c -6.32091,0.320828 -7.458582,0.728654 -9.3125,3.46875 -1.552357,2.294387 -2.909846,5.676713 -2.625,6.53125 0.09047,0.271417 0.939974,-0.984012 1.875,-2.78125 0.935025,-1.797239 2.296446,-3.963511 3.03125,-4.8125 l 1.34375,-1.53125 0.90625,0.78125 c 1.610131,1.432341 1.96875,3.059215 1.96875,8.375 l 0,4.96875 -3.09375,0.28125 c -3.26749,0.275877 -5.344346,-0.113367 -6.53125,-1.1875 -0.65728,-0.594828 -0.728759,-0.464798 -1.15625,1.90625 -0.250835,1.391237 -0.58003,5.427824 -0.71875,8.968754 -0.311045,7.93962 -0.08365,8.834 2.8125,11 4.464094,3.33864 17.224389,9.97858 25.46875,13.25 2.272998,0.90195 5.36279,2.23215 6.84375,2.96875 2.948222,1.46639 8.83416,3.69709 9.09375,3.4375 0.08966,-0.0897 0.264342,-3.32607 0.40625,-7.1875 0.245541,-6.68159 1.137104,-19.49835 1.65625,-23.9375 0.2044,-1.747794 0.375631,-2.100781 1.15625,-2.250004 0.508229,-0.09715 1.210214,-0.0096 1.5625,0.1875 0.844105,0.472284 0.874096,4.141794 0.03125,15.312504 -0.792169,10.49906 -0.655684,18.68732 0.375,20.8125 0.439586,0.90639 1.984679,2.45795 3.9375,4 4.919042,3.88434 12.303802,9.03602 14.875002,10.34375 2.69563,1.37102 2.50742,1.39718 9.5,-1.4375 4.91857,-1.99392 7.7353,-2.46026 7.96875,-1.3125 0.0787,0.38718 -0.51315,1.07625 -1.53125,1.75 -2.66942,1.76654 -9.19837,4.99702 -11.40625,5.65625 -1.99788,0.59653 -2.03796,0.59169 -4.34375,-0.59375 l -2.34375,-1.1875 -1.5,3.28125 c -4.07138,8.86912 -6.08966,15.43717 -11.062502,36.03125 -4.403055,18.23441 -6.355402,27.36441 -5.9375,27.75 0.654165,0.60358 15.052952,3.68268 20.281252,4.34375 3.78636,0.47876 47.00868,0.1914 56.09375,-0.375 8.42985,-0.52554 14.86491,-1.38937 16.46875,-2.21875 1.38561,-0.71653 1.77515,-1.94625 1.40625,-4.40625 -0.18097,-1.20685 -0.0246,-2.60322 0.4375,-4.25 0.62887,-2.24119 0.61073,-2.54919 0.0313,-3.71875 -0.96384,-1.9453 -4.22245,-5.875 -4.875,-5.875 -0.31808,0 -1.71977,1.49072 -3.09375,3.3125 -3.14641,4.17187 -9.49761,10.51073 -12.40625,12.40625 -2.44207,1.59147 -5.22288,2.58721 -8,2.84375 l -1.8125,0.15625 0,-10.875 c 0,-9.99355 -0.0689,-11.14963 -0.90625,-14.4375 -1.22486,-4.80951 -3.89643,-10.96419 -7.5625,-17.5 -4.39259,-7.83103 -4.59356,-8.4062 -4.96875,-13.375 -0.18018,-2.38627 -0.4397,-4.4397 -0.5625,-4.5625 -0.1228,-0.1228 -1.09538,0.0901 -2.15625,0.46875 -1.24967,0.44607 -3.68601,0.7427 -6.9375,0.875 -4.71806,0.19197 -5.08703,0.16795 -6.125,-0.65625 -2.24649,-1.78382 -1.39144,-3.05093 4.625,-6.90625 3.69776,-2.36952 6.24709,-5.64071 7.875,-10.09375 0.95303,-2.60691 1.04365,-3.43539 1.03125,-8.3125 -0.0121,-4.76441 -0.13327,-5.90831 -1.15625,-9.4375 -0.8688,-2.99726 -1.23631,-5.21557 -1.40625,-8.78125 l -0.21875,-4.78125 -4.1875,-0.9375 c -6.88718,-1.54241 -12.20641,-4.61077 -15.75,-9.09375 -2.2799,-2.884288 -2.99004,-4.5143 -3.5,-7.812504 -0.57364,-3.710665 -0.57315,-11.510534 0,-14.25 0.61662,-2.947202 2.55539,-6.436053 4.625,-8.34375 2.79769,-2.57882 3.4488,-2.173149 4.09375,2.46875 1.05798,7.614533 5.53396,13.98083 9.78125,13.96875 1.32801,-0.0038 4.34913,-1.534102 6.46875,-3.28125 l 1.125,-0.90625 -0.84375,-1.875 c -0.7379,-1.668107 -0.8229,-2.577082 -0.75,-8.4375 0.0957,-7.693891 0.0885,-7.799441 -3.84375,-12.75 -3.71464,-4.676633 -3.61229,-6.327768 0.375,-5.78125 2.76274,0.378676 2.80079,-0.346097 0.46875,-9.15625 -0.64362,-2.431518 -1.35081,-7.000107 -1.875,-12.25 -1.04234,-10.438761 -1.22007,-11.78125 -1.62505,-11.78125 z m 25.90625,0.59375 -2.53125,3.34375 c -4.20449,5.585532 -5.06872,7.865536 -5.6875,14.71875 -0.46601,5.161083 -0.50204,11.503267 -0.0625,16.09375 0.35602,3.718255 1.40044,6.1819 3.5,8.34375 1.65109,1.700074 1.84646,1.770481 2.375,0.59375 0.21798,-0.485301 1.93552,-2.215135 3.8125,-3.84375 7.11258,-6.171433 7.627,-6.729616 7.625,-8.1875 -0.004,-2.108254 -0.67709,-4.054317 -3.90625,-11.375 -4.32686,-9.809255 -4.58985,-10.669557 -4.875,-15.46875 l -0.25,-4.21875 z m 37.75,6.6875 c -0.11154,0.04579 -0.23122,0.219066 -0.4375,0.5 -0.31474,0.428642 -0.5625,1.103883 -0.5625,1.46875 0,1.353234 -1.62044,5.262113 -3.09375,7.5 -2.06387,3.134927 -8.33032,9.57537 -12.96875,13.3125 -2.0978,1.690177 -6.61881,4.96746 -10.03125,7.28125 -9.84193,6.673293 -12.39164,9.644037 -13.8125,16.03125 -0.73076,3.285027 -1.50395,4.4375 -2.9375,4.4375 -0.94174,0 -0.9239,-0.0088 -0.875,-4.75 0.042,-4.069379 -0.10123,-5.066371 -0.84375,-6.75 -1.21144,-2.746924 -3.64084,-5.079772 -6.78125,-6.5 -4.7787,-2.16113 -4.72328,-2.204526 -2.78125,1.53125 l 1.71875,3.28125 0.25,6.6875 c 0.22612,6.040275 0.32523,6.894019 1.1875,8.46875 0.52645,0.961443 1.22502,2.189014 1.53125,2.75 0.70668,1.294618 0.19999,2.196349 -1.4375,2.53125 -0.66318,0.135637 -2.86604,1.197522 -4.90625,2.375 -5.86978,3.387648 -8.40749,3.236198 -13,-0.8125 -2.6278,-2.316622 -4.88659,-5.758028 -6.0625,-9.25 l -0.96875,-2.90625 -0.4375,1.59375 c -2.75933,10.247374 -0.94291,20.900054 4.28125,24.906254 3.39481,2.60334 9.88059,4.27232 18.46875,4.75 2.92249,0.16255 5.41678,0.43978 5.53125,0.625 0.11447,0.18522 -0.97349,1.57495 -2.40625,3.09375 -3.75957,3.98533 -4.00931,5.00275 -2.625,10.15625 1.87865,6.9938 2.88675,11.98909 2.90625,14.4375 0.0445,5.58226 -3.17162,12.5413 -8.25,17.90625 -1.76429,1.86385 -3.08542,3.50833 -2.9375,3.65625 0.48358,0.48358 4.62405,-0.64819 7.375,-2 1.48517,-0.72981 3.87107,-2.40579 5.3125,-3.75 2.61891,-2.44228 4.34467,-3.78125 4.875,-3.78125 0.15591,0 0.56755,0.2863 0.90625,0.625 0.85237,0.85236 0.30484,2.11471 -2.125,4.9375 -2.67773,3.11076 -3.34889,4.61407 -3.5625,7.90625 -0.32057,4.94049 0.97955,8.61173 7,19.65625 4.88007,8.9525 6.00847,12.76877 7.1875,24.6875 0.75587,7.64101 1.15848,9.625 2,9.625 1.80723,0 7.68331,-5.29119 11.21875,-10.09375 1.00317,-1.36272 2.81657,-4.15483 4.03125,-6.21875 1.56416,-2.65775 2.4562,-3.75 3,-3.75 0.50476,0 2.34803,1.9576 5.375,5.71875 4.61439,5.73359 7.46862,8.74805 10.46875,11 1.98156,1.48741 7.33261,4.43603 9.8125,5.40625 2.03149,0.7948 2.4375,0.87072 2.4375,0.5 0,-0.13671 -0.99943,-1.8266 -2.21875,-3.75 -4.8416,-7.63732 -8.24795,-19.82642 -6.5,-23.28125 0.73202,-1.44724 1.72359,-1.44995 3.375,0 1.66509,1.46197 3.66382,2.38612 8.71875,4.03125 3.20683,1.04367 11.78075,2.6255 12.15625,2.25 0.0819,-0.0819 -0.85415,-0.82402 -2.0625,-1.65625 -5.15039,-3.5472 -14.25,-14.44297 -14.25,-17.0625 0,-1.40078 0.30684,-1.49737 7.09375,-2.03125 2.82491,-0.22222 6.10434,-0.60685 7.28125,-0.84375 l 2.125,-0.4375 -2.96875,-1.75 c -8.45991,-4.95224 -15.25485,-17.34663 -16.8125,-30.6875 -0.38186,-3.27051 -0.35867,-4.02151 0.1875,-5.3125 0.91285,-2.15771 2.15301,-2.0346 5.90625,0.5625 1.64027,1.135 3.81881,2.2646 4.8125,2.53125 0.9937,0.26666 2.52297,0.86515 3.40625,1.3125 4.17166,2.11279 13.70445,4.14161 20.46875,4.375 5.48899,0.18938 7.25711,-0.18049 5.65625,-1.1875 -7.29475,-4.58871 -15.20206,-11.84712 -16.6875,-15.3125 -0.4613,-1.07618 -1.37201,-2.56166 -2.03125,-3.3125 -2.08549,-2.37523 -5.78568,-10.35156 -8.6875,-18.75 -0.77017,-2.22904 -2.02355,-5.22092 -2.8125,-6.65625 -0.78894,-1.43534 -1.88419,-3.443809 -2.40625,-4.437504 -1.01027,-1.922998 -4.44066,-4.954484 -7.1875,-6.34375 -2.23104,-1.128387 -4.11976,-4.076197 -3.375,-5.28125 0.27251,-0.440923 0.6509,-0.426029 2.09375,0.125 0.96499,0.36853 2.21156,0.6875 2.78125,0.6875 1.38142,0 10.32989,-4.449177 13.46875,-6.6875 3.56155,-2.539747 4.66278,-4.529881 4.875,-8.96875 0.2584,-5.404645 0.28407,-5.394124 -2.875,-2.53125 -1.60066,1.450581 -3.35459,2.666238 -4.21875,2.90625 -1.90098,0.527987 -6.66175,0.527927 -8.5625,0 -0.81224,-0.225595 -3.67308,-2.032616 -6.34375,-4 -9.02998,-6.652026 -13.28494,-6.860619 -16.28125,-0.8125 -0.99907,2.016639 -2.20547,3.21875 -3.25,3.21875 -2.524,0 -1.06882,-3.491995 3.71875,-8.84375 5.72641,-6.401229 8.88298,-12.418189 9.6875,-18.46875 0.43849,-3.29765 0.0531,-9.462892 -0.71875,-11.4375 -0.28284,-0.723636 -0.40784,-1.013813 -0.59375,-0.9375 z m -53.78125,25.6875 c -1.04169,0.122431 -1.46322,0.626425 -1.09375,1.3125 0.42909,0.796756 1.72097,1.501403 3.96875,2.1875 0.92403,0.282047 1.20897,0.29816 1.5,0.0625 0.19795,-0.160279 0.21725,-0.249768 0.15625,-0.65625 -0.22733,-1.515948 -2.7363,-3.11721 -4.53125,-2.90625 z m -33.75,0.0625 c -1.10488,-0.0017 -2.26164,0.145524 -3.03125,0.375 -1.80604,0.53851 -3.086816,1.834369 -3.750002,3.8125 -0.213269,0.636132 -0.96875,3.651347 -0.96875,3.875 0,0.03625 0.24507,-0.164109 0.5625,-0.46875 4.863262,-4.66732 7.334402,-6.58019 9.156252,-7.125 0.23639,-0.07069 0.39039,-0.17211 0.34375,-0.21875 -0.0466,-0.04664 -0.61899,-0.12858 -1.25,-0.1875 -0.33693,-0.03146 -0.69421,-0.06193 -1.0625,-0.0625 z m -56.968752,29.1875 c -0.03799,0.02523 -0.09443,0.06906 -0.15625,0.125 -0.300498,0.271947 -1.118817,1.774603 -1.28125,2.34375 -0.149273,0.523037 0.02696,0.927993 0.4375,1.03125 0.492373,0.123839 0.655109,0.02282 0.9375,-0.5625 0.27263,-0.565021 0.401222,-2.053734 0.25,-2.65625 -0.06661,-0.265409 -0.07353,-0.356937 -0.1875,-0.28125 z M 205.06515,141.91261 c -0.33491,0.33491 2.65535,13.39314 3.40625,14.875 0.33569,0.66247 0.77973,1.44272 1,1.71875 0.22026,0.27602 0.45565,0.5 0.53125,0.5 0.73087,0 1.78755,-5.2596 1.84375,-9.25 0.0465,-3.30441 -0.91824,-4.69271 -4.8125,-7.03125 -0.95582,-0.57399 -1.83578,-0.94547 -1.96875,-0.8125 z M 79.190148,221.25636 c -2.2311,0.0606 -3.125,0.8641 -3.125,2.40625 0,0.99854 0.285491,1.30457 1.90625,2.125 2.592815,1.31248 10.321886,3.74092 14.96875,4.6875 8.509602,1.73344 17.268882,2.74024 27.906252,3.21875 8.65217,0.38922 41.43657,0.1159 48.65625,-0.40625 5.93097,-0.42894 11.54304,-1.75586 15.5625,-3.65625 4.57056,-2.16094 8.01546,-6.29478 6.375,-7.65625 -0.96082,-0.7974 -4.7688,-0.13747 -6.875,1.1875 -2.8542,1.79551 -6.95026,2.49527 -24.375,4.15625 -7.61847,0.72622 -12.00985,0.88235 -25.09375,0.90625 -20.86409,0.0382 -28.48277,-0.81593 -44.656252,-4.96875 -5.431849,-1.39472 -9.0189,-2.06056 -11.25,-2 z m 117.625002,4.8125 c -1.03607,0.11207 -1.86436,0.70818 -4.34375,2.84375 -3.84222,3.30941 -5.72191,4.54031 -8.78125,5.8125 -4.97322,2.06806 2.65325,0.33963 8.40625,-1.90625 4.21211,-1.64433 10.84375,-4.83915 10.84375,-5.21875 0,-0.47303 -3.92881,-1.53125 -5.65625,-1.53125 -0.16128,0 -0.32074,-0.016 -0.46875,0 z m -129.875002,1.6875 c -0.396786,0.0133 -0.763434,0.0395 -1.125,0.0937 -1.916348,0.28738 -1.943129,0.3009 -0.96875,0.84375 2.041516,1.13738 9.322611,3.8411 13.90625,5.15625 11.4321,3.28013 25.743112,6.04381 34.343752,6.625 7.31301,0.49422 33.26074,0.48462 40.875,0 6.60506,-0.4204 13.87379,-1.44566 18.0625,-2.5625 2.14418,-0.5717 2.02842,-0.58543 -3.65625,-0.375 -12.15601,0.44998 -45.78213,0.20538 -54.96875,-0.40625 -15.132655,-1.00751 -18.455421,-1.63297 -30.906252,-5.65625 -8.872107,-2.86688 -12.785,-3.81161 -15.5625,-3.71875 z m 139.281252,3.25 c -0.0691,-9.2e-4 -0.1577,0.0131 -0.25,0.0313 -0.55381,0.1088 -1.53202,0.50144 -2.5,1 -7.87522,4.05617 -23.99344,8.82042 -37.28125,11.03125 -17.91187,2.98018 -33.45813,3.05775 -60.21875,0.25 -9.791236,-1.02731 -13.171845,-1.6524 -20.500002,-3.65625 -8.470382,-2.3162 -15.081592,-4.51102 -19.84375,-6.59375 -2.260694,-0.98871 -4.382742,-1.78125 -4.6875,-1.78125 -0.304758,0 -0.685473,0.40775 -0.875,0.90625 -0.642658,1.69031 -2.467868,11.12582 -2.71875,14.09375 -0.240863,2.84941 -0.210444,2.97522 0.78125,3.625 2.497104,1.63617 19.542716,7.33845 28.78125,9.625 6.627407,1.6403 9.153693,1.89895 23.687502,2.25 28.51687,0.68879 47.62633,0.19715 60.625,-1.5625 4.96847,-0.67259 10.40634,-1.51463 12.0625,-1.875 4.29172,-0.93385 19.28296,-5.96156 22.96875,-7.6875 l 3.125,-1.4375 0,-2.59375 c 0,-5.40825 -1.88065,-15.16422 -3,-15.59375 -0.0376,-0.0144 -0.0872,-0.0303 -0.15625,-0.0313 z"
     id="path3386" />
  <path
     style="fill:#502d16;stroke:#000000;stroke-width:1px;stroke-linecap:butt;stroke-linejoin:miter;stroke-opacity:1"
     d="m 49.114408,80.639827 0.851695,8.233051 -7.097458,0 4.258474,-6.813559"
     id="path2828" />
  <path
     style="fill:#ff0000;stroke:#000000;stroke-width:1px;stroke-linecap:butt;stroke-linejoin:miter;stroke-opacity:1"
     d="m 97.093222,68.148302 c 0,-1.135594 7.949148,-9.652543 7.949148,-9.652543 l 6.81356,-2.271186 -8.51695,-2.838984 -6.813555,2.838984 -1.419491,5.677966"
     id="path2830" />
  <path
     style="fill:#317821;stroke:#000000;stroke-width:1px;stroke-linecap:butt;stroke-linejoin:miter;stroke-opacity:1;fill-opacity:1"
     d="m 177.15255,199.02542 -11.63984,14.47882 -10.78813,5.96186 c 0,0 -1.41949,-22.42797 -1.41949,-23.56356 0,-1.13559 -9.36865,-19.30508 -9.36865,-20.44068 0,-1.13559 -3.69067,-11.35593 -3.69067,-12.77542 0,-1.41949 0,-5.39407 0,-5.39407 l -12.49153,3.12288 -1.41949,-2.27118 9.08474,-8.80085 c 0,0 3.97458,-12.20763 3.97458,-13.34322 0,-1.1356 -3.69068,-13.34322 -3.69068,-13.34322 l 1.1356,-11.92373 -10.22034,-2.55509 -12.20763,-7.38135 -2.27119,-17.601698 5.11017,-9.936441 1.41949,8.233051 8.23305,8.800848 4.82628,-0.283899 8.23305,-4.542373 -2.83899,-4.542372 -0.56779,-13.343221 -5.96187,-10.504238 14.19492,4.826272 5.67796,8.800847 6.81356,-7.665254 c 0,0 23.84746,-19.305085 24.98306,-19.588983 1.13559,-0.283899 7.66525,-11.072035 7.38135,-12.207628 -0.2839,-1.135593 0,-6.529661 0,-6.529661 l 6.52966,11.355933 -3.40678,15.614407 -4.25847,7.949152 9.08474,3.690678 11.63983,7.381356 c 0,0 6.24577,-3.406779 7.94916,-3.690678 1.70339,-0.283898 4.54237,-3.122881 4.54237,-3.122881 0,0 2.83898,5.110169 2.55508,6.813559 -0.28389,1.70339 -3.97457,9.084746 -3.97457,9.084746 l -11.07204,7.381356 c 0,0 -4.82627,0.283899 -4.82627,1.70339 0,1.419492 8.80085,10.788136 8.80085,10.788136 l 9.36865,22.427966 11.35593,15.33051 12.20762,7.94915 -7.94915,3.97458 -15.6144,-2.55509 -19.02119,-6.81356 1.13559,12.49153 11.07204,18.16949 10.22033,3.97458 c 0,0 -17.31779,4.25847 -18.45339,4.82627 -1.13559,0.5678 9.36865,12.20763 9.36865,12.20763 l 11.35593,7.94915 -14.76271,-0.5678 -15.33051,-5.39407 2.27119,10.22034 5.39406,11.07204 c 0,0 6.52967,7.09746 4.82628,6.81356 -1.70339,-0.2839 -10.22034,-2.27119 -10.22034,-2.27119 l -12.20763,-7.66525"
     id="path3608" />
  <path
     style="fill:#000000"
     d="m 106.66374,265.22331 c -18.645884,-0.70539 -18.914846,-0.75535 -35.500005,-6.59411 -16.520624,-5.81603 -19.24271,-7.24178 -18.570926,-9.72689 0.302689,-1.11973 1.501694,-6.53587 2.664455,-12.03587 1.162761,-5.5 2.750103,-10.50525 3.527426,-11.12277 0.777324,-0.61753 4.03519,-1.41941 7.239702,-1.78196 4.670598,-0.52841 6.390469,-1.24795 8.669956,-3.62722 1.942119,-2.02714 3.815592,-2.96805 5.909754,-2.96805 l 3.066185,0 3.788677,-15.25 c 2.083773,-8.3875 4.278297,-17.5 4.87672,-20.25 1.700016,-7.81226 4.833348,-17.40829 7.963376,-24.38832 1.57557,-3.51357 2.86468,-6.68804 2.86468,-7.05437 0,-0.36633 -3.409845,-3.11659 -7.577426,-6.11168 -4.167581,-2.9951 -8.733292,-6.45813 -10.146023,-7.69563 -1.412731,-1.2375 -3.065391,-2.25277 -3.672579,-2.25616 -0.607187,-0.003 -2.453977,-0.72669 -4.103977,-1.60733 -1.65,-0.88064 -5.407525,-2.44412 -8.350054,-3.4744 -4.384624,-1.53521 -22.88518,-10.82449 -30.506526,-15.31758 -1.698571,-1.00138 -1.816426,-2.20414 -1.384776,-14.132243 0.426642,-11.789711 0.745287,-13.596227 3.328875,-18.8726 4.060469,-8.292559 5.498581,-8.997732 16.95575,-8.314188 5.199691,0.310218 10.917102,0.188091 12.705357,-0.271394 1.788256,-0.459484 7.894247,-1.377725 13.568869,-2.040536 l 10.317495,-1.20511 -0.642745,-3.804371 c -1.021588,-6.046728 3.607856,-12.9541 8.68207,-12.9541 1.55413,0 2.82569,-0.229615 2.82569,-0.510256 0,-0.28064 -1.575,-2.751025 -3.5,-5.489744 -4.080151,-5.804868 -4.129769,-6 -1.52568,-6 1.19084,0 2.60221,1.21421 3.55657,3.059737 1.84892,3.575417 8.30174,10.940263 9.58547,10.940263 0.486,0 0.88364,-2.413108 0.88364,-5.362462 0,-6.309455 4.05107,-16.958263 9.94337,-26.137538 2.11832,-3.3 4.15297,-7.0125 4.52144,-8.25 0.36848,-1.2375 1.03454,-2.25 1.48013,-2.25 2.22339,0 3.08115,3.79966 3.63177,16.087836 0.78116,17.432917 2.7816,23.912164 7.38276,23.912164 0.43774,0 0.98709,-3.9375 1.22078,-8.75 0.48254,-9.937383 2.81626,-15.080262 10.46577,-23.063739 5.29929,-5.530646 6.64527,-4.883092 5.77829,2.779957 -0.71538,6.32316 1.23358,13.181135 6.11131,21.504343 1.35541,2.312835 2.46438,5.414674 2.46438,6.892977 0,2.613303 0.0762,2.648046 2.75,1.253149 4.67765,-2.440324 14.41204,-12.728772 16.49184,-17.430511 1.51149,-3.416957 1.82601,-5.617069 1.33362,-9.328847 -0.81371,-6.13408 0.92803,-6.492811 5.37641,-1.107329 6.03011,7.300416 6.3992,17.360032 0.9901,26.984851 -3.33318,5.93096 -3.42305,6.265149 -1.68488,6.265149 0.6914,0 3.70615,2.008958 6.69945,4.464351 5.87922,4.822709 9.34841,6.066855 14.04221,5.035922 3.21363,-0.705832 6.00124,-3.8286 6.00124,-6.722779 0,-2.391569 1.22183,-2.237681 3.75156,0.472506 7.03188,7.533499 1.4671,19.632065 -11.7455,25.536266 -4.88714,2.18388 -5.27495,2.566433 -3.45006,3.403336 2.70054,1.238481 8.01549,10.21961 10.36142,17.50857 3.26441,10.14274 7.56117,18.22593 13.90252,26.15379 3.28684,4.10917 12.21361,9.3179 17.66858,10.30953 1.09368,0.19882 2.1191,1.03955 2.2787,1.86829 0.21554,1.11922 -1.61764,1.94527 -7.12685,3.21142 -6.63981,1.52599 -8.24083,1.55877 -15.2787,0.31274 -4.32392,-0.76554 -9.12846,-1.87834 -10.67677,-2.47291 -1.5483,-0.59456 -3.0108,-1.08102 -3.25,-1.08102 -0.23919,0 -0.4349,2.23473 -0.4349,4.96607 0,2.73134 -0.74504,6.52844 -1.65564,8.43799 -1.54254,3.23474 -1.54159,3.64599 0.0139,6.02 2.2948,3.50231 5.71736,5.56761 10.28594,6.2069 5.65401,0.79118 6.38136,1.13878 5.76174,2.75348 -0.70169,1.82857 -7.12538,4.45609 -14.70914,6.01656 l -5.80317,1.19409 2.1967,2.79266 c 3.76336,4.78433 11.92397,10.58706 16.51469,11.74302 8.13975,2.04961 4.17644,4.87975 -6.78931,4.84814 -5.14369,-0.0148 -9.35607,-0.74107 -14.18782,-2.44606 l -6.87209,-2.42496 0.56517,3.4827 c 0.83785,5.16305 6.77841,16.36706 9.92901,18.72628 4.26763,3.19568 3.6292,4.99133 -1.5,4.2189 -5.37232,-0.80904 -10.81609,-3.07632 -17.5,-7.28861 l -5.25,-3.30862 0,2.53073 c 0,2.04483 0.48873,2.53073 2.54545,2.53073 1.4,0 3.62702,1.08156 4.94893,2.40347 1.38211,1.38211 4.23124,2.70511 6.70455,3.11327 8.16344,1.34719 9.46527,2.78524 11.231,12.40628 0.86577,4.71734 1.57321,9.36448 1.57209,10.32698 -0.001,0.9625 0.67297,1.75 1.49797,1.75 0.825,0 1.5,0.38026 1.5,0.84501 0,1.37477 -3.52612,4.15499 -5.26971,4.15499 -0.88674,0 -1.85444,0.39188 -2.15045,0.87084 -0.29602,0.47896 -1.83017,1.12923 -3.40924,1.44504 -1.57906,0.31581 -5.34872,1.70753 -8.37703,3.09271 -5.44399,2.49013 -10.09182,3.7791 -20.79356,5.76662 -7.76273,1.44168 -49.28559,2.44639 -69.5,1.68166 z m 57.20915,-3.86896 c 4.28497,-0.55665 11.39085,-1.4933 15.79085,-2.08143 6.99415,-0.93489 27.10036,-7.68046 29.88031,-10.02475 0.9211,-0.77675 -1.15852,-15.90483 -2.48042,-18.04371 -0.52319,-0.84654 -1.14538,-0.90076 -2.07367,-0.18071 -2.2786,1.76745 -13.99608,6.05439 -23.86428,8.73094 -12.49544,3.38914 -28.94449,5.61465 -41.38601,5.5994 -12.34247,-0.0151 -40.390795,-2.42742 -47.128417,-4.05326 -11.580966,-2.7946 -22.280953,-6.13723 -26.911297,-8.40697 -2.730078,-1.33826 -5.133951,-2.26302 -5.34194,-2.05503 -1.005962,1.00596 -4.169929,17.95196 -3.48051,18.64138 1.938892,1.93889 24.542621,9.45877 34.252696,11.39529 8.077933,1.61101 61.329158,1.96156 72.742688,0.47885 z m -3.66727,-21.04125 c 4.69804,-0.57623 10.77304,-1.68318 13.5,-2.45987 l 4.95812,-1.41217 -6,0.65618 c -3.3,0.3609 -17.475,0.64667 -31.5,0.63506 -27.43171,-0.0227 -43.985151,-1.45545 -53.000005,-4.58723 -14.14554,-4.9142 -17.752229,-5.84993 -21.486678,-5.57456 l -4.013322,0.29593 4.5,2.14572 c 8.911499,4.24924 31.56188,9.57383 45.500005,10.69602 9.95071,0.80116 39.81219,0.55301 47.54188,-0.39508 z m 25.45812,-5.0487 c 6.87788,-1.87575 18.68978,-7.11156 17.82532,-7.90134 -0.45392,-0.41472 -2.4249,-1.03752 -4.37993,-1.38399 -3.08789,-0.54723 -3.94135,-0.22318 -6.5,2.46799 -3.03736,3.19467 -7.06648,5.65501 -11.43892,6.98504 -3.93635,1.19739 0.031,1.04932 4.49353,-0.1677 z m -13.68159,-1.86956 c 11.50464,-1.32277 20.18159,-5.94505 20.18159,-10.75091 0,-1.927 -5.78172,-1.55876 -8.0019,0.50965 -1.50434,1.40151 -5.6491,2.1598 -19.20818,3.51415 -32.33237,3.22951 -55.74299,2.00935 -75.677089,-3.94429 -8.431306,-2.51815 -12.450415,-2.52563 -13.410015,-0.0249 -0.889711,2.31855 0.545116,3.26531 9.098659,6.00367 7.412603,2.37309 17.874615,4.04811 31.198525,4.99505 10.85561,0.77151 48.23972,0.569 55.81841,-0.30237 z m -0.44346,-10.80921 c 10.54911,-1.07414 11.85403,-1.8243 10.9589,-6.29993 -0.29424,-1.47121 -0.015,-3.64646 0.62046,-4.8339 0.99275,-1.85495 0.70032,-2.73362 -2.07673,-6.23993 -3.03593,-3.83317 -3.31289,-3.96755 -4.56139,-2.2132 -7.54378,10.60038 -15.41302,17.257 -20.87201,17.65572 l -2.9033,0.21205 0.3203,-10.05616 c 0.43538,-13.66915 -1.5916,-20.59418 -10.46336,-35.74742 -2.63238,-4.49617 -3.39782,-6.9258 -3.39782,-10.78518 0,-4.41929 -0.19754,-4.8804 -1.75,-4.08498 -2.95707,1.51508 -11.29155,2.22187 -13.33079,1.1305 -3.08125,-1.64903 -2.24634,-3.51813 2.71216,-6.07168 9.52701,-4.90625 13.15667,-16.975 8.93123,-29.69661 -0.96892,-2.91713 -1.59641,-7.03678 -1.39442,-9.15477 l 0.36724,-3.8509 -5.21904,-1.04813 c -6.42764,-1.29085 -11.98255,-4.69715 -15.7807,-9.67679 -2.45957,-3.224666 -2.95104,-4.919639 -3.33134,-11.489013 -0.49882,-8.616911 0.61312,-13.055487 4.32816,-17.276767 2.93763,-3.337932 4.4675,-2.771182 4.4675,1.655015 0,4.392385 3.90969,11.809346 7.17137,13.604627 2.79279,1.53719 4.42144,1.100085 9.22701,-2.476397 1.58019,-1.176034 1.6829,-1.672498 0.61274,-2.961963 -0.88982,-1.072162 -1.11449,-3.436775 -0.72972,-7.680079 0.64939,-7.161657 -0.27185,-10.159343 -4.45515,-14.496909 -3.37325,-3.497636 -3.03458,-5.677781 0.73504,-4.731668 2.07089,0.51976 2.43651,0.256367 2.42416,-1.74633 -0.008,-1.297124 -0.75043,-4.383408 -1.64984,-6.858408 -0.8994,-2.475 -1.90535,-9.225 -2.23544,-15 -0.3301,-5.775 -0.99848,-10.5 -1.48531,-10.5 -0.48683,0 -2.54068,3.15 -4.56411,7 -7.80988,14.859949 -8.69398,20.964966 -4.48925,31 3.13339,7.478172 3.17534,7.66189 1.86141,8.150695 -0.59239,0.220383 -2.30798,-1.860867 -3.81241,-4.625 -1.62041,-2.977238 -3.42318,-5.023422 -4.42291,-5.020118 -6.45386,0.02133 -12.58979,4.283622 -16.000083,11.114365 l -1.687512,3.380058 -11,1.046344 C 74.08425,74.919115 69.5954,75.946757 62.267358,79.04002 c -4.155526,1.754102 -6.699706,0.233793 -3.549876,-2.121276 1.766728,-1.32095 1.380878,-1.434072 -4.183043,-1.226367 -3.371113,0.125846 -6.817162,0.799688 -7.657885,1.497427 -2.031578,1.68606 -4.959583,7.954757 -4.424076,9.471701 0.233947,0.662708 1.116654,-0.370077 1.961571,-2.295077 0.844916,-1.925 2.259243,-4.4 3.142949,-5.5 1.606737,-2 1.606737,-2 3.150112,0 1.035562,1.341944 1.446847,3.645139 1.25,7 l -0.293375,5 -3.960116,0.322892 c -2.740133,0.223419 -4.315428,-0.163026 -5.113471,-1.254415 -0.950679,-1.300131 -1.26521,-0.761232 -1.789884,3.066679 -0.350091,2.554193 -0.636529,7.484556 -0.636529,10.956376 0,6.3021 0.0069,6.31716 4.25,9.22951 5.171829,3.54983 18.436229,10.22321 25.25,12.70339 2.75,1.00098 5.48885,2.18646 6.086334,2.63439 0.597484,0.44793 2.959984,1.47548 5.25,2.28345 l 4.163666,1.46902 0.162411,-7.20564 c 0.08932,-3.9631 0.274548,-8.78064 0.411606,-10.70564 0.295445,-4.14956 1.266518,-15.39231 1.360381,-15.750012 0.03608,-0.1375 0.802013,-0.25 1.702071,-0.25 1.695642,0 1.696075,-0.05195 -0.208643,25.000012 -0.146359,1.925 -0.02641,5.525 0.266555,8 0.503745,4.2557 0.947246,4.80307 8.169141,10.08244 4.200063,3.07034 9.091373,6.42537 10.869563,7.45561 3.19989,1.85394 3.28718,1.84942 8.5,-0.44081 6.73031,-2.95692 9.76692,-3.64122 9.76692,-2.20095 0,0.62119 -3.2625,2.72295 -7.25,4.67057 -6.85623,3.34881 -7.39252,3.45771 -9.87409,2.00498 l -2.62409,-1.53616 -3.22016,7.20176 c -1.77109,3.96096 -4.304685,11.49043 -5.630196,16.73215 -5.407534,21.38401 -10.426795,43.33842 -10.004634,43.76058 0.247221,0.24722 5.546569,1.50711 11.776325,2.79976 10.493095,2.17727 13.203855,2.32615 36.826845,2.02251 14.025,-0.18026 29.94373,-0.78023 35.37495,-1.33325 z m 33.38352,-5.46919 c -0.69216,-1.2375 -1.80583,-2.94371 -2.47483,-3.79157 -2.13005,-2.69954 -6.28364,-14.87695 -6.28364,-18.42224 0,-3.86175 1.75343,-5.58863 3.4017,-3.3502 1.53371,2.08286 11.03189,5.4491 17.59829,6.237 4.57652,0.54914 5.16419,0.4547 3.5,-0.56243 -6.494,-3.96907 -17.30235,-16.7533 -15.977,-18.89776 0.32727,-0.52954 3.15599,-1.00766 6.28603,-1.06248 3.13003,-0.0548 6.81597,-0.42283 8.19097,-0.81779 l 2.5,-0.7181 -3.19835,-1.68119 c -7.07803,-3.7205 -13.79092,-14.29743 -16.17304,-25.48246 -2.38942,-11.21929 -0.71193,-14.5523 4.93336,-9.8021 1.70032,1.43073 3.86695,2.60132 4.81476,2.60132 0.9478,0 2.16227,0.439 2.69883,0.97556 0.53655,0.53655 4.56405,1.87964 8.95,2.98464 12.31196,3.10189 24.54965,2.38466 16.46316,-0.96487 -3.60843,-1.49466 -14.98872,-12.34985 -14.98872,-14.29712 0,-0.76353 -0.85839,-2.16507 -1.90753,-3.11453 -1.04914,-0.94946 -2.87325,-4.0567 -4.05358,-6.90498 -1.18032,-2.84829 -2.54058,-6.0787 -3.0228,-7.1787 -0.48221,-1.1 -1.42056,-3.8 -2.08522,-6.00001 -0.66467,-2.2 -2.04602,-5.19447 -3.06968,-6.65437 -1.02364,-1.459906 -1.86118,-3.093996 -1.86118,-3.631314 0,-1.071581 -6.36622,-6.214318 -7.69273,-6.214318 -1.17376,0 -3.56993,-4.070676 -2.83108,-4.809524 0.33812,-0.338121 1.4602,-0.08678 2.49352,0.558533 1.47995,0.924243 2.58471,0.842523 5.20452,-0.38498 13.53546,-6.342004 15.81547,-8.66409 15.82202,-16.114029 0.002,-2.3375 -0.18664,-4.25 -0.41934,-4.25 -0.23269,0 -1.77307,1.35 -3.42307,3 -2.52722,2.527214 -3.782,3 -7.96204,3 -4.40345,0 -5.57651,-0.505871 -10.42052,-4.49372 -8.36284,-6.884751 -14.05264,-7.069651 -16.75545,-0.544497 -0.69216,1.671019 -1.87888,3.038217 -2.63715,3.038217 -2.66835,0 -1.33139,-3.479602 3.06063,-7.965651 6.62532,-6.767152 10.56383,-14.939856 10.54704,-21.885895 -0.0236,-9.766193 -2.15486,-13.74974 -3.35176,-6.264798 -1.04119,6.51127 -12.43408,18.052681 -26.73049,27.078966 -8.59924,5.42928 -12.07865,9.614429 -12.86318,15.472257 -0.37084,2.768956 -1.08823,4.144112 -2.28159,4.373534 -1.51822,0.291877 -1.66106,-0.2462 -1.11771,-4.210394 1.04105,-7.595275 -2.41966,-12.48847 -10.6886,-15.11293 l -2.29393,-0.728065 2.20377,3.735116 c 1.76507,2.991561 2.1691,5.109101 2.02959,10.637093 -0.13067,5.178105 0.23565,7.354836 1.46669,8.715113 2.15451,2.380713 2.0841,4.155654 -0.16486,4.155654 -0.99315,0 -3.33057,1.125 -5.19428,2.5 -1.86371,1.375 -4.6134,2.5 -6.11043,2.5 -3.9424,0 -10.69663,-6.631927 -12.30627,-12.083448 l -1.28188,-4.341467 -1.26918,5.290541 c -2.05213,8.554214 -0.0527,18.192607 4.61538,22.248586 3.05054,2.65055 11.29946,4.8858 18.03052,4.8858 3.47702,0 6.32186,0.26946 6.32186,0.59879 0,0.32933 -1.35,1.85988 -3,3.40121 -3.53094,3.2984 -3.67188,5.27431 -0.9871,13.83909 1.09291,3.48651 1.9871,8.26059 1.9871,10.60908 0,5.36526 -4.24522,14.006 -9,18.31865 -3.26242,2.95907 -3.34509,3.17654 -1.21788,3.20387 3.78754,0.0487 9.29265,-2.77021 12.91869,-6.61493 2.55529,-2.7094 3.71237,-3.34258 4.55976,-2.49519 0.84738,0.84738 0.33665,1.96075 -2.01268,4.38748 -6.09041,6.2911 -5.3765,13.59416 2.64851,27.09333 5.1787,8.71128 6.97665,14.73265 7.73618,25.90862 0.43083,6.33936 1.06774,9.75 1.82074,9.75 3.2966,0 11.90985,-8.91648 15.63184,-16.18215 1.03744,-2.02518 2.25928,-3.91269 2.71519,-4.19446 0.45592,-0.28177 2.71335,2.07539 5.01652,5.23814 5.92167,8.13172 10.11775,11.91773 16.83555,15.19023 7.14902,3.48257 7.69854,3.54541 6.10605,0.69824 z m 6.59967,-61.5 c 1.34929,-8.16315 0.92878,-9.70688 -3.41966,-12.55389 -3.26036,-2.13462 -3.95409,-2.3176 -3.51689,-0.92763 0.29955,0.95233 0.96989,3.98152 1.48965,6.73152 1.97971,10.47451 4.34649,13.4075 5.4469,6.75 z M 48.148422,86.116428 c -0.01238,-1.819438 -0.200813,-1.962959 -0.984687,-0.75 -1.252922,1.938759 -1.252922,3 0,3 0.55,0 0.993109,-1.0125 0.984687,-2.25 z M 152.16374,66.394276 c 0,-0.534683 2.72525,-3.122183 6.05611,-5.75 5.55471,-4.382279 6.01593,-5.042918 5.57072,-7.979468 -0.26696,-1.760891 -2.39882,-7.160891 -4.73746,-12 -3.11678,-6.449247 -4.255,-10.039301 -4.26303,-13.446092 l -0.011,-4.647712 -3.3149,4.147712 c -4.68539,5.862514 -5.79792,10.450312 -5.64805,23.291101 0.116,9.939637 0.37817,11.478978 2.42687,14.25 2.28776,3.094357 3.9207,3.983344 3.9207,2.134459 z m -45.5,-10.318223 c 1.18101,-0.282038 0.54266,-0.525124 -1.55887,-0.593624 -4.38032,-0.142776 -6.621695,1.462898 -7.515549,5.383999 l -0.683881,3 3.87915,-3.656377 c 2.13353,-2.011007 4.77915,-3.871306 5.87915,-4.133998 z m 36.5,2.490375 c 0,-1.413175 -2.34521,-3.2 -4.2,-3.2 -2.52887,0 -2.24294,1.88641 0.45,2.968838 2.89972,1.165545 3.75,1.217959 3.75,0.231162 z"
     id="path3384" />
</svg>
