<?xml version="1.0" encoding="UTF-8" standalone="no"?>
<!-- Created with Inkscape (http://www.inkscape.org/) -->

<svg
   xmlns:dc="http://purl.org/dc/elements/1.1/"
   xmlns:cc="http://creativecommons.org/ns#"
   xmlns:rdf="http://www.w3.org/1999/02/22-rdf-syntax-ns#"
   xmlns:svg="http://www.w3.org/2000/svg"
   xmlns="http://www.w3.org/2000/svg"
   xmlns:sodipodi="http://sodipodi.sourceforge.net/DTD/sodipodi-0.dtd"
   xmlns:inkscape="http://www.inkscape.org/namespaces/inkscape"
   id="svg3233"
   version="1.1"
   inkscape:version="0.47 r22583"
   width="275"
   height="275"
   sodipodi:docname="front.svg">
  <metadata
     id="metadata3239">
    <rdf:RDF>
      <cc:Work
         rdf:about="">
        <dc:format>image/svg+xml</dc:format>
        <dc:type
           rdf:resource="http://purl.org/dc/dcmitype/StillImage" />
        <dc:title />
      </cc:Work>
    </rdf:RDF>
  </metadata>
  <defs
     id="defs3237">
    <inkscape:perspective
       sodipodi:type="inkscape:persp3d"
       inkscape:vp_x="0 : 0.5 : 1"
       inkscape:vp_y="0 : 1000 : 0"
       inkscape:vp_z="1 : 0.5 : 1"
       inkscape:persp3d-origin="0.5 : 0.33333333 : 1"
       id="perspective3241" />
  </defs>
  <sodipodi:namedview
     pagecolor="#ffffff"
     bordercolor="#666666"
     borderopacity="1"
     objecttolerance="10"
     gridtolerance="10"
     guidetolerance="10"
     inkscape:pageopacity="0"
     inkscape:pageshadow="2"
     inkscape:window-width="1280"
     inkscape:window-height="999"
     id="namedview3235"
     showgrid="false"
     inkscape:zoom="4.8723272"
     inkscape:cx="121.60022"
     inkscape:cy="153.57266"
     inkscape:window-x="1280"
     inkscape:window-y="0"
     inkscape:window-maximized="1"
     inkscape:current-layer="svg3233" />
  <path
     style="fill:#4d4d4d;fill-opacity:1;stroke:#b3b3b3;stroke-width:1;stroke-miterlimit:4;stroke-opacity:1;stroke-dasharray:none"
     d="m 115.78814,26.917902 c -0.21627,-0.0044 -0.50495,0.65154 -1.0625,1.75 -0.61475,1.211155 -1.3542,2.414147 -1.65625,2.6875 -0.30205,0.273353 -0.53125,0.635701 -0.53125,0.78125 0,0.145549 -0.34033,0.679322 -0.71875,1.1875 -0.37842,0.508178 -1.2318,1.972881 -1.90625,3.25 -0.67446,1.277119 -1.40076,2.49797 -1.625,2.75 -0.22424,0.25203 -0.40625,0.64598 -0.40625,0.875 0,0.409454 -1.07168,2.049522 -3.03125,4.625 -0.54659,0.718379 -1.02065,1.453876 -1.03125,1.625 -0.0106,0.171124 -0.67055,1.247574 -1.46875,2.40625 -0.7982,1.158675 -1.4375,2.18458 -1.4375,2.28125 0,0.09667 -0.2321,0.451682 -0.53125,0.78125 -0.29916,0.329569 -0.883884,1.187871 -1.281254,1.90625 -0.39737,0.718379 -1.02554,1.830191 -1.40625,2.46875 -0.38071,0.638559 -0.88521,1.520384 -1.125,1.9375 -0.23979,0.417116 -1.01055,1.574107 -1.6875,2.59375 -0.67695,1.019643 -1.21725,2.034666 -1.21875,2.25 -10e-4,0.215333 -0.18036,0.809454 -0.40625,1.3125 -0.29944,0.666836 -0.48799,2.865789 -0.625,8.15625 -0.10334,3.990998 -0.14368,7.84412 -0.09375,8.5625 0.16819,2.42254 -0.01,6.47862 -0.3125,6.78125 -0.16522,0.16522 -0.3073,0.57899 -0.3125,0.90625 -0.0107,0.6688 -1.61911,3.485879 -4.15625,7.28125 -0.93589,1.400019 -1.7218,2.70156 -1.75,2.875 -0.0282,0.17344 -0.26894,0.63215 -0.53125,1.03125 -0.26232,0.399098 -0.58262,1.073168 -0.6875,1.499998 l 0,0.0625 -0.03125,0.0313 c -0.0069,0.0116 -0.03125,0.0189 -0.03125,0.0313 l 0,0.125 -0.0625,0.25 -0.5625,0 c -0.28686,0 -0.5,0.0886 -0.5,0.1875 l 0,2.875 c -0.5686,0.20614 -1.51469,1.0897 -2.625,2.53125 -0.933585,1.21211 -1.844993,2.7219 -2.6875,4.28125 1.301078,-4.80176 2.705156,-8.83231 4.53125,-13.156248 1.089799,-2.58049 1.94097,-4.74653 1.875,-4.8125 -0.06597,-0.06597 -1.640991,-0.292016 -3.5,-0.5 -2.50884,-0.280688 -3.783104,-0.652877 -4.96875,-1.4375 -1.991965,-1.31822 -5.834732,-6.325167 -8.5625,-11.15625 -1.141205,-2.021161 -2.467394,-4.334823 -2.9375,-5.125 l -0.875,-1.40625 0.15625,4.09375 c 0.202886,5.556176 1.735719,10.180958 4.125,12.5 1.494457,1.450525 1.634264,1.74621 1.28125,2.75 -0.739986,2.10413 -2.699192,2.8234 -7.78125,2.8125 -4.334146,-0.009 -4.640784,-0.0918 -7.6875,-1.53125 -1.916336,-0.905392 -4.067362,-2.329181 -5.4375,-3.625 -1.24816,-1.180458 -2.3912,-2.0463 -2.53125,-1.90625 -0.397126,0.397126 -0.226248,4.271544 0.28125,6.15625 1.864014,6.922418 7.594289,12.565398 16.71875,16.499998 2.083896,0.89861 3.74528,1.84396 3.6875,2.09375 -0.185748,0.80305 -4.156466,3.97873 -6.0625,4.84375 -1.357408,0.61603 -2.711831,0.83675 -5.125,0.84375 -2.858691,0.009 -3.64161,-0.1574 -6.09375,-1.3125 -1.54926,-0.72979 -3.018226,-1.34375 -3.25,-1.34375 -0.682796,0 -0.0633,4.58943 0.90625,6.78125 1.222617,2.76393 3.292551,5.19266 6.0625,7.03125 2.562269,1.70074 9.873924,4.86675 12.25,5.3125 3.104251,0.58236 2.639611,4.10192 -0.8125,6.125 -2.944619,1.72566 -6.030764,2.39225 -11.3125,2.40625 -5.308937,0.014 -6.167712,-0.28178 -9.625,-3.15625 l -2,-1.65625 0.28125,1.1875 c 1.269709,5.31428 6.22494,10.06988 11.5,11.03125 2.920913,0.53233 4.749011,1.50046 5.03125,2.625 0.370577,1.47649 -0.509609,1.95953 -4.5625,2.5625 -5.963567,0.88723 -9.206719,3.14618 -9.90625,6.875 -0.150641,0.80298 -0.04011,3.51252 0.25,6.03125 0.633946,5.50382 0.338969,11.95013 -0.65625,14.78125 -0.396814,1.12882 -1.437059,3.17666 -2.3125,4.53125 l -1.59375,2.4375 1.5625,0.28125 c 3.545566,0.60389 9.700519,-1.28763 12.65625,-3.875 2.155237,-1.88664 4.16223,-2.41548 4.96875,-1.3125 0.735391,1.00571 0.712295,4.37987 -0.0625,7.40625 -0.916651,3.58048 -3.601045,8.94834 -6.40625,12.8125 -1.377555,1.89758 -2.349766,3.5812 -2.1875,3.84375 0.20472,0.33125 1.579212,0.40689 4.65625,0.21875 7.046403,-0.43086 9.030844,-1.34656 9.8125,-4.46875 0.241682,-0.96536 1.025587,-7.28956 1.71875,-14.0625 0.01246,-0.1217 0.01884,-0.19136 0.03125,-0.3125 2.14e-4,0.22724 -2.7e-4,0.33068 0,0.5625 0.01779,15.2718 0.190535,21.7878 0.59375,22.21875 0.141897,0.15166 0.28125,0.77015 0.28125,1.375 0,1.07531 0.983904,5.1386 1.46875,6.0625 0.03359,0.064 0.169167,0.22517 0.25,0.34375 -0.579183,-0.271 -1.10992,-0.53315 -1.5625,-0.8125 -2.042908,-1.26096 -2.440377,-1.21774 -6,0.25 -3.286446,1.35511 -3.500333,1.49089 -3,2.09375 0.687345,0.8282 3.752504,2.77247 5.9375,3.78125 6.799449,3.13922 14.849173,5.05194 27.9375,6.65625 1.530927,0.18766 2.893846,0.373 4,0.53125 4.250914,1.99369 8.010024,3.78401 8.250004,4 0.35672,0.32109 9.94593,0.1127 12.90625,-0.28125 1.1973,-0.15934 3.1777,-0.36202 4.375,-0.46875 3.31633,-0.29561 11.82768,-1.87675 13.625,-2.53125 0.68506,-0.24946 2.1083,-0.60696 3.5,-0.90625 3.94092,-0.40186 11.06999,-1.64248 15.8125,-2.8125 8.13952,-2.00812 25.51973,-8.94006 25.1875,-10.03125 -0.0486,-0.15964 -0.70221,-0.69992 -1.46875,-1.21875 -0.99854,-0.67586 -1.83261,-1.00832 -3.15625,-0.9375 -1.07932,0.0577 -2.52637,0.39891 -4.625,1 0.41709,-0.78433 0.68364,-1.66124 0.75,-2.625 0,-2.94486 -0.7581,-8.46733 -1.84375,-13.46875 -0.3985,-1.83586 -1.25401,-6.35953 -1.90625,-10.03125 -0.65223,-3.67172 -1.44204,-7.92092 -1.75,-9.4375 -1.47168,-7.2475 -2.45692,-11.63629 -3.0625,-13.625 -0.36458,-1.1973 -0.93635,-3.1777 -1.28125,-4.375 -0.9372,-3.25338 -1.49928,-4.70002 -2.09375,-5.46875 -0.29441,-0.38071 -0.53125,-0.92875 -0.53125,-1.21875 0,-0.29 -0.67055,-1.7646 -1.46875,-3.28125 -0.64854,-1.23228 -1.16269,-2.38394 -1.34375,-2.90625 l 0,-8.5 c 0.50363,0.12322 0.9828,0.18648 1.40625,0.1875 0.79655,0.002 1.82592,0.25868 2.46875,0.59375 0.60798,0.31689 1.96675,0.7269 3,0.9375 2.63156,0.53638 3.06526,0.39695 4.21875,-1.40625 0.84523,-1.3213 1,-1.80139 1,-3.3125 0,-2.33848 0.40278,-3.16916 3.3125,-7.0625 3.8345,-5.13073 4.72057,-5.6585 9.875,-5.6875 1.51634,-0.009 3.58964,-0.24061 4.9375,-0.5625 1.27712,-0.30499 3.45556,-0.69691 4.8125,-0.875 4.31177,-0.56591 5.87765,-0.89371 9,-1.8125 5.31703,-1.56459 7.38196,-2.05099 12.75,-3 1.1973,-0.21167 4.4563,-0.93721 7.25,-1.59375 5.73703,-1.34823 9.96201,-1.7399 18.625,-1.75 4.30378,-0.005 5.4083,-0.10523 6.9375,-0.59375 1.14793,-0.36672 2.59782,-0.5625 3.96875,-0.5625 1.9523,0 2.15519,-0.0431 1.96875,-0.5 -0.114,-0.27937 -0.2034,-5.73941 -0.1875,-12.125 0.0312,-12.520697 0.0827,-12.163428 -1.65625,-17.968748 -1.36656,-4.56225 -4.03258,-8.78017 -6.5625,-10.34375 -0.5482,-0.3388 -0.9738,-0.76604 -0.9375,-0.9375 0.1138,-0.53734 -3.15429,-2.973752 -5.65625,-4.21875 -1.31834,-0.656016 -3.24359,-1.410948 -4.28125,-1.6875 -3.6659,-0.977016 -13.23124,-0.476978 -15.34375,0.8125 -0.74333,0.453725 -1.04764,0.526856 -1.21875,0.25 -0.17252,-0.279155 -1.14696,-0.131476 -4.25,0.65625 -7.1143,1.806018 -6.98657,1.80911 -23.3125,1.78125 -18.17414,-0.031 -28.02677,-0.26375 -29.1875,-0.65625 -1.41148,-0.47729 -2.75,-1.23794 -2.75,-1.5625 0,-0.16597 -0.9902,-1.271451 -2.1875,-2.46875 -1.1973,-1.197299 -2.15625,-2.290872 -2.15625,-2.4375 0,-0.146624 -0.18252,-0.35165 -0.40625,-0.4375 -0.22373,-0.08585 -0.4853,-0.39212 -0.5625,-0.6875 -0.12366,-0.472888 -0.26944,-0.522632 -1.34375,-0.28125 -1.65753,0.372422 -3.50229,1.366495 -3.6875,1.96875 -0.0837,0.272157 -0.25827,0.691546 -0.40625,0.96875 -0.14799,0.277205 -0.28125,0.683574 -0.28125,0.875 0,0.401555 -1.14349,1.6875 -1.5,1.6875 -0.13182,0 -0.25,-0.292149 -0.25,-0.65625 0,-0.440115 -0.25059,-0.788372 -0.78125,-1.03125 -1.4503,-0.663786 -2.125,-1.071071 -2.125,-1.28125 0,-0.516426 -2.82048,-2.062076 -4.4375,-2.4375 -2.23406,-0.518684 -4.25,-1.492405 -4.25,-2.03125 0,-0.225217 -0.19804,-0.40625 -0.4375,-0.40625 -1.25173,0 0.24394,-6.701707 2.5625,-11.4375 0.86386,-1.764503 1.73976,-3.736441 1.9375,-4.375 0.40221,-1.298835 1.42422,-3.433381 2.96875,-6.25 0.56901,-1.037659 1.51061,-3.108421 2.09375,-4.625 0.58313,-1.516578 1.357,-3.59284 1.75,-4.59375 0.80158,-2.041516 0.94829,-3.25 0.34375,-3.25 -1.23073,0 -5.40625,2.800421 -5.40625,3.625 0,0.208573 -0.32407,0.46344 -0.71875,0.5625 -0.39468,0.09906 -0.9572,0.435713 -1.25,0.75 -0.59571,0.639415 -2.23404,1.574709 -4.9375,2.875 -0.99774,0.479891 -1.8125,1.012086 -1.8125,1.15625 0,0.144165 -0.29706,0.31215 -0.65625,0.40625 -0.35919,0.0941 -1.13075,0.656986 -1.71875,1.21875 -0.58799,0.561763 -1.22911,1 -1.40625,1 -0.17713,0 -0.93605,0.564002 -1.6875,1.25 -2.41891,2.208225 -3.2819,2.8125 -4,2.8125 -0.63863,0 -0.6875,-0.112017 -0.6875,-1.28125 0,-0.708266 -0.27559,-2.360359 -0.59375,-3.6875 -0.31816,-1.327142 -0.58565,-3.153231 -0.59375,-4.03125 -0.008,-0.878019 -0.11541,-2.111441 -0.25,-2.75 -0.13459,-0.638559 -0.45336,-2.268061 -0.71875,-3.625 -0.50788,-2.596769 -0.6907,-3.681785 -0.96875,-3.6875 z m 47.5,32 c -0.23736,8.31e-4 -0.46864,0.01051 -0.71875,0.03125 -3.41821,0.283464 -5.80425,2.475151 -6.46875,5.96875 -0.30009,1.577758 0.38009,5.237017 1.21875,6.5625 0.49687,0.785287 0.93478,0.90625 2.96875,0.90625 5.48811,0 8.6905,-2.742742 8.6875,-7.46875 -0.003,-3.823666 -2.12712,-6.012459 -5.6875,-6 z m -76.500004,42.281248 0,0.21875 -0.4375,0 0.3125,-0.15625 c 0.0447,-0.0217 0.081,-0.0413 0.125,-0.0625 z M 184.81939,225.1054 c -0.0581,-0.0617 -2.83891,1.18568 -6.15625,2.75 -7.18199,3.38671 -10.34819,4.68948 -14.1875,5.875 -3.97208,1.2265 -11.30072,3.12539 -14.78125,3.8125 -22.0467,4.35235 -56.98707,3.49899 -76.906254,-1.875 -4.578192,-1.23515 -6.359131,-2.03491 -13.75,-6.1875 -2.304724,-1.29491 -4.317237,-2.27805 -4.4375,-2.15625 -0.724979,0.73425 -4.3125,15.11358 -4.3125,17.28125 0,1.0466 0.169601,1.37166 1.4375,2.59375 2.581596,2.48833 7.940707,4.68053 16.84375,6.875 4.812606,1.18624 17.427168,3.70015 19.59375,3.90625 2.573627,0.24483 34.352164,0.17584 44.125004,-0.0937 11.07084,-0.30545 14.05892,-0.56754 17.5625,-1.46875 2.62218,-0.67449 10.15814,-3.33966 16.125,-5.71875 2.3946,-0.95476 5.85164,-2.22647 7.6875,-2.8125 4.09072,-1.30583 14.47335,-6.37829 14.53125,-7.09375 0.0947,-1.17022 -0.093,-3.24845 -0.5,-5.125 -0.47931,-2.20989 -2.70356,-10.38053 -2.875,-10.5625 z"
     id="rect3307" />
  <path
     style="fill:#ff0000;stroke:#000000;stroke-width:1px;stroke-linecap:butt;stroke-linejoin:miter;stroke-opacity:1"
     d="m 99.336514,93.567193 1.231446,7.799147 8.82535,5.74674 6.97819,-3.28385 2.25764,-8.20963 -4.92577,-5.74674 -8.82536,-1.231445"
     id="path2820" />
  <path
     style="fill:#ff0000;stroke:#000000;stroke-width:1px;stroke-linecap:butt;stroke-linejoin:miter;stroke-opacity:1"
     d="m 154.95675,61.139157 -1.0262,5.336259 2.66813,6.362463 5.74674,2.052407 6.97818,-5.5415 1.23145,-7.593907 -6.15722,-5.541499 -4.5153,0.820962"
     id="path2822" />
  <path
     style="fill:#502d16;stroke:#000000;stroke-width:1px;stroke-linecap:butt;stroke-linejoin:miter;stroke-opacity:1"
     d="m 205.03549,84.741841 4.92578,3.489093 9.44107,11.082999 -6.5677,5.951977 -9.23583,-19.908346"
     id="path2824" />
  <path
     style="fill:#ffffff;stroke:#000000;stroke-width:1px;stroke-linecap:butt;stroke-linejoin:miter;stroke-opacity:1"
     d="m 193.13153,115.93843 4.72054,-0.61572 1.43668,3.48909 -4.5153,2.87337 -3.48909,-2.25764"
     id="path2832" />
  <path
     style="fill:#782121;stroke:#000000;stroke-width:1px;stroke-linecap:butt;stroke-linejoin:miter;stroke-opacity:1;fill-opacity:1"
     d="m 87.432552,91.104304 -6.567704,16.419256 -6.567703,32.01756 -8.620111,71.21853 -21.345036,3.28385 c 0,0 10.056796,-14.16161 10.262037,-14.98257 0.20524,-0.82096 2.052407,-10.26204 2.052407,-10.26204 l -10.467277,5.13102 -12.724926,-1.0262 8.825352,-9.85156 -1.641926,-22.166 9.851555,-6.77294 -5.5415,-4.31006 c 0,0 -5.131018,-6.36246 -5.336259,-7.38866 -0.20524,-1.02621 0.820963,-6.77295 0.820963,-6.77295 l 6.157222,5.5415 c 0,0 11.28824,1.02621 12.314444,0.41048 1.026204,-0.61572 6.362463,-3.07861 6.362463,-3.07861 l -10.262037,-5.13102 -9.235833,-6.15722 -1.847166,-12.31444 12.724925,3.28385 6.772944,-3.89957 -11.698722,-6.97819 -8.209629,-14.777331 2.257648,-7.388666 8.20963,8.41487 12.519684,-0.820963 -5.5415,-17.240222 2.873371,-4.720536 12.724925,19.70311"
     id="path2834" />
  <path
     style="fill:#000000"
     d="m 84.558072,260.89393 c -12.59778,-1.96855 -26.83821,-6.1037 -33.005,-9.58402 -6.42294,-3.62488 -6.35635,-3.24508 -3.10464,-17.70641 2.21974,-9.87184 2.806,-10.73181 9.68244,-14.20303 8.21158,-4.14519 7.94117,-5.80483 -0.78765,-4.83424 -11.73077,1.30437 -15.25,1.09451 -15.25,-0.9094 0,-0.96946 1.12117,-2.60462 2.4915,-3.63369 4.87875,-3.66379 13.26166,-18.60366 10.43869,-18.60366 -0.5116,0 -0.93019,0.39541 -0.93019,0.87868 0,2.25199 -15.11738,4.88292 -20.41595,3.55306 -3.27067,-0.82089 -3.3378,-3.19467 -0.12489,-4.41621 1.35253,-0.51423 3.65267,-2.7385 5.11141,-4.9428 2.59882,-3.92708 2.6379,-4.22767 1.93953,-14.91816 l -0.71273,-10.91032 3.5037,-3.33376 3.50371,-3.33376 -4.4491,-4.94847 c -4.18475,-4.65445 -4.43147,-5.25033 -4.15239,-10.029 0.366,-6.26696 2.82755,-7.45928 5.5507,-2.68863 0.9603,1.68235 3.06436,3.52046 4.67567,4.0847 2.95876,1.03608 12.57034,0.32367 12.57034,-0.93171 0,-0.3733 -1.9125,-1.49836 -4.25,-2.50013 -5.26715,-2.25733 -11.53093,-8.01264 -13.36638,-12.28137 -1.57183,-3.65561 -1.80154,-10.07314 -0.43772,-12.22883 0.76952,-1.21632 1.70432,-1.01725 5.87002,1.25 5.05389,2.75068 8.62463,3.33751 11.03045,1.81282 0.98776,-0.62599 0.51958,-1.14149 -1.75769,-1.93535 -4.38659,-1.52917 -13.78696,-10.73649 -15.1365,-14.825665 -1.70486,-5.165744 -1.49881,-11.591194 0.46796,-14.592854 2.05074,-3.129826 4.22058,-2.66917 5.04622,1.071311 0.74442,3.372535 7.10116,7.16646 12.00744,7.16646 l 3.57756,0 -1.52568,-2.95034 c -0.83912,-1.622687 -1.52568,-3.846129 -1.52568,-4.940983 0,-1.094854 -0.39916,-2.237337 -0.88702,-2.538851 -1.44727,-0.894464 -0.36765,-11.38838 1.582,-15.377056 0.99276,-2.031023 2.60345,-3.840371 3.57931,-4.020772 1.54132,-0.284935 1.68993,0.199574 1.13178,3.690059 -0.49281,3.081839 -0.1057,5.138794 1.66138,8.828002 4.83092,10.085738 8.78487,14.309941 13.39443,14.309941 6.05704,0 6.82555,-1.469987 7.34374,-14.046975 0.51528,-12.506233 1.4475,-14.971362 10.87836,-28.766233 2.373808,-3.472265 4.317178,-6.622265 4.318588,-7 0.001,-0.377736 1.55294,-3.257861 3.44784,-6.400279 1.8949,-3.142418 3.75242,-7.417418 4.12783,-9.5 0.69737,-3.868728 2.03318,-6.286513 3.47326,-6.286513 1.27349,0 3.83845,9.966134 4.55827,17.711152 l 0.65656,7.064261 3.37518,-1.991404 c 1.85634,-1.095273 3.70892,-2.522588 4.11683,-3.171811 0.40791,-0.649224 3.10768,-2.676732 5.99949,-4.505574 2.89181,-1.828841 6.76648,-5.141381 8.61039,-7.361199 3.42795,-4.126804 5.63178,-4.360728 5.63178,-0.597782 0,1.116286 -1.97159,6.152228 -4.38132,11.190983 -2.40972,5.038756 -5.80468,12.732713 -7.54434,17.097682 l -3.16303,7.936309 4.29434,3.812307 c 2.36189,2.096769 4.54822,3.81293 4.8585,3.813692 0.31028,7.61e-4 2.08141,-2.023616 3.93585,-4.498616 5.74166,-7.663013 7.05575,-5.306851 1.61546,2.896495 -4.45962,6.724583 -6.61546,12.05384 -6.61546,16.353437 l 0,3.505684 -4.21936,-0.674703 c -2.32065,-0.371086 -5.10812,-1.628677 -6.19439,-2.794645 l -1.97503,-2.119942 -0.88894,2.666837 c -0.8661,2.598292 -1.09845,2.666837 -9.04,2.666837 l -8.15107,0 3.4844,1.856824 c 4.855,2.587221 6.42466,5.723218 5.60292,11.194019 -0.52926,3.523645 -1.35203,4.917205 -3.95528,6.699155 -5.93319,4.06136 -12.15032,2.87222 -16.051208,-3.07008 -2.10273,-3.203115 -2.62096,-4.972925 -2.2176,-7.573315 0.61968,-3.995007 4.093748,-8.058517 7.029868,-8.222604 1.76639,-0.09872 1.80668,-0.185736 0.27035,-0.583982 -0.99294,-0.257389 -1.63192,-0.992688 -1.41995,-1.633999 0.24584,-0.743821 4.15582,-1.34706 10.79854,-1.666018 l 10.41314,-0.5 0.5068,-2.917502 c 0.68787,-3.959781 1.90709,-4.07678 5.89232,-0.565436 4.29244,3.78203 6.72194,3.858428 7.4075,0.232938 0.28601,-1.5125 0.82437,-3.704377 1.19635,-4.870838 0.91227,-2.860631 -4.71234,-9.379162 -8.09295,-9.379162 -1.72052,0 -2.39641,-0.557647 -2.39641,-1.977171 0,-2.756376 4.0198,-13.144936 9.05501,-23.401266 2.33622,-4.758714 4.04771,-8.852171 3.80331,-9.096573 -0.2444,-0.244401 -1.64982,0.549993 -3.12316,1.765322 -1.47334,1.215328 -5.19822,4.009688 -8.27751,6.209688 -10.41968,7.444345 -11.45765,8.914797 -11.45765,16.231647 0,4.702917 -0.33645,6.323196 -1.24999,6.019579 -0.91066,-0.302659 -1.3158,-4.465242 -1.49238,-15.333333 -0.33745,-20.769756 -0.52389,-21.254571 -4.91673,-12.785361 -1.95911,3.777107 -5.49374,9.792468 -7.85471,13.367468 -9.605828,14.545241 -10.842908,17.620786 -10.994208,27.333048 -0.13246,8.50261 -0.0719,8.761467 1.54787,6.614121 2.19017,-2.903575 4.43439,-1.77783 2.68967,1.349191 -0.67624,1.212002 -1.52291,2.42864 -1.88151,2.70364 -2.16043,1.656802 -10.20765,17.226818 -12.2793,23.758358 -3.95158,12.45865 -9.01148,42.72309 -11.99444,71.74163 -3.43318,33.39834 -3.75245,37.72182 -2.85209,38.62218 1.15563,1.15563 13.48017,4.76511 18.77782,5.49944 2.2,0.30496 5.8,0.95384 8,1.44198 6.573218,1.45845 35.758028,1.11862 43.302588,-0.50421 3.68358,-0.79234 10.52241,-2.16176 15.19741,-3.04315 4.675,-0.88139 10.66917,-2.3048 13.32037,-3.16312 l 4.82037,-1.5606 -0.61177,-4.14626 c -0.7878,-5.33929 -4.10706,-20.18543 -6.51644,-29.14626 -1.03518,-3.85 -2.17755,-8.575 -2.53861,-10.5 -0.36105,-1.925 -2.02619,-8.06152 -3.7003,-13.63672 l -3.04384,-10.13672 -3.61489,0.38816 c -7.87327,0.84542 -29.46209,2.38528 -33.44157,2.38528 l -4.21776,0 -5.95255,-10.25 c -3.2739,-5.6375 -5.9319,-10.475 -5.90666,-10.75 0.0901,-0.9816 3.40365,-1.12722 3.40365,-0.14958 0,0.54839 2.31426,4.86933 5.1428,9.60209 l 5.14279,8.60501 7.1072,-0.58757 c 3.90897,-0.32317 14.89848,-1.18988 24.42113,-1.92602 9.52266,-0.73614 17.49951,-1.52403 17.72633,-1.75085 0.22682,-0.22682 2.8331,-4.8639 5.79173,-10.30462 5.42447,-9.97526 8.42919,-13.25055 7.44823,-8.11897 -0.61388,3.21132 -0.9244,3.19722 14.05646,0.63815 6.41484,-1.0958 18.12258,-2.90498 26.0172,-4.0204 7.89463,-1.11543 15.17755,-2.46886 16.18426,-3.00764 1.00672,-0.53878 5.07685,-0.9796 9.04474,-0.9796 l 7.21435,0 -0.60055,-11.24999 c -0.88133,-16.509857 -2.3023,-21.910007 -7.15856,-27.204945 -4.7355,-5.163279 -12.52898,-9.545053 -16.97694,-9.545053 -3.3153,0 -14.20943,2.578212 -16.00386,3.787485 -0.58152,0.391883 -9.6073,0.712515 -20.0573,0.712515 -16.22223,0 -19.00001,-0.219298 -19.00001,-1.5 0,-1.262411 3.08865,-1.590992 19.50001,-2.074471 14.39083,-0.423954 20.78618,-1.013474 24.40893,-2.25 2.69991,-0.921541 7.62804,-1.675529 10.9514,-1.675529 5.04913,0 6.92512,0.534279 11.41156,3.25 2.953,1.7875 6.26952,4.705122 7.37003,6.483603 1.10051,1.778482 3.20035,4.177063 4.6663,5.33018 2.98547,2.348372 2.8617,1.57239 3.77792,23.686215 l 0.63185,15.24999 -3.359,0.10596 c -1.84744,0.0583 -4.53717,0.0306 -5.97716,-0.0615 -1.43999,-0.0921 -5.48999,0.59119 -9,1.51848 -3.51001,0.92728 -9.08183,2.03307 -12.38183,2.4573 -11.93026,1.53369 -29.12679,4.04262 -35,5.1064 -13.95564,2.5277 -12.59171,1.72891 -17.34921,10.1606 -4.22432,7.48674 -4.46253,7.7128 -8.12741,7.7128 l -3.77553,0 1.36952,4.25 c 0.75323,2.3375 2.21189,7.4 3.24146,11.25 1.02958,3.85 2.781,10.375 3.89205,14.5 1.11105,4.125 3.27876,13.72987 4.81713,21.34415 2.4918,12.3334 3.05272,13.94136 5.14013,14.73499 1.28872,0.48996 2.59417,1.5451 2.90103,2.34475 0.30685,0.79964 1.88012,1.7443 3.49615,2.09924 3.32948,0.73128 4.81307,3.54381 7.90021,14.97687 1.46137,5.41212 1.61841,7.24947 0.6923,8.09976 -1.59966,1.46865 -20.04994,9.4002 -21.86673,9.4002 -0.78711,0 -1.85861,0.38858 -2.38111,0.86352 -1.6777,1.52498 -13.01369,5.03088 -24.95,7.71633 -7.69443,1.73111 -46.736128,1.6602 -58.035148,-0.1054 z m 67.535148,-5.30297 c 3.575,-1.16704 7.4,-2.52286 8.5,-3.01293 4.31384,-1.92192 13.09027,-5.15922 14.01933,-5.17122 0.84669,-0.0109 10.41394,-4.59198 13.24771,-6.34335 0.90761,-0.56093 0.0166,-5.59961 -2.4569,-13.89329 l -0.81993,-2.74931 -6.9951,3.33237 c -9.50375,4.52744 -11.47628,5.2298 -22.90288,8.15498 -21.40579,5.47983 -56.631658,5.41719 -80.058768,-0.14236 -6.12087,-1.45256 -7.63819,-2.09733 -15.70902,-6.67538 l -4.67556,-2.65214 -1.04808,3.24058 c -0.57644,1.78231 -1.6872,6.01948 -2.46834,9.41593 -1.36974,5.95571 -1.344,6.24631 0.72364,8.17003 3.97799,3.7011 14.42803,6.78874 35.6439,10.53161 1.375,0.24257 15.099998,0.32299 30.500008,0.1787 25.40239,-0.238 28.603,-0.45919 34.49999,-2.38422 z m -9.5732,-20.66938 c 4.90974,-0.80464 11.43474,-2.16338 14.5,-3.01943 7.055,-1.97027 23.07321,-8.53129 23.07321,-9.45073 0,-0.38169 -1.0494,-1.2556 -2.332,-1.94203 -1.95522,-1.04639 -3.36899,-0.90428 -8.75001,0.87954 -11.93102,3.95518 -35.42189,7.81796 -51.42549,8.4563 -12.61696,0.50325 -16.83815,0.26993 -26.500008,-1.46472 -13.8675,-2.48971 -21.9329,-4.70342 -24.11754,-6.61953 -1.41144,-1.23795 -2.18525,-1.20115 -5.88686,0.27994 -4.0123,1.6054 -4.15135,1.79038 -2.37496,3.15945 6.31891,4.86999 18.64449,8.3769 34.88686,9.92612 2.75,0.2623 5.1875,0.66053 5.41667,0.88495 1.109848,1.08687 35.481538,0.22592 43.510128,-1.08986 z M 62.093222,210.12679 c 2.17866,-1.10084 2.59188,-2.15937 3.21483,-8.23526 0.39315,-3.83463 1.42465,-13.94705 2.29221,-22.47205 2.23733,-21.98482 3.37599,-30.89198 5.62478,-44 3.6967,-21.54782 5.63489,-28.57749 11.44844,-41.522716 0.27239,-0.606551 -1.23119,-1.022727 -3.69498,-1.022727 -3.60898,0 -4.62883,-0.538162 -7.76977,-4.100015 -1.98853,-2.255009 -4.96551,-6.715514 -6.61551,-9.912233 l -3,-5.812218 -0.31341,3.736016 c -0.37725,4.497069 2.34571,13.240455 4.36479,14.015248 2.32061,0.890503 1.67328,3.582739 -1.11648,4.64341 -5.73574,2.18072 -14.36142,-0.18397 -18.59519,-5.097779 -2.162,-2.509268 -2.84096,-2.431882 -2.83413,0.323026 0.0209,8.415073 5.70284,15.999698 15.16837,20.247568 l 6.19755,2.78129 -3.20153,2.86057 c -3.64637,3.25803 -9.81464,3.85029 -14.16997,1.36056 -3.76672,-2.15325 -4.31609,-1.83525 -3.67322,2.12627 0.99311,6.11981 4.47246,10.01262 11.93202,13.34993 3.71734,1.66309 7.46114,3.0238 8.31955,3.0238 1.02728,0 1.45153,0.73073 1.2412,2.13783 -0.49954,3.34196 -6.29354,5.86217 -13.47722,5.86217 -5.22589,0 -6.67578,-0.4097 -9.31804,-2.63302 l -3.12916,-2.63301 0.66997,2.88301 c 1.08618,4.67399 6.44873,9.44106 11.36167,10.10002 2.33527,0.31323 4.48767,1.19945 4.78312,1.96938 0.74171,1.93286 0.28083,2.20751 -4.76915,2.84201 -8.50902,1.06911 -11.07776,4.84914 -9.27515,13.64889 1.29852,6.33892 0.2061,14.15242 -2.48815,17.79659 -1.19759,1.61983 -2.17744,3.18837 -2.17744,3.48564 0,0.29727 1.58945,0.54049 3.53212,0.54049 4.15623,0 9.40454,-2.01091 11.34032,-4.3451 0.75485,-0.91019 2.21735,-1.6549 3.25,-1.6549 4.02929,0 0.79173,12.79023 -5.09031,20.10964 -1.66767,2.0752 -3.03213,4.02447 -3.03213,4.33172 0,1.09979 10.5496,0.5041 13,-0.73405 z M 112.7094,104.8242 c 2.92132,-0.78408 4.86514,-7.254235 3.2466,-10.806546 -1.31197,-2.87946 -6.03427,-4.273902 -10.59619,-3.128936 -4.53128,1.137279 -5.578338,5.093447 -2.78018,10.504492 1.8226,3.52452 5.34112,4.71626 10.12977,3.43099 z m 79.13383,17.51518 c -3.7514,-2.18499 -0.7888,-8.9199 3.92375,-8.9199 2.30891,0 5.32625,2.93096 5.32625,5.17375 0,3.6975 -5.50545,5.92715 -9.25,3.74615 z m 5.9594,-3.54669 c 0.48815,-1.4663 -2.02149,-2.4164 -3.6782,-1.39249 -0.70809,0.43762 -0.96282,1.3209 -0.56608,1.96285 0.8644,1.39862 3.71636,1.01537 4.24428,-0.57036 z m 8.35928,-22.234005 c -2.94732,-5.973444 -5.04194,-11.373444 -4.65471,-12 1.79524,-2.904759 5.44804,-0.999931 12.45195,6.49334 3.92374,4.19789 7.13408,7.74495 7.13408,7.88235 0,0.58102 -8.29423,8.485115 -8.90393,8.485115 -0.36774,0 -3.08007,-4.88736 -6.02739,-10.860805 z m 10.93132,2.63158 c 0,-1.14262 -11.16677,-12.937334 -11.72246,-12.381645 -0.22215,0.222154 1.45207,4.095291 3.7205,8.606975 4.01255,7.980555 4.177,8.155465 6.06319,6.448485 1.06632,-0.96501 1.93877,-2.168225 1.93877,-2.673815 z m 5.61476,-11.816181 c -4.33689,-3.240459 -8.08585,-6.092344 -8.33102,-6.337522 -0.81369,-0.81369 1.76345,-4.61707 3.12849,-4.61707 0.73803,0 6.59534,2.526162 13.01625,5.613693 13.23447,6.363874 14.19058,7.947106 6.07035,10.051969 -2.74936,0.712668 -5.22383,1.269865 -5.49883,1.238217 -0.275,-0.03165 -4.04836,-2.708827 -8.38524,-5.949287 z m 13.33987,1.295408 c -0.05,-0.826748 -16.03463,-8.503333 -16.57693,-7.961038 -0.18588,0.185883 2.2406,2.19765 5.39217,4.470594 5.09647,3.675628 11.31332,5.615726 11.18476,3.490444 z M 156.84322,75.257211 c -1.5125,-0.552412 -2.75,-1.604386 -2.75,-2.337719 0,-0.733333 -0.40848,-1.483333 -0.90774,-1.666667 -0.85232,-0.312983 -1.43666,-4.224274 -1.19822,-8.020355 0.15319,-2.439003 7.2204,-8.7941 9.79086,-8.804304 8.48803,-0.0337 13.62999,9.65985 8.66612,16.337255 -1.87353,2.520279 -7.4033,5.720002 -9.63495,5.575124 -0.66884,-0.04342 -2.45357,-0.530921 -3.96607,-1.083334 z m 9.93555,-5.012033 c 3.68889,-3.465538 2.80829,-10.109281 -1.54091,-11.625421 -5.59024,-1.948765 -10.89917,3.025404 -9.61542,9.009095 0.9938,4.632211 1.16627,4.79064 5.21535,4.79064 2.34714,0 4.44303,-0.767067 5.94098,-2.174314 z m -60.78129,-0.992353 c -0.0527,-0.183333 -0.31417,-2.922596 -0.58114,-6.087251 -0.7581,-8.986611 6.31883,-27.437478 9.35807,-24.398236 0.32721,0.327207 -0.79771,4.095299 -2.49981,8.373538 -2.17615,5.469749 -3.18181,9.832716 -3.38807,14.698919 -0.18757,4.425614 -0.74392,7.069195 -1.54331,7.333333 -0.6875,0.227167 -1.29308,0.263031 -1.34574,0.0797 z"
     id="path3245" />
  <path
     style="fill:#502d16;stroke:#000000;stroke-width:1px;stroke-linecap:butt;stroke-linejoin:miter;stroke-opacity:1;fill-opacity:1"
     d="m 217.34994,78.78986 3.89957,5.746741 c 0,0 10.0568,6.567703 10.87776,6.567703 0.82096,0 7.18342,-2.257648 7.18342,-2.257648 L 226.79101,81.66323"
     id="path2826" />
</svg>
