<?xml version="1.0" encoding="UTF-8" standalone="no"?>
<!-- Created with Inkscape (http://www.inkscape.org/) -->

<svg
   xmlns:dc="http://purl.org/dc/elements/1.1/"
   xmlns:cc="http://creativecommons.org/ns#"
   xmlns:rdf="http://www.w3.org/1999/02/22-rdf-syntax-ns#"
   xmlns:svg="http://www.w3.org/2000/svg"
   xmlns="http://www.w3.org/2000/svg"
   xmlns:sodipodi="http://sodipodi.sourceforge.net/DTD/sodipodi-0.dtd"
   xmlns:inkscape="http://www.inkscape.org/namespaces/inkscape"
   id="svg4245"
   version="1.1"
   inkscape:version="0.47 r22583"
   width="245"
   height="245"
   sodipodi:docname="back.svg">
  <metadata
     id="metadata4251">
    <rdf:RDF>
      <cc:Work
         rdf:about="">
        <dc:format>image/svg+xml</dc:format>
        <dc:type
           rdf:resource="http://purl.org/dc/dcmitype/StillImage" />
        <dc:title />
      </cc:Work>
    </rdf:RDF>
  </metadata>
  <defs
     id="defs4249">
    <inkscape:perspective
       sodipodi:type="inkscape:persp3d"
       inkscape:vp_x="0 : 0.5 : 1"
       inkscape:vp_y="0 : 1000 : 0"
       inkscape:vp_z="1 : 0.5 : 1"
       inkscape:persp3d-origin="0.5 : 0.33333333 : 1"
       id="perspective4253" />
  </defs>
  <sodipodi:namedview
     pagecolor="#ffffff"
     bordercolor="#666666"
     borderopacity="1"
     objecttolerance="10"
     gridtolerance="10"
     guidetolerance="10"
     inkscape:pageopacity="0"
     inkscape:pageshadow="2"
     inkscape:window-width="1148"
     inkscape:window-height="790"
     id="namedview4247"
     showgrid="false"
     inkscape:zoom="5.7052034"
     inkscape:cx="55.193631"
     inkscape:cy="138.61316"
     inkscape:window-x="0"
     inkscape:window-y="25"
     inkscape:window-maximized="0"
     inkscape:current-layer="svg4245" />
  <path
     style="fill:#000000"
     d="m 160.52119,242.52036 c -0.825,-0.22667 -8.39174,-0.88413 -16.81497,-1.46102 -23.90938,-1.63751 -43.791164,-7.90274 -53.704359,-16.92355 -3.459485,-3.14806 -3.474805,-3.19904 -1.77228,-5.89717 1.867359,-2.95937 9.329185,-10.18474 10.541605,-10.20755 0.4125,-0.008 0.75,-1.27811 0.75,-2.82299 0,-3.63248 1.633494,-5.73446 6.156604,-7.92237 2.677,-1.29491 5.34988,-4.31381 9.97717,-11.26876 l 6.32055,-9.5 0.7846,-15 c 0.43153,-8.25 0.95589,-16.35 1.16525,-18 0.20936,-1.65 0.65283,-6.825 0.9855,-11.5 0.33266,-4.675 0.8892,-11.0875 1.23675,-14.25 l 0.63191,-5.75 -10.87916,0.0239 c -13.52188,0.0297 -17.643454,0.94833 -20.734294,4.62159 -1.327972,1.57821 -4.153832,3.4868 -6.279688,4.24131 -2.125855,0.75451 -6.565192,2.94301 -9.865192,4.86333 -3.3,1.92031 -7.005639,3.49338 -8.234753,3.49569 -3.798179,0.007 -7.265247,-2.95228 -7.265247,-6.20149 0,-2.03659 -0.60336,-3.10105 -2.010967,-3.54781 -2.245135,-0.71258 -4.957213,-5.31681 -4.268494,-7.24652 0.292557,-0.81971 -0.577114,-1.25 -2.526422,-1.25 -1.634902,0 -4.007301,-0.83789 -5.271997,-1.86198 -1.983643,-1.60626 -2.263214,-2.6442 -2.035619,-7.55752 l 0.263829,-5.695534 -3.909335,0.390933 c -5.441273,0.544128 -8.240995,-0.680625 -8.240995,-3.605064 0,-2.221353 -0.518919,-2.457563 -7.210588,-3.282224 C 21.767354,88.59919 21.045899,88.285573 20.515338,86.016949 19.9763,83.712075 19.465897,83.508524 13.975926,83.409 l -5.9547398,-0.107949 0.05295,-9.637724 c 0.04584,-8.342634 0.314593,-9.835598 1.9999998,-11.110248 3.952084,-2.988901 8.44705,-1.305296 8.44705,3.16387 0,2.259854 0.190972,2.3 10.940983,2.3 6.215299,0 11.207927,-0.431925 11.559017,-1 0.665439,-1.076702 22.249413,-1.417126 24.918213,-0.393011 0.869983,0.333844 1.581787,1.18506 1.581787,1.891592 0,1.901023 4.498519,2.687031 7.514311,1.312945 2.147152,-0.978308 2.796242,-0.93335 3.54199,0.24533 1.528034,2.41511 1.065082,4.480483 -1.556301,6.943144 -3.368011,3.164082 -3.151678,4 1.035183,4 4.801429,0 7.845298,2.230289 9.924727,7.271998 0.959101,2.325401 2.154481,4.903002 2.656401,5.728002 0.501919,0.825 1.375597,2.66721 1.941508,4.093799 0.979055,2.468082 1.267274,2.556122 5.946361,1.816457 7.213434,-1.140289 19.969674,-2.440472 27.017184,-2.753732 l 3.52137,-0.156524 2.23799,-14.25 c 1.2309,-7.8375 2.23094,-16.95 2.22232,-20.25 -0.0147,-5.626371 -0.2043,-6.107339 -3.04464,-7.723734 l -3.02895,-1.723733 0.28528,-10.276267 0.28527,-10.276266 3.20648,-1.411768 c 3.0425,-1.33957 3.22149,-1.72195 3.5,-7.4771 l 0.29352,-6.065333 9.44431,-1.745256 c 5.19437,-0.959891 9.5812,-1.608371 9.7485,-1.441067 0.1673,0.167305 0.47956,1.842365 0.69391,3.722357 0.21434,1.879992 0.44002,3.755667 0.5015,4.168167 0.0615,0.4125 1.88591,0.75 4.05428,0.75 3.92334,0 3.944,-0.02066 4.25,-4.25 l 0.3075,-4.25 9.36822,-0.28909 9.36822,-0.28909 -0.62289,2.481787 c -1.01566,4.046715 1.10115,7.288411 5.19289,7.952409 1.9737,0.320287 3.68237,0.483709 3.79706,0.363162 0.11469,-0.120548 0.43222,-1.654097 0.70562,-3.407887 0.8891,-5.703404 1.54044,-5.866838 12.44088,-3.121684 l 4.25,1.070315 0,4.870039 c 0,3.460683 0.55289,5.422933 1.91053,6.780567 2.27475,2.274753 4.33343,11.324445 3.89952,17.141833 -0.27824,3.73043 -0.74879,4.402589 -4.58689,6.552249 -2.35226,1.317465 -4.82726,2.402281 -5.5,2.410703 -3.1236,0.0391 -3.75557,1.540796 -2.79035,6.630421 0.52323,2.758947 1.01787,13.529817 1.09921,23.935266 l 0.14788,18.919001 8.30855,8.5 c 4.5697,4.675 8.58541,9.43644 8.92379,10.58099 0.42761,1.44632 -0.38013,3.39726 -2.64849,6.3969 -1.79506,2.37376 -3.83601,5.08185 -4.53544,6.01798 -1.10792,1.48287 -0.72156,2.0692 3,4.55287 9.17358,6.1222 10.68166,8.83546 6.77169,12.18329 -1.1,0.94185 -2,2.6893 -2,3.88322 0,2.19611 -1.72338,3.38475 -4.90747,3.38475 -0.95915,0 -2.80078,1.125 -4.09253,2.5 -1.29175,1.375 -3.05769,2.51431 -3.92431,2.5318 -0.86663,0.0175 -2.3254,0.60197 -3.2417,1.29883 -1.48984,1.13305 -1.53312,1.94922 -0.40924,7.7182 0.69122,3.54814 3.07337,10.33242 5.29365,15.07617 3.60964,7.71219 4.32311,8.625 6.74142,8.625 5.33782,0 10.35251,5.05126 9.36165,9.42992 -0.17681,0.78133 1.47853,3.22672 3.67853,5.4342 5.68858,5.70793 8.5841,9.44079 8.0249,10.3456 -0.71008,1.14893 -14.09423,7.56608 -21.0249,10.08057 -13.6281,4.94436 -24.49856,6.9922 -39.5,7.44122 -7.975,0.23871 -15.175,0.24856 -16,0.0219 z m 33.07378,-5.11785 c 13.45769,-2.30491 37.92622,-11.1097 37.92622,-13.64741 0,-2.28889 -6.03524,-9.73815 -7.88965,-9.73815 -0.63817,0 -3.73657,0.92689 -6.88533,2.05975 -13.59423,4.89093 -19.40117,5.79365 -41.8891,6.51191 -23.05478,0.73637 -31.10803,0.14071 -49.83592,-3.68608 -5.60399,-1.1451 -13.07721,-3.52172 -17,-5.4063 l -7,-3.36293 -3.520979,2.41911 c -4.551872,3.1274 -7.460231,7.82901 -5.718427,9.24433 1.159932,0.94251 6.048992,3.78058 10.352396,6.0095 10.87372,5.63198 25.85056,9.13441 42.38701,9.91248 6.325,0.2976 11.6875,0.71145 11.91667,0.91966 1.21191,1.1011 28.88668,0.18062 37.15711,-1.23587 z m 4.81905,-19.83933 c 5.71605,-0.76472 10.66605,-1.82537 11,-2.35699 0.33394,-0.53163 2.34789,-1.44511 4.47545,-2.02997 6.50794,-1.789 9.47246,-5.91853 6.43172,-8.95927 -1.48983,-1.48983 -5.17029,-1.60815 -4.26106,-0.13699 0.36134,0.58466 -0.11293,1.91376 -1.05394,2.95357 -1.60785,1.77665 -3.86226,2.40394 -17.485,4.86524 -3.025,0.54655 -14.5,1.26648 -25.5,1.59985 -19.57799,0.59335 -20.31651,0.54139 -35,-2.46248 -18.10798,-3.70443 -27.09051,-6.6123 -29.10154,-9.42088 l -1.50244,-2.09831 -1.89788,2.29887 c -1.83268,2.21991 -1.7622,4.30766 0.23278,6.89479 1.7883,2.31911 23.43016,7.91334 37.26908,9.63373 8.2207,1.02196 46.92223,0.48586 56.39283,-0.78116 z m 2.10717,-9.42785 c 3.575,-0.50418 7.72932,-1.39782 9.23181,-1.98587 l 2.73182,-1.06918 -4.03789,-8.28166 c -4.19191,-8.59754 -7.50795,-15.00164 -9.35259,-18.06218 -0.7784,-1.29149 -0.75493,-1.97883 0.0855,-2.50255 0.63725,-0.39712 0.93241,-1.90543 0.65592,-3.35181 -0.35849,-1.87531 -1.37892,-2.88107 -3.55686,-3.50569 -6.39018,-1.83268 -9.99043,-11.208 -6.54767,-17.05062 1.51734,-2.57506 1.65247,-3.55615 0.69987,-5.08151 -1.68081,-2.69139 0.64395,-7.0967 5.35328,-10.14421 l 3.73681,-2.41818 0,-8.91417 c 0,-8.70736 -0.0812,-9.01324 -3.5,-13.18545 -4.83717,-5.90313 -4.45095,-11.5653 0.78888,-11.5653 1.80124,0 1.87316,-0.94744 1.55,-20.418115 -0.18638,-11.229962 -0.56388,-20.62469 -0.83888,-20.877174 -0.275,-0.252483 -5.225,0.178827 -11,0.958466 -22.93731,3.096592 -33.13712,2.768537 -46.75,-1.503614 l -3.25,-1.019953 0,5.78851 c 0,3.183681 -0.93045,11.978355 -2.06766,19.54372 l -2.06766,13.75521 2.06766,2.200926 c 2.90148,3.088484 2.57576,6.217764 -1.02164,9.815164 -3.369,3.369 -2.96211,0.97092 -6.83046,40.25686 -1.37335,13.94741 -1.40571,22.81918 -0.0802,22 0.55,-0.33992 1.42775,-0.35367 1.95055,-0.0306 0.9715,0.60042 -0.32094,2.75475 -7.51745,12.53056 -4.09343,5.56056 -9.4331,14.62009 -9.4331,16.00463 0,1.52388 9.47116,4.36476 27,8.09867 7.2477,1.54387 11.96224,1.74589 32,1.3712 12.925,-0.24169 26.425,-0.85195 30,-1.35612 z m 2.90082,-44.36838 c 0.46001,-1.2375 0.62236,-2.8125 0.36079,-3.5 -0.69811,-1.83486 -4.3396,-1.52277 -5.83405,0.5 -1.03227,1.39721 -1.54707,1.49934 -2.55365,0.50659 -1.0119,-0.998 -0.72914,-1.79826 1.43268,-4.05472 1.48138,-1.54622 2.69341,-3.33881 2.69341,-3.98354 0,-1.92523 4.70146,-4.44786 6.95596,-3.73231 1.38513,0.43963 2.24993,0.14102 2.65595,-0.91707 0.33114,-0.86292 1.45392,-1.56895 2.49508,-1.56895 1.04115,0 1.89301,-0.62254 1.89301,-1.38342 0,-1.90848 -4.71755,-2.66183 -6.11609,-0.97669 -0.62084,0.74806 -1.9737,1.36011 -3.00635,1.36011 -1.03266,0 -1.87756,0.45 -1.87756,1 0,0.55 -0.88963,1 -1.97695,1 -1.08732,0 -2.72888,1.1476 -3.64792,2.55023 -0.91903,1.40262 -2.24216,2.33104 -2.94029,2.06314 -3.01739,-1.15788 -3.29312,7.02579 -0.36226,10.75177 2.77209,3.52415 8.57681,3.75145 9.82824,0.38486 z m 6.25206,-3.33576 c -0.51625,-2.7935 -4.08171,-7.41424 -5.72097,-7.41424 -2.12625,0 -1.74276,1.36905 1.06809,3.81305 1.375,1.19555 2.5,3.1142 2.5,4.26367 0,1.2384 0.50931,1.91186 1.25,1.65287 0.6875,-0.24039 1.0938,-1.2823 0.90288,-2.31535 z m 7.0988,-1.99925 c 0.85008,-0.85009 -1.15644,-6.09106 -2.87946,-7.52103 -1.17394,-0.97429 -1.77648,-0.91827 -2.971,0.27624 -1.33119,1.3312 -1.2977,1.85095 0.30019,4.65778 1.64869,2.89606 4.09908,4.0382 5.55027,2.58701 z m 4.31066,-6.51586 c 0.79508,-1.28647 -3.17283,-5.62197 -4.20274,-4.59207 -0.79281,0.79282 1.57452,5.69294 2.75036,5.69294 0.4246,0 1.07817,-0.49539 1.45238,-1.10087 z m -22.92566,-9.43209 c -0.62517,-1.34829 -1.48383,-2.45495 -1.90812,-2.45924 -1.28154,-0.013 -3.03471,4.752 -2.37803,6.46328 0.5594,1.45778 0.82531,1.45981 3.01814,0.023 2.10181,-1.37715 2.26152,-1.88438 1.26801,-4.02705 z m 9.19174,-3.24988 c 6.17658,-6.36374 9.17225,-10.50519 9.15742,-12.65994 -0.009,-1.2641 -3.86399,-5.89035 -10,-11.99974 -8.24148,-8.20573 -9.98584,-9.53818 -9.98584,-7.62782 0,1.54371 2.66469,5.04472 8,10.5108 7.58439,7.77029 9.74297,11.55954 6.58499,11.55954 -2.19484,0 -9.58499,8.9752 -9.58499,11.64079 0,3.32957 1.59258,2.94057 5.82842,-1.42363 z m -0.78638,-10.76191 2.39066,-2.54474 -3.21635,-3.00594 -3.21635,-3.00594 0,5.55068 c 0,3.05288 0.37156,5.55069 0.82569,5.55069 0.45412,0 1.90148,-1.14514 3.21635,-2.54475 z M 78.870459,122.30755 c 3.3829,-2.04017 6.256423,-3.75836 6.385608,-3.81821 0.129184,-0.0598 -0.658316,-1.86077 -1.75,-4.00205 -2.581246,-5.06296 -2.573201,-11.99315 0.01886,-16.244511 2.754737,-4.518182 2.564698,-8.748304 -0.532147,-11.845148 -3.446819,-3.446819 -5.047477,-2.64457 -4.648372,2.32976 0.250354,3.120345 -0.200513,4.589953 -2,6.519029 -1.988128,2.131302 -3.450924,2.561807 -10.141714,2.984736 -8.890033,0.561944 -11.63408,2.137374 -9.774596,5.611854 0.795103,1.48566 2.2849,2.14499 5.347621,2.36666 4.630079,0.33511 6.120176,3.04101 1.99712,3.62661 -1.416431,0.20118 -2.478404,1.23595 -2.870096,2.79657 -0.782764,3.11878 -0.319917,3.55641 4.299845,4.0655 4.634221,0.51069 5.310953,1.11981 3.067029,2.7606 -2.02157,1.47821 -2.332465,5.15567 -0.498428,5.89572 2.831484,1.14253 5.255821,0.47697 11.099273,-3.04712 z m -6.349273,-9.7906 c 0,-0.825 0.45,-1.5 1,-1.5 0.55,0 1,0.675 1,1.5 0,0.825 -0.45,1.5 -1,1.5 -0.55,0 -1,-0.675 -1,-1.5 z m -1.403444,-6.34377 c -0.346049,-0.55992 -0.1419,-1.31919 0.453663,-1.68727 1.537485,-0.95022 2.529468,0.35135 1.245982,1.63484 -0.71818,0.71818 -1.277526,0.73543 -1.699645,0.0524 z m 19.81427,7.02352 c -0.786045,-1.50707 -1.343006,-5.21138 -1.272743,-8.46491 0.135395,-6.269522 -0.260449,-7.265598 -2.539782,-6.390936 -1.853143,0.711118 -3.025926,6.583116 -2.197147,11.000896 0.739668,3.94277 4.0409,7.82653 6.010255,7.07082 1.196053,-0.45897 1.195969,-0.92173 -5.83e-4,-3.21587 z m 28.257388,-5.12677 c 12.25105,-0.0638 13.33179,-0.40106 13.33179,-4.15997 l 0,-2.89301 -8.25,0.0195 c -8.2965,0.0196 -28.941847,2.36297 -30.769409,3.49247 -1.007647,0.62276 -1.367049,4.76822 -0.489476,5.6458 0.270115,0.27011 3.982615,-0.0811 8.250005,-0.78035 4.26738,-0.69931 12.33458,-1.29532 17.92709,-1.32446 z m -65.096785,-1.62441 c -2.037974,-2.03797 -2.002161,-5.29514 0.08356,-7.59983 1.551895,-1.714827 1.528015,-1.828741 -0.38337,-1.828741 -2.135097,0 -3.233143,2.387327 -3.257964,7.083331 -0.01627,3.07752 0.674567,3.91667 3.22444,3.91667 1.731602,0 1.761905,-0.14286 0.333334,-1.57143 z M 73.565408,93.463665 c 2.030169,-2.446204 1.586474,-7.457397 -0.824907,-9.316698 -1.470856,-1.134106 -2.206095,-2.975439 -2.416667,-6.052297 -0.166456,-2.432254 -0.865148,-4.607254 -1.552648,-4.833334 -0.941829,-0.309714 -1.25,1.959328 -1.25,9.203664 0,7.607501 -0.311949,9.734425 -1.494256,10.188119 -2.427779,0.931626 -0.65204,2.36383 2.930828,2.36383 1.825196,0 3.898639,-0.698978 4.60765,-1.553284 z M 41.021186,92.016949 c -0.339919,-0.55 -0.816476,-1 -1.059017,-1 -0.242541,0 -0.440983,0.45 -0.440983,1 0,0.55 0.476558,1 1.059017,1 0.582459,0 0.780902,-0.45 0.440983,-1 z m 16.5,-3.011947 c 0,-1.145712 -6.501971,-2.393142 -8.49247,-1.629316 -3.105154,1.191559 -1.337818,2.450597 3.49247,2.488013 2.75,0.0213 5,-0.365112 5,-0.858697 z m 6.631943,-9.240454 c 0.07257,-5.636179 -0.09243,-9.358819 -0.366668,-8.272532 -0.75967,3.009156 -3.306512,4.442068 -8.265275,4.650233 l -4.5,0.188907 4.898478,0.592897 c 5.796165,0.701549 8.046685,3.076305 5.412113,5.710877 -1.954174,1.954173 -5.30233,1.105854 -4.44573,-1.12641 0.453586,-1.182026 -0.335573,-1.491571 -3.802626,-1.491571 -3.882666,0 -4.31614,0.225065 -3.851984,2 0.402861,1.540543 1.364016,2 4.183874,2 4.02103,0 8.105875,2.296289 8.105875,4.556704 0,0.793813 0.5625,1.442216 1.25,1.440895 0.909922,-0.0017 1.285897,-2.790391 1.381943,-10.25 z m -17.875257,2.445697 c -2.559467,-1.90385 -2.171075,-3.115378 1.493314,-4.658156 l 3.25,-1.368311 -2.758705,-0.694008 c -1.834325,-0.461461 -2.997448,-1.578412 -3.471206,-3.333414 -0.612192,-2.267821 -0.799102,-1.935488 -1.327639,2.360593 -0.338326,2.75 -0.412884,6.84486 -0.165684,9.099689 l 0.449454,4.09969 2.143576,-2.09969 c 2.022784,-1.981371 2.044586,-2.173322 0.38689,-3.406393 z m -6.756686,2.806704 c 0,-1.835052 -0.666667,-2 -8.083333,-2 -12.726101,0 -8.957672,3.355144 4.333333,3.858095 3.130635,0.118467 3.75,-0.188423 3.75,-1.858095 z m 0.511385,-9.067384 c 0.377949,-2.237062 0.530003,-4.149562 0.337897,-4.25 -0.192105,-0.100439 -6.761782,-0.0464 -14.599282,0.120096 l -14.25,0.302712 0,3.947288 0,3.947288 13.912102,0 13.912102,0 0.687181,-4.067384 z m 35.988615,-1.932616 c 0.339919,-0.55 0.168034,-1 -0.381966,-1 -0.55,0 -1.278115,0.45 -1.618034,1 -0.339919,0.55 -0.168034,1 0.381966,1 0.55,0 1.278115,-0.45 1.618034,-1 z m -16.138374,-2.5 c 0.472027,-1.230083 -0.498418,-1.5 -5.393011,-1.5 -5.516424,0 -6.987761,0.64752 -5.301948,2.333333 0.366666,0.366667 2.793521,0.666667 5.393011,0.666667 3.278704,0 4.902647,-0.459438 5.301948,-1.5 z m -44.361626,-5 c 0,-0.833333 -0.888889,-1.5 -2,-1.5 -1.111111,0 -2,0.666667 -2,1.5 0,0.833333 0.888889,1.5 2,1.5 1.111111,0 2,-0.666667 2,-1.5 z M 178.02119,58.459773 c 12.23416,-1.590079 26.47779,-4.705768 31.02605,-6.786718 2.38817,-1.092648 2.49112,-1.457999 1.87554,-6.656106 -0.79465,-6.710234 -1.07176,-7.239087 -3.21228,-6.130523 -0.92912,0.481187 -3.80803,1.18216 -6.39757,1.557717 l -4.70826,0.682833 -0.68034,-5.128636 c -0.60609,-4.568964 -0.91074,-5.073489 -2.79174,-4.623288 -1.16127,0.277941 -3.80387,0.812084 -5.87245,1.186985 -2.06857,0.374901 -3.94051,0.97202 -4.15985,1.326932 -0.21935,0.354911 -0.048,2.563589 0.38071,4.908172 0.43465,2.376951 0.38467,4.50691 -0.11299,4.814478 -0.49088,0.30338 -5.41421,1.026703 -10.94074,1.607385 -7.26455,0.763299 -10.3533,0.750726 -11.14941,-0.04538 -0.60564,-0.605643 -1.00053,-3.588657 -0.87753,-6.62892 l 0.22364,-5.527755 -4.80139,-0.01365 c -2.64077,-0.0075 -5.81389,-0.284994 -7.05139,-0.616631 -2.09549,-0.561571 -2.25,-0.285956 -2.25,4.013655 0,5.341715 -0.77379,5.599836 -9.78207,3.263118 l -5.21793,-1.353518 -0.011,3.103513 c -0.006,1.706932 -0.27315,4.687593 -0.59354,6.623691 -0.53761,3.248658 -0.31954,3.645595 2.82721,5.146175 3.36146,1.602972 15.90566,5.307616 20.77734,6.13612 5.23965,0.891082 11.90608,0.647219 23.5,-0.859649 z m -1.19655,-17.093346 c 2.75538,-0.455319 3.65119,-1.025302 3.25089,-2.068463 -0.30391,-0.791973 -0.27355,-3.184777 0.0675,-5.317342 0.59353,-3.711711 0.81782,-3.908994 5.24911,-4.617016 l 4.62909,-0.739625 -5,-1.101635 c -4.81007,-1.059789 -5.01178,-1.24214 -5.31019,-4.800544 -0.37664,-4.491326 -2.60079,-5.936968 -8.47802,-5.510484 -4.16659,0.302351 -4.21504,0.350137 -4.51427,4.452886 l -0.30247,4.147256 -6.69753,0.981819 c -3.68363,0.540001 -7.03502,0.784678 -7.44752,0.543728 -0.4125,-0.240951 -0.75,-2.485318 -0.75,-4.987483 0,-4.217322 -0.16423,-4.508472 -2.25,-3.9888 -1.2375,0.308326 -4.18992,0.869008 -6.56094,1.245961 -3.86793,0.614939 -4.29379,0.95383 -4.14404,3.297817 0.48144,7.536357 -0.0245,10.112447 -1.98604,10.112447 -2.07265,0 -3.60339,1.545529 -2.31772,2.340117 0.42566,0.263073 2.39704,0.78281 4.38084,1.154973 l 3.6069,0.676659 0.4908,-5.107861 c 0.26994,-2.809324 0.75286,-5.369919 1.07315,-5.690211 0.32029,-0.320292 2.0729,0.18295 3.89468,1.118317 1.82178,0.935366 6.12483,1.943927 9.56233,2.241246 l 6.25,0.540581 0,5.863089 0,5.86309 4.75,-0.01101 c 2.6125,-0.0061 6.46155,-0.293835 8.55345,-0.639516 z m 30.93893,-5.99928 c 1.3102,-0.809747 0.8236,-2.350198 -0.74238,-2.350198 -1.14954,0 -1.5,-1.27122 -1.5,-5.440983 0,-2.992541 -0.38042,-5.676097 -0.84538,-5.963458 -0.46496,-0.287361 -2.71496,-0.821433 -5,-1.186825 l -4.15462,-0.66435 0,4.127808 c 0,3.461141 0.32301,4.127808 2,4.127808 1.71085,0 2,0.666667 2,4.611291 l 0,4.611291 3.74238,-0.702076 c 2.05832,-0.386141 4.08332,-0.91278 4.5,-1.170308 z"
     id="path4417" />
  <path
     style="fill:#666666;fill-opacity:1;stroke:#666666;stroke-width:0.49576271000000000;stroke-miterlimit:4;stroke-opacity:1;stroke-dasharray:none"
     d="M 172.3125 17.375 C 169.31193 17.40638 167.96337 17.710647 167.46875 18.46875 C 167.25025 18.803638 166.98838 20.329983 166.8125 22.375 C 166.65421 24.215519 166.4628 25.79144 166.375 25.875 C 166.16194 26.077806 157.0453 27.311554 154.375 27.5 C 152.35328 27.642675 152.25836 27.603649 151.96875 27.0625 C 151.79765 26.742795 151.57332 24.850529 151.46875 22.71875 C 151.36693 20.643238 151.19957 18.827469 151.09375 18.65625 C 150.84523 18.254129 149.58438 18.407686 144.0625 19.5 C 141.42315 20.022105 139.59213 20.496944 139.3125 20.75 C 138.9055 21.118334 138.85615 21.683102 138.78125 26.15625 C 138.70585 30.661304 138.64499 31.252491 138.1875 32.03125 C 137.77441 32.734438 137.43586 32.956311 136.4375 33.1875 C 134.76158 33.575595 134.37932 33.74765 134.09375 34.28125 C 133.66149 35.08892 134.87038 35.620863 139.25 36.5 C 140.65408 36.781851 141.93281 36.9239 142.0625 36.84375 C 142.19218 36.7636 142.28109 36.341292 142.28125 35.90625 C 142.28173 34.637895 143.0272 28.52175 143.3125 27.4375 C 143.74308 25.801107 143.91419 25.790338 147.875 27.375 C 150.98966 28.621129 154.86167 29.443088 159.78125 29.84375 L 163.59375 30.15625 L 163.59375 36.09375 L 163.59375 42.03125 L 168.21875 41.875 C 173.56216 41.68906 176.85756 41.327325 178.59375 40.75 L 179.8125 40.34375 L 179.875 37.21875 C 179.9359 32.744786 180.42604 30.824737 181.71875 30.15625 C 182.15722 29.929509 183.99842 29.497489 185.78125 29.1875 C 187.56408 28.877511 188.86076 28.54063 188.65625 28.46875 C 188.45175 28.39687 186.73113 27.996271 184.84375 27.5625 C 180.31894 26.522578 180.10453 26.325556 179.625 23.0625 C 179.23249 20.391605 178.8317 19.498992 177.71875 18.5625 C 176.63402 17.649761 175.24822 17.344302 172.3125 17.375 z M 195.625 19.875 C 195.568 19.875 195.5719 21.370136 195.625 23.1875 C 195.741 27.157184 195.95757 27.651516 197.65625 27.90625 C 198.26637 27.99774 198.91219 28.250309 199.09375 28.46875 C 199.33058 28.753671 199.4402 30.03025 199.5 32.9375 C 199.5661 36.152596 199.66947 37 199.9375 37 C 200.68297 37 206.19857 35.754165 207.03125 35.40625 C 208.72273 34.699516 208.74588 33.627131 207.0625 33.15625 C 205.89851 32.830667 205.5326 31.96857 205.5 29.4375 C 205.4665 26.838755 205.05833 22.67397 204.78125 22.15625 C 204.64704 21.905477 204.06819 21.576486 203.5 21.40625 C 202.68888 21.163247 196.07865 19.875 195.625 19.875 z M 193.6875 31.46875 C 193.14244 31.51461 192.22093 31.67016 190.59375 32 C 183.73219 33.390875 183.1875 33.610475 183.1875 34.8125 C 183.1875 35.244972 183.36883 37.001361 183.59375 38.71875 C 183.82059 40.451159 183.93865 42.244231 183.84375 42.75 C 183.62864 43.896663 183.44994 43.958472 177 44.78125 C 168.25759 45.896464 163.14513 46.134039 161.59375 45.53125 C 160.68932 45.179833 160.5311 44.202234 160.4375 38.53125 L 160.34375 33.03125 L 156.21875 33.03125 C 153.86106 33.02875 151.06262 32.8628 149.71875 32.65625 C 147.65466 32.339002 147.33201 32.339158 147.09375 32.65625 C 146.94425 32.855218 146.74815 34.406062 146.65625 36.125 C 146.41028 40.725891 145.90561 41.401095 142.8125 41.09375 C 141.55285 40.968585 134.12382 39.213537 132.0625 38.5625 C 131.67201 38.439172 131.629 38.65755 131.625 40.625 C 131.623 41.827117 131.50994 43.804238 131.375 45.03125 C 131.24006 46.258263 131.05415 48.12465 130.96875 49.15625 L 130.8125 51.03125 L 131.78125 51.8125 C 133.29116 53.057936 139.11011 55.185399 146.78125 57.28125 C 153.56153 59.133709 154.79626 59.353467 159.28125 59.53125 C 161.59894 59.62312 163.69608 59.65867 163.96875 59.625 C 164.24142 59.59133 165.68781 59.49056 167.1875 59.40625 C 180.22464 58.673334 203.75713 54.144294 209.46875 51.25 C 211.19945 50.372987 211.31074 49.830119 210.8125 45.53125 C 210.16123 39.911991 209.84346 38.71875 209 38.71875 C 208.76149 38.71875 207.93632 38.944577 207.15625 39.21875 C 204.75056 40.06428 196.91751 41.408085 196.59375 41.03125 C 196.49585 40.917308 196.2073 39.309269 195.96875 37.46875 C 195.43624 33.360084 195.1467 32.156659 194.59375 31.65625 C 194.39871 31.479734 194.23256 31.422888 193.6875 31.46875 z M 137.1875 58.78125 C 136.72089 58.83926 136.71875 59.559406 136.71875 62.28125 C 136.71875 67.230726 135.9917 74.110415 134.1875 86.59375 L 132.71875 96.90625 L 134 98.4375 C 137.39535 102.47267 137.39584 104.80664 134.03125 108.9375 C 132.85169 110.38568 131.63832 112.01209 131.34375 112.5625 C 130.14196 114.80806 125.8266 156.17941 125.8125 165.59375 C 125.8055 170.48849 126.04217 171.21875 127.65625 171.21875 C 128.7652 171.21875 128.87682 171.36588 128.625 172.625 C 128.46909 173.40456 125.83204 177.63304 122.75 182.03125 C 116.53653 190.89815 112.26895 198.04571 112.21875 199.65625 C 112.19035 200.56626 112.94203 200.97028 117.65625 202.53125 C 123.91618 204.60402 139.49379 208.22809 144.78125 208.84375 C 152.64282 209.75912 188.30663 209.12136 199.3125 207.875 C 203.70341 207.37774 208.20032 206.42316 210.875 205.40625 L 212.125 204.9375 L 205.125 191.09375 C 198.15121 177.2769 198.11736 177.20563 198.96875 175.90625 C 199.64282 174.87748 199.73108 174.22236 199.375 172.78125 C 198.97494 171.1621 198.54947 170.77368 195.53125 169.28125 C 192.8617 167.96123 191.81527 167.12207 190.6875 165.34375 C 187.88409 160.92323 187.51333 156.54246 189.5625 152.0625 C 190.73303 149.50347 190.80869 149.06786 190.25 147.375 C 189.01646 143.63737 190.73827 140.47784 196.09375 136.65625 L 199.25 134.375 L 199.09375 125.8125 L 198.9375 117.28125 L 196.28125 113.4375 C 193.06157 108.82797 191.99917 105.80723 192.78125 103.4375 C 193.35333 101.7041 194.49152 100.8125 196.15625 100.8125 C 198.25711 100.8125 198.36157 99.63947 198 80.75 C 197.812 70.92825 197.53452 62.281091 197.375 61.53125 C 197.00611 59.797063 196.66316 59.774425 182.46875 61.34375 C 167.22805 63.028752 162.58736 63.259656 155.84375 62.625 C 150.96045 62.165421 144.03887 60.747162 137.84375 58.90625 C 137.57196 58.82548 137.34304 58.761915 137.1875 58.78125 z M 13.5 65.28125 C 12.600565 65.30726 11.6875 65.769745 11.6875 66.46875 C 11.6875 66.930577 12.29757 67.556562 12.9375 67.78125 C 13.541286 67.993246 14.502906 67.72129 14.96875 67.1875 C 15.5222 66.553323 15.513354 66.357104 14.90625 65.75 C 14.563379 65.407129 14.039661 65.265644 13.5 65.28125 z M 56.65625 70.21875 C 55.773659 70.19979 54.74165 70.21705 53.71875 70.25 C 51.67295 70.31595 49.718348 70.485363 49.3125 70.6875 C 48.510659 71.086867 48.478022 71.2157 49.0625 71.9375 C 49.40736 72.363384 49.924283 72.523096 51.375 72.6875 C 55.977637 73.209097 59.65625 72.561026 59.65625 71.21875 C 59.65625 70.709289 59.486249 70.552433 58.65625 70.375 C 58.272013 70.29286 57.538841 70.237708 56.65625 70.21875 z M 44.1875 71.40625 C 44.153525 71.428657 44.120615 71.468363 44.09375 71.5625 C 43.455903 73.797589 43.120866 79.999406 43.4375 83.65625 C 43.58161 85.320587 43.7467 86.836757 43.8125 87.03125 C 43.940195 87.408722 45.963129 85.61057 46.96875 84.21875 L 47.5 83.5 L 46.21875 82.375 C 44.675697 80.982085 44.387662 80.476134 44.6875 79.6875 C 45.027856 78.792295 45.809641 78.22908 48.21875 77.21875 C 50.463073 76.277529 50.529813 76.129614 48.875 75.78125 C 46.768025 75.337699 45.476196 74.248721 44.71875 72.3125 C 44.439068 71.597561 44.289424 71.33903 44.1875 71.40625 z M 35.9375 71.78125 C 33.702307 71.80025 30.671428 71.86864 27.40625 71.9375 C 20.875894 72.07522 14.681594 72.1862 13.625 72.1875 L 11.6875 72.1875 L 11.6875 76.03125 L 11.6875 79.875 L 25.4375 79.875 L 39.21875 79.875 L 39.34375 79.3125 C 39.664895 77.919609 40.217758 73.93703 40.21875 73 C 40.219511 72.208279 40.100291 71.923678 39.75 71.8125 C 39.623852 71.77246 38.172693 71.76225 35.9375 71.78125 z M 64 71.8125 L 63.5 72.71875 C 62.387006 74.750268 60.382191 75.732105 56.40625 76.15625 C 53.630606 76.452349 52.861364 76.65625 54.40625 76.65625 C 55.756021 76.65625 58.909939 77.314559 60.09375 77.84375 C 61.451957 78.4509 62.5 79.536959 62.5 80.3125 C 62.5 82.753135 59.031404 84.792987 57.28125 83.375 C 56.813748 82.996227 56.6875 82.635618 56.6875 81.6875 C 56.6875 80.504151 56.67614 80.527894 55.6875 80.3125 C 54.302409 80.01073 50.023325 80.180049 49.5625 80.5625 C 49.278803 80.797947 49.221016 81.098502 49.375 81.78125 C 49.722618 83.32254 50.233479 83.604651 53.125 83.875 C 54.54427 84.007698 56.142927 84.22926 56.6875 84.375 C 59.131646 85.029111 61.11213 86.557183 61.53125 88.125 C 61.682816 88.691969 61.949199 89.323734 62.09375 89.5 C 62.564337 90.073834 63.114972 89.668512 63.46875 88.53125 C 63.723495 87.712342 63.8291 85.364418 63.90625 79.625 L 64 71.8125 z M 75.46875 73.1875 C 74.994095 73.1875 73.845639 74.355925 74.03125 74.65625 C 74.293272 75.080211 74.775132 74.942731 75.46875 74.21875 C 76.129484 73.529066 76.135948 73.1875 75.46875 73.1875 z M 68.71875 73.4375 C 68.039282 73.4375 67.885738 74.748314 67.6875 81.96875 C 67.422478 91.621698 67.361498 91.960821 65.8125 92.96875 L 64.9375 93.5625 L 65.4375 94.03125 C 65.733612 94.327362 66.45366 94.603455 67.25 94.71875 C 68.694214 94.927845 69.714393 94.868238 71.40625 94.4375 C 75.131408 93.489096 75.879176 87.750607 72.71875 84.28125 C 71.036109 82.434132 70.740269 81.757424 70.21875 78.3125 C 69.756297 75.257748 69.187133 73.4375 68.71875 73.4375 z M 32.40625 83.21875 C 25.83505 83.23967 23.255598 83.683992 24.0625 84.65625 C 24.635367 85.346513 29.531653 86.368523 33.75 86.65625 C 38.066931 86.950702 39.075402 86.73259 39.3125 85.46875 C 39.691899 83.446383 38.991673 83.19778 32.40625 83.21875 z M 79.78125 84.59375 C 78.699561 84.59375 78.48158 85.266627 78.4375 88.90625 C 78.39205 92.659334 78.172962 93.392492 76.40625 95.28125 C 74.41562 97.409394 73.350961 97.745962 66.46875 98.34375 C 59.923665 98.912255 57.498003 99.5338 56.4375 100.96875 C 55.819397 101.8051 56.028595 103.07608 56.9375 104.15625 C 57.858754 105.2511 58.665681 105.59694 61.40625 106.03125 C 62.746006 106.24357 64.323993 106.66789 64.9375 106.96875 C 65.942869 107.46178 66.0625 107.59305 66.0625 108.375 C 66.0625 109.23096 66.0557 109.26407 64.34375 109.8125 C 62.257779 110.48077 61.428082 111.27805 61 113.0625 C 60.640926 114.55929 60.760635 115.31248 61.46875 115.75 C 61.750498 115.92408 63.47883 116.2865 65.28125 116.5625 C 68.383411 117.03754 69.65625 117.4885 69.65625 118.0625 C 69.65625 118.20218 69.114137 118.85461 68.4375 119.53125 C 66.072413 121.89634 66.150223 124.73649 68.59375 125.46875 C 70.43849 126.02157 72.62793 125.54065 75.59375 123.9375 C 79.204611 121.98567 85.03125 118.47396 85.03125 118.25 C 85.03125 118.12522 84.521742 116.97336 83.90625 115.65625 C 82.194448 111.99309 81.775994 110.40404 81.625 107.09375 C 81.449316 103.24221 81.775099 101.74125 83.59375 97.875 C 84.911488 95.073643 85.07755 94.485664 85.1875 92.8125 C 85.288919 91.269208 85.23772 90.654524 84.8125 89.53125 C 83.932957 87.207829 81.258987 84.59375 79.78125 84.59375 z M 50.34375 87.375 C 49.615645 87.412325 49.025188 87.523286 48.65625 87.71875 C 48.187197 87.967254 47.73799 88.307562 47.6875 88.46875 C 47.564981 88.859914 48.43996 89.304471 49.84375 89.5625 C 51.327889 89.835298 55.728083 89.647429 56.6875 89.28125 C 57.408716 89.005985 57.414173 89.006222 56.9375 88.65625 C 55.799004 87.82037 52.528064 87.263025 50.34375 87.375 z M 39.90625 91.28125 C 39.658845 91.28125 39.635602 92.354352 39.875 92.59375 C 40.151962 92.870713 40.9375 92.777963 40.9375 92.46875 C 40.9375 92.122754 40.20397 91.28125 39.90625 91.28125 z M 54 97.21875 C 51.881581 97.21875 50.85516 99.206575 50.78125 103.4375 C 50.730289 106.35474 50.982375 107.19725 52.0625 107.59375 C 52.774894 107.85526 54.84375 107.97749 54.84375 107.75 C 54.84375 107.6707 54.438001 107.13516 53.96875 106.5625 C 52.881936 105.23619 52.562663 104.36236 52.5625 102.78125 C 52.562342 101.25121 53.06616 99.969084 54.21875 98.5625 C 54.693029 97.983704 55.0625 97.45431 55.0625 97.375 C 55.0625 97.295697 54.587999 97.21875 54 97.21875 z M 88.15625 98.21875 C 85.029889 98.21875 83.630681 107.36101 86.03125 112.125 C 86.760609 113.57243 88.153817 115.27059 89.09375 115.84375 C 90.006657 116.40044 90.697694 116.44116 91.34375 115.96875 C 91.805849 115.63085 91.825103 115.55087 91.0625 113.65625 C 89.933229 110.85067 89.720803 109.56169 89.53125 104.15625 C 89.350108 98.990637 89.164913 98.21875 88.15625 98.21875 z M 126.84375 101.1875 C 119.29328 101.18832 110.1759 101.91626 100.34375 103.3125 C 94.492447 104.14343 93.426153 104.49823 93.03125 105.65625 C 92.715134 106.58323 92.626017 109.06991 92.875 109.71875 C 93.087486 110.27248 94.082448 110.21818 100.46875 109.375 C 107.4464 108.45375 111.52288 108.16088 121.09375 107.875 C 128.88554 107.64226 130.16077 107.51542 131.28125 106.78125 C 132.14613 106.21456 132.375 105.44069 132.375 103.15625 L 132.375 101.1875 L 126.84375 101.1875 z M 72.5625 104.15625 C 72.995779 104.14925 73.371935 104.27895 73.46875 104.53125 C 73.676674 105.07309 73.248552 106.04136 72.59375 106.5 C 71.936323 106.96048 71.917997 106.95947 71.34375 106.625 C 70.772979 106.29256 70.764819 105.08643 71.34375 104.5625 C 71.629785 104.30364 72.129221 104.16368 72.5625 104.15625 z M 197 106.4375 C 196.9302 106.4539 196.86517 106.5098 196.8125 106.5625 C 196.21888 107.15612 198.062 110.12883 201.09375 113.5 C 202.09301 114.61113 204.42498 117.17423 206.3125 119.21875 C 210.4349 123.68404 211.81634 125.45554 212.34375 127.03125 C 212.80676 128.41455 212.61555 128.83155 211.375 129.09375 C 209.25128 129.54262 204.29818 134.84435 202.28125 138.84375 C 201.75473 139.88779 201.54956 141.76662 201.90625 142.34375 C 202.18365 142.7926 203.18916 142.58384 204.15625 141.875 C 206.26203 140.33153 212.42278 133.69383 214.46875 130.75 C 215.60827 129.11041 216.48062 127.01363 216.3125 126.34375 C 215.90124 124.70518 208.85521 116.86729 202.3125 110.75 C 198.54606 107.22846 197.48888 106.32293 197 106.4375 z M 73.46875 110.875 C 73.700883 110.8592 73.946952 111.01217 74.21875 111.3125 C 74.683081 111.82558 74.757008 112.87996 74.375 113.59375 C 74.229395 113.86582 73.841742 114.0625 73.5 114.0625 C 72.450388 114.0625 72.026079 112.48441 72.78125 111.40625 C 73.015736 111.07148 73.236617 110.89079 73.46875 110.875 z M 196.25 140.25 C 196.11964 140.2338 195.9792 140.324 195.75 140.53125 C 195.02945 141.18285 194.41535 142.54167 194.0625 144.25 C 193.78471 145.59513 193.79263 145.89365 194.15625 146.65625 C 194.59642 147.57929 194.82365 147.61927 196.09375 146.84375 C 197.73245 145.84316 198.5625 145.01352 198.5625 144.40625 C 198.5625 143.66544 197.48627 141.44529 196.75 140.65625 C 196.50128 140.3897 196.38036 140.26617 196.25 140.25 z M 210.1875 143.875 C 209.92989 143.8634 209.69272 143.87195 209.4375 143.90625 C 208.91499 143.97635 208.00777 144.39923 207.34375 144.90625 C 206.70429 145.39451 205.77724 145.8545 205.28125 145.9375 C 203.63285 146.21322 202.81046 146.57663 202.65625 147.0625 C 202.47013 147.6489 201.95497 147.92858 200.65625 148.15625 C 199.37754 148.38042 198.08487 149.28616 196.96875 150.71875 C 195.81939 152.194 194.9371 152.748 193.78125 152.75 C 193.00031 152.751 192.77392 152.87528 192.375 153.53125 C 191.59936 154.8067 191.4705 157.06523 192.0625 159.40625 C 192.68695 161.87564 193.60555 163.46382 194.9375 164.4375 C 196.11517 165.29839 196.81515 165.60105 198.1875 165.84375 C 201.22234 166.38049 203.33938 164.8768 203.6875 161.9375 C 203.87728 160.33506 203.39011 159.51859 202.125 159.28125 C 200.76974 159.027 199.34816 159.60304 198.125 160.84375 C 197.52043 161.457 196.82963 161.90625 196.53125 161.90625 C 195.80629 161.90625 194.84375 160.97198 194.84375 160.25 C 194.84375 159.40779 195.16541 158.88778 197.09375 156.65625 C 198.16911 155.41181 198.97697 154.21821 199.25 153.4375 C 199.79119 151.88996 201.28678 150.47934 203.21875 149.75 C 204.3772 149.31262 204.9338 149.24502 206.40625 149.375 C 207.71323 149.49038 208.245 149.4528 208.4375 149.21875 C 208.58163 149.04354 208.99487 148.5608 209.34375 148.125 C 209.69263 147.68919 210.17365 147.2548 210.40625 147.1875 C 210.63885 147.1202 211.29789 146.96158 211.875 146.8125 C 212.48389 146.65521 213.02889 146.32762 213.1875 146.03125 C 213.7 145.07362 211.9908 143.95643 210.1875 143.875 z M 217.15625 147.28125 C 216.4635 147.28125 217.41645 150.25887 218.65625 152 C 219.28507 152.8831 219.86251 152.93462 220.59375 152.15625 C 221.0634 151.65633 221.10711 151.4855 220.875 150.875 C 220.30221 149.36845 218.14135 147.28125 217.15625 147.28125 z M 212.5 150.53125 C 211.58586 150.53125 210.21875 151.92794 210.21875 152.875 C 210.21875 154.34284 212.50842 157.81158 213.96875 158.53125 C 215.06757 159.07275 215.80872 159.03498 216.40625 158.4375 C 216.99288 157.85087 217.01705 157.68156 216.5625 156.21875 C 215.50586 152.81832 213.85981 150.53125 212.5 150.53125 z M 203.75 153.28125 C 202.37045 153.41313 202.54998 154.01074 204.59375 156.15625 C 206.56757 158.22833 207.34126 159.4911 207.625 161.0625 C 207.7223 161.6015 207.896 162.17333 208.03125 162.34375 C 208.35606 162.75299 208.59202 162.75173 209.0625 162.28125 C 210.20409 161.13966 208.87076 157.66553 206.21875 154.90625 C 204.7464 153.37433 204.51109 153.20855 203.75 153.28125 z M 106.5 199.75 L 105.4375 200.96875 C 103.20923 203.49834 102.85468 205.32864 104.21875 207.65625 C 104.79669 208.64242 105.1923 208.93655 106.75 209.65625 C 114.09215 213.04854 136.11673 217.99662 146.125 218.5 C 146.94301 218.5411 152.98719 218.5999 159.53125 218.625 C 171.6381 218.6715 184.99522 218.4042 192.375 217.9375 C 200.10046 217.44895 207.825 216.05561 209.65625 214.84375 C 210.19373 214.48806 211.95786 213.74011 213.59375 213.15625 C 217.96858 211.59484 219.95462 210.30285 220.90625 208.4375 C 222.28298 205.73889 219.97041 202.98408 216.59375 203.28125 C 216.25726 203.31085 216.1697 203.55118 216.1875 204.4375 C 216.2261 206.36012 214.76286 207.98347 212.15625 208.90625 C 209.34077 209.90297 197.88841 212.06231 193.3125 212.46875 C 184.61521 213.24127 160.25126 214.14905 155.1875 213.875 C 149.1343 213.5474 144.0439 212.71389 132.25 210.125 C 115.22416 206.38764 109.20363 204.12068 107.0625 200.65625 L 106.5 199.75 z M 101.03125 210.3125 L 98.78125 211.84375 C 94.580219 214.70086 91.46875 218.42397 91.46875 220.59375 C 91.46875 221.30405 91.658707 221.50659 92.9375 222.375 C 94.920369 223.72154 101.1722 227.17266 104.5 228.75 C 111.12634 231.89079 119.71456 234.40533 128.875 235.90625 C 134.06692 236.75694 138.36218 237.20954 147.3125 237.78125 C 151.63743 238.05751 155.69246 238.36805 156.34375 238.5 C 156.99504 238.63194 157.92908 238.79365 158.40625 238.84375 C 162.86058 239.31138 182.95617 238.57254 190.53125 237.65625 C 197.57151 236.80465 208.43761 233.87955 218.5 230.15625 C 226.66966 227.1333 231.28125 224.78424 231.28125 223.625 C 231.28125 221.99139 226.88705 216.06621 224.65625 214.6875 C 223.54022 213.99776 223.34601 214.05778 215.375 216.71875 C 201.88908 221.22076 197.3893 221.89777 175.625 222.6875 C 165.80295 223.0439 150.01548 222.84609 145.09375 222.3125 C 136.7059 221.40314 124.87068 219.18423 118.46875 217.34375 C 113.3463 215.87111 110.54308 214.83023 105.34375 212.375 L 101.03125 210.3125 z "
     id="path4419" />
  <path
     style="fill:#b3b3b3;fill-opacity:1;stroke:#b3b3b3;stroke-width:0.24788135;stroke-miterlimit:4;stroke-opacity:1;stroke-dasharray:none"
     d=""
     id="path4479" />
</svg>
