<?xml version="1.0" encoding="UTF-8" standalone="no"?>
<!-- Created with Inkscape (http://www.inkscape.org/) -->

<svg
   xmlns:dc="http://purl.org/dc/elements/1.1/"
   xmlns:cc="http://creativecommons.org/ns#"
   xmlns:rdf="http://www.w3.org/1999/02/22-rdf-syntax-ns#"
   xmlns:svg="http://www.w3.org/2000/svg"
   xmlns="http://www.w3.org/2000/svg"
   xmlns:sodipodi="http://sodipodi.sourceforge.net/DTD/sodipodi-0.dtd"
   xmlns:inkscape="http://www.inkscape.org/namespaces/inkscape"
   id="svg4314"
   version="1.1"
   inkscape:version="0.47 r22583"
   width="270"
   height="270"
   sodipodi:docname="front.svg">
  <metadata
     id="metadata4320">
    <rdf:RDF>
      <cc:Work
         rdf:about="">
        <dc:format>image/svg+xml</dc:format>
        <dc:type
           rdf:resource="http://purl.org/dc/dcmitype/StillImage" />
        <dc:title />
      </cc:Work>
    </rdf:RDF>
  </metadata>
  <defs
     id="defs4318">
    <inkscape:perspective
       sodipodi:type="inkscape:persp3d"
       inkscape:vp_x="0 : 0.5 : 1"
       inkscape:vp_y="0 : 1000 : 0"
       inkscape:vp_z="1 : 0.5 : 1"
       inkscape:persp3d-origin="0.5 : 0.33333333 : 1"
       id="perspective4322" />
  </defs>
  <sodipodi:namedview
     pagecolor="#ffffff"
     bordercolor="#666666"
     borderopacity="1"
     objecttolerance="10"
     gridtolerance="10"
     guidetolerance="10"
     inkscape:pageopacity="0"
     inkscape:pageshadow="2"
     inkscape:window-width="1280"
     inkscape:window-height="949"
     id="namedview4316"
     showgrid="false"
     inkscape:zoom="1.9831933"
     inkscape:cx="113.54738"
     inkscape:cy="109.89567"
     inkscape:window-x="0"
     inkscape:window-y="25"
     inkscape:window-maximized="1"
     inkscape:current-layer="svg4314" />
  <path
     style="fill:#666666;fill-opacity:1;stroke:#666666;stroke-width:0.50423728999999995;stroke-miterlimit:4;stroke-opacity:1;stroke-dasharray:none"
     d="M 85.71875 38.90625 C 84.837321 38.92217 83.831834 38.9601 82.71875 39 C 73.557942 39.328398 72.915609 39.505192 73.34375 41.34375 C 74.101076 44.595917 74.733437 45.40332 76.84375 46 C 79.689303 46.804565 80.132796 47.318518 80.46875 50.21875 C 80.62861 51.598789 80.867817 53.257802 81 53.90625 C 81.225516 55.012555 81.410451 55.079269 83.875 54.78125 C 90.32349 54.001482 90.220881 54.017239 91.25 52 C 92.490929 49.567578 93.485152 43.909179 93.0625 41.65625 C 92.680838 39.621813 92.073443 38.965264 88.03125 38.90625 C 87.357551 38.89645 86.600179 38.89033 85.71875 38.90625 z M 112.65625 39.90625 C 112.39155 39.91165 112.21388 39.94237 112.15625 40 C 111.99564 40.160611 111.71883 41.852216 111.53125 43.75 L 111.1875 47.1875 L 107.65625 47.46875 L 104.125 47.71875 L 106.65625 48.125 C 111.17536 48.853554 111.66161 49.143896 111.9375 51.03125 C 112.17103 52.628842 112.41637 52.815874 115.21875 53.75 C 116.88273 54.304661 118.69534 55.036771 119.25 55.375 C 119.80466 55.713231 120.6919 55.9916 121.21875 56 C 122.11357 56.01432 122.17651 55.716413 121.875 51.46875 C 121.58108 47.327908 121.61733 46.845029 122.53125 46.0625 C 124.04191 44.769039 123.86769 42.603766 122.15625 41.71875 C 120.79347 41.014027 114.50913 39.868249 112.65625 39.90625 z M 61.625 47.3125 L 61.34375 49.28125 C 61.125349 50.781563 60.592581 59.607839 60.28125 66.84375 C 60.22179 68.225799 69.651012 71.786169 77.65625 73.40625 C 79.736228 73.827192 84.060699 74.356241 87.25 74.59375 C 105.62417 75.962088 128.87174 74.398609 134.71875 71.375 C 137.21581 70.083724 137.3794 69.094648 136.4375 60.5 C 135.97045 56.238288 135.36257 51.891593 135.09375 50.84375 L 134.59375 48.9375 L 131.96875 49.21875 C 125.87527 49.895666 126.25822 49.694844 125.90625 52.625 C 125.73201 54.075544 125.5655 56.430748 125.5625 57.84375 C 125.5555 61.826362 124.27186 62.458051 114.59375 63.34375 C 109.00634 63.855086 108.61091 63.482988 108.15625 56.8125 L 107.8125 51.46875 L 101.875 51.46875 L 95.96875 51.46875 L 95.65625 55.28125 C 95.248795 60.101434 94.327853 61.918061 92.15625 62.3125 C 90.752393 62.567489 80.158152 61.073047 77.53125 60.25 C 76.856763 60.038673 76.65955 59.42978 76.65625 57.625 C 76.65385 56.326369 76.515344 54.08445 76.34375 52.65625 L 76.03125 50.0625 L 71.4375 48.96875 C 68.907532 48.368706 65.644333 47.75048 64.21875 47.59375 L 61.625 47.3125 z M 112.9375 57.625 C 111.9168 57.647895 111.50178 58.118373 111.875 58.9375 C 112.00589 59.224758 112.26313 59.356245 113.0625 59.5625 C 113.71627 59.731184 118.40625 59.267701 118.40625 59.03125 C 118.40625 58.935725 115.18702 57.988152 114.15625 57.78125 C 113.68692 57.687044 113.27773 57.617368 112.9375 57.625 z M 68.71875 76.0625 L 68.15625 79.28125 C 67.265916 84.511075 66.143568 96.057327 64.8125 113.5 C 64.12469 122.51324 63.106308 134.19947 62.5625 139.46875 C 62.018692 144.73803 61.172346 155.05699 60.6875 162.40625 L 59.8125 175.78125 L 51.34375 192.46875 L 42.84375 209.1875 L 44.5 210.4375 C 46.848051 212.22522 49.594047 213.52217 54.21875 215.03125 C 59.36896 216.7118 67.724188 218.79558 71.46875 219.34375 C 75.680879 219.96034 93.576553 219.98209 100.34375 219.375 C 114.62974 218.0933 138.54971 211.64196 142.78125 207.9375 C 144.13469 206.75265 143.73726 205.84146 135.0625 191.15625 C 130.35484 183.1868 128.03586 178.76588 127.15625 176.03125 C 126.02413 172.51161 125.51437 164.25086 125.0625 141.4375 C 124.80921 128.64999 124.48536 117.62622 124.3125 116.9375 C 124.01708 115.76044 123.86713 115.71416 122.09375 116.1875 C 121.05612 116.46446 119.61582 116.52968 118.875 116.34375 C 116.71454 115.80151 114.02958 113.14623 113.65625 111.15625 C 113.36094 109.58211 113.53915 109.15842 115.28125 107.34375 L 117.25 105.3125 L 115.46875 105.65625 C 114.49809 105.84411 113.05074 106.04137 112.21875 106.09375 C 110.88566 106.17765 110.69765 106.04845 110.8125 104.9375 C 110.9627 103.48478 112.50269 102.04026 114.40625 101.5625 C 115.13105 101.38058 117.52857 101.5391 119.75 101.90625 C 126.52416 103.02584 129.80542 103.09973 130.5625 102.1875 C 131.9546 100.51012 128.68841 98.93955 121.6875 97.90625 C 116.95308 97.20747 115.46875 96.59894 115.46875 95.40625 C 115.46875 94.173849 116.75971 93.85245 121.53125 93.84375 L 125.34375 93.84375 L 125.1875 88.40625 C 125.0998 85.424947 124.92949 82.554661 124.8125 82 C 124.32602 79.693608 123.379 79.543113 102.5625 78.875 C 90.026145 78.472591 80.959519 77.954985 77.625 77.4375 C 74.740735 76.989889 71.537206 76.494955 70.53125 76.34375 L 68.71875 76.0625 z M 258.1875 83.65625 C 257.33642 83.621542 256.62581 84.363394 256.625 85.40625 C 256.62425 86.365505 257.05683 86.997178 257.84375 87.25 C 258.37054 87.419248 259.52845 87.301891 259.90625 87.03125 C 260.14345 86.861327 260.22 86.661019 260.25 86.25 C 260.33126 85.137399 259.61324 84.033559 258.5625 83.71875 C 258.43603 83.680859 258.30908 83.661208 258.1875 83.65625 z M 201.875 88.53125 C 198.9488 88.578951 197.65107 88.81438 196.4375 89.34375 C 194.82939 90.045217 193.91538 91.50699 193.4375 94.15625 C 192.88348 97.227651 192.42674 104.31074 192.71875 105.375 C 192.93512 106.16361 193.24225 106.31281 194.71875 106.3125 C 196.10698 106.31221 196.98891 106.07809 197.65625 105.59375 C 197.89279 105.42208 198.21633 105.20977 198.375 105.09375 C 199.17586 104.50814 202.70467 104.15931 205.84375 104.375 C 209.87021 104.65166 211.70598 105.07989 212.65625 105.96875 C 212.98245 106.27387 213.39618 106.61625 213.59375 106.71875 C 214.89724 107.39501 215.71636 104.88206 216.21875 98.53125 C 216.4102 96.11139 216.42917 89.835777 216.25 89.65625 C 216.05453 89.460381 215.11389 90.158477 213.375 91.78125 C 210.81933 94.16625 209.68608 94.5233 204.84375 94.40625 C 201.83017 94.33341 200.7702 94.1636 199.59375 93.625 C 198.21373 92.99321 197.53625 92.03744 197.53125 90.75 C 197.5265 89.523515 197.84949 89.41946 199.625 90.03125 C 201.38374 90.637264 202.51752 90.894937 204.3125 91.0625 C 207.59469 91.368894 210.07148 90.751687 210.71875 89.5 C 211.14316 88.679278 210.69716 88.62891 205.40625 88.5625 C 204.0129 88.545012 202.8504 88.51535 201.875 88.53125 z M 221.03125 90.8125 L 220.375 96.90625 C 219.52305 105.05028 218.74536 107.87716 216.875 109.5625 C 215.51692 110.78624 215.46677 110.95033 216.3125 111.21875 C 217.76124 111.67856 217.89586 112.70066 217.0625 117.09375 C 216.12166 122.05347 215.57929 123.50268 214.15625 125.03125 L 213.0625 126.21875 L 214.3125 126.03125 C 215.66273 125.84476 215.64326 125.90194 218.5625 116 C 220.46717 109.53943 221.3697 108.4467 225.875 107.21875 C 227.92402 106.66027 229.63375 105.96483 229.65625 105.6875 C 229.67875 105.41017 228.32023 104.94159 226.65625 104.65625 C 223.03976 104.0361 222.58079 102.94449 225.65625 102.28125 C 226.76557 102.04202 235.16059 101.68918 244.3125 101.5 L 260.96875 101.15625 L 261.09375 95.96875 L 261.25 90.8125 L 241.125 90.8125 L 221.03125 90.8125 z M 184.5625 93.5625 C 183.7744 93.5625 183.36424 94.528419 183.9375 95.0625 C 184.29553 95.39602 184.75896 95.40638 185.125 95.0625 C 185.7059 94.516779 185.35963 93.5625 184.5625 93.5625 z M 92.1875 94.4375 C 94.356675 94.22902 97.888252 95.96031 99.84375 98.1875 C 101.00705 99.51243 101.375 100.40847 101.375 101.9375 C 101.375 104.10624 100.63064 105.08626 97.34375 107.15625 C 95.598751 108.25519 95.564 108.29331 95.5625 111.8125 C 95.5609 115.60036 94.900598 117.41064 93.15625 118.5 C 91.764631 119.36908 86.346755 119.71724 84.71875 119.03125 C 82.671927 118.16879 80.20331 115.4688 79.875 113.71875 C 79.488693 111.65956 79.90769 110.37877 81.59375 108.375 L 82.9375 106.78125 L 81.4375 107.15625 C 80.611517 107.3601 78.94525 108.00087 77.75 108.59375 C 76.106358 109.40904 75.394576 109.56022 74.75 109.15625 C 73.430869 108.32952 73.460582 106.76817 74.84375 105.46875 C 76.342906 104.06037 80.655791 103.49159 90.03125 103.4375 C 93.359216 103.4183 96.373693 103.20719 96.75 102.96875 C 97.569164 102.4497 97.112458 99.74639 96.0625 98.875 C 95.685628 98.56223 94.307369 98.04913 92.96875 97.71875 C 90.868984 97.20051 90.53125 96.93131 90.53125 95.84375 C 90.53125 94.786379 90.79335 94.57149 92.1875 94.4375 z M 205.4375 95.4375 C 206.78625 95.42501 208.07278 95.458915 208.6875 95.5625 C 212.34785 96.17927 214.15564 97.97572 213.125 99.96875 C 212.39415 101.38208 209.83447 102.67265 206.8125 103.1875 C 205.78623 103.36238 202.53554 103.45006 201.875 103.3125 C 199.54497 102.82724 198.70152 102.20681 198.03125 100.46875 C 197.50259 99.097887 197.42315 98.30141 197.75 97.5625 C 198.22055 96.49874 199.36911 95.94281 201.78125 95.625 C 202.67337 95.507475 204.08875 95.44999 205.4375 95.4375 z M 188.65625 95.875 C 188.62265 95.88311 188.58282 95.894705 188.53125 95.9375 C 188.20903 96.20493 187.76607 98.050937 187.34375 100.84375 C 186.75148 104.76041 186.67947 106.53895 187.125 107.03125 C 187.28303 107.20589 187.51012 107.3125 187.84375 107.3125 C 188.5445 107.3125 188.90275 106.88387 189.09375 105.8125 C 189.28202 104.75649 189.18211 97.56542 188.96875 96.71875 C 188.79618 96.033925 188.75704 95.85067 188.65625 95.875 z M 204.6875 98.65625 C 202.24485 98.65625 201.82637 98.67961 201.46875 98.875 C 201.24342 98.99811 201.0625 99.16325 201.0625 99.21875 C 201.0625 99.41703 201.68006 99.892717 202.15625 100.0625 C 203.19976 100.43457 205.23366 100.11631 206.9375 99.34375 C 208.27235 98.73852 207.99794 98.65625 204.6875 98.65625 z M 181.8125 105.9375 C 180.88145 105.88252 179.73378 106.2421 178.84375 107.0625 C 177.90282 107.92981 177.7394 108.5644 177.6875 111.53125 L 177.65625 114.03125 L 179.78125 111.90625 C 182.03522 109.63844 183.4375 107.86565 183.4375 107.34375 C 183.4375 106.47079 182.74355 105.99248 181.8125 105.9375 z M 120.5 108.96875 C 117.46853 108.96875 116.61134 110.05846 118.46875 111.5625 C 119.10038 112.07397 119.97348 112.5 120.40625 112.5 C 121.52093 112.5 123.03125 111.00748 123.03125 109.90625 C 123.03125 109.12525 122.62981 108.96875 120.5 108.96875 z M 87.875 110 C 87.204285 110.08287 86.475709 110.37814 85.6875 110.84375 C 83.441154 112.1707 83.991195 114.64186 86.75 115.65625 C 89.749895 116.75929 92.273052 113.82938 90.5625 111.21875 C 90.07916 110.48108 89.364855 110.06349 88.53125 110 C 88.322849 109.98413 88.098572 109.97238 87.875 110 z M 195.0625 110.34375 C 192.55903 110.36496 190.97136 110.53323 190 110.875 C 189.48 111.05796 188.35208 111.41537 187.5 111.65625 C 185.33254 112.26899 184.53123 112.8401 183 114.8125 C 180.9766 117.41886 177.07714 124.28605 176.59375 126.09375 C 176.31056 127.15278 176.09926 127.63467 175 129.90625 C 173.73941 132.51123 173.19464 133.93564 172.21875 136.875 C 170.86605 140.94933 170.02198 144.74253 170.34375 145.34375 C 170.74321 146.09016 175.78431 147.9616 179.65625 148.78125 C 180.24558 148.90601 181.11026 149.02625 181.5625 149.03125 C 182.29449 149.03914 182.47758 148.98247 183.1875 148.5625 C 184.70009 147.66769 186.95259 144.8812 187.625 143.09375 C 187.96484 142.19035 187.90022 141.68348 187.25 140.4375 C 186.40228 138.81303 186.40741 138.167 187.40625 135.75 C 188.13068 133.997 188.51131 132.42704 188.625 130.4375 C 188.7116 128.92204 188.73102 128.71393 189.125 127.90625 C 189.43365 127.2735 189.8309 126.75926 190.5625 126.03125 C 192.21559 124.3863 193.7517 123.61076 195.84375 123.40625 C 198.12822 123.18293 198.15778 123.18664 198 121.8125 C 197.65764 118.83074 198.00992 117.00879 199.53125 113.9375 C 200.67082 111.63693 201.39677 111.37724 207.09375 111.125 C 208.21993 111.07514 208.70066 111.03045 208.78125 111 C 208.70861 110.98467 208.54537 110.9596 208.34375 110.9375 C 206.65997 110.75295 201.13538 110.4544 197.875 110.375 C 196.82409 110.34942 195.89699 110.33668 195.0625 110.34375 z M 210.1875 114.5625 C 209.08676 114.56505 208.0964 114.59056 208.03125 114.65625 C 207.7939 114.89558 210.52962 116.4735 211.78125 116.8125 C 212.92671 117.12275 213.6972 116.82369 214.125 115.875 L 214.34375 115.34375 L 214 115.0625 C 213.78513 114.87768 213.40205 114.72265 212.9375 114.65625 C 212.48602 114.59176 211.28824 114.55995 210.1875 114.5625 z M 204.875 118.53125 C 202.51348 118.58219 201.40738 119.21609 201.71875 120.34375 C 202.06026 121.58061 203.70669 122.66764 205.96875 123.125 C 208.24433 123.5851 210.74883 123.07558 212 121.90625 C 212.22149 121.69925 212.40625 121.50655 212.40625 121.46875 C 212.40625 121.2575 211.91724 120.66558 211.40625 120.25 C 210.09688 119.18511 208.39338 118.66512 205.9375 118.5625 C 205.54922 118.54627 205.21236 118.52397 204.875 118.53125 z M 173.625 121.8125 C 173.05151 121.8125 171.74054 122.53412 171.125 123.21875 C 169.3608 125.18097 167.35502 130.51697 166.8125 134.59375 C 166.65348 135.78872 166.70314 136.57765 167 137.03125 C 167.38711 137.62275 168.22052 137.23257 168.4375 136.375 C 168.84395 134.76856 169.45133 133.32568 171.59375 128.78125 C 174.16177 123.33402 174.60687 121.8125 173.625 121.8125 z M 103.53125 123.375 C 106.8644 123.37 110.29726 123.56092 111.8125 124 C 112.98644 124.34018 114.16434 125.0521 114.4375 125.5625 C 114.86906 126.36888 114.69153 126.51195 113.0625 126.78125 C 110.56672 127.19385 97.405638 127.09954 95.8125 126.65625 C 93.924802 126.131 93.967443 124.84911 95.90625 124.03125 C 96.956625 123.58817 100.19809 123.3802 103.53125 123.375 z M 197.09375 127 C 195.39965 127.09247 193.36257 128.17119 192.78125 129.5625 C 192.42152 130.42344 192.63745 131.93456 193.15625 132.15625 C 193.57843 132.33665 194.50939 132.17623 196.25 131.625 C 199.40816 130.62485 200.58395 129.83708 200.28125 128.96875 C 200.13399 128.54632 199.15817 127.52712 198.625 127.25 C 198.20309 127.03071 197.65845 126.96918 197.09375 127 z M 158.65625 127.625 C 155.52638 127.625 147.48209 127.78573 140.78125 127.96875 L 128.59375 128.28125 L 128.59375 131.5625 L 128.59375 134.84375 L 137.78125 134.5 C 148.62517 134.09067 159.94317 132.91767 161.75 132.03125 C 162.50824 131.65926 163.30406 130.61835 163.6875 129.5 L 164.34375 127.625 L 158.65625 127.625 z M 58.4375 133.71875 C 58.271839 133.70875 58.056469 133.72875 57.78125 133.78125 C 57.112111 133.90916 53.765236 135.58494 50.34375 137.5 C 45.345178 140.29778 43.271146 141.8242 39.78125 145.28125 C 37.392441 147.64757 35.265285 150.11108 35.0625 150.75 C 34.19835 153.4727 41.848575 165.55597 48.75 172.40625 C 53.747614 177.36684 54.854713 177.84227 55.53125 175.3125 C 55.892466 173.96181 55.60803 173.56261 51.75 169.78125 C 49.45668 167.5335 46.531727 164.15353 45.21875 162.28125 C 42.548448 158.47345 38.84375 151.52921 38.84375 150.3125 C 38.84375 149.81365 41.940972 147.74089 47.1875 144.75 C 57.694311 138.76039 59 137.71619 59 135.34375 C 59 134.13105 58.93448 133.74734 58.4375 133.71875 z M 193.59375 136.5625 C 191.89256 136.57308 191.3066 136.69314 190.9375 137.1875 C 190.44854 137.84241 190.4964 139.3714 191.03125 139.90625 C 191.29747 140.17252 191.44355 140.1885 192.3125 140.1875 C 194.47692 140.1842 195.98519 139.40642 196.28125 138.09375 C 196.5458 136.92076 195.89458 136.5482 193.59375 136.5625 z M 190.34375 146.15625 C 189.31167 146.29468 188.46972 147.307 188.65625 148.15625 C 188.75591 148.61001 189.40982 149.24129 190.03125 149.46875 C 190.79702 149.74904 192.09235 149.71195 192.59375 149.40625 C 193.18077 149.04834 193.32364 148.59003 193.0625 147.90625 C 192.6465 146.81696 191.38992 146.01593 190.34375 146.15625 z M 149.8125 207.28125 C 149.23199 207.28525 148.41378 208.01705 146.9375 209.3125 C 145.30281 210.74696 143.07807 212.39961 141.96875 212.96875 C 136.18059 215.93839 116.04458 221.42898 107.15625 222.46875 C 103.78804 222.86276 95.170276 223.13825 85.21875 223.15625 L 68.84375 223.1875 L 62.5 221.5625 C 50.647724 218.55678 45.85911 216.49055 41.3125 212.40625 L 38.5 209.875 L 36.71875 211.71875 C 34.028028 214.55941 33.28125 215.91529 33.28125 217.96875 C 33.28125 219.52292 33.606135 220.07667 35.0625 221.1875 C 37.351611 222.93349 46.566663 226.02947 54.21875 227.625 C 59.460522 228.71796 62.559904 229.18213 71.625 230.1875 C 72.595657 230.2952 82.69195 230.3209 94.0625 230.25 C 117.50796 230.10376 117.44421 230.10585 136.1875 225.40625 C 148.19103 222.39654 149.85789 221.80118 151.53125 219.8125 C 153.09468 217.95447 153.16011 215.64153 151.78125 211.25 C 150.91161 208.48029 150.55887 207.27615 149.8125 207.28125 z M 156 222.90625 L 152.03125 224.71875 C 146.06482 227.43775 125.50143 232.48539 116 233.5625 C 109.76013 234.26986 67.567379 233.85416 61.65625 233.03125 C 53.074755 231.83659 42.569696 229.12821 36.03125 226.40625 C 31.198343 224.3943 30.481602 224.57657 26.75 229.03125 C 23.326299 233.11837 18.900144 240.49732 19.5 241.09375 C 20.174834 241.76473 28.647842 244.9288 33.625 246.375 C 46.528277 250.12427 69.000423 253.2524 87 253.8125 C 93.31412 254.00898 113.59534 253.3076 118.25 252.71875 C 130.65411 251.14952 141.68213 248.85206 150.28125 246.0625 C 155.64435 244.32271 162.53036 241.20615 164.28125 239.75 L 165.4375 238.8125 L 164.40625 235.78125 C 163.08614 231.95467 159.94514 226.70192 157.71875 224.5625 L 156 222.90625 z "
     id="path4328" />
  <path
     style="fill:#000000"
     d="m 70.172669,256.46653 c -19.72752,-1.69333 -34.84738,-4.85536 -47,-9.82914 -5.28842,-2.16442 -7.07778,-3.3944 -7.3181,-5.03034 -0.41249,-2.80796 6.31435,-13.70034 10.5463,-17.07701 2.23505,-1.78335 3.27175,-3.46127 3.27177,-5.29543 7e-5,-5.85795 3.59275,-11.01229 9.02888,-12.95352 1.93089,-0.68951 3.97867,-3.81366 8.66027,-13.21235 l 6.13142,-12.3093 -2.57625,-1.91997 c -2.79851,-2.0856 -8.83534,-8.33015 -12.17639,-12.59537 -2.55526,-3.26207 -8.0679,-14.21305 -8.0679,-16.02705 0,-2.84556 19.06993,-17.5128 27.08752,-20.83379 2.86584,-1.18707 2.91248,-1.33175 2.91248,-9.03386 0,-4.3051 0.64216,-12.91301 1.42703,-19.12868 0.78487,-6.215684 1.71725,-14.22623 2.07196,-17.80123 0.35471,-3.575 0.86787,-7.2875 1.14036,-8.25 0.2945,-1.040283 -0.0461,-1.75 -0.83983,-1.75 -0.73439,0 -2.98453,-1.120713 -5.00031,-2.490473 -3.43304,-2.332813 -3.606,-2.696401 -2.73214,-5.743399 0.51311,-1.789108 0.93982,-7.080895 0.94824,-11.759526 0.0212,-11.775788 0.34413,-12.088079 9.73469,-9.414044 1.98272,0.564594 2.25,0.277207 2.25,-2.419223 0,-4.99454 2.80454,-6.173335 14.68732,-6.173335 11.18951,0 12.31268,0.591488 12.31268,6.484162 0,2.552369 0.1391,2.608391 5.749991,2.315742 l 5.75,-0.299904 0.5,-4 c 0.49587,-3.966948 0.53305,-3.998016 4.5,-3.759839 2.2,0.132088 6.3625,0.726492 9.25,1.320897 l 5.25,1.080738 0,4.045733 c 0,3.711773 0.18573,3.994789 2.25,3.428568 1.2375,-0.339441 3.86776,-0.888287 5.84501,-1.219656 l 3.59501,-0.60249 0.69906,13.241663 c 0.66673,12.629198 0.60071,13.34635 -1.42725,15.505018 -1.16947,1.244846 -4.00181,2.734526 -6.29407,3.310402 l -4.16776,1.047046 0.31472,8.808274 c 0.31448,8.801301 0.31744,8.810061 3.75,11.060152 4.51963,2.962694 4.76847,6.904014 0.53676,8.501304 -3.23668,1.22171 -4.07016,4.01901 -4.09162,13.7322 l -0.0122,5.50001 18.60226,-0.29343 18.60225,-0.29343 2.48779,-2.95658 c 1.74936,-2.07895 3.3883,-2.95657 5.52138,-2.95657 2.31108,0 2.78754,-0.29769 2.00059,-1.25 -0.56813,-0.6875 -1.33388,-2.8606 -1.70168,-4.82911 -0.55738,-2.98322 -0.22449,-4.10704 1.99941,-6.75 1.63805,-1.9467 3.59898,-3.17089 5.07923,-3.17089 2.7573,0 3.35294,-2.973474 0.9887,-4.935614 -0.78233,-0.64928 -1.87427,-2.47671 -2.42655,-4.060961 -1.27742,-3.664407 0.61346,-5.735021 3.7193,-4.072829 3.12039,1.669984 4.84461,1.288959 7.60512,-1.680606 2.49371,-2.682566 2.81961,-2.747981 13.29047,-2.667648 5.90374,0.04529 12.53407,0.605284 14.73407,1.244423 2.25384,0.65478 10.62958,1.164506 19.18664,1.167648 l 15.18664,0.0056 0.31336,-3.25 c 0.30079,-3.119675 0.48751,-3.25 4.65633,-3.25 4.07558,0 4.41446,0.215496 5.50404,3.5 0.70593,2.127984 0.96349,6.832039 0.65703,12.000003 l -0.50404,8.500014 -15.25,-0.37991 c -14.72839,-0.36691 -15.25,-0.31124 -15.25,1.62756 0,2.58497 -1.63644,3.83631 -6.05604,4.63088 -3.37002,0.60588 -3.67081,0.99567 -5.75,7.45134 -1.20668,3.74661 -2.19396,7.74381 -2.19396,8.88267 0,3.27048 -5.84052,3.93968 -14.25,1.63275 -1.06725,-0.29277 -1.75,0.071 -1.75,0.93233 0,0.77682 -0.9,2.22689 -2,3.22238 -1.23874,1.12104 -2,3.07997 -2,5.14651 0,2.2399 -0.64939,3.74209 -1.97577,4.57043 -1.59637,0.99695 -1.8628,1.9404 -1.38745,4.91306 0.77895,4.87132 -0.97472,5.73607 -10.63678,5.2451 -9.87531,-0.50181 -17.79893,-3.5894 -18.59476,-7.24581 -0.31475,-1.44611 -1.31202,-4.09179 -2.21616,-5.87929 -1.81216,-3.58267 -2.92503,-3.81724 -10.91831,-2.30135 -2.75121,0.52176 -9.62812,1.02835 -15.28201,1.12577 l -10.27981,0.17711 0.71994,15.12424 c 1.04944,22.04618 1.25946,22.86105 9.40152,36.47766 5.85845,9.79755 7.67935,12.09962 9.96822,12.60234 3.64207,0.79993 8.20137,7.68966 8.20137,12.39338 0,2.64004 0.83691,4.26161 3.56882,6.91481 1.96285,1.90629 5.06274,6.53566 6.88864,10.28749 3.08072,6.33018 3.20919,6.97946 1.78372,9.01461 -2.92303,4.17321 -19.00432,10.139 -36.24118,13.44466 -9.72923,1.86585 -47.767671,2.80087 -62.499991,1.5363 z m 44.076311,-3.08817 c 22.20575,-2.11647 41.84221,-7.38187 51.15714,-13.71749 1.53986,-1.04735 -3.35423,-11.59701 -6.94482,-14.9702 l -2.37061,-2.22707 -4.15449,2.05548 c -4.18841,2.07227 -7.51117,2.99111 -25.76354,7.12445 -8.98127,2.03385 -12.4959,2.25716 -34.499991,2.19205 -14.87607,-0.044 -27.4461,-0.57204 -32,-1.34419 -9.56858,-1.62245 -19.80958,-4.40493 -23.79189,-6.46426 -1.70983,-0.88419 -3.50009,-1.60762 -3.97834,-1.60762 -1.86695,0 -7.1186,5.76985 -10.11937,11.11787 l -3.15218,5.61787 4.77089,2.04149 c 19.63934,8.40377 60.93814,13.0323 90.847201,10.18162 z m 14.92368,-25.89707 c 20.75028,-5.03803 21.63064,-5.33153 23.20658,-7.73671 1.2619,-1.92592 1.30919,-3.09086 0.29677,-7.3111 -0.66237,-2.76107 -1.68235,-5.31558 -2.26661,-5.67668 -0.58427,-0.36109 -2.23427,0.6528 -3.66668,2.25309 -3.70971,4.1445 -9.09349,6.28547 -27.95707,11.11768 -7.9047,2.02493 -12.90056,2.55483 -28.112981,2.98189 -17.38315,0.488 -19.11429,0.36708 -28.67548,-2.00302 -11.83326,-2.93332 -16.05907,-4.76108 -20.23554,-8.75233 l -3.02657,-2.89235 -2.53227,2.22887 c -1.39275,1.22589 -2.79738,3.61304 -3.12139,5.30478 -0.72035,3.76117 1.10172,5.1678 10.59125,8.1764 14.94444,4.73806 30.02793,6.27603 55.5,5.65902 15.523291,-0.37603 19.651121,-0.8369 29.999991,-3.34954 z m -21.36047,-8.62633 c 18.51586,-3.46499 33.46205,-8.04553 35.92131,-11.00876 0.89429,-1.07756 -0.73348,-4.44431 -7.56645,-15.6498 -8.21192,-13.46684 -8.76512,-14.7308 -9.7502,-22.27689 -0.57439,-4.4 -1.08931,-18.64312 -1.14426,-31.65139 -0.0923,-21.84592 -0.2285,-23.58258 -1.78419,-22.75 -2.70547,1.44792 -5.02385,1.0545 -7.50129,-1.27293 -2.92222,-2.74529 -2.94415,-5.1584 -0.0644,-7.0944 2.94264,-1.97832 1.75913,-3.1482 -1.625,-1.60629 -3.00025,1.36701 -3.95503,0.89862 -3.03824,-1.4905 0.91281,-2.37873 5.12989,-3.1251 10.11854,-1.79083 5.43094,1.45255 8.98015,1.4743 9.85401,0.0604 1.27015,-2.05516 -2.10543,-3.887274 -8.36817,-4.541864 -5.95685,-0.62261 -8.2016,-1.68506 -6.71055,-3.176111 0.37448,-0.37448 2.68218,-0.60341 5.12823,-0.50875 l 4.44737,0.17212 -0.11612,-6.174723 c -0.18797,-9.993454 1.76851,-9.144333 -21.68031,-9.409334 -13.596311,-0.153656 -23.161601,-0.742418 -27.720231,-1.706234 -3.82824,-0.809392 -7.19634,-1.235721 -7.48466,-0.947397 -0.86418,0.864183 -2.90233,19.821159 -3.96601,36.888263 -0.54845,8.79999 -1.44907,19.375 -2.00138,23.5 -0.55231,4.125 -1.47152,14.63664 -2.04268,23.35921 l -1.03847,15.85921 -8.50585,16.83786 -8.50586,16.83787 3.34387,2.55049 c 2.89973,2.21173 15.40499,6.03332 25.66147,7.84211 6.37339,1.12398 28.350631,0.60629 36.139521,-0.8513 z M 94.673359,125.7765 c -0.001,-1.73968 2.52554,-2.357 9.646831,-2.357 6.08011,0 10.35231,1.14937 10.35259,2.78519 7e-5,0.39315 -4.49962,0.71482 -9.9993,0.71482 -6.833291,0 -9.999651,-0.36191 -10.000121,-1.14301 z m -11.70463,-8.107 c -3.4043,-2.96399 -3.80302,-6.08134 -1.14045,-8.91646 l 2.34439,-2.49631 -3,0.71927 c -1.65,0.39561 -3.58157,1.17816 -4.29238,1.73901 -0.89066,0.70276 -1.65443,0.65768 -2.45714,-0.14503 -0.88635,-0.88635 -0.74771,-1.58136 0.58,-2.90762 1.38847,-1.38695 3.62601,-1.76373 10.95715,-1.84508 11.9171,-0.13223 11.71237,-0.0938 11.71237,-2.19777 0,-2.464514 -1.94211,-4.200024 -4.7,-4.200024 -1.37778,0 -2.3,-0.60144 -2.3,-1.5 0,-2.501841 4.70847,-1.732281 8.13539,1.32966 3.930391,3.511824 3.481621,7.286964 -1.10774,9.318414 -2.74107,1.21331 -2.92878,1.61802 -2.37034,5.11033 0.45638,2.85405 0.16425,4.28131 -1.18041,5.76714 -2.27481,2.51364 -8.41015,2.63682 -11.18084,0.22447 z m 8.51208,-4.41415 c 0.36431,-3.14985 -2.53762,-4.58617 -5.77037,-2.85606 -2.50057,1.33827 -2.62998,3.56899 -0.28777,4.96055 2.99626,1.78016 5.7182,0.8346 6.05814,-2.10449 z m -35.80814,63.24595 c 0,-0.50502 0.24239,-1.54987 0.53864,-2.32188 0.32349,-0.84299 -0.42929,-1.84469 -1.8846,-2.50777 -2.87774,-1.31119 -10.39874,-10.93603 -13.43844,-17.19757 -1.18694,-2.44499 -2.05851,-4.52785 -1.93683,-4.62858 0.12168,-0.10073 4.49623,-2.58325 9.72123,-5.51671 10.35652,-5.81443 10.96203,-6.3451 10.98469,-9.62706 0.0191,-2.76661 -0.74852,-2.47735 -14.21017,5.35481 -3.6824,2.14246 -10.77454,9.54247 -10.73702,11.20311 0.073,3.22918 7.53435,15.23463 12.84051,20.66051 4.95143,5.06314 8.12199,6.85147 8.12199,4.58114 z m 2.11369,-21.16187 c 0.33754,-6.83096 0.45682,-12.60064 0.26508,-12.82151 -0.19174,-0.22087 -2.82348,1.24163 -5.84831,3.25 -3.02483,2.00837 -5.86661,3.65159 -6.31507,3.65159 -0.44847,0 -1.29569,0.4803 -1.88273,1.06734 -2.20192,2.20193 8.88855,18.68777 11.90137,17.69124 0.8848,-0.29266 1.45075,-4.15829 1.87966,-12.83866 z m 134.970811,-8.3181 c -1.39419,-1.67989 -4.08451,-1.06612 -4.08451,0.93184 0,1.54266 3.08678,2.47833 4.40762,1.33604 0.53206,-0.46014 0.39836,-1.39855 -0.32311,-2.26788 z m -6.34654,-1.38145 c 1.84403,-2.6975 2.03177,-3.61621 1.05773,-5.17591 -0.92584,-1.48249 -0.88915,-2.51251 0.16815,-4.72037 0.74382,-1.55325 1.25308,-4.00677 1.13169,-5.45228 -0.26173,-3.1165 3.86878,-6.87182 7.55837,-6.87182 2.02149,0 2.29197,-0.36743 1.77801,-2.41524 -0.3518,-1.40168 0.10767,-3.9196 1.09489,-6 1.65993,-3.49805 1.84949,-3.58949 7.83713,-3.7805 4.34736,-0.13869 3.07524,-0.35732 -4.36394,-0.75 -5.775,-0.30484 -11.175,-0.24394 -12,0.13534 -0.825,0.37928 -2.625,0.93469 -4,1.23426 -1.74686,0.38058 -3.62971,2.45276 -6.25,6.87849 -2.0625,3.48361 -3.75277,6.7532 -3.75616,7.26575 -0.003,0.51255 -0.73353,2.28191 -1.62253,3.93191 -2.36795,4.39496 -5.44029,14.83846 -4.59742,15.6276 1.3262,1.24166 9.69436,3.8002 11.72411,3.58461 1.0989,-0.11671 3.00689,-1.68804 4.23997,-3.49184 z m 10.0768,-7.47037 c 0.25774,-1.35905 -0.35471,-1.75 -2.74145,-1.75 -2.43958,0 -3.07332,0.42611 -3.07332,2.06642 0,1.663 0.53521,2.00465 2.74145,1.75 1.65345,-0.19084 2.87316,-1.01094 3.07332,-2.06642 z m -27.81477,-1.87729 c 0,-0.62 1.41614,-4.00386 3.14697,-7.51969 3.30635,-6.71614 3.33086,-8.29289 0.0975,-6.27366 -3.01109,1.88049 -6.81792,14.92064 -4.35576,14.92064 0.61121,0 1.11129,-0.50728 1.11129,-1.12729 z m -12.13107,-2.87743 c 7.20919,-1.01852 6.64889,-0.73586 7.60284,-3.83542 l 0.72023,-2.34015 -18.09073,0.34015 -18.09072,0.34014 -0.005,3.5859 -0.005,3.58591 10.75,-0.38836 c 5.9125,-0.2136 13.61602,-0.79327 17.11893,-1.28817 z m 40.98185,-2.09311 c 3.45694,-1.20509 3.85903,-2.06819 1.77086,-3.80122 -2.03437,-1.68837 -6.62164,0.30285 -6.62164,2.8743 0,2.33009 0.53331,2.432 4.85078,0.92692 z m 20.10659,-10.60229 c 0.7016,-3.13506 1.74315,-6.62256 2.31456,-7.75 0.57141,-1.12744 1.35243,-2.72488 1.7356,-3.54989 0.38318,-0.825 2.41556,-1.72499 4.51641,-2 5.12721,-0.67114 5.88491,-3 0.97606,-3 -2.48845,0 -3.53304,-0.40166 -3.25083,-1.25 0.30845,-0.9272 5.23642,-1.32025 19.08333,-1.52206 l 18.6675,-0.27207 0,-5.477944 0,-5.477936 -20.37079,0 -20.37079,0 -0.70229,7.127106 c -0.87685,8.898704 -1.91538,11.680864 -4.79159,12.836364 l -2.26454,0.90977 2.35941,0.0634 c 2.09726,0.0563 2.29962,0.42448 1.82134,3.31339 -1.11783,6.75194 -1.96016,9.2878 -3.48777,10.5 -1.39466,1.10671 -1.3423,1.25 0.45676,1.25 1.65582,0 2.26816,-1.05526 3.30763,-5.70012 z m -5.95737,1.6658 c 1.29833,-0.86875 1.23902,-1.20281 -0.44113,-2.48469 -2.58618,-1.97314 -9.55887,-1.99553 -9.55887,-0.0307 0,2.98878 6.75367,4.68758 10,2.51538 z m 2.77083,-6.77818 c 0.2609,-0.78269 -0.91095,-1.17542 -3.4375,-1.15207 -3.8258,0.0354 -3.82842,0.0382 -1.33333,1.46245 2.76362,1.5775 4.17208,1.48586 4.77083,-0.31038 z m -30.77083,-8.20541 c 0,-1.59814 -1.94286,-2.08304 -3.97933,-0.99315 -1.41713,0.75842 -2.02067,2.09333 -2.02067,4.46932 l 0,3.38789 3,-3 c 1.65,-1.65 3,-3.38883 3,-3.86406 z m -60,2.48272 c 0,-0.95437 -1.02484,-1.46481 -2.94098,-1.46481 -3.61884,0 -4.58914,1.32702 -2.49877,3.41739 1.8302,1.83019 5.43975,0.53456 5.43975,-1.95258 z m 65.7829,-9.03314 c -0.14126,-7.309385 -1.18763,-6.700385 -2.26512,1.31833 -0.58816,4.37711 -0.44796,5.25 0.8433,5.25 1.25403,0 1.5246,-1.24995 1.42182,-6.56833 z m 27.00883,-3.394934 c 0.25588,-4.420221 0.20288,-8.036756 -0.11779,-8.036756 -0.32067,0 -1.70803,1.125 -3.08303,2.499995 -2.04308,2.04309 -3.47697,2.5 -7.84546,2.5 -5.3554,0 -7.74545,-1.17474 -7.74545,-3.806984 0,-0.969355 0.54433,-1.165282 1.75,-0.629904 3.69992,1.642948 9.824,1.655118 11.17919,0.02222 1.18206,-1.424296 0.51509,-1.585327 -6.5662,-1.585327 -9.51011,0 -10.40857,0.904834 -11.14706,11.226136 -0.48203,6.737114 -0.47069,6.773874 2.09069,6.773874 1.41644,0 2.85346,-0.45 3.19338,-1 1.03923,-1.6815 13.06184,-1.23287 14.53517,0.54239 2.14928,2.58972 3.25982,0.0752 3.75656,-8.505644 z m -17.75655,4.029004 c -2.41594,-4.514244 -0.53786,-6.024984 7.52369,-6.052104 5.21685,-0.0175 8.38869,2.13904 6.84649,4.655034 -2.18444,3.56377 -12.66528,4.5827 -14.37018,1.39707 z m 8.46482,-2.065764 c 1.54324,-0.66315 1.0159,-0.87548 -2.30902,-0.92971 -2.63352,-0.043 -4.0687,0.31855 -3.69098,0.92971 0.73498,1.189234 3.23252,1.189234 6,0 z m -21.5,-5.000001 c 0,-0.54999 -0.45,-1 -1,-1 -0.55,0 -1,0.45001 -1,1 0,0.550001 0.45,1.000001 1,1.000001 0.55,0 1,-0.45 1,-1.000001 z m 74.81184,-8.738511 c -0.50201,-2.606737 -3.81184,-2.897451 -3.81184,-0.334808 0,1.431099 0.64223,2.073324 2.07332,2.073324 1.4311,0 1.96962,-0.538516 1.73852,-1.738516 z M 126.67326,73.919363 c 10.84054,-2.280377 11.34569,-2.700564 10.63591,-8.847017 -0.32728,-2.834071 -0.88818,-7.777463 -1.24645,-10.985317 -0.59448,-5.322833 -0.83658,-5.78276 -2.77073,-5.263654 -1.16563,0.312843 -3.35683,0.57495 -4.86933,0.58246 -2.68735,0.01334 -2.75,0.147904 -2.75,5.906666 0,6.728637 0.14181,6.611342 -9.20285,7.61207 -7.59882,0.813764 -7.89559,0.571052 -7.95038,-6.502202 l -0.0387,-5.002879 -6.34922,0 -6.349211,0 -0.30479,4.647567 c -0.41608,6.344575 -1.76178,6.992881 -10.91029,5.25617 l -7.3945,-1.403737 -0.2983,-5 -0.29831,-5 -7.09388,-1.721142 c -3.90163,-0.946627 -7.42054,-1.519252 -7.8198,-1.2725 -0.39925,0.246753 -0.80973,4.591324 -0.91218,9.654603 -0.10245,5.063279 -0.40269,9.55615 -0.66722,9.984158 -1.18212,1.912722 11.40709,6.49403 21.58969,7.856647 10.41197,1.39331 37.423241,1.092053 45.000591,-0.501893 z m -10.7677,-15.82992 c -3.31447,-0.983134 -4.8875,-0.538139 -3.87706,1.096785 0.30586,0.49489 2.03842,0.668612 3.85013,0.386049 l 3.29403,-0.513751 -3.2671,-0.969083 z M 90.922669,57.757209 c -0.6875,-0.277412 -1.8125,-0.277412 -2.5,0 -0.6875,0.277413 -0.125,0.504386 1.25,0.504386 1.375,0 1.9375,-0.226973 1.25,-0.504386 z M 122.26705,51.41949 c -0.38241,-2.882701 -0.27054,-5 0.26418,-5 1.60244,0 2.27432,-3.299541 0.92817,-4.558131 -0.70771,-0.661677 -3.62137,-1.493586 -6.47481,-1.848687 l -5.18807,-0.645637 -0.31193,3.776227 -0.31193,3.776228 -6,0.451377 -5.999991,0.451377 6.499991,0.548623 c 5.96558,0.503516 6.48102,0.730185 6.26918,2.756908 -0.18789,1.797596 0.41859,2.330115 3.26105,2.863363 1.92052,0.360293 3.73845,1.054065 4.03983,1.541715 0.30139,0.48765 1.25439,0.886637 2.11779,0.886637 1.30554,0 1.45815,-0.841716 0.90654,-5 z m -33.212861,3 c 1.61064,0 2.4354,-0.973637 3.375,-3.984251 0.68392,-2.191338 1.23659,-5.228838 1.22817,-6.75 -0.0284,-5.137261 -0.9314,-5.560746 -10.84598,-5.086724 -4.997,0.23891 -9.30755,0.656485 -9.57901,0.927945 -0.27146,0.27146 -0.13878,1.820944 0.29485,3.443297 0.59379,2.221569 1.51135,3.074346 3.71694,3.454529 2.64933,0.456674 2.95835,0.920216 3.2415,4.862402 0.30755,4.281871 0.36621,4.346962 3.375,3.745204 1.68411,-0.336821 4.0212,-0.612402 5.19353,-0.612402 z"
     id="path4326" />
  <path
     style="fill:#b3b3b3;fill-opacity:1;stroke:#b3b3b3;stroke-width:0.12605932;stroke-miterlimit:4;stroke-opacity:1;stroke-dasharray:none"
     d=""
     id="path4366" />
</svg>
