<?xml version="1.0" encoding="UTF-8" standalone="no"?>
<!-- Created with Inkscape (http://www.inkscape.org/) -->

<svg
   xmlns:dc="http://purl.org/dc/elements/1.1/"
   xmlns:cc="http://creativecommons.org/ns#"
   xmlns:rdf="http://www.w3.org/1999/02/22-rdf-syntax-ns#"
   xmlns:svg="http://www.w3.org/2000/svg"
   xmlns="http://www.w3.org/2000/svg"
   xmlns:sodipodi="http://sodipodi.sourceforge.net/DTD/sodipodi-0.dtd"
   xmlns:inkscape="http://www.inkscape.org/namespaces/inkscape"
   id="svg2"
   version="1.1"
   inkscape:version="0.47 r22583"
   width="290"
   height="290"
   sodipodi:docname="back.svg">
  <metadata
     id="metadata8">
    <rdf:RDF>
      <cc:Work
         rdf:about="">
        <dc:format>image/svg+xml</dc:format>
        <dc:type
           rdf:resource="http://purl.org/dc/dcmitype/StillImage" />
      </cc:Work>
    </rdf:RDF>
  </metadata>
  <defs
     id="defs6">
    <inkscape:perspective
       sodipodi:type="inkscape:persp3d"
       inkscape:vp_x="0 : 0.5 : 1"
       inkscape:vp_y="0 : 1000 : 0"
       inkscape:vp_z="1 : 0.5 : 1"
       inkscape:persp3d-origin="0.5 : 0.33333333 : 1"
       id="perspective10" />
  </defs>
  <sodipodi:namedview
     pagecolor="#ffffff"
     bordercolor="#666666"
     borderopacity="1"
     objecttolerance="10"
     gridtolerance="10"
     guidetolerance="10"
     inkscape:pageopacity="0"
     inkscape:pageshadow="2"
     inkscape:window-width="1299"
     inkscape:window-height="776"
     id="namedview4"
     showgrid="false"
     inkscape:zoom="1.6164384"
     inkscape:cx="36.498378"
     inkscape:cy="159.5168"
     inkscape:window-x="103"
     inkscape:window-y="55"
     inkscape:window-maximized="0"
     inkscape:current-layer="svg2" />
  <path
     style="fill:#666666;fill-opacity:1;stroke:#666666;stroke-width:0.87489486000000005;stroke-miterlimit:4;stroke-opacity:1;stroke-dasharray:none"
     d="m 105.74629,11.180614 c -0.49683,0 -3.03206,1.588216 -3.6875,2.3125 -1.38913,1.535037 -1.74728,3.48795 -0.9375,5.15625 0.12235,0.252065 0.50961,0.762348 1,1.28125 1.02909,1.088921 1.37516,1.747402 1.5,2.84375 0.0451,0.395748 0.11012,0.79059 0.125,0.84375 0.0715,0.255351 0.336,-0.02847 0.84375,-0.875 0.93047,-1.551308 0.94612,-2.349224 0.125,-3.84375 -0.60956,-1.10948 -0.65295,-1.276166 -0.65625,-2.09375 -0.004,-0.906612 0.11749,-1.330648 0.90625,-3 0.78681,-1.66522 0.88606,-1.937225 0.9375,-2.3125 0.0438,-0.319487 0.0544,-0.3125 -0.15625,-0.3125 z m -48.812498,6 c -0.501444,0.05876 -1.151242,0.270448 -2.15625,0.625 -1.766826,0.623309 -2.813784,0.9501 -4.5625,1.40625 -1.67284,0.436358 -2.417533,0.765651 -2.96875,1.28125 -0.513708,0.480513 -0.687373,0.885722 -0.5625,1.40625 0.145941,0.608351 0.573857,0.9375 1.21875,0.9375 0.764368,0 2.265683,-0.522268 4.28125,-1.53125 3.073822,-1.538739 4.621621,-1.667189 5.84375,-0.4375 0.213443,0.214763 0.748071,0.913618 1.1875,1.5625 0.43943,0.648882 0.83608,1.24036 0.90625,1.28125 0.07017,0.04088 0.17817,0.0434 0.21875,0.03125 0.269516,-0.08073 0.25029,-2.04988 -0.03125,-2.9375 -0.42293,-1.333382 -1.299497,-2.755631 -2.03125,-3.28125 -0.269881,-0.193855 -0.545493,-0.317195 -0.875,-0.34375 -0.137294,-0.01107 -0.301602,-0.01959 -0.46875,0 z m 88.218748,4.59375 c -0.35035,0 -11.39737,16.584435 -12.53125,18.8125 -0.42855,0.842086 -1.50794,2.219339 -2.375,3.09375 -0.86707,0.874412 -2.54702,3.253275 -3.75,5.25 l -2.1875,3.625 -0.21875,21.03125 c -0.24178,23.243252 -0.0892,30.100446 0.75,30.937496 0.30183,0.30108 1.48326,0.66985 2.625,0.84375 2.87139,0.43735 13.09367,0.0282 17.84375,-0.71875 6.71301,-1.05556 28.9895,-7.617582 31.09375,-9.156246 0.74825,-0.547133 0.70577,-0.738322 -0.78125,-4 -2.50512,-5.494786 -4.48538,-12.402735 -7.8125,-27.21875 -1.70998,-7.614729 -3.51984,-15.025173 -4,-16.46875 -1.50941,-4.537966 -4.12154,-9.704933 -6.625,-13.03125 -2.42332,-3.219846 -11.47542,-13 -12.03125,-13 z m -65.249998,13.78125 c -4.79421,0.01761 -6.660373,0.754123 -9.6875,3.78125 -1.90809,1.908091 -4.653966,7.298118 -5.0625,9.9375 l -0.25,1.59375 3.125,-3 c 1.920075,-1.839341 3.406004,-2.93407 3.875,-2.84375 0.95911,0.184708 2.7405,3.28474 2.75,4.78125 0.004,0.620391 -0.619729,2.047249 -1.375,3.1875 l -1.375,2.0625 1.03125,2.21875 c 1.115577,2.381802 3.05713,4.3125 4.34375,4.3125 1.40621,0 3.503672,-2.217527 5.09375,-5.375 2.736595,-5.434152 4.665746,-6.396754 7.40625,-3.65625 1.245167,1.245167 1.5,1.810195 1.5,3.4375 0,1.657745 -0.703034,4.316373 -1.96875,7.4375 -0.770573,1.900154 2.227825,-0.106946 3.6875,-2.46875 4.7649,-7.70977 1.405986,-20.336559 -6.4375,-24.1875 -2.221305,-1.090601 -2.969283,-1.2323 -6.65625,-1.21875 z m -8.78125,13.78125 c -0.368328,0.08148 -1.430263,1.282858 -2.53125,2.84375 -0.357642,0.507034 -0.46993,0.702503 -0.4375,0.84375 0.02341,0.101935 0.08251,0.330076 0.125,0.5 l 0.09375,0.28125 0.15625,-0.3125 c 0.09125,-0.178731 0.534081,-0.772535 1,-1.3125 1.30278,-1.509824 1.912624,-2.498805 1.71875,-2.8125 -0.02177,-0.03522 -0.07238,-0.04289 -0.125,-0.03125 z m -3.34375,4.15625 -0.96875,1.96875 -1,2 1.40625,4.125 c 1.232509,3.589631 1.373084,4.453554 1.125,6.875 -0.646155,6.306844 -4.895955,26.422166 -6.4375,30.5 -0.951492,2.516976 -0.954042,2.820746 -0.375,4.343746 1.000721,2.63209 1.579777,1.34177 3.9375,-8.906246 3.004513,-13.059337 4.770941,-17.494272 9.28125,-23.0625 1.924834,-2.376315 4.205259,-4.09375 5.46875,-4.09375 0.221821,0 1.408984,-0.996342 2.625,-2.21875 2.3839,-2.396429 4.62648,-6.450854 4.40625,-7.9375 -0.109496,-0.739138 -0.580196,-0.303993 -2.40625,2.15625 -3.893205,5.245317 -6.537796,7.157067 -9.03125,6.53125 -2.439428,-0.612257 -6.78208,-6.605353 -7.65625,-10.59375 l -0.375,-1.6875 z m -17.59375,0.84375 c -0.215771,0.06229 -0.563323,0.308172 -1.125,0.78125 -0.78283,0.659345 -1.781426,1.186781 -2.6875,1.4375 -2.434511,0.673651 -5.22407,0.440598 -6.34375,-0.53125 -0.757499,-0.657486 -1.01728,-0.683975 -1.375,-0.25 -0.229965,0.278987 -0.47015,0.914723 -0.46875,1.21875 0.0023,0.501439 0.666364,1.344445 1.4375,1.875 0.966292,0.664826 3.021096,1.680328 3.78125,1.84375 0.964097,0.207267 2.099278,-0.148187 3.78125,-1.125 1.635089,-0.949586 2.590468,-1.852729 3.03125,-2.9375 0.344331,-0.847403 0.414444,-2.20143 0.125,-2.3125 -0.04569,-0.01754 -0.08433,-0.02076 -0.15625,0 z m 182.406248,38.84375 c -0.14605,0.01436 -0.30531,0.07313 -0.46875,0.125 -1.4694,0.466371 -2.1875,2.792605 -2.1875,7.218746 0,4.15391 -0.42362,5.61652 -2.125,7.15625 -1.24181,1.12382 -1.17647,2.31421 0.375,5.59375 0.7216,1.52532 1.31231,3.02718 1.3125,3.34375 1.9e-4,0.31656 0.21969,0.94088 0.46875,1.40625 0.3734,0.6977 0.91451,0.84575 3.15625,0.84375 3.51435,-0.003 10.4829,-1.05409 13,-1.96875 1.52954,-0.55584 3.18878,-0.6753 7.4375,-0.5625 l 5.46875,0.125 0,-1.96875 0,-1.96875 -4.59375,-0.21875 c -2.52719,-0.12965 -4.82519,-0.40846 -5.125,-0.59375 -0.88368,-0.54615 -0.62698,-2.34816 0.4375,-3.09375 0.5392,-0.37767 2.55478,-1.18793 4.5,-1.78125 3.96419,-1.20916 5.149,-2.15258 4.9375,-4 -0.18546,-1.61992 -1.27272,-1.511 -5.21875,0.5 -2.79374,1.42377 -4.01044,1.7796 -5.75,1.625 -1.21835,-0.10827 -0.9108,-1.00508 1.3125,-3.75 3.91387,-4.832111 4.9896,-6.514463 4.40625,-6.874996 -0.90726,-0.560713 -3.37801,0.800518 -6.125,3.34375 -4.09054,3.787116 -7.29629,5.078146 -9.5625,3.906246 -1.7209,-0.88991 -3.51472,-3.623649 -3.8125,-5.843746 -0.24333,-1.814181 -0.8214,-2.662989 -1.84375,-2.5625 z m -56.28125,7.312496 c -0.35372,0 -4.24608,1.09577 -8.625,2.40625 -14.74893,4.41391 -20.95505,5.60541 -33.28125,6.4375 -9.59035,0.6474 -9.94931,0.82772 -8.84375,4.15625 0.40137,1.20843 1.18434,2.7785 1.71875,3.5 1.31033,1.76907 4.99617,4.94799 6.625,5.6875 1.66132,0.75427 3.79879,0.5552 10.75,-1 4.79181,-1.07208 6.38939,-1.2382 12.90625,-1.25 6.22727,-0.0113 7.75785,0.10925 9.40625,0.78125 3.80675,1.55188 4.04177,1.50882 5.71875,-1.09375 2.7859,-4.32354 4.0158,-7.9891 4.5625,-13.78125 0.34242,-3.62784 -0.012,-5.84375 -0.9375,-5.84375 z m -107.468748,0.53125 c -0.08371,0.006 -0.144337,0.0478 -0.21875,0.0937 -0.217599,0.13449 -0.740059,1.4585 -1.15625,2.96875 -1.345215,4.88143 -2.460077,5.6415 -5.84375,3.90625 -1.820021,-0.93336 -3.079994,-2.21119 -4.375,-4.375 -0.990457,-1.65494 -1.109577,-1.47083 -1.625,2.3125 -0.218512,1.60392 -0.622005,2.42765 -1.625,3.34375 l -1.34375,1.21875 0.9375,1.5 c 1.215513,1.96674 1.187437,2.31424 -0.375,4.09375 -1.950894,2.22195 -1.644895,3.25252 1.125,3.84375 0.734442,0.15677 3.195741,1.05412 5.46875,2 2.273009,0.94589 4.321904,1.66435 4.5625,1.59375 0.240596,-0.0706 0.588894,-0.89964 0.78125,-1.84375 0.192357,-0.94411 0.542536,-2.60482 0.78125,-3.6875 0.238713,-1.08268 1.522617,-3.74307 2.84375,-5.9375 3.147164,-5.22752 3.419366,-6.20033 2.3125,-8.4375 -0.847383,-1.71272 -1.664013,-2.63666 -2.25,-2.59375 z m 171.374998,3.40625 c 1.49184,0 2.392,1.07675 1.59375,1.875 -0.53624,0.53624 -3.6819,0.91724 -4.09375,0.5 -0.92666,-0.93878 0.58475,-2.375 2.5,-2.375 z m 2.59375,5.375 c 0.49582,-0.053 1.02934,0.0439 1.53125,0.3125 1.23109,0.65887 1.1399,1.50046 -0.25,2.59375 -1.45438,1.14407 -2.61733,1.15501 -3.21875,0.0313 -0.74344,-1.38912 0.45005,-2.77837 1.9375,-2.9375 z m -166.781248,0.53125 c -1.897966,0.0798 -3.751961,2.04518 -5.40625,5.78125 -1.174734,2.65304 -1.252535,7.8581 -0.15625,9.53125 0.828211,1.26401 1.54636,1.36696 3.34375,0.4375 1.565516,-0.80956 1.581953,-1.17717 0.21875,-2.96875 -1.420301,-1.86662 -1.734178,-3.32249 -1.15625,-5.46875 0.569918,-2.11652 0.934825,-2.38404 3.53125,-2.6875 1.949118,-0.22781 1.963571,-0.25204 2.09375,-2.03125 0.119262,-1.63003 0.01351,-1.85921 -1.15625,-2.34375 -0.442487,-0.18328 -0.874508,-0.26842 -1.3125,-0.25 z m 145.343748,1.96875 c -0.5288,0 -0.15889,0.64788 1.28125,2.1875 2.3956,2.56109 2.55104,3.7133 0.71875,5.46875 -1.39817,1.33953 -1.63907,2.20375 -0.75,2.5625 1.95522,0.78895 2.5878,-0.0442 2.5625,-3.34375 -0.0336,-4.37701 -1.42067,-6.875 -3.8125,-6.875 z m -2.25,5.25 c -1.0443,0 -7.0173,2.04995 -12.1875,4.1875 -3.71231,1.53481 -11.79613,3.78638 -20.3125,5.65625 l -5,1.125 4.34375,-0.25 c 5.23197,-0.28284 13.51674,-1.90722 19.375,-3.78125 8.32534,-2.66323 16.8251,-6.9375 13.78125,-6.9375 z m -142.812498,2.21875 c -1.103808,0.0343 3.163595,3.4074 6.53125,5.15625 7.786752,4.04371 25.885638,10.83897 35.562498,13.375 4.37579,1.14677 7.19321,1.4174 7.625,0.71875 0.45282,-0.73268 -1.55333,-1.6591 -8.0625,-3.6875 -12.67734,-3.95054 -21.687629,-7.24616 -33.343748,-12.25 -4.253494,-1.82598 -7.994669,-3.3225 -8.3125,-3.3125 z m 81.468748,4.5 c -1.84053,-0.0172 -3.85145,0.0676 -6,0.25 -6.41737,0.54473 -9.65855,1.34662 -10.84375,2.65625 -0.43764,0.48359 -1.13706,0.875 -1.5625,0.875 -1.30827,0 -3.30209,2.04735 -4.34375,4.46875 -1.18502,2.75466 -1.12054,5.05662 0.625,19.09375 0.60953,4.90174 1.32278,11.69492 1.59375,15.09375 0.61438,7.70634 0.27523,22.33442 -0.65625,27.625 -0.87513,4.9705 -3.36957,10.16363 -8.46875,17.65625 -2.0454,3.00545 -4.40435,6.93167 -5.21875,8.71875 -1.52913,3.35544 -3.1875,8.77767 -3.1875,10.375 0,0.86904 0.12662,0.91942 3.15625,0.59375 4.30758,-0.46305 6.84818,-1.30489 10.3125,-3.375 5.39477,-3.22365 8.01866,-3.38218 18.34375,-1.15625 10.96086,2.36301 12.51523,2.14951 18.84375,-2.5625 5.09751,-3.79544 8.23486,-5.24845 11.9375,-5.46875 3.17002,-0.18861 4.75,0.38105 4.75,1.65625 0,1.47652 1.26403,2.008 4.5625,1.9375 5.00164,-0.10684 14.87704,-3.47204 16.15625,-5.5 0.38428,-0.60921 -0.0443,-1.26148 -2.5625,-3.75 -3.43657,-3.39609 -5.97221,-7.75409 -7.8125,-13.4375 -1.51767,-4.68702 -2.25253,-8.3335 -3.34375,-16.875 -1.07964,-8.45094 -1.07534,-8.49276 -2.40625,-12.4375 -0.56822,-1.68418 -1.71523,-5.27301 -2.5625,-7.96875 -2.12744,-6.76887 -4.5824,-13.25056 -5.53125,-14.59375 -0.43693,-0.61852 -1.03386,-2.0953 -1.3125,-3.28125 -0.86667,-3.68873 -4.96045,-11.64228 -7.34375,-14.25 -3.90465,-4.2723 -9.14937,-6.26945 -17.125,-6.34375 z m -101.468748,0.71875 c -0.56509,0 -1.777043,5.49855 -4.84375,21.875 -4.788593,25.57146 -7.500011,43.43077 -6.78125,44.59375 0.171495,0.27743 0.6349,0.4513 1.03125,0.375 0.881339,-0.16973 1.375318,-2.69198 4.40625,-22 1.996657,-12.71935 6.59005,-43.70529 6.59375,-44.5 8.33e-4,-0.18045 -0.185699,-0.34375 -0.40625,-0.34375 z m 73.406248,19.25 c -1.04281,0 -1.25875,2.96189 -1.21875,15.6875 0.0328,10.43296 -0.13601,14.37782 -0.6875,17.78125 -1.45852,9.00107 -6.26796,27.12064 -11.8125,44.40625 -3.07559,9.58846 -4.43203,15.43487 -4,17.15625 0.14707,0.58597 0.74377,1.28912 1.34375,1.5625 2.0981,0.95595 6.62319,1.96894 10.09375,2.28125 1.92477,0.17318 11.96687,0.2973 22.3125,0.25 15.94657,-0.0729 19.37902,-0.19655 22.53125,-0.84375 7.6873,-1.57831 13.03624,-3.43055 21.34375,-7.34375 l 5.40625,-2.5625 -0.3125,-2.28125 c -0.17047,-1.26788 -0.50688,-2.57426 -0.75,-2.875 -0.30852,-0.38166 -1.98577,-0.53125 -5.59375,-0.53125 l -5.1875,0 -2,-1.75 c -1.11195,-0.96238 -2.13661,-1.75 -2.25,-1.75 -0.99038,0 -3.88128,1.78455 -6.65625,4.09375 -6.66514,5.54642 -9.41695,6.05134 -20.1875,3.71875 -10.61718,-2.29937 -14.32573,-1.99685 -19.15625,1.5625 -1.97266,1.45355 -4.94332,2 -10.84375,2 l -5,0 0,-4.75 c 0,-2.88632 0.23375,-5.5593 0.625,-6.875 0.35284,-1.1865 2.74261,-5.60207 5.3125,-9.8125 7.05374,-11.55665 7.55135,-12.45027 8.6875,-15.46875 1.69564,-4.5049 2.4405,-9.78656 2.4375,-17.78125 -0.005,-14.63578 -2.64124,-35.875 -4.4375,-35.875 z m 38.5625,10.28125 0.78125,0.9375 c 0.44158,0.51908 1.16705,2.58657 1.59375,4.59375 1.03983,4.89133 3.16528,10.51875 7.09375,18.71875 7.53142,15.72055 10.58698,24.94882 9.34375,28.21875 -0.49933,1.31335 -1.95234,1.50033 -2.5625,0.34375 -0.22212,-0.42105 -0.65547,-1.93142 -0.9375,-3.375 -0.91957,-4.70679 -2.2165,-8.14765 -7.25,-19.25 -5.80309,-12.79984 -7.20081,-16.23285 -8.71875,-21.46875 -1.34918,-4.65377 -1.37546,-6.32214 -0.21875,-7.6875 l 0.875,-1.03125 z m -15.28125,8.53125 c 1.74385,0 1.90025,1.60043 1.90625,17.5 0.006,15.82141 -0.31039,20.13021 -2.03125,25.8125 -0.98129,3.24024 -4.51739,10.52299 -5.71875,11.8125 -0.89673,0.96253 -2.4826,1.15531 -2.5625,0.3125 -0.10416,-1.09887 0.17887,-1.9275 2.03125,-6.21875 3.83858,-8.89254 4.18046,-11.30048 4.53125,-31.5 0.15877,-9.14265 0.43414,-16.85551 0.625,-17.15625 0.19085,-0.30075 0.74581,-0.5625 1.21875,-0.5625 z m 45.53125,72.59375 c -1.26101,-0.0343 -2.68113,0.5255 -6.125,2.25 -1.98492,0.99394 -4.34776,2.10956 -5.25,2.5 -4.14627,1.79428 -12.09838,4.50148 -15.0625,5.125 -2.32149,0.48834 -9.65137,1.14032 -16.0625,1.4375 -7.34551,0.3405 -26.84717,0.16059 -32.53125,-0.3125 -4.70407,-0.39152 -3.71861,-0.24034 -10.40625,-1.5625 -5.89643,-1.16574 -5.793,-1.17485 -6.21875,0.40625 -0.26899,0.99897 0.0233,3.30113 0.5625,4.34375 0.63318,1.22444 2.60879,2.2483 5.5625,2.9375 3.47925,0.81182 11.2559,1.69105 16.84375,1.90625 5.09488,0.1962 18.89784,-0.0826 24.28125,-0.5 17.04077,-1.32123 33.07651,-4.4425 41.78125,-8.15625 4.32301,-1.84434 5.90748,-3.14851 6.34375,-5.25 0.56084,-2.70153 -0.70413,-4.69009 -3.1875,-5.0625 -0.17844,-0.0268 -0.35111,-0.0576 -0.53125,-0.0625 z m 8.34375,7.53125 c -0.54803,0.0264 -2.05334,0.99506 -3.625,2.375 -4.39214,3.85635 -8.49664,5.56788 -21.34375,8.84375 -10.81851,2.7586 -10.96565,2.78543 -38.46875,3.1875 -25.76149,0.37661 -30.05503,0.12952 -35.1875,-1.96875 -1.11109,-0.45424 -1.53125,-0.19764 -1.53125,0.90625 0,1.25742 -0.56919,1.41682 -3.28125,1.03125 -1.80447,-0.25654 -3.880963,-0.69813 -4.624998,-1 -1.092215,-0.44313 -1.713196,1.00821 -3.28125,7.5625 -1.068183,4.46488 -1.9452,8.55813 -1.9375,9.09375 0.01276,0.88239 3.777281,2.29384 12.249998,4.59375 4.16083,1.12945 58.88015,1.2067 68.6875,0.0937 9.81916,-1.1143 26.4457,-5.45605 32.8125,-8.5625 3.52025,-1.71758 4.88072,-2.9012 5.09375,-4.40625 0.2564,-1.81138 -2.08715,-13.48442 -3.0625,-15.21875 -0.20218,-0.35952 -1.82543,0.32964 -3.59375,1.53125 -3.6063,2.45054 -7.1875,2.88206 -7.1875,0.875 0,-0.71575 1.46972,-2.23143 3.28125,-3.375 3.73666,-2.35885 5.97479,-4.71271 5.1875,-5.5 -0.0366,-0.0366 -0.10921,-0.0663 -0.1875,-0.0625 z m -104.71875,7.75 c -0.77417,8.3e-4 -1.81465,0.17402 -2.531248,0.46875 l -0.71875,0.3125 2.937498,1.4375 c 1.62403,0.79771 3.24251,1.68292 3.59375,1.96875 l 0.65625,0.53125 0.6875,-0.46875 0.6875,-0.46875 -0.5625,-0.40625 c -0.30893,-0.23444 -1.25072,-1.05673 -2.0625,-1.8125 -0.81177,-0.75577 -1.72173,-1.4223 -2.03125,-1.5 -0.17542,-0.044 -0.39819,-0.0628 -0.65625,-0.0625 z"
     id="path2820" />
  <path
     style="fill:#000000"
     d="m 109.41168,282.49577 c -8.21407,-1.41546 -20.808257,-5.26191 -20.841274,-6.36523 -0.011,-0.36766 1.42334,-6.58501 3.187428,-13.81634 l 3.207433,-13.14786 3.85773,-1.15581 c 2.472263,-0.74071 4.173143,-1.98539 4.735963,-3.46575 0.48304,-1.27047 1.56289,-2.57266 2.39968,-2.89377 0.83678,-0.3211 1.81116,-2.29498 2.16527,-4.38638 0.35411,-2.09141 2.14267,-8.52756 3.97458,-14.30256 11.83126,-37.29748 13.42765,-46.51797 12.65517,-73.09405 l -0.19167,-6.59405 -5.73579,-1.26275 c -6.34757,-1.39743 -16.95138,-5.16676 -30.940641,-10.99845 -8.014975,-3.34119 -9.436904,-3.66122 -11,-2.47576 -2.335697,1.77141 -7.970984,1.80884 -8.995459,0.0597 -0.439829,-0.75092 -2.256575,-1.57216 -4.037212,-1.82497 -2.961036,-0.42041 -3.285558,-0.19706 -3.800014,2.61531 -0.309371,1.69124 -2.722084,17.14458 -5.361585,34.34075 -2.639501,17.19618 -5.071012,31.5377 -5.403357,31.87004 -0.715233,0.71523 -6.648208,-0.31634 -8.468309,-1.47239 -0.99724,-0.6334 0.04641,-8.29991 4.84839,-35.61546 3.660184,-20.82058 5.737947,-35.05739 5.170491,-35.42813 -2.226104,-1.45443 -3.334212,-5.0904 -2.198247,-7.21297 0.616119,-1.15123 0.85227,-3.16072 0.524782,-4.46554 -0.40135,-1.5991 0.435617,-4.33935 2.567747,-8.40686 2.49876,-4.766887 3.656211,-6.034416 5.510403,-6.034416 1.290971,0 2.347154,-0.3375 2.347073,-0.75 -8.2e-5,-0.4125 1.369945,-7.371119 3.044504,-15.463597 2.863488,-13.838096 2.950356,-14.89595 1.459891,-17.778191 -0.87162,-1.685526 -1.851441,-5.920391 -2.177382,-9.410811 -0.505804,-5.416542 -0.244237,-7.043785 1.785527,-11.107994 3.084432,-6.175976 7.379283,-9.371496 14.002727,-10.418522 6.835865,-1.080605 11.967039,1.250535 16.860178,7.659735 3.01138,3.944401 3.52589,5.44735 3.85426,11.258764 0.59883,10.597772 -3.31513,16.024829 -13.462529,18.667025 -3.226865,0.840216 -6.462418,2.018645 -7.190116,2.618731 -2.23259,1.841072 -4.980822,8.081325 -7.067329,16.047379 l -1.989889,7.597175 3.440153,3.440153 c 1.892084,1.892079 3.449892,4.272649 3.461795,5.290149 0.01283,1.0963 1.3369,2.46111 3.25,3.35 2.925046,1.35907 3.211949,1.88541 3.053706,5.60214 -0.172836,4.05952 -0.115682,4.12956 5.5,6.73947 10.494489,4.87735 36.603832,13.75472 39.568332,13.45351 1.64822,-0.16746 3.3808,-1.16022 4.00547,-2.29512 0.60547,-1.1 1.55085,-2.3456 2.10085,-2.768 0.9804,-0.75295 -0.77548,-2.66955 -6.72615,-7.3418 -6.10975,-4.79714 -7.58904,-17.4348 -5.9728,-51.025899 l 0.96883,-20.135703 4.36506,-6.364297 c 2.40078,-3.500363 4.70256,-6.514297 5.11506,-6.69763 0.4125,-0.183334 0.75,-0.764826 0.75,-1.292207 0,-0.52738 0.44322,-1.50238 0.98493,-2.166666 3.73035,-4.574459 5.88703,-7.81577 7.9564,-11.957794 1.30521,-2.6125 2.92747,-4.75 3.60502,-4.75 1.11631,0 5.81938,4.596213 15.73477,15.377271 1.96127,2.132499 3.8464,4.994657 4.18916,6.360352 0.34277,1.365694 1.47887,4.345922 2.52467,6.622729 1.5993,3.481823 4.44706,15.21061 7.98638,32.892636 0.41317,2.064144 2.23878,7.164761 4.0569,11.334705 2.43602,5.587079 2.98717,7.778573 2.09498,8.32998 -0.89265,0.551686 -0.93783,1.466028 -0.17196,3.480393 0.57131,1.50267 1.03875,3.81211 1.03875,5.13208 0,4.04993 -3.05626,11.82139 -5.79143,14.72644 -1.61389,1.71414 -2.23862,3.10553 -1.65198,3.67928 1.25904,1.23139 26.57229,-3.94616 32.44341,-6.63594 2.475,-1.1339 5.40031,-2.33496 6.50069,-2.66904 1.10038,-0.33407 2.58444,-1.92619 3.29791,-3.53803 0.71347,-1.61183 2.51316,-3.39625 3.99931,-3.96536 4.88888,-1.87217 6.26411,-3.56742 5.59757,-6.90011 -0.95458,-4.772886 1.18075,-9.809213 4.79342,-11.305631 2.89536,-1.199298 3.25884,-1.102546 5.45655,1.452442 1.295,1.505532 2.35455,3.612237 2.35455,4.681567 0,3.158858 3.30624,2.307047 8.37991,-2.158976 3.67764,-3.237184 5.18157,-3.972682 7.12556,-3.48477 2.46674,0.61911 4.2998,4.476005 3.07172,6.463088 -0.33611,0.543828 0.63403,1.131903 2.15586,1.306836 2.22115,0.255319 2.83246,0.892539 3.09904,3.230414 0.18265,1.60179 -0.22855,3.95992 -0.91378,5.24028 -1.0434,1.94962 -0.97549,2.6267 0.41791,4.16639 4.32269,4.77651 0.53299,9.38844 -7.47664,9.0988 -2.94777,-0.1066 -7.80376,0.54328 -10.79108,1.44418 -2.98733,0.90089 -7.53008,1.63799 -10.09501,1.63799 -3.39352,0 -5.15642,0.54465 -6.47349,2 -2.19951,2.43043 -4.24643,2.53945 -6.66052,0.35473 -1.69267,-1.53184 -2.21514,-1.49289 -7.57874,0.56508 -7.41504,2.84509 -16.12049,5.04264 -24.09033,6.08121 -7.24524,0.94415 -8.0214,1.40667 -6.48609,3.8651 0.60973,0.97634 2.34077,4.89337 3.84674,8.70452 1.50597,3.81115 3.0453,7.37936 3.42073,7.92936 0.37542,0.55 1.50289,3.7 2.50548,7 1.00259,3.3 2.18157,6.9 2.61996,8 1.39095,3.49017 1.80642,5.7147 3.43321,18.38251 1.82793,14.23403 4.13015,19.81868 11.07347,26.86163 2.42885,2.4637 4.41609,4.87038 4.41609,5.34816 0,0.9039 -12.13181,6.9077 -13.9583,6.9077 -0.57293,0 -1.0417,1.09854 -1.0417,2.44119 0,2.52294 7.95057,11.66066 11.15798,12.82404 1.17535,0.42632 2.45391,4.04115 4.39227,12.41807 1.50386,6.49919 3.18584,12.10878 3.73774,12.46578 2.14356,1.38655 -0.44289,3.71592 -8.44979,7.60989 -8.40213,4.08619 -19.65898,7.02467 -35.3382,9.22465 -12.55062,1.761 -55.5304,2.12653 -64.67873,0.55008 z m 74.17873,-5.38472 c 13.3376,-2.43353 30.01348,-8.58396 29.97555,-11.05564 -0.0255,-1.66166 -1.36557,-7.94924 -3.04844,-14.30319 l -0.98257,-3.70984 -4.37137,3.08122 c -4.00137,2.82043 -6.57317,3.13335 -6.57317,0.79978 0,-0.50637 1.6875,-1.79238 3.75,-2.85782 4.49057,-2.31973 6.9182,-5.6331 4.73973,-6.46906 -0.79122,-0.30362 -2.26816,0.53973 -3.34686,1.91107 -1.06189,1.34998 -2.37335,2.4545 -2.91435,2.4545 -0.54099,0 -1.47433,0.59126 -2.07408,1.31391 -1.22621,1.47749 -11.65863,4.69938 -23.65444,7.30529 -5.9856,1.30029 -14.25104,1.8416 -32.82547,2.14976 -27.04773,0.44875 -32.7491,-0.3504 -37.1347,-5.20507 -1.53848,-1.70302 -2.65428,-2.09005 -4.53983,-1.57466 -2.452663,0.6704 -2.431313,0.71291 1.12793,2.24502 1.99535,0.85893 3.93637,2.06078 4.31338,2.67078 1.19734,1.93734 -2.14145,2.30139 -5.44398,0.59359 -1.750753,-0.90535 -3.298853,-1.50041 -3.440223,-1.32236 -0.37294,0.46972 -4.557107,17.58602 -4.557107,18.64188 0,0.91396 12.13301,4.74916 17.5,5.53168 1.65,0.24058 16.275,0.31591 32.5,0.16741 24.82643,-0.22723 31.3219,-0.60242 41,-2.36825 z M 158.7263,253.9518 c 22.24637,-2.10962 41.9841,-7.6417 43.42136,-12.17011 1.73882,-5.47855 -2.77443,-8.06906 -8.33855,-4.78615 -4.73556,2.79405 -11.97182,5.68732 -20.19554,8.07479 -8.7401,2.53737 -47.88639,2.84232 -58.0283,0.45204 -3.57217,-0.84191 -7.05736,-1.53739 -7.74486,-1.54552 -1.785,-0.0211 -1.56194,5.48144 0.28431,7.0137 4.43915,3.68416 28.27121,5.07883 50.60158,2.96125 z m 13.07538,-11.94412 c 4.5588,-1.07492 9.97303,-2.82478 12.03162,-3.88858 2.05858,-1.0638 5.58903,-2.67286 7.84544,-3.57569 2.97453,-1.19018 3.93883,-2.06817 3.50711,-3.19322 -0.32749,-0.85343 -0.59544,-2.33111 -0.59544,-3.28372 0,-1.49407 -0.80587,-1.67373 -5.8659,-1.30772 -5.17714,0.37448 -6.04735,0.16526 -7.41112,-1.78179 -1.98904,-2.83976 -4.45439,-2.10601 -9.93868,2.95801 -5.44534,5.02804 -9.64422,5.58891 -20.96701,2.80068 -7.72416,-1.90207 -9.13172,-1.98993 -12.75,-0.79579 -2.23701,0.73828 -4.06729,1.61045 -4.06729,1.93816 0,1.51465 -6.38416,3.16357 -11.18389,2.8886 l -5.31611,-0.30455 0.0159,-5.55247 c 0.0138,-4.81923 0.60807,-6.50957 4.5,-12.80018 2.46624,-3.98624 5.78426,-9.36262 7.37336,-11.94753 3.9925,-6.49437 5.60335,-13.22061 5.55604,-23.19982 -0.0509,-10.74397 -1.72573,-28.1881 -3.24453,-33.79394 -1.01463,-3.74494 -1.32056,-4.07896 -2.39286,-2.6125 -0.89978,1.23052 -1.06694,5.0797 -0.62334,14.35363 0.4722,9.87197 0.2238,14.64779 -1.12412,21.61251 -1.82669,9.43859 -7.56198,30.5236 -10.59206,38.9403 -2.77327,7.70335 -4.96841,16.03843 -4.96841,18.86536 0,2.58716 0.58918,2.8937 9.5,4.94274 1.1,0.25294 11.09507,0.5121 22.21127,0.5759 16.8455,0.0967 21.5916,-0.20946 28.5,-1.83839 z m -39.26254,-13.0091 c 5.13732,-3.6581 9.32607,-4.13453 17.41894,-1.98127 10.79755,2.87289 14.87169,2.59849 19.37945,-1.30524 5.36397,-4.6452 10.39824,-6.95188 14.34938,-6.57481 2.51923,0.24042 3.36741,0.77948 3.26461,2.07481 -0.25305,3.18851 9.15498,2.21862 18.38889,-1.89573 3.84402,-1.71278 4.01728,-2.58898 0.99495,-5.03169 -6.25042,-5.05173 -10.38293,-15.4083 -11.84955,-29.69642 -0.62813,-6.11939 -1.4555,-11.57616 -1.8386,-12.12616 -0.3831,-0.55 -1.27325,-3.025 -1.97811,-5.5 -2.40388,-8.44087 -6.28322,-19.00838 -7.18188,-19.56377 -0.49325,-0.30485 -0.89681,-1.2274 -0.89681,-2.05011 0,-2.17746 -3.8454,-10.38722 -6.55832,-14.00173 -3.64421,-4.85531 -10.1003,-7.3923 -18.68078,-7.34084 -8.61468,0.0517 -16.05452,1.33732 -16.5628,2.86214 -0.20062,0.60187 -1.17599,1.09431 -2.16749,1.09431 -1.08599,0 -2.48033,1.42794 -3.50701,3.59151 -1.82712,3.85038 -1.84441,3.4033 0.98264,25.40849 2.27883,17.73785 1.70159,36.85258 -1.30538,43.22694 -2.14677,4.55085 -6.00869,10.89436 -8.24522,13.54341 -2.30393,2.7289 -6.04041,10.97714 -6.6364,14.64981 l -0.62702,3.86387 5.02613,-0.48295 c 2.98776,-0.28708 6.32563,-1.40827 8.23038,-2.76457 z m 12.05127,-11.07635 c 0,-0.57191 0.90425,-2.81231 2.00945,-4.97868 3.88953,-7.62411 5.15862,-16.30482 4.88289,-33.39937 -0.17504,-10.85149 0.0918,-16.07681 0.83347,-16.32405 0.6,-0.2 1.31579,2.3e-4 1.59065,0.44496 1.1939,1.93178 1.67336,18.73454 0.83598,29.29698 -0.76361,9.63171 -1.44041,12.67784 -4.16597,18.75 -1.78983,3.9875 -3.869,7.25 -4.62036,7.25 -0.75136,0 -1.36611,-0.46793 -1.36611,-1.03984 z m 39.65471,-11.71016 c -0.26404,-0.9625 -0.7791,-3.55 -1.14459,-5.75 -0.36548,-2.2 -3.52845,-9.85 -7.02881,-17 -6.56767,-13.41541 -10.21592,-24.14325 -9.15271,-26.91392 1.05309,-2.74432 2.55645,-1.73097 3.21029,2.16392 1.11193,6.62362 2.59105,10.48629 9.12326,23.82507 7.22215,14.74764 9.88727,25.42493 6.34622,25.42493 -0.48048,0 -1.08963,-0.7875 -1.35366,-1.75 z m -132.16701,-47.25 c 5.536091,-36.88327 5.230021,-34.23958 4.0123,-34.65633 -0.58195,-0.19916 -3.458887,13.70792 -6.881805,33.26657 -4.876632,27.86522 -5.645661,33.75666 -4.5,34.47396 0.935606,0.58579 1.609412,0.30824 2.086666,-0.85952 0.387674,-0.94857 2.764951,-15.44968 5.282839,-32.22468 z m 74.50711,-20.25 c -0.003,-0.68885 -2.80862,-1.99046 -6.25,-2.89942 -8.30082,-2.19247 -26.656473,-8.84233 -34.74481,-12.58731 -7.777713,-3.60115 -10,-4.40099 -10,-3.59918 0,1.27626 4.6998,4.68821 9,6.5338 2.475,1.06224 5.4,2.3321 6.5,2.8219 11.38849,5.07105 28.32949,10.52712 33.75,10.86963 0.9625,0.0608 1.74767,-0.45192 1.74481,-1.13942 z m 70.66582,-11.71519 c 9.08454,-1.91779 21.4268,-6.74922 22.76254,-8.9105 0.38218,-0.61837 0.52498,-1.12431 0.31735,-1.12431 -1.44786,0 -11.47832,3.42968 -13.163,4.50078 -2.1056,1.33871 -14.93752,4.73794 -24.07752,6.37822 l -5,0.89732 5,0.0962 c 2.75,0.0529 9.12228,-0.77406 14.16063,-1.83768 z M 74.550647,126.00781 c 1.259705,-0.7968 1.225373,-1.18316 -0.25,-2.81343 -3.086307,-3.41033 -1.074651,-9.3536 2.678492,-7.91338 0.807655,0.30992 1.601103,-0.17821 1.849979,-1.13813 0.70662,-2.72543 -0.247363,-4.1808 -2.740482,-4.1808 -3.115116,0 -6.770953,5.91953 -6.770953,10.96353 0,5.71102 1.671847,7.33471 5.232964,5.08221 z m -8.960237,-5.44525 c 0,-2.23683 1.213926,-5.2034 3.549332,-8.6738 3.168731,-4.70871 3.426992,-5.56964 2.408443,-8.02863 -1.821128,-4.396587 -3.636823,-4.30664 -4.360021,0.21599 -0.348495,2.17937 -1.30403,4.21974 -2.123411,4.53417 -2.047593,0.78573 -6.311759,-2.19151 -7.76988,-5.42493 -1.187106,-2.63244 -1.211668,-2.60646 -1.704463,1.80289 -0.318376,2.84871 -0.95406,4.38301 -1.75,4.22382 -0.6875,-0.1375 -1.25,0.335 -1.25,1.05 0,0.715 0.5625,1.87029 1.25,2.56732 1.001506,1.01538 0.902108,1.52435 -0.5,2.56024 -0.9625,0.71111 -1.75,2.03082 -1.75,2.93268 0,0.90187 0.7875,1.65156 1.75,1.66598 0.9625,0.0144 3.55,0.878 5.75,1.91906 5.73483,2.71376 6.5,2.55545 6.5,-1.34479 z m 81,0.89838 c 8.20008,-1.84397 18.37726,-1.51612 21.9894,0.70838 1.85255,1.14087 2.32556,0.99903 4.02599,-1.20725 1.05975,-1.375 2.61482,-4.49266 3.45571,-6.92814 1.65615,-4.79669 2.07975,-14.071856 0.64267,-14.071856 -0.48743,0 -4.19993,1.107756 -8.25,2.461686 -12.35001,4.12857 -24.2848,6.48275 -34.30756,6.76729 -10.42912,0.29607 -10.57177,0.40469 -8.1485,6.20437 1.66983,3.99648 8.23363,8.85152 11.09229,8.20464 1.1,-0.24891 5.375,-1.21152 9.5,-2.13912 z m 79,-2.06461 c 0,-4.65647 -1.55812,-7.43426 -4.17004,-7.43426 -1.96076,0 -1.92535,0.13713 0.53518,2.07258 2.98223,2.34582 3.32064,4.11338 1.13486,5.92742 -2.08414,1.72968 -1.87242,3 0.5,3 1.62607,0 2,-0.66667 2,-3.56574 z m 20.80571,-2.32203 c 1.54071,-0.83008 4.11202,-1.01654 7.75,-0.562 5.37794,0.67193 5.44429,0.64835 5.44429,-1.93501 0,-2.50747 -0.22963,-2.61522 -5.57332,-2.61522 -4.76782,0 -5.52531,-0.25293 -5.24111,-1.75 0.20745,-1.09281 1.83101,-2.12553 4.32332,-2.75 5.24163,-1.31333 6.49111,-2.20387 6.49111,-4.6264 0,-1.61506 -0.44064,-1.87687 -2.25,-1.33686 -1.2375,0.36933 -3.24667,1.29965 -4.46482,2.06739 -2.38978,1.50614 -5.28814,1.86065 -5.2804,0.64587 0.003,-0.4125 1.57763,-2.46254 3.5,-4.555647 1.92237,-2.093108 3.49522,-4.230608 3.49522,-4.75 0,-1.916425 -3.91648,-0.865987 -5.82701,1.562862 -2.03768,2.590484 -6.73014,5.475815 -8.92299,5.486625 -2.12032,0.0104 -5.25,-3.860722 -5.25,-6.493836 0,-1.825319 -0.5346,-2.5 -1.98095,-2.5 -2.33318,0 -3.43439,3.316616 -2.82743,8.515626 0.31005,2.65582 -0.11783,4.00587 -1.75793,5.54667 -2.15186,2.02156 -2.15406,2.0633 -0.30071,5.69853 1.02686,2.01413 1.86702,4.36641 1.86702,5.22729 0,1.33151 1.08261,1.47572 7.25,0.96578 3.9875,-0.3297 8.28757,-1.15846 9.55571,-1.84167 z m -5.30404,-4.10953 c -0.82702,-1.33814 0.28077,-3.0027 1.99833,-3.0027 2.31237,0 2.67811,1.83431 0.5887,2.95253 -1.30551,0.69869 -2.17579,0.71557 -2.58703,0.0502 z m -3.27972,-7.16855 c 0.51655,-1.54965 3.659,-1.81033 4.02805,-0.33415 0.1375,0.55 -0.81262,1.15037 -2.11138,1.33415 -1.61892,0.22908 -2.22156,-0.0853 -1.91667,-1 z m -89.22327,-1.40016 c 6.46537,-1.3488 27.87081,-7.970144 28.81356,-8.912892 0.17948,-0.179485 -0.11629,-1.157657 -0.65728,-2.173715 -2.38322,-4.476079 -5.05783,-12.451673 -6.65579,-19.847379 -3.69454,-17.099118 -5.58818,-25.079029 -6.40711,-27 -0.46895,-1.1 -1.66648,-3.949391 -2.66119,-6.331981 -0.9947,-2.382589 -4.98608,-7.666205 -8.86971,-11.741368 l -7.06116,-7.409389 -6.75,10.008693 c -3.7125,5.504781 -6.75,10.450897 -6.75,10.991369 0,0.540472 -0.43103,0.982676 -0.95785,0.982676 -0.52681,0 -2.21431,2.1375 -3.75,4.75 l -2.79215,4.75 -0.3349,26.160326 c -0.3161,24.69228 -0.23193,26.1869 1.5,26.63399 4.10136,1.05876 16.28856,0.6094 23.33358,-0.86033 z M 64.600099,99.212074 c 2.073064,-10.351951 4.111264,-17.566764 6.01913,-21.30649 2.356995,-4.620092 6.782342,-9.933005 8.310075,-9.976779 3.061633,-0.08773 8.661106,-7.124975 8.661106,-10.885018 0,-2.165771 -0.351405,-1.920527 -2.826373,1.972506 -1.554506,2.44518 -4.038729,5.089258 -5.520496,5.87573 -2.432198,1.290928 -2.952348,1.237155 -5.35019,-0.553093 -1.460838,-1.090672 -3.439187,-3.82697 -4.396332,-6.080662 -1.689872,-3.97897 -1.681848,-4.160324 0.277115,-6.263023 1.109558,-1.190971 1.78084,-2.401941 1.491737,-2.691043 -0.289102,-0.289103 -1.768894,1.353041 -3.288425,3.649207 -2.540857,3.839495 -2.65818,4.429238 -1.460562,7.341757 0.716222,1.741799 1.514262,4.31871 1.773422,5.726467 0.522907,2.840424 -5.420006,31.742584 -6.91762,33.642453 -1.05023,1.332314 -0.141362,5.297984 1.214214,5.297984 0.473943,0 1.379883,-2.5875 2.013199,-5.749996 z M 94.289917,59.13883 c 3.26366,-7.811044 -0.40402,-19.234821 -7.21882,-22.484575 -8.208052,-3.914147 -16.876056,-0.849735 -20.33412,7.188751 -3.259715,7.577414 -2.787652,9.171853 1.342873,4.535678 3.373836,-3.786853 3.539486,-3.8523 5,-1.97548 1.95308,2.509786 1.910808,4.45912 -0.145984,6.731849 -1.544912,1.707108 -1.529587,2.066207 0.227404,5.328741 2.876417,5.341184 6.854747,4.202096 9.780579,-2.800407 1.96124,-4.693907 4.174314,-5.620004 6.904865,-2.889454 2.110322,2.110322 1.952677,3.966979 -0.936982,11.035247 -0.445864,1.090608 -0.131764,1.122884 1.649634,0.169508 1.210198,-0.647678 2.888946,-2.825614 3.730551,-4.839858 z M 40.59041,63.255846 c -2.518489,-0.920648 -6.001867,-4.549876 -5.968197,-6.218086 0.01749,-0.866627 0.699741,-2.459107 1.516108,-3.538844 1.292687,-1.709724 1.878919,-1.814207 4.541081,-0.809353 3.509233,1.324588 5.27881,0.865288 9.237733,-2.397683 3.540869,-2.918408 6.673275,-3.073217 6.673275,-0.329806 0,1.1 -0.432655,2 -0.961456,2 -0.528801,0 -1.437753,1.768831 -2.019893,3.930735 -1.546843,5.744536 -7.788801,9.274838 -13.018651,7.363037 z m 6.315741,-3.443476 c 2.533283,-1.333416 3.64739,-2.777398 3.668946,-4.755284 0.01214,-1.113601 -0.363957,-1.061753 -1.813428,0.25 -2.059635,1.863945 -7.219185,2.207062 -8.838476,0.587771 -0.75629,-0.75629 -1.240989,-0.614377 -1.663666,0.4871 -0.393885,1.02645 0.325152,2.054523 2.117218,3.02718 3.339757,1.812678 3.797925,1.840973 6.529406,0.403233 z m 56.597609,-1.132099 c -2.17908,-1.673039 -4.135413,-5.549876 -3.40057,-6.738864 0.33289,-0.538633 1.4236,-0.979333 2.42379,-0.979333 1.0002,0 2.39913,-0.699568 3.10874,-1.554596 2.44579,-2.946987 4.94095,-3.693737 8.04542,-2.407823 2.9282,1.212902 3.38905,2.570243 2.27899,6.712419 -0.39658,1.479806 -1.36577,2.25 -2.83136,2.25 -1.22561,0 -3.04287,0.9 -4.03836,2 -2.06792,2.28503 -3.33393,2.447783 -5.58665,0.718197 z m 5.52949,-4.816973 c 3.83387,-2.262037 4.6199,-3.934824 1.80716,-3.845895 -0.9625,0.03043 -2.79672,1.380431 -4.07606,3 -2.76547,3.500955 -2.43801,3.623041 2.2689,0.845895 z M 59.242036,35.20741 c -0.29241,-0.47313 -0.842962,-3.206984 -1.223449,-6.075231 -0.380486,-2.868247 -1.035644,-5.427507 -1.455907,-5.687243 -0.420263,-0.259737 -2.048449,0.197591 -3.618192,1.016284 -5.713985,2.980105 -10.189849,0.966969 -8.938158,-4.020169 0.630834,-2.51344 1.633445,-3.133315 8.655078,-5.351084 7.000758,-2.211176 9.173927,-1.247483 10.920579,4.842738 0.591414,2.06214 0.525816,4.098886 -0.188313,5.846918 -0.602729,1.475348 -1.142534,4.218869 -1.199567,6.096714 -0.09855,3.244749 -1.811113,5.177182 -2.952071,3.331073 z M 60.59041,22.153204 c 0,-0.994879 -0.614659,-2.649467 -1.365909,-3.676863 -1.156847,-1.582082 -1.807341,-1.700306 -4.25,-0.772413 -1.58625,0.602568 -4.121591,1.36573 -5.634091,1.695915 -1.5125,0.330184 -2.75,1.266762 -2.75,2.081283 0,1.879792 1.727192,1.871674 5.364307,-0.02521 3.829095,-1.997014 5.375695,-1.883028 6.867766,0.506158 1.53672,2.460681 1.767927,2.485676 1.767927,0.19113 z m 35.666667,10.142203 c -1.55202,-1.552014 -0.53483,-5.065932 1.83333,-6.333333 3.021793,-1.617209 3.156233,-3.096143 0.5,-5.5 -2.32729,-2.106174 -2.49854,-4.258166 -0.54408,-6.837347 1.90472,-2.51355 7.645963,-6.6626522 9.219313,-6.6626522 1.81974,0 2.7988,4.7239012 1.3427,6.4783992 -0.77719,0.936453 -0.9664,2.867086 -0.53263,5.434573 0.80792,4.782049 0.28919,5.80144 -5.32991,10.47415 -4.455953,3.705462 -5.331793,4.103139 -6.488723,2.94621 z m 8.428743,-13.552165 c -0.93396,-1.495509 -0.87403,-2.518572 0.28347,-4.838823 1.69028,-3.388253 1.4673,-3.542885 -1.91406,-1.327335 -2.78035,1.821758 -3.258473,5.481424 -0.96482,7.38499 0.825,0.684689 1.51369,1.977289 1.53041,2.872445 0.0251,1.341382 0.22549,1.291513 1.13989,-0.283623 0.82181,-1.415631 0.80239,-2.402912 -0.0749,-3.807654 z"
     id="path2818" />
  <path
     style="fill:#cccccc;fill-opacity:1;stroke:#cccccc;stroke-width:0.30932203;stroke-miterlimit:4;stroke-opacity:1;stroke-dasharray:none"
     d="m 110.93379,50.305614 c -0.62713,0.07816 -1.43105,0.411003 -2.125,0.96875 -1.12236,0.902073 -3.4345,3.721928 -3.4375,4.1875 -0.002,0.339618 3.4169,-1.550754 5.1875,-2.875 0.87519,-0.65456 1.4375,-1.356901 1.4375,-1.71875 0,-0.47126 -0.43536,-0.640659 -1.0625,-0.5625 z"
     id="path2879" />
</svg>
