<?xml version="1.0" encoding="UTF-8" standalone="no"?>
<!-- Created with Inkscape (http://www.inkscape.org/) -->

<svg
   xmlns:dc="http://purl.org/dc/elements/1.1/"
   xmlns:cc="http://creativecommons.org/ns#"
   xmlns:rdf="http://www.w3.org/1999/02/22-rdf-syntax-ns#"
   xmlns:svg="http://www.w3.org/2000/svg"
   xmlns="http://www.w3.org/2000/svg"
   xmlns:sodipodi="http://sodipodi.sourceforge.net/DTD/sodipodi-0.dtd"
   xmlns:inkscape="http://www.inkscape.org/namespaces/inkscape"
   id="svg2966"
   version="1.1"
   inkscape:version="0.47 r22583"
   width="280"
   height="280"
   sodipodi:docname="front.svg">
  <metadata
     id="metadata2972">
    <rdf:RDF>
      <cc:Work
         rdf:about="">
        <dc:format>image/svg+xml</dc:format>
        <dc:type
           rdf:resource="http://purl.org/dc/dcmitype/StillImage" />
        <dc:title />
      </cc:Work>
    </rdf:RDF>
  </metadata>
  <defs
     id="defs2970">
    <inkscape:perspective
       sodipodi:type="inkscape:persp3d"
       inkscape:vp_x="0 : 0.5 : 1"
       inkscape:vp_y="0 : 1000 : 0"
       inkscape:vp_z="1 : 0.5 : 1"
       inkscape:persp3d-origin="0.5 : 0.33333333 : 1"
       id="perspective2974" />
  </defs>
  <sodipodi:namedview
     pagecolor="#ffffff"
     bordercolor="#666666"
     borderopacity="1"
     objecttolerance="10"
     gridtolerance="10"
     guidetolerance="10"
     inkscape:pageopacity="0"
     inkscape:pageshadow="2"
     inkscape:window-width="1272"
     inkscape:window-height="858"
     id="namedview2968"
     showgrid="false"
     inkscape:zoom="19.208886"
     inkscape:cx="219.57064"
     inkscape:cy="236.91602"
     inkscape:window-x="0"
     inkscape:window-y="25"
     inkscape:window-maximized="0"
     inkscape:current-layer="svg2966" />
  <path
     style="fill:#4d4d4d;fill-opacity:1;stroke:#4d4d4d;stroke-width:0.58898306000000000;stroke-miterlimit:4;stroke-opacity:1;stroke-dasharray:none"
     d="m 190.98728,15.71875 c -0.13799,0.04828 -0.1875,0.272455 -0.1875,0.6875 0,0.691148 0.94321,1.557469 1.9375,1.78125 0.37497,0.08439 1.84962,0.308439 3.28125,0.5 2.72807,0.365034 3.125,0.34155 3.125,-0.125 0,-0.493546 -1.21957,-0.940026 -3.15625,-1.15625 -2.14636,-0.239635 -3.30337,-0.590474 -4.25,-1.3125 -0.37304,-0.284531 -0.61201,-0.423279 -0.75,-0.375 z M 223.76853,23.5 c -0.63864,-0.09088 -1.38465,1.134742 -1.90625,3.09375 -0.59551,2.236577 -0.71423,3.341233 -0.4375,4.0625 l 0.21875,0.625 0.40625,-0.46875 c 0.21782,-0.267456 0.45395,-0.983581 0.53125,-1.65625 0.20893,-1.81764 0.42313,-2.596607 1.125,-3.65625 0.73387,-1.107991 0.76541,-1.899976 0.0625,-2 z m -101.53125,1.78125 -0.4375,0.5 c -0.98606,1.195194 -3.04081,7.053961 -5.96875,16.96875 -2.64512,8.957084 -4.15042,13.057209 -7.375,20.0625 -0.86145,1.871463 -1.6197,3.700622 -1.6875,4.0625 -0.27367,1.46067 0.28835,10.768539 1.78125,29.90625 0.45118,5.78378 0.9054,12.18845 1.03125,14.25 0.12585,2.06155 0.28021,3.99492 0.34375,4.28125 0.10892,0.4908 0.15068,0.49897 0.375,0.125 1.37363,-2.28999 8.6685,-10.47614 12.46875,-13.96875 7.48811,-6.881929 11.52663,-8.475053 22.75,-9.0625 6.17171,-0.323036 8.79569,-0.612764 9.3125,-1.03125 l 0.4375,-0.34375 -1.15625,-3.125 c -2.66138,-7.224369 -3.4762,-10.962028 -5.15625,-23.5 -0.97601,-7.283804 -1.8217,-10.872413 -3.21875,-13.65625 -0.31613,-0.629917 -1.31478,-2.127219 -2.21875,-3.34375 -0.99744,-1.342304 -1.8065,-2.664114 -2.03125,-3.34375 -0.20369,-0.615954 -0.78178,-1.70293 -1.28125,-2.4375 -2.03782,-2.996992 -7.36428,-8.573395 -11.625,-12.15625 -2.49876,-2.101216 -3.74515,-2.978979 -5.15625,-3.625 l -1.1875,-0.5625 z m 46.84375,5.5 c -1.79203,0.01865 -3.51301,0.100868 -3.9375,0.21875 -1.2112,0.336354 -0.72331,0.622896 0.78125,0.46875 1.8664,-0.191219 2.66003,0.01222 3.46875,0.875 0.60688,0.647447 0.76196,0.708994 1.40625,0.59375 0.82218,-0.147064 3.16881,-1.350184 3.28125,-1.6875 0.0404,-0.121299 -0.28495,-0.27206 -0.71875,-0.34375 -0.64592,-0.106743 -2.48922,-0.143648 -4.28125,-0.125 z m 30.0625,3.75 c -2.95495,0.128395 -5.22605,0.72324 -6.53125,1.71875 -3.25058,2.4793 -6.31271,9.436839 -5.90625,13.375 0.1639,1.588081 0.60148,2.133739 2.03125,2.53125 1.5414,0.428549 2.74607,1.455304 4.28125,3.65625 1.46161,2.095476 2.24255,3.014589 3.0625,3.625 1.59723,1.18905 3.17225,-0.01418 3.875,-3 0.35143,-1.493121 0.19996,-2.470771 -1.15625,-6.625 -1.26806,-3.884231 -1.35175,-4.696741 -0.46875,-5.65625 0.68348,-0.742712 2.42056,-1.53425 3.40625,-1.53125 2.75657,0.0084 5.34687,2.948716 6.0625,6.875 0.17678,0.969936 0.35625,1.992307 0.40625,2.25 0.24178,1.245069 1.00402,-0.0731 1.9375,-3.375 0.82684,-2.923969 1.03195,-4.467222 0.84375,-6.4375 -0.18427,-1.929085 -0.88284,-3.371165 -2.25,-4.78125 -1.86809,-1.926756 -4.05532,-2.619 -8.28125,-2.625 -0.45002,-6.41e-4 -0.89036,-0.01834 -1.3125,0 z m -72.5,6.65625 c 3.28121,-0.0086 6.36038,1.917526 7.96875,5.375 1.44179,3.099378 1.50815,3.221274 2.09375,3.375 0.30622,0.08039 1.57415,0.03126 2.84375,-0.125 3.02495,-0.372303 3.62985,-0.227214 4.53125,1.28125 1.3293,2.224522 2.03822,5.558153 1.5625,7.3125 -0.35165,1.296841 -1.2056,2.031111 -2.875,2.46875 -0.77843,0.20407 -1.50535,0.42394 -1.59375,0.5 -0.0884,0.07606 0.0861,5.807534 0.375,12.75 0.28887,6.942465 0.53125,12.723125 0.53125,12.84375 0,0.29038 -4.59744,2.605455 -6.03125,3.03125 -1.34486,0.399377 -1.83466,0.404431 -2.5,0.0625 -1.10876,-0.569813 -1.18924,-0.921137 -3.125,-11.625 -2.3029,-12.733998 -2.33753,-12.90625 -2.53125,-12.90625 -0.17747,0 -3.17508,2.009595 -5.125,3.4375 l -1.28125,0.9375 -1.71875,-2.21875 c -0.9614,-1.230227 -2.4937,-3.157974 -3.375,-4.28125 -1.70657,-2.175129 -1.95962,-2.785125 -1.59375,-3.46875 0.61292,-1.145256 7.48608,-5.65625 8.625,-5.65625 1.09398,0 1.25884,-2.174378 0.40625,-5.125 -0.55759,-1.929692 -1.04569,-2.957964 -2.125,-4.3125 -0.95003,-1.192294 -0.89158,-1.645829 0.4375,-2.40625 1.47078,-0.841496 3.00854,-1.246093 4.5,-1.25 z m 0.375,3.34375 c -0.31496,-2.96e-4 -0.55278,0.09304 -0.625,0.28125 -0.16553,0.431354 0.33301,2.355537 1.4375,5.53125 0.63929,1.838124 1.02775,3.275738 1.09375,4.1875 0.096,1.326095 0.0494,1.450583 -0.53125,2.03125 -0.52006,0.520057 -0.83309,0.620259 -2.125,0.75 -2.58637,0.259739 -5.84375,2.261816 -5.84375,3.59375 0,0.748112 1.42946,3.563672 2,3.9375 0.57596,0.377384 1.08215,0.144017 1.71875,-0.75 0.75404,-1.058952 4.9342,-3.476247 6.625,-3.84375 0.82833,-0.180041 0.82706,-0.219191 1.09375,3.71875 0.23828,3.518582 0.84749,7.697687 1.8125,12.59375 0.74959,3.803092 1.80916,8.13681 2.1875,8.84375 0.19089,0.356671 0.24993,0.341814 0.40625,0.0625 0.45038,-0.804786 0.65725,-3.792606 0.65625,-10.03125 -0.001,-6.998463 -0.21767,-10.854005 -0.8125,-14.4375 -0.34874,-2.10076 -0.35657,-2.185173 0.0313,-2.46875 0.23513,-0.171932 0.91083,-0.27875 1.65625,-0.28125 1.90778,-0.0063 3.87042,-0.349924 4.3125,-0.75 0.74973,-0.678496 0.34899,-2.298451 -0.78125,-3.1875 -0.6875,-0.540817 -1.06082,-0.534771 -3.3125,0 -0.99136,0.235449 -2.15206,0.37877 -2.5625,0.34375 -0.694,-0.05922 -0.76109,-0.111615 -1.09375,-1.09375 -0.8296,-2.449316 -4.79267,-7.970144 -6.28125,-8.75 -0.36002,-0.188624 -0.74755,-0.280954 -1.0625,-0.28125 z m 74.875,1.875 c -0.70229,0.08105 -0.66166,0.474178 0.1875,1.8125 0.96492,1.520768 1.47594,3.399846 1.59375,5.875 0.12074,2.536734 -0.12177,3.954257 -0.96875,5.71875 -1.97582,4.116172 -6.57285,4.872763 -9.84375,1.59375 -0.63834,-0.639923 -1.54276,-1.863449 -2.03125,-2.6875 -1.38378,-2.33434 -1.91496,-2.548663 -1.46875,-0.625 0.38961,1.679636 1.68113,4.353855 2.59375,5.3125 0.64459,0.677099 1.15042,0.940809 2.375,1.3125 2.85474,0.866486 3.39451,1.619778 8.59375,11.75 4.91795,9.582163 5.62031,10.686898 7.125,11.375 1.29093,0.590348 3.46875,0.195106 3.46875,-0.625 0,-0.484328 -1.51443,-4.841106 -4.5625,-13.34375 -3.24992,-9.065696 -3.42957,-9.705553 -3.125,-10.28125 0.13147,-0.248504 1.13016,-1.385947 2.21875,-2.53125 3.43447,-3.61338 4.62789,-5.432781 4.9375,-7.59375 l 0.125,-0.9375 -0.625,1.0625 c -1.61045,2.739893 -4.84332,5.053366 -6.59375,4.71875 -0.9245,-0.176729 -1.14831,-1.115728 -1.34375,-5.25 -0.17434,-3.687746 -0.28808,-4.398336 -0.90625,-5.59375 -0.40762,-0.788251 -0.98704,-1.15055 -1.75,-1.0625 z M 175.23728,58.875 c -0.09,0 -1.03248,0.749823 -2.09375,1.65625 -2.28558,1.952107 -3.49789,2.568859 -4.53125,2.375 -0.67291,-0.126231 -0.71875,-0.09277 -0.71875,0.4375 0,0.362807 0.24048,0.799106 0.65625,1.1875 0.48057,0.448913 0.845,0.59375 1.4375,0.59375 1.82216,0 3.14021,-1.120671 4.5,-3.8125 0.88525,-1.752416 1.09562,-2.4375 0.75,-2.4375 z m 40.4375,32.5 c -2.47175,0.01845 -7.58558,1.463897 -8.9375,2.875 -1.4086,1.470253 -1.22984,5.069 0.5,10.125 0.8985,2.62615 1.39722,4.73103 1.59375,6.875 0.24449,2.66701 0.85613,3.24591 3.84375,3.625 1.37061,0.17394 1.59315,0.15898 2.46875,-0.0937 0.43216,-0.12474 0.46728,-0.21653 0.34375,-0.875 -0.20609,-1.09854 -1.18905,-3.47921 -2.625,-6.34375 -1.77264,-3.53618 -3.14923,-5.68632 -4.5,-7.0625 -1.31391,-1.338636 -1.48021,-2.082803 -0.65625,-2.75 0.43052,-0.348618 0.69788,-0.37532 2.28125,-0.25 1.58745,0.125642 1.9211,0.09786 2.875,-0.3125 0.67849,-0.291876 1.43406,-0.867031 2.03125,-1.53125 0.9461,-1.052287 2.15625,-3.151774 2.15625,-3.75 0,-0.366717 -0.55108,-0.537399 -1.375,-0.53125 z m 5.9375,3.375 c -0.15684,-0.0026 -0.31299,0.01699 -0.46875,0.03125 -0.41536,0.03804 -0.81867,0.140279 -1.15625,0.3125 -1.76516,0.900519 -2.28475,2.749746 -1.125,4.03125 0.47728,0.527393 1.87108,0.361973 2.9375,-0.34375 0.93916,-0.62151 2.1485,-2.33992 2.0625,-2.9375 -0.0925,-0.642883 -1.15214,-1.075574 -2.25,-1.09375 z m -75.84375,0.46875 c -0.0283,-0.02379 -1.01618,0.06484 -2.21875,0.21875 -2.78862,0.356912 -5.53652,0.981851 -8.09375,1.84375 -2.24573,0.75691 -7.53125,3.04013 -7.53125,3.25 0,0.1134 3.70146,1.0096 5.40625,1.3125 0.28632,0.0509 1.44845,0.0804 2.59375,0.0625 3.00064,-0.0468 3.82792,-0.49407 7.25,-3.96875 1.45996,-1.482394 2.62205,-2.69496 2.59375,-2.71875 z m 6.4375,0.21875 c -0.28312,0.03459 -0.59668,0.170192 -1.125,0.4375 -1.60858,0.813866 -4.2493,2.994457 -8.3125,6.875 l -3.5625,3.40625 -4.75,-0.65625 c -2.77361,-0.38011 -6.11703,-0.6904 -8,-0.75 -2.99881,-0.095 -3.27747,-0.0546 -3.90625,0.34375 -1.45604,0.92241 -0.57864,1.48925 2,1.3125 2.04529,-0.14018 3.24603,0.24023 4.1875,1.3125 0.54085,0.616 1.0625,1.8449 1.0625,2.5 0,0.71 -0.57144,1.90852 -1.21875,2.625 -1.87081,2.07077 -4.83842,2.41431 -6.5,0.75 -0.88763,-0.88908 -1.38047,-2.01587 -1.6875,-3.875 -0.23807,-1.44159 -0.28109,-1.51765 -0.59375,-1.125 -0.18161,0.22807 -1.47229,1.85468 -2.875,3.59375 -1.40272,1.73906 -2.78806,3.57212 -3.09375,4.09375 -1.18344,2.01939 -0.56623,3.78589 2.3125,6.625 4.3887,4.3283 10.00103,7.45871 14.375,8 4.68748,0.5801 10.55852,-0.0757 13.21875,-1.46875 4.20284,-2.2008 9.72923,-8.02487 11.6875,-12.34375 3.35839,-7.40676 1.83933,-20.309036 -2.53125,-21.5625 -0.15002,-0.04303 -0.28131,-0.08207 -0.40625,-0.09375 -0.0937,-0.0088 -0.18688,-0.01153 -0.28125,0 z m -1.25,2.875 c 0.37041,-0.06087 0.63803,0.04399 1.28125,0.375 1.39969,0.720306 2.22575,1.94996 2.21875,3.34375 -0.007,1.42131 -0.52272,2.33525 -1.71875,3.09375 -1.07819,0.68377 -1.90416,0.74605 -2.84375,0.25 -0.48324,-0.25512 -2.27903,-1.6284 -3.84375,-2.9375 -0.22742,-0.19027 3.76793,-3.768709 4.46875,-4 0.16192,-0.05344 0.31403,-0.104708 0.4375,-0.125 z m -0.375,2.09375 -0.40625,0.5 c -0.48399,0.59593 -0.49144,1.04385 -0.0625,1.65625 0.41482,0.59229 0.60513,0.58237 1.25,-0.0625 0.63533,-0.63533 0.5942,-1.07511 -0.1875,-1.65625 l -0.59375,-0.4375 z m 63.5625,0.34375 c -0.0677,-0.002 -0.12613,0.0324 -0.15625,0.0625 -0.14699,0.14699 2.04362,5.5817 3.3125,8.21875 1.02457,2.12925 1.31695,2.00985 1,-0.40625 -0.45673,-3.48169 -0.98152,-5.26819 -1.96875,-6.5625 -0.42854,-0.56185 -1.71389,-1.29739 -2.1875,-1.3125 z m 12,0.21875 c -0.4351,-0.049 -1.26471,0.28239 -2.375,1 -1.93753,1.25229 -3.35099,3.19859 -2.875,3.96875 0.54106,0.87546 3.99622,-1.57935 5.25,-3.71875 0.46323,-0.79045 0.4351,-1.20102 0,-1.25 z m -25.0625,1.6875 c -0.69881,0.0694 -1.55713,0.41105 -2.09375,0.875 l -0.59375,0.5 0.5,1.4375 c 0.64593,1.87381 3.92136,8.56884 5,10.21875 0.46797,0.71582 0.92664,1.28125 1.03125,1.28125 0.55566,0 0.65808,-4.7383 0.15625,-7.28125 -0.64016,-3.24394 -2.32038,-6.73531 -3.375,-7 -0.17584,-0.0441 -0.39206,-0.0544 -0.625,-0.0313 z m 24.28125,5.8125 c -0.97924,0.0621 -2.34242,0.8952 -2.4375,1.71875 -0.0389,0.33698 0.0307,0.68275 0.1875,0.78125 0.34418,0.21625 0.83294,0.0819 2.09375,-0.59375 1.08862,-0.5834 1.42658,-1.19842 0.9375,-1.6875 -0.17782,-0.17782 -0.45484,-0.23946 -0.78125,-0.21875 z M 124.64353,109.5 c -0.28089,0.0112 -0.55105,0.12005 -0.6875,0.375 -0.27879,0.52091 -0.26213,0.55037 0.125,0.9375 0.17997,0.17998 0.43831,0.34375 0.59375,0.34375 0.35244,0 0.9375,-0.59513 0.9375,-0.9375 0,-0.47331 -0.50061,-0.73749 -0.96875,-0.71875 z m 73.6875,1.84375 c -0.62421,0 -24.96953,16.83556 -32.9375,22.78125 -5.17698,3.86305 -6.88902,5.85324 -6.5625,7.59375 0.0782,0.41689 0.1925,0.8445 0.25,0.9375 0.1557,0.25193 0.30246,0.13561 12.78125,-9.34375 18.91866,-14.37132 23.50259,-17.97697 25.5625,-20.15625 0.99089,-1.04833 1.36395,-1.8125 0.90625,-1.8125 z m 20.84375,1.5625 c -0.0809,0.0809 20.73881,46.71689 26.1875,58.65625 4.18813,9.17716 6.85719,14.37311 8.0625,15.78125 0.77231,0.90227 1.12029,1.02643 1.53125,0.53125 0.83671,-1.00817 -1.10518,-6.28201 -9.65625,-26.34375 -14.29669,-33.54161 -18.85958,-43.57545 -21.125,-46.40625 -0.25936,-0.3241 -0.90212,-0.60046 -1.9375,-0.875 -0.85175,-0.22586 -1.88654,-0.66029 -2.28125,-0.9375 -0.39472,-0.27721 -0.74125,-0.44625 -0.78125,-0.40625 z m -160.062502,0.5 c -0.07305,-0.005 -0.139503,0.009 -0.21875,0.0313 -0.633976,0.17815 -1.453433,1.22671 -2.40625,3.125 -1.511373,3.01111 -2.823802,3.97939 -5,3.6875 -1.22121,-0.1638 -2.404953,-0.83944 -4.46875,-2.5625 -2.162063,-1.80511 -2.871593,-2.24211 -3.4375,-2.0625 -0.5221,0.16571 -0.73738,0.92146 -0.71875,2.625 0.02158,1.97271 0.606161,3.01499 2.5,4.5625 0.838281,0.68498 1.698754,1.5512 1.9375,1.9375 0.502075,0.81237 0.585796,1.86225 0.15625,2.21875 -0.372039,0.3088 -3.066924,0.29745 -5.84375,0 -3.313531,-0.35493 -4.013236,0.001 -4.46875,2.125 -0.477894,2.22835 0.461641,2.81002 4.78125,3.0625 2.339237,0.13673 3.02062,0.27007 3.34375,0.5625 1.063506,0.96246 -0.06912,2.7764 -2.0625,3.3125 -3.6269,0.97539 -4.21875,1.3423 -4.21875,2.6875 0,1.24007 0.822567,1.7937 3.34375,2.28125 0.286326,0.0554 2.079,0.0701 3.96875,0.0313 4.008737,-0.0823 5.638535,-0.42127 8.28125,-1.75 1.602194,-0.80557 1.71875,-0.9117 1.71875,-1.5625 0,-1.02875 0.77062,-3.97525 1.46875,-5.53125 0.339008,-0.75559 0.970395,-1.83327 1.40625,-2.40625 1.144784,-1.50494 1.2749,-1.80022 1.5,-3.78125 0.212747,-1.87232 -0.06231,-7.857 -0.46875,-10.46875 -0.212727,-1.36696 -0.582372,-2.08715 -1.09375,-2.125 z m 82.312502,0.375 c 4.70157,-0.13511 8.12826,2.65961 8.5,7.09375 0.14926,1.78035 -0.007,2.44986 -0.65625,2.875 -0.27445,0.17982 -2.31648,0.78779 -4.53125,1.34375 -2.21477,0.55595 -5.29528,1.33903 -6.875,1.75 -3.32997,0.86631 -5.0882,0.97144 -5.65625,0.34375 -1.69111,-1.86866 -0.17945,-6.92243 3.125,-10.40625 1.9804,-2.08789 3.05411,-2.71017 5.125,-2.9375 0.32425,-0.0356 0.65531,-0.0535 0.96875,-0.0625 z m 1,3.625 c -0.19779,-0.002 -0.40086,0.0132 -0.59375,0.0313 -2.70048,0.25245 -4.87408,1.90901 -6.59375,4.96875 l -0.46875,0.8125 0.8125,0 c 1.61598,0 9.71298,-1.87145 10.65625,-2.46875 0.24835,-0.15726 0.2115,-0.35633 -0.125,-1.28125 -0.55565,-1.52731 -1.17731,-1.93445 -3.09375,-2.03125 -0.20343,-0.0103 -0.39596,-0.0293 -0.59375,-0.0313 z m 12.375,7.0625 c -0.29173,0.0432 -0.54587,0.19068 -0.71875,0.4375 -0.51505,0.73533 0.12401,2.13596 1.8125,3.90625 0.46731,0.48995 0.99616,0.8443 1.15625,0.8125 0.44711,-0.0889 1.0625,-1.41357 1.0625,-2.28125 0,-1.5224 -2.04835,-3.0623 -3.3125,-2.875 z m -102.375002,0.6875 c 0.165257,-0.008 0.327627,0.0327 0.5,0.125 0.590277,0.31591 0.736498,0.96887 0.625,3 -0.101695,1.85257 -0.626792,3.19152 -1.46875,3.78125 -0.524353,0.36727 -0.511289,0.3726 -1.125,0.125 -1.097173,-0.44265 -1.065754,-3.25439 0.0625,-5.59375 0.450176,-0.93343 0.91048,-1.41485 1.40625,-1.4375 z m 59.437502,1.4375 c -0.35261,9.8e-4 -0.74926,0.0236 -1.1875,0.0625 -2.40802,0.21402 -4.8264,0.85968 -5.65625,1.53125 -0.84087,0.68049 -1.84565,2.39974 -2.75,4.71875 -1.63946,4.20402 -1.90679,9.27582 -0.5625,10.71875 1.05038,1.12745 1.64939,0.21421 4.96875,-7.5 1.15811,-2.69146 2.42496,-5.45714 2.8125,-6.15625 0.80729,-1.45635 2.18961,-2.77625 2.875,-2.78125 0.25736,-0.002 0.58418,-0.11385 0.75,-0.21875 0.38769,-0.24529 -0.19217,-0.37795 -1.25,-0.375 z M 63.174778,130.75 c -0.155293,-0.007 -0.439826,0.26759 -0.90625,0.8125 -1.181347,1.38014 -1.898484,3.96797 -2.34375,8.59375 -0.05899,0.64247 -0.03592,1.1875 0.0625,1.1875 0.483328,0 2.811237,-6.89638 3.28125,-9.75 0.09244,-0.56126 0.06154,-0.83696 -0.09375,-0.84375 z m 75.906252,3.71875 c -1.0217,-0.006 -1.2282,0.0935 -1.625,0.40625 -0.46761,0.36859 -0.59375,0.60482 -0.59375,1.34375 0,0.49771 0.0555,1.06884 0.125,1.25 0.16853,0.43917 0.87187,0.42969 2.21875,-0.0625 0.61148,-0.22345 1.93536,-0.67313 2.9375,-0.96875 1.42024,-0.41895 1.8125,-0.61289 1.8125,-0.90625 0,-0.64058 -0.99742,-0.94045 -3.53125,-1.03125 -0.55312,-0.0198 -1.00318,-0.0292 -1.34375,-0.0313 z m -27.5625,1.09375 c -0.69629,0 -3.33647,7.27056 -5.15625,14.15625 -3.83927,14.52703 -5.63691,32.38663 -6.0625,60.65625 l -0.312502,21.5 2.000002,0.75 c 2.96243,1.12011 15.53952,1.93705 31.125,2.03125 15.24107,0.0921 16.6639,-0.089 30.0625,-3.71875 8.78416,-2.37967 11.98944,-2.78574 12.6875,-1.65625 0.73787,1.1939 -1.26927,2.3338 -8.125,4.625 -13.11221,4.38211 -13.67401,4.45385 -36.6875,4.40625 -25.68907,-0.0532 -33.730437,-0.99567 -35.156252,-4.125 -0.819296,-1.79815 -1.580732,-1.60356 -3.28125,0.90625 -1.728804,2.55155 -1.678764,2.84483 0.59375,3.90625 1.052807,0.49172 2.604212,1.26509 3.4375,1.71875 1.957454,1.06567 10.357462,2.51484 18.531252,3.1875 3.54415,0.29163 13.20827,0.43051 21.46875,0.3125 17.19019,-0.2456 25.51518,-1.41861 36.90625,-5.21875 8.78234,-2.92984 10.23015,-3.87269 10.21875,-6.6875 -0.0106,-2.59791 -0.25097,-3.00524 -2.75,-4.75 -2.42222,-1.69113 -4.19701,-5.50986 -7.25,-15.71875 -1.35625,-4.53517 -4.52209,-14.48114 -7.0625,-22.09375 -8.0347,-24.07688 -11.01992,-36.16574 -11.625,-47.125 -0.18779,-3.40138 -0.61932,-6.35499 -0.9375,-6.5625 -0.31817,-0.20751 -2.71399,0.6537 -5.34375,1.90625 -6.1253,2.91749 -11.31871,3.73668 -21.0625,3.3125 -7.92708,-0.3451 -9.43693,-0.78982 -13.5625,-4.03125 -1.18041,-0.92744 -2.37122,-1.6875 -2.65625,-1.6875 z m -45.125002,1.5625 c -0.576886,-0.0143 -0.915749,0.13157 -1.09375,0.375 -0.416635,0.56978 -0.32128,1.03393 0.28125,1.75 0.853943,1.01485 2.837855,1.80776 7.8125,3.125 2.552794,0.67596 5.677667,1.61318 6.9375,2.09375 1.259834,0.48057 5.340264,1.84421 9.0625,3.03125 6.341817,2.02244 10.117245,3.36976 10.843752,3.84375 0.43708,0.28515 0.4825,0.24637 0.96875,-0.28125 0.44381,-0.48158 1.09375,-2.1488 1.09375,-2.8125 0,-0.88027 -10.133733,-4.39593 -20.593752,-7.125 -3.039194,-0.79294 -7.464629,-2.02238 -9.8125,-2.71875 -2.881179,-0.85454 -4.538524,-1.25736 -5.5,-1.28125 z m 32.71875,19.09375 c -0.311549,0.18102 -0.682091,1.39105 -0.90625,2.9375 -2.716727,18.7424 -7.769615,33.26028 -17.6875,50.875 l -2.96875,5.28125 2.59375,2.28125 c 2.740456,2.4001 5.171392,3.8474 7.625,4.59375 0.811949,0.24699 2.861811,0.4721 4.5625,0.5 l 3.09375,0.0625 0,-6.125 c 0,-11.55737 1.21805,-30.70744 2.65625,-41.875 1.674181,-12.99993 1.981172,-18.16749 1.15625,-18.53125 -0.0406,-0.0179 -0.08049,-0.0259 -0.125,0 z m 90.968752,76.875 c -0.34784,0.13146 -1.19873,0.94024 -2.1875,2.09375 -2.89783,3.38067 -5.82271,5.14429 -12.65625,7.5625 -9.53482,3.37411 -17.19714,4.75854 -29.46875,5.375 -11.86373,0.59596 -28.10225,0.2657 -37.375,-0.75 -9.148548,-1.0021 -18.843451,-4.70622 -19.750002,-7.5625 -0.212329,-0.669 -0.879145,-1.15625 -1.5625,-1.15625 -0.853485,0 -1.097735,0.24438 -0.84375,0.90625 0.196628,0.51241 0.34375,1.04455 0.34375,1.15625 0,0.1117 1.482305,1.03325 3.28125,2.0625 2.196531,1.25673 3.217763,2.19266 3.09375,2.84375 -0.312641,1.64143 -2.684006,1.42407 -6.65625,-0.59375 -2.089761,-1.06156 -3.975153,-1.7436 -4.1875,-1.53125 -0.212348,0.21234 -0.783554,3.21545 -1.28125,6.6875 l -0.90625,6.3125 1.3125,1.09375 c 1.580874,1.28012 9.955407,3.91994 22.437502,7.09375 8.10947,2.06198 10.23074,2.36799 19.125,2.75 5.50699,0.23653 12.27775,0.3433 15.03125,0.25 19.11491,-0.64796 19.64737,-0.69381 25.90625,-2.46875 10.33439,-2.93072 31.21587,-11.77495 33.0625,-14 0.54985,-0.66257 0.57035,-1.6637 0.0937,-4.21875 -0.86951,-4.66149 -2.53247,-10.125 -3.0625,-10.125 -0.24316,0 -2.26417,1.46833 -4.5,3.25 -3.77791,3.01053 -6.75,4.13124 -6.75,2.5625 0,-0.36553 1.73814,-2.48669 3.84375,-4.71875 2.10561,-2.23207 3.8145,-4.38239 3.8125,-4.78125 -2.6e-4,-0.0499 4.1e-4,-0.0833 -0.0313,-0.0937 -0.0277,-0.009 -0.0753,-0.0188 -0.125,0 z"
     id="path3052" />
  <path
     style="fill:#ffffff;stroke:#000000;stroke-width:1px;stroke-linecap:butt;stroke-linejoin:miter;stroke-opacity:1"
     d="m 135.76059,125.61282 c -0.54679,-0.0793 -1.45553,0.27887 -1.62466,-0.49095 -0.0593,-0.74209 -0.52354,-1.39546 -0.52574,-2.12175 0.21798,-0.87695 0.65624,-1.68672 1.24408,-2.3725 0.48984,-0.65449 0.82451,-1.42035 1.39773,-2.00913 0.50296,-0.69637 1.03426,-1.40562 1.7222,-1.92608 0.93631,-0.66777 2.10188,-1.07789 3.25843,-0.99589 0.82676,0.12788 1.62491,0.40506 2.42633,0.62485 0.87237,0.32635 1.87713,0.46284 2.51919,1.21223 0.84662,0.80995 1.20409,1.96129 1.55618,3.0412 0.41129,0.54093 0.3914,1.33654 -0.39198,1.485 -0.85772,0.56093 -1.87102,0.75922 -2.80542,1.1423 -1.0289,0.56524 -2.29128,0.29504 -3.34536,0.80684 -1.01469,0.46763 -2.19662,0.50797 -3.11767,1.18884 -0.49026,0.39836 -1.18091,0.97042 -1.83078,0.58169 -0.14538,-0.0886 -0.30633,-0.1813 -0.48253,-0.16665 z"
     id="path2813" />
  <path
     style="fill:#ffffff;stroke:#000000;stroke-width:1px;stroke-linecap:butt;stroke-linejoin:miter;stroke-opacity:1"
     d="m 123.39195,108.45869 c -0.3382,0.24729 -0.66357,0.51207 -1.00971,0.74847 -0.18564,0.31369 -0.59649,0.47628 -0.67575,0.85124 -0.0269,0.38217 0.25305,0.69142 0.40808,1.0181 0.22052,0.31312 0.48087,0.596 0.71502,0.9003 0.27016,0.31209 0.58074,0.60519 0.97708,0.74478 0.29699,0.19606 0.6402,0.26957 0.97864,0.35466 0.37895,0.10547 0.77584,0.14053 1.16188,0.0477 0.39088,-0.0738 0.91858,-0.0393 1.1285,-0.45385 0.12168,-0.12789 0.21475,-0.44902 0.28699,-0.50714 0.14833,-0.2355 0.0516,-0.73485 0.0749,-1.06739 0.002,-0.50166 -0.28719,-0.94132 -0.35923,-1.4303 -0.10937,-0.42334 -0.39902,-0.78774 -0.73585,-1.05674 -0.29746,-0.18301 -0.55539,-0.44503 -0.91318,-0.50454 0.08,-0.0936 -0.40455,-0.13891 -0.58016,-0.0662 -0.43139,0.0659 -0.88132,0.0931 -1.2716,0.31268 -0.0637,0.0328 -0.12583,0.0691 -0.18562,0.10827 z"
     id="path2817" />
  <path
     style="fill:#ffffff;stroke:#000000;stroke-width:1px;stroke-linecap:butt;stroke-linejoin:miter;stroke-opacity:1"
     d="m 150.19068,99.844809 c -0.31974,0.01219 -0.57607,0.276011 -0.74397,0.485731 -0.16552,0.16561 -0.43254,0.30098 -0.50682,0.55534 -0.18843,0.2391 -0.46692,0.36345 -0.46249,0.70225 -0.10536,0.30933 -0.0386,0.65351 -0.0529,0.98055 0.16455,0.26927 0.24084,0.60866 0.51527,0.80972 0.23223,0.0337 0.20848,0.3952 0.47787,0.37836 0.32171,0.0757 0.60535,0.3115 0.94698,0.28356 0.45721,8e-5 0.91512,0.001 1.37261,5.2e-4 0.24211,-0.14286 0.50408,-0.25972 0.65301,-0.51628 0.201,-0.13105 0.2719,-0.38077 0.45426,-0.53197 0.0548,-0.2195 0.33859,-0.35193 0.28659,-0.59554 0.0461,-0.23215 0.13912,-0.44392 0.16378,-0.67219 -0.0356,-0.24069 -0.10881,-0.45402 -0.2286,-0.66236 -0.0405,-0.21871 -0.19069,-0.37571 -0.32072,-0.54548 -0.13582,-0.24777 -0.26832,-0.517982 -0.5292,-0.612197 -0.19345,-0.171375 -0.43802,-0.165719 -0.67883,-0.214025 -0.2416,0.02611 -0.48755,-0.02036 -0.72623,0.02287 -0.26754,0.244639 -0.54049,0.0285 -0.84104,0.0575"
     id="path2819" />
  <path
     style="fill:#782121;stroke:#000000;stroke-width:1px;stroke-linecap:butt;stroke-linejoin:miter;stroke-opacity:1;fill-opacity:1"
     d="m 123.90731,44.038665 3.09216,10.822564 -8.90837,5.37447 4.27013,7.362288 7.0678,-3.975635 5.59533,24.001059 c 0,0 4.19651,-0.588983 4.34375,-0.883475 0.14725,-0.294491 -0.51536,-26.57786 -0.51536,-26.57786 l 5.07998,-1.840572 -1.54608,-6.552436 -6.47881,0.294491 -6.47881,-8.613877 -5.52172,0.588983 z"
     id="path2829" />
  <path
     style="fill:#ffffff;stroke:#000000;stroke-width:1px;stroke-linecap:butt;stroke-linejoin:miter;stroke-opacity:1"
     d="m 138.55826,132.82786 c -0.88347,0.22087 -3.46027,1.03072 -3.46027,1.03072 0,0 1.54608,6.18432 1.91419,6.1107 0.36812,-0.0736 10.15996,-4.04926 9.93909,-4.56462 -0.22087,-0.51536 -8.46663,-2.5768 -8.39301,-2.5768 z"
     id="path2831" />
  <path
     style="fill:#ffffff;stroke:#000000;stroke-width:1px;stroke-linecap:butt;stroke-linejoin:miter;stroke-opacity:1"
     d="m 59.560911,111.99258 2.944915,3.16579 2.79767,17.52224 -4.34375,11.85329 -4.85911,-3.5339 -16.34428,1.32521 -3.018538,-3.97563 0.07362,-3.90202 -0.957098,-7.95127 5.816208,-3.5339 -0.809852,-7.65678 4.564619,-1.69332 c 0,0 6.626059,5.44809 7.067796,5.30085 0.441738,-0.14725 3.239407,-3.60753 3.239407,-3.60753 l 3.386653,-3.2394 0.441737,-0.0736 z"
     id="path2833" />
  <path
     style="fill:#ffffff;stroke:#000000;stroke-width:1px;stroke-linecap:butt;stroke-linejoin:miter;stroke-opacity:1"
     d="m 197.01483,104.11494 c 0,0 6.69968,14.72457 7.0678,14.87182 0.36811,0.14724 2.87129,-0.88348 2.87129,-0.88348 0,0 1.6197,-1.47245 1.91419,-1.47245 0.2945,0 10.15996,0.73623 10.15996,0.73623 0,0 -8.24576,-17.00689 -7.7304,-17.375005 0.51536,-0.368114 4.93273,-1.251589 4.93273,-1.251589 0,0 4.41738,13.399364 4.78549,13.546614 0.36811,0.14724 5.44809,0.22086 5.44809,0.22086 l 2.50318,-3.53389 -1.69333,-11.264304 -11.11705,-8.540254 -10.01271,3.313029 -9.12924,11.632419 z"
     id="path2835" />
  <path
     style="fill:#782121;stroke:#000000;stroke-width:1px;stroke-linecap:butt;stroke-linejoin:miter;stroke-opacity:1"
     d="m 97.246658,225.3378 c -0.624711,-0.20824 -11.869507,-1.77001 -11.869507,-1.77001 l -9.995373,-7.49654 17.07543,-36.23323 4.164739,-26.75844 6.455343,0.93706 -4.789448,33.10968 -1.041184,38.21148 z"
     id="path2837" />
  <path
     style="fill:#782121;stroke:#000000;stroke-width:1px;stroke-linecap:butt;stroke-linejoin:miter;stroke-opacity:1;fill-opacity:1"
     d="m 98.496079,142.35537 6.247111,4.37298 9.16242,-16.65896 0.83295,-5.41416 -9.16242,1.24942 -5.830639,7.49653 -1.249422,8.95419 z"
     id="path2839" />
  <path
     style="fill:#782121;stroke:#000000;stroke-width:1px;stroke-linecap:butt;stroke-linejoin:miter;stroke-opacity:1;fill-opacity:1"
     d="m 155.553,121.53168 c 0.83295,0.41647 4.37298,4.99768 4.37298,4.99768 l -4.58121,6.87182 -3.12356,-8.74595 3.33179,-3.12355 z"
     id="path2841" />
  <path
     style="fill:#3771c8;stroke:#000000;stroke-width:1px;stroke-linecap:butt;stroke-linejoin:miter;stroke-opacity:1"
     d="m 198.65805,61.559435 c 0.5206,-0.312356 3.74827,-6.247109 3.74827,-6.247109 0,0 -2.70708,-9.891255 -2.29061,-9.995374 0.41648,-0.104118 4.26886,0.312356 4.26886,0.312356 l 3.64415,10.515966 c 0,0 5.51828,-7.913004 5.72651,-8.329478 0.20824,-0.416474 -2.39472,-10.620085 -2.39472,-10.620085 l -10.09949,-5.205924 -12.49422,5.622398 -4.26886,11.661269 2.8112,5.101806 4.78945,3.331791 6.55946,3.852384 z"
     id="path2843" />
  <path
     style="fill:#3771c8;stroke:#000000;stroke-width:1px;stroke-linecap:butt;stroke-linejoin:miter;stroke-opacity:1;fill-opacity:1"
     d="m 178.77143,58.331762 c 0,0 -7.18418,9.787137 -7.70477,9.5789 -0.52059,-0.208237 -5.51828,-6.247109 -5.51828,-6.247109 l 10.51597,-5.518279"
     id="path2847" />
  <path
     style="fill:#3771c8;stroke:#000000;stroke-width:1px;stroke-linecap:butt;stroke-linejoin:miter;stroke-opacity:1;fill-opacity:1"
     d="m 163.57013,29.595062 -0.93707,5.414161 c 0,0 15.30542,-0.728829 14.99306,-1.145303 -0.31235,-0.416474 -2.18649,-4.372976 -2.18649,-4.372976"
     id="path2849" />
  <path
     style="fill:#3771c8;stroke:#000000;stroke-width:1px;stroke-linecap:butt;stroke-linejoin:miter;stroke-opacity:1;fill-opacity:1"
     d="m 188.7668,11.790803 c 0.10412,0.416473 1.24942,7.392411 1.24942,7.392411 0,0 11.03656,2.08237 11.14068,1.665896 0.10412,-0.416474 -0.20824,-3.123554 -0.20824,-3.123554 l -11.45303,-6.559464"
     id="path2851" />
  <path
     style="fill:#3771c8;stroke:#000000;stroke-width:1px;stroke-linecap:butt;stroke-linejoin:miter;stroke-opacity:1;fill-opacity:1"
     d="m 224.79179,20.432636 c -0.41647,0.104119 -5.6224,8.641834 -5.6224,8.641834 0,0 2.91532,5.205924 3.22768,4.78945 0.31235,-0.416474 4.06062,-10.203611 4.06062,-10.203611"
     id="path2853" />
  <path
     style="fill:#000000"
     d="m 114.19552,270.75344 c -26.043584,-4.8417 -44.278028,-12.41126 -38.500005,-15.98227 0.55,-0.33992 1,-1.87433 1,-3.40979 0,-2.67042 0.965251,-6.38563 3.204398,-12.3336 0.749633,-1.99129 2.092189,-3.02866 4.897177,-3.78396 2.125427,-0.57232 4.310195,-1.87353 4.855041,-2.89159 0.544846,-1.01805 2.127499,-2.13634 3.517006,-2.48508 3.776527,-0.94785 3.244713,-3.59475 -0.723622,-3.60156 -5.521182,-0.009 -10.065018,-1.88513 -14.660054,-6.05154 l -4.410054,-3.99869 4.889014,-9.7221 c 2.688957,-5.34715 5.629175,-10.84709 6.533817,-12.22209 3.072228,-4.6696 9.897277,-30.74177 9.897277,-37.80831 l 0,-3.88068 -12.75,-3.76553 c -7.0125,-2.07104 -13.842191,-4.19268 -15.17709,-4.71475 -1.864665,-0.72927 -2.629297,-0.58791 -3.299691,0.61002 -1.20278,2.14925 -4.508211,1.95646 -5.946645,-0.34684 -0.975529,-1.56207 -1.653877,-1.72802 -3.758474,-0.91946 -1.412455,0.54265 -5.132109,1.21934 -8.265898,1.50375 -5.110357,0.4638 -5.956006,0.25891 -8.202253,-1.98734 -2.029864,-2.02987 -2.39787,-3.16128 -1.941991,-5.97053 0.33371,-2.05641 0.110942,-3.74512 -0.547746,-4.15222 -3.153326,-1.94886 0.621832,-10.56811 4.628743,-10.56811 1.291924,0 1.394378,-0.26667 0.461045,-1.2 -1.819601,-1.8196 -1.441194,-4.91436 0.906453,-7.41331 2.394432,-2.54876 4.13724,-2.25279 8.062287,1.36914 2.815825,2.59838 4.83126,2.3231 4.83126,-0.65986 0,-1.86533 2.942623,-5.09597 4.641649,-5.09597 0.541293,0 2.243968,1.31495 3.783724,2.92211 2.398263,2.50324 2.73523,3.54247 2.350805,7.25 -0.33119,3.1941 0.05945,5.06138 1.49113,7.12774 1.066934,1.53993 1.720736,3.63787 1.452894,4.6621 -0.405559,1.55086 0.622165,2.19596 6.146406,3.85808 14.056511,4.22931 22.24568,6.22861 23.170743,5.65689 0.529457,-0.32723 0.962649,-1.84762 0.962649,-3.37865 0,-4.73935 4.168385,-11.27099 8.644665,-13.54575 3.83342,-1.94807 4.84716,-4.55252 1.772,-4.55252 -0.77916,0 -1.41666,-0.34983 -1.41666,-0.7774 0,-0.42757 -0.91686,-12.10816 -2.03746,-25.956861 l -2.03746,-25.179455 3.43508,-7.793142 c 1.88929,-4.286228 4.41068,-11.168142 5.6031,-15.293142 5.2567,-18.184817 6.85465,-22.506528 8.43962,-22.825281 4.19603,-0.843861 18.82712,11.925497 23.78247,20.75627 1.71876,3.062956 3.7924,6.348185 4.60808,7.300508 1.62529,1.897562 5.16202,17.294815 5.1894,22.592186 0.009,1.828026 1.21226,6.778026 2.67292,11 1.46066,4.221974 2.78549,9.251317 2.94406,11.176317 0.15857,1.925 0.60101,6.79129 0.98319,10.81398 0.7197,7.57506 -0.77887,15.1809 -2.99306,15.19099 -0.59947,0.003 0.21734,1.05101 1.81513,2.32951 2.65363,2.12335 2.84592,2.69443 2.2217,6.59811 l -0.68337,4.27356 8.2783,-5.77528 c 29.06659,-20.27802 26.86967,-18.42688 26.18708,-22.06544 -0.67135,-3.57858 0.61525,-5.6035 4.30428,-6.77436 1.16588,-0.370034 2.60089,-1.891903 3.18891,-3.38193 0.58803,-1.490027 1.57675,-3.402966 2.19716,-4.250976 1.87147,-2.558012 -7.78186,-20.767419 -12.70654,-23.968786 -4.18389,-2.719807 -5.34053,-4.624686 -7.99261,-13.163074 -2.30548,-7.422542 -0.91585,-12.582688 4.96362,-18.43148 7.41643,-7.377743 17.96279,-6.641837 23.93769,1.67033 2.13548,2.970842 2.84356,5.346648 3.33848,11.201548 l 0.62815,7.430984 -3.63396,4.022358 c -1.99868,2.212297 -3.63396,4.50035 -3.63396,5.084562 0,2.530003 7.84448,22.106478 9.58436,23.918467 1.0536,1.097271 3.17241,2.296873 4.70846,2.665782 1.53605,0.368909 3.0314,1.444834 3.323,2.390944 0.2916,0.946111 0.92234,2.461579 1.40164,3.367708 1.3203,2.496013 1.4708,12.559243 0.21055,14.077753 -0.84902,1.02301 2.63457,10.0219 14.82876,38.30594 8.76616,20.33284 15.93954,37.43428 15.94085,38.00319 0.003,1.24511 -5.22273,4.46561 -7.2459,4.46561 -0.92853,0 -7.25465,-13.00073 -17.81747,-36.61648 -9.00778,-20.13907 -16.84049,-36.75071 -17.40602,-36.91475 -0.56552,-0.16404 -2.69543,-0.53004 -4.73312,-0.81333 -3.04333,-0.42309 -3.81426,-0.17046 -4.31739,1.41475 -0.86498,2.72532 -4.9099,2.45596 -7.14431,-0.47576 l -1.83341,-2.40558 -20,15.15672 c -18.49825,14.01863 -19.98969,15.38189 -19.86275,18.15557 0.17797,3.88863 2.72896,14.76534 4.80774,20.49886 0.89736,2.475 2.69137,7.875 3.9867,12 1.29533,4.125 3.46152,10.65 4.81375,14.5 1.35223,3.85 2.96321,8.8 3.57995,11 3.15542,11.2557 4.61284,15.5 5.32244,15.5 0.43042,0 2.32014,1.35 4.19939,3 1.87924,1.65 4.35953,3 5.51174,3 3.85588,0 9.14104,11.55916 9.14104,19.99233 l 0,4.5691 -7.70939,3.81471 c -4.24016,2.09809 -13.0217,5.79132 -19.51453,8.20718 -10.55622,3.92777 -13.20538,4.49929 -25.04061,5.40215 -16.67794,1.27229 -25.37251,1.14449 -34.23547,-0.5032 z m 42.57491,-3.47322 c 6.95871,-1.00685 20.32479,-5.73949 33.17509,-11.74657 6.01896,-2.81366 7.74735,-4.08518 7.73813,-5.69267 -0.013,-2.27464 -2.41132,-11.82749 -3.35107,-13.34804 -0.32497,-0.52582 -2.42021,0.78417 -4.65607,2.91109 -3.66548,3.48689 -6.98099,4.99493 -6.98099,3.17527 0,-0.38052 1.8,-2.37034 4,-4.42181 2.2,-2.05146 4,-4.21512 4,-4.80813 0,-1.96577 -1.47707,-1.10586 -3.14908,1.83332 -2.42939,4.27057 -14.15976,9.0134 -28.85092,11.66503 -10.48222,1.89195 -43.02478,1.82427 -53.97693,-0.11225 -8.148524,-1.4408 -16.023075,-5.1161 -16.023075,-7.47848 0,-0.54219 -0.675,-0.98581 -1.5,-0.98581 -2.849834,0 -1.488506,3.10686 2,4.56445 1.925,0.80431 3.5,1.87979 3.5,2.38995 0,2.21412 -2.403661,2.04424 -6.149476,-0.43462 -2.21872,-1.46828 -4.229005,-2.47463 -4.4673,-2.23634 -0.890959,0.89096 -2.574334,12.77615 -2.015743,14.23182 0.319697,0.83311 1.830299,1.99015 3.356893,2.57119 4.007702,1.52537 23.064741,6.64429 28.846851,7.74856 6.56472,1.25374 36.23955,1.36979 44.50369,0.17404 z m -3.07491,-23.45556 c 7.68944,-0.92549 14.64786,-2.50789 21,-4.77557 9.4942,-3.38937 9.5,-3.39353 9.5,-6.8212 0,-2.73183 -0.5442,-3.6906 -2.67427,-4.71151 -2.89799,-1.38898 -3.97615,-3.82206 -8.30642,-18.74521 -1.43635,-4.95 -3.50894,-11.475 -4.60575,-14.5 -9.11957,-25.15176 -14.09545,-45.44774 -13.17556,-53.74139 0.57453,-5.17994 -1.30361,-6.39049 -5.45251,-3.51438 -4.68009,3.24435 -11.46917,4.53003 -21.58469,4.08761 -8.76712,-0.38344 -9.61184,-0.6129 -13.22731,-3.59308 -2.12416,-1.75091 -4.0172,-3.02839 -4.20674,-2.83884 -0.18955,0.18954 -1.63116,4.12712 -3.20358,8.75017 -4.93105,14.49772 -8.016082,40.74761 -8.043375,68.43939 l -0.0198,20.08949 2.737295,1.24719 c 1.74927,0.79702 10.15925,1.44974 23.29965,1.80832 21.7364,0.59317 23.75058,0.37197 39.74217,-4.36442 7.79991,-2.31018 10.22089,-2.4033 10.22089,-0.39317 0,0.89999 -12.07048,5.03569 -20.3147,6.96043 -6.31644,1.47466 -42.11863,1.44258 -51.41018,-0.0461 -5.554059,-0.88985 -7.361891,-1.58926 -7.817384,-3.0244 -0.804571,-2.53497 -2.098048,-2.34545 -4.020884,0.58917 -1.715188,2.61774 -1.239486,4.54401 1.12216,4.54401 0.792541,0 1.440983,0.36493 1.440983,0.81095 0,1.48032 10.351165,3.50036 21.500005,4.19575 17.74029,1.10653 25.30006,1.01516 37.5,-0.45321 z M 96.029024,205.02117 c 0.329627,-10.0375 0.795839,-19.375 1.036026,-20.75 0.240188,-1.375 1.192826,-8.30025 2.116974,-15.38945 1.392376,-10.68097 1.451806,-13.03173 0.346881,-13.7199 -1.038434,-0.64675 -1.459182,0.54544 -1.902051,5.38945 -0.312763,3.42094 -1.28519,8.6949 -2.160949,11.7199 -0.875758,3.025 -2.330088,8.38745 -3.231844,11.91656 -0.901755,3.5291 -2.45779,7.5791 -3.457855,9 -1.000065,1.42089 -2.160527,3.68373 -2.578805,5.02854 -0.418278,1.3448 -1.578919,3.8198 -2.579201,5.5 -1.000283,1.68019 -2.849681,5.02311 -4.109773,7.4287 l -2.291076,4.37379 3.840133,3.31953 c 3.653099,3.15786 5.80656,3.94248 11.755124,4.28305 l 2.617093,0.14983 0.599323,-18.25 z M 240.86014,150.80983 c -13.26957,-30.90436 -15.97806,-36.48666 -17.71462,-36.51051 -1.1275,-0.0155 -2.65602,-0.59065 -3.3967,-1.27815 -0.74069,-0.6875 -1.13036,-0.8 -0.86593,-0.25 0.26442,0.55 8.05446,17.96372 17.3112,38.69715 14.84389,33.24766 17.037,37.58659 18.58055,36.76051 1.57073,-0.84063 0.14442,-4.67627 -13.9145,-37.419 z M 102.467,147.83814 c -2.625406,-1.37961 -12.787456,-4.84777 -17.771485,-6.06516 -6.578226,-1.60678 -9.869753,-2.51564 -15.736515,-4.34517 -2.082628,-0.64946 -3.450277,-0.66342 -3.83609,-0.0392 -1.11233,1.79979 1.517812,3.552 7.260904,4.83725 3.141562,0.70305 6.409379,1.65811 7.261816,2.12237 0.852437,0.46425 5.374885,1.98299 10.049885,3.37498 4.675,1.39198 9.171858,2.96636 9.993017,3.49861 1.119808,0.72583 1.687608,0.4417 2.271488,-1.13666 0.42815,-1.15742 0.65629,-2.16859 0.50698,-2.24706 z m 2.4812,-7.31697 c 0.90067,-2.0625 2.54628,-5.8875 3.65691,-8.5 1.28194,-3.01547 2.64092,-4.75 3.72153,-4.75 0.93622,0 1.43253,-0.26968 1.10293,-0.59928 -0.32961,-0.32961 -2.47257,-0.2828 -4.76214,0.10402 -3.65305,0.61718 -4.39339,1.21104 -6.04542,4.84929 -2.57474,5.67032 -2.54841,12.64597 0.0477,12.64597 0.35249,0 1.3778,-1.6875 2.27847,-3.75 z m 74.99732,-13.16759 c 16.33474,-12.37431 20.52633,-16.08241 18.17937,-16.08241 -0.31384,0 -9.31384,6.11435 -20,13.58743 -16.55627,11.57821 -19.42937,13.9623 -19.42937,16.12245 0,1.88361 0.3212,2.28338 1.25,1.55576 0.6875,-0.53858 9.6875,-7.37104 20,-15.18323 z m -116.892546,5.93098 c 0.635798,-3.22588 0.565031,-3.36445 -0.946358,-1.85306 -0.898448,0.89845 -1.829028,3.81742 -2.067957,6.4866 -0.42902,4.7928 -0.417267,4.81581 0.946358,1.85307 0.759425,-1.65 1.690006,-4.56897 2.067957,-6.48661 z m -9.614204,6.73661 c 1.635081,-0.6875 2.957996,-1.475 2.93981,-1.75 -0.148709,-2.24875 1.546391,-7.0866 2.988213,-8.52842 1.40614,-1.40614 1.708931,-3.118 1.474566,-8.33664 -0.162209,-3.61193 -0.51294,-6.9199 -0.779402,-7.35104 -1.014843,-1.64205 -2.392159,-0.65811 -3.801995,2.7161 -1.799147,4.30596 -5.015811,4.66457 -8.969946,1 -3.523575,-3.26554 -4.594501,-3.15437 -4.594501,0.47695 0,2.07192 0.760024,3.47493 2.5,4.61501 1.375,0.90093 2.5,2.32399 2.5,3.16234 0,1.23935 -0.925187,1.41471 -4.949466,0.93809 -4.306232,-0.51001 -5.029401,-0.33433 -5.564547,1.35176 -0.936861,2.95179 0.242462,3.95585 4.646354,3.95585 3.283546,0 3.95359,0.31857 3.680767,1.75 -0.18766,0.98461 -1.422486,1.89638 -2.823324,2.08468 -3.195032,0.42947 -4.410557,1.62642 -3.653951,3.5981 0.753555,1.96374 10.006964,2.16747 14.407422,0.31722 z m -2.883397,-8.22348 c -1.094618,-1.09461 0.417639,-6.52652 1.817,-6.52652 1.027692,0 1.358616,0.9239 1.1365,3.17299 -0.289865,2.9351 -1.733156,4.57388 -2.9535,3.35353 z m 91.878497,4.73053 c 3.27673,-0.71109 1.70317,-2.25705 -2.29737,-2.25705 -2.83256,0 -3.44098,0.37255 -3.44098,2.10699 0,1.62021 0.4043,1.93705 1.75,1.3714 0.9625,-0.40457 2.75726,-0.95417 3.98835,-1.22134 z m 1.76165,-7.12391 c 4.3502,-2.69623 7.70011,-6.08188 10.52088,-10.63314 4.56256,-7.36159 2.90692,-23.5 -2.41086,-23.5 -1.13203,0 -4.53088,2.417377 -7.58102,5.39187 l -5.529,5.39186 -7.29394,-0.98199 c -4.01167,-0.5401 -7.94917,-0.73056 -8.75001,-0.42325 -2.43571,0.93467 -1.62436,2.37634 1.04969,1.86516 4.97018,-0.95011 7.44788,4.27457 3.37876,7.1247 -2.92715,2.05025 -6.25082,0.6543 -6.8845,-2.89151 l -0.5,-2.79777 -3.85307,4.70454 c -3.48264,4.25225 -3.74494,4.96557 -2.72839,7.41974 1.11503,2.69191 8.27262,8.21445 13.08146,10.09317 4.40129,1.71951 14.18243,1.29283 17.5,-0.76338 z m -11.32957,-1.90966 c -2.37361,-0.79121 -1.20278,-6.62336 2.04786,-10.20075 2.54206,-2.7976 3.89751,-3.47728 6.93462,-3.47728 4.43244,0 7.58213,2.77734 8.0437,7.0928 0.2756,2.57668 -0.063,2.91585 -3.69661,3.7028 -2.2,0.47646 -5.8358,1.40771 -8.07957,2.06944 -2.24376,0.66172 -4.60626,1.02757 -5.25,0.81299 z m 13.60311,-6.74621 c 0.15044,-0.10506 -0.0102,-0.93042 -0.35699,-1.83414 -1.05398,-2.74663 -6.89066,-2.12714 -9.34397,0.99173 -1.13992,1.44917 -2.07258,2.99054 -2.07258,3.42527 0,0.61027 10.49926,-1.69305 11.77354,-2.58286 z m 2.04491,-16.45063 -2.31845,-1.9048 2.2639,-2.29704 c 1.79999,-1.826348 2.61964,-2.074044 4,-1.20879 2.4694,1.5479 2.64179,4.67241 0.33654,6.09971 -1.6259,1.00668 -2.3622,0.88819 -4.28199,-0.68908 z m 3.43155,-2.44331 c 0.1375,-0.50416 -0.3125,-1.10416 -1,-1.33333 -0.6875,-0.22917 -1.25,0.33333 -1.25,1.25 0,1.69335 1.79279,1.75975 2.25,0.0833 z m 5.70655,23.86431 c -1.44324,-1.73899 -3.95655,-1.91456 -3.95655,-0.27638 0,0.64419 0.76011,2.01117 1.68913,3.03773 1.51246,1.67124 1.78221,1.70015 2.57899,0.27638 0.56529,-1.01011 0.45164,-2.11811 -0.31157,-3.03773 z m 47.94377,-12.19764 c -0.10941,-4.11614 -0.79611,-6.72703 -2.55051,-9.69735 -0.90074,-1.52499 -1.597,-1.74188 -3.21026,-1 -2.02969,0.93338 -2.01273,1.04676 1.15019,7.69038 1.76565,3.70867 3.54776,6.74617 3.96026,6.75 0.4125,0.004 0.70514,-1.68053 0.65032,-3.74303 z m -86.40032,-8.33324 c 9.74647,-10.089793 14.39929,-12.302123 26.82019,-12.752491 8.66205,-0.314077 9.74083,-0.551144 9.14731,-2.010169 -2.95157,-7.255643 -4.63873,-13.838036 -5.50346,-21.471525 -1.45184,-12.816245 -2.70778,-17.589313 -5.50208,-20.910156 -1.35408,-1.609228 -2.46196,-3.260071 -2.46196,-3.668538 0,-3.451459 -15.93897,-19.103881 -19.45361,-19.103881 -1.12766,0 -2.98202,5.219298 -8.17169,23 -0.8829,3.025 -2.74053,7.975 -4.12806,11 -1.38753,3.025 -2.82503,6.175 -3.19444,7 -0.36941,0.825 0.10888,10.95 1.06287,22.5 0.95399,11.55 1.78432,22.575 1.84516,24.5 0.10388,3.28623 0.18482,3.36757 1.3252,1.33167 0.66801,-1.19259 4.36457,-5.4293 8.21457,-9.41491 z m 13.07401,-17.16676 c -0.25525,-1.2375 -1.24495,-6.75 -2.19933,-12.25 -0.95439,-5.5 -1.84375,-10.152125 -1.97635,-10.338056 -0.13261,-0.185931 -1.66549,0.714069 -3.40639,2 l -3.16527,2.338056 -1.86179,-2.5 c -1.02398,-1.375 -2.55998,-3.2875 -3.41333,-4.25 -0.85336,-0.9625 -1.55155,-2.140201 -1.55155,-2.617114 0,-1.068736 7.52196,-6.132886 9.1094,-6.132886 1.63241,0 0.39483,-6.785351 -1.64963,-9.044443 -1.50922,-1.667676 -1.48117,-1.873739 0.39152,-2.875972 5.08858,-2.723323 10.85325,-0.08572 12.63651,5.781795 0.63117,2.07676 1.15728,2.29151 4.36494,1.781697 3.23835,-0.514693 3.7874,-0.280601 4.89726,2.087984 2.07307,4.424206 1.60932,7.96194 -1.13397,8.650461 l -2.38396,0.598337 0.52369,12.912135 0.52369,12.912136 -3.09006,1.597935 c -4.22853,2.186653 -6.06724,2.005415 -6.61538,-0.652065 z m 4.83324,-13.335494 c -0.051,-6.002978 -0.44097,-12.152006 -0.86657,-13.664506 -0.74168,-2.63572 -0.62354,-2.75 2.84274,-2.75 3.60167,0 4.45253,-1.135611 2.80014,-3.737231 -0.56577,-0.890786 -1.68155,-0.980337 -3.98469,-0.319806 -1.99759,0.572903 -3.19887,0.560645 -3.19887,-0.03264 0,-1.667986 -5.02864,-8.984081 -6.58583,-9.581631 -2.42336,-0.929928 -2.48974,-0.0072 -0.40903,5.685372 2.03473,5.56678 1.63609,6.933846 -2.03264,6.970624 -0.84012,0.0084 -2.51149,0.704534 -3.71416,1.546915 -1.87916,1.316217 -2.02851,1.878727 -1.06199,4 1.25014,2.743756 2.30437,3.104 3.50396,1.197342 0.68978,-1.096371 5.52347,-3.728944 6.84674,-3.728944 0.24912,0 0.44982,1.2375 0.446,2.75 -0.0138,5.474288 3.46192,23.264987 4.47863,22.923947 0.62833,-0.210764 0.99224,-4.590393 0.93557,-11.259441 z m 78.59275,39.709924 c 0,-2.18543 -5.36193,-12.68963 -7.09832,-13.90585 -2.39797,-1.67961 -1.43696,-3.564427 1.45741,-2.858408 2.45744,0.599437 4.78726,-0.870906 6.51275,-4.110172 1.09747,-2.060291 0.98207,-2.25 -1.36877,-2.25 -1.41202,0 -4.12785,0.652038 -6.03519,1.448973 -3.00121,1.253987 -3.46788,1.910397 -3.46788,4.877876 0,1.885901 0.675,5.044401 1.5,7.018911 0.825,1.9745 1.5,4.92146 1.5,6.5488 0,1.97701 0.58068,3.11054 1.75,3.41611 3.04947,0.79692 5.25,0.71885 5.25,-0.18624 z m -90,-4.12443 c 0,-0.55 -0.45,-1 -1,-1 -0.55,0 -1,0.45 -1,1 0,0.55 0.45,1 1,1 0.55,0 1,-0.45 1,-1 z m 92.39955,-3.90282 c -0.43066,-2.69319 -1.38142,-4.55229 -2.6848,-5.24984 -1.59903,-0.85578 -1.9055,-0.79633 -1.4761,0.28633 4.42438,11.15542 5.3223,12.22654 4.1609,4.96351 z m 7.57149,3.94188 c 0.80907,-0.51167 1.16598,-1.23537 0.79313,-1.60823 -0.9151,-0.91509 -3.76417,0.24885 -3.76417,1.53779 0,1.2701 1.03529,1.29465 2.97104,0.0704 z m -0.97104,-6.03906 c 2.74736,-2.74736 2.60513,-4.38904 -0.25,-2.88548 -2.28524,1.20345 -3.70697,2.77775 -3.73469,4.13548 -0.0284,1.39083 1.97111,0.76358 3.98469,-1.25 z m -81.94617,-5.63231 3.44617,-3.632305 -4.56252,0.587479 c -2.50938,0.323114 -6.78438,1.580442 -9.5,2.794063 l -4.93748,2.206583 3,0.71993 c 6.66548,1.59956 8.96202,1.11007 12.55383,-2.67575 z m 80.71768,-1.373419 c 0.98788,-1.58185 0.84449,-1.981372 -0.91107,-2.538565 -2.52189,-0.800419 -5.19263,1.515036 -4.3326,3.756244 0.75377,1.96429 3.68101,1.28452 5.24367,-1.217679 z m -9.77151,-9.927676 c 0,-0.513373 -1.79499,-5.800873 -3.98888,-11.75 -2.19388,-5.949127 -3.99388,-11.148039 -4,-11.553137 -0.006,-0.405098 1.5651,-2.205098 3.49158,-4 2.12739,-1.982087 3.64728,-4.441384 3.87092,-6.263458 0.20252,-1.65 0.15638,-2.325 -0.10253,-1.5 -0.79504,2.533317 -4.51906,6 -6.4454,6 -1.49211,0 -1.82569,-0.807282 -1.82569,-4.418213 0,-5.412043 -0.76229,-7.581787 -2.66369,-7.581787 -1.2342,0 -1.21829,0.330407 0.10699,2.222506 0.85618,1.222379 1.5567,4.047251 1.5567,6.277494 0,9.407142 -8.56383,11.836441 -12.91768,3.664354 -1.89112,-3.549599 -2.40402,-1.870053 -0.68518,2.243704 1.10785,2.65147 2.28142,3.777654 4.37239,4.195847 2.47936,0.495874 3.61083,2.083835 8.53879,11.983856 4.97849,10.001514 5.99042,11.412239 8.18619,11.412239 1.37802,0 2.50549,-0.420032 2.50549,-0.933405 z M 199.77564,57.560426 c 0.77736,-2.044601 0.64841,-3.711574 -0.52475,-6.783433 -2.01837,-5.285027 -1.96315,-6.217221 0.44463,-7.505823 3.62996,-1.942693 7.75638,1.78568 8.22354,7.430268 0.27455,3.317302 1.19422,2.140664 2.69338,-3.445921 1.41607,-5.276957 0.42942,-8.927928 -3.07631,-11.383433 -2.60841,-1.827002 -9.12409,-2.095257 -13.53592,-0.557284 -5.67058,1.976776 -10.36793,16.95637 -5.31723,16.95637 1.23118,0 2.94831,1.522092 4.51254,4 2.94465,4.664626 5.13374,5.093538 6.58012,1.289256 z m -33.39303,8.906025 c -1.4779,-1.542595 -2.68709,-3.545235 -2.68709,-4.45031 0,-2.018601 2.6787,-3.641753 5.00575,-3.033218 1.03532,0.270744 2.53102,-0.578693 3.75188,-2.130762 2.1759,-2.7662 4.21993,-3.198553 7.30811,-1.545807 2.5006,1.338282 2.47056,3.607431 -0.0657,4.964816 -1.1,0.588702 -2,1.645344 -2,2.348093 -4e-5,1.742773 -5.25288,6.651907 -7.11767,6.651907 -0.8295,0 -2.71738,-1.262123 -4.19528,-2.804719 z m 7.78723,-4.145621 c 2.24311,-4.337695 1.87935,-4.762678 -1.39306,-1.627512 -1.60531,1.537981 -3.40531,2.495614 -4,2.128074 -1.17242,-0.724594 -1.50253,0.695175 -0.41459,1.783111 1.56475,1.564749 4.39256,0.4528 5.80765,-2.283673 z M 160.36219,37.604503 c -1.31529,-1.315288 -0.62916,-5.111301 1.3872,-7.674687 1.83319,-2.330528 2.7196,-2.603581 8.25,-2.541358 7.56386,0.0851 10.59737,2.195504 9.90794,6.892913 -0.3094,2.108103 -0.99514,2.989799 -2.32531,2.989799 -1.03757,0 -1.8865,-0.366505 -1.8865,-0.814456 0,-1.292048 -10.81698,-0.768562 -12.17474,0.589194 -1.38388,1.383885 -2.19063,1.526558 -3.15859,0.558595 z m 13.01051,-5.618768 c 1.93955,-1.082003 1.58732,-1.235452 -3.22722,-1.405935 -2.97242,-0.105254 -5.62603,0.167241 -5.89692,0.605543 -0.27088,0.438302 0.56612,0.594542 1.86001,0.3472 1.29388,-0.247342 2.65682,0.04266 3.02875,0.644457 0.84348,1.364787 1.49914,1.335179 4.23538,-0.191265 z m 42.32282,3.344452 c 0,-1.067541 0.45,-2.219098 1,-2.559017 0.55,-0.339919 1,-2.13195 1,-3.982292 0,-2.131837 0.91812,-4.455384 2.50629,-6.342811 1.38202,-1.642441 2.24859,-3.650083 1.93182,-4.475574 -0.858,-2.235932 0.94479,-2.819859 3.39892,-1.100917 1.56226,1.094249 2.16297,2.554608 2.16297,5.258298 0,2.058813 -0.4119,4.170796 -0.91532,4.693296 -0.50343,0.5225 -1.06593,2.059537 -1.25,3.415638 -0.19765,1.456112 -1.7259,3.400944 -3.73256,4.75 -4.15792,2.795322 -6.10212,2.904726 -6.10212,0.343379 z m 7,-6.359017 c 0,-1.265 0.5325,-2.8325 1.18333,-3.483333 0.65084,-0.650834 0.86834,-1.498334 0.48334,-1.883334 -1.06405,-1.064046 -2.3335,0.799016 -3.00943,4.416667 -0.34746,1.859649 -0.19013,3.25 0.36776,3.25 0.53625,0 0.975,-1.035 0.975,-2.3 z m -25,-4.010044 c 0,-2.510832 -2.0481,-3.64691 -6.62756,-3.676301 -2.91138,-0.01869 -3.98796,-1.683884 -4.72029,-7.301059 -0.56367,-4.3235748 -0.40751,-4.8699348 1.61185,-5.6392402 2.41841,-0.9213291 5.736,1.1240074 5.736,3.5363192 0,0.714834 1.4625,1.58066 3.25,1.924057 1.7875,0.343397 4.07625,1.737307 5.08611,3.097577 1.68123,2.264607 1.71193,2.785119 0.36394,6.170956 -1.75713,4.413515 -4.70005,5.595486 -4.70005,1.887691 z m 1.5,-6.689956 c -0.33992,-0.55 -1.85148,-1 -3.35902,-1 -1.50754,0 -3.28098,-0.54 -3.94098,-1.2 -0.93333,-0.933333 -1.2,-0.836302 -1.2,0.436642 0,1.097068 1.07147,1.769609 3.25,2.039962 1.7875,0.221827 3.83906,0.475339 4.55902,0.563359 0.71996,0.08802 1.0309,-0.289963 0.69098,-0.839963 z"
     id="path2978" />
</svg>
